<svg width="457" height="380" viewBox="0 0 457 380" fill="none" xmlns="http://www.w3.org/2000/svg">
<path d="M447.931 188.606C455.897 289.82 466.65 340.123 440.161 362.211C428.27 372.107 415.301 373.835 391.147 375.778C271.496 385.34 177.765 375.916 156.476 373.678C37.3158 361.131 27.3286 356.242 17.7534 345.502C-5.22318 319.703 -1.73059 271.933 5.23498 176.433C8.31553 134.219 13.162 111.934 30.0559 93.9297C48.1468 74.6293 71.712 65.9117 94.3354 65.1853C138.856 63.7323 226.701 67.4432 299.496 71.9787C292.55 51.5984 277.598 16.355 253.346 -0.000213623C253.346 -0.000213623 324.14 26.2899 366.208 76.7498C385.908 78.3794 401.37 79.4789 409.748 81.2068C433.117 86.0368 442.437 118.806 447.931 188.606Z" fill="#FDCE02"/>
<path d="M41.0717 62.2H79.9197V73.592H55.9197V78.776H66.6077C72.0691 78.776 76.2504 79.9493 79.1517 82.296C82.0957 84.6 83.5677 87.9493 83.5677 92.344C83.5677 96.9093 81.9037 100.493 78.5757 103.096C75.2477 105.699 70.6184 107 64.6877 107H41.0717V62.2ZM63.6637 96.44C65.1571 96.44 66.3091 96.12 67.1197 95.48C67.9731 94.84 68.3997 93.9227 68.3997 92.728C68.3997 90.424 66.8211 89.272 63.6637 89.272H55.9197V96.44H63.6637ZM113.463 108.024C108.642 108.024 104.311 107.021 100.471 105.016C96.6312 103.011 93.6232 100.237 91.4472 96.696C89.2712 93.112 88.1832 89.08 88.1832 84.6C88.1832 80.12 89.2712 76.1093 91.4472 72.568C93.6232 68.984 96.6312 66.1893 100.471 64.184C104.311 62.1787 108.642 61.176 113.463 61.176C118.285 61.176 122.615 62.1787 126.455 64.184C130.295 66.1893 133.303 68.984 135.479 72.568C137.655 76.1093 138.743 80.12 138.743 84.6C138.743 89.08 137.655 93.112 135.479 96.696C133.303 100.237 130.295 103.011 126.455 105.016C122.615 107.021 118.285 108.024 113.463 108.024ZM113.463 95.8C115.341 95.8 117.026 95.352 118.519 94.456C120.055 93.5173 121.271 92.216 122.167 90.552C123.063 88.8453 123.511 86.8613 123.511 84.6C123.511 82.3387 123.063 80.376 122.167 78.712C121.271 77.0053 120.055 75.704 118.519 74.808C117.026 73.8693 115.341 73.4 113.463 73.4C111.586 73.4 109.879 73.8693 108.343 74.808C106.85 75.704 105.655 77.0053 104.759 78.712C103.863 80.376 103.415 82.3387 103.415 84.6C103.415 86.8613 103.863 88.8453 104.759 90.552C105.655 92.216 106.85 93.5173 108.343 94.456C109.879 95.352 111.586 95.8 113.463 95.8ZM190.259 62.2V107H175.155V90.488H161.203V107H146.099V62.2H161.203V78.072H175.155V62.2H190.259ZM244.944 62.2L226.96 95.928C224.827 99.9387 222.203 102.989 219.088 105.08C216.016 107.171 212.624 108.216 208.912 108.216C206.054 108.216 203.152 107.619 200.208 106.424L203.728 95.544C205.606 96.056 207.142 96.312 208.336 96.312C209.446 96.312 210.384 96.12 211.152 95.736C211.963 95.352 212.731 94.712 213.456 93.816L196.304 62.2H212.24L221.136 81.08L230.352 62.2H244.944ZM271.842 108.024C267.106 108.024 262.84 107.043 259.042 105.08C255.245 103.075 252.258 100.301 250.082 96.76C247.949 93.176 246.882 89.1227 246.882 84.6C246.882 80.0773 247.949 76.0453 250.082 72.504C252.258 68.92 255.245 66.1467 259.042 64.184C262.84 62.1787 267.106 61.176 271.842 61.176C276.194 61.176 280.077 61.944 283.49 63.48C286.904 65.016 289.72 67.2347 291.938 70.136L282.402 78.648C279.629 75.1493 276.365 73.4 272.61 73.4C269.453 73.4 266.914 74.424 264.994 76.472C263.074 78.4773 262.114 81.1867 262.114 84.6C262.114 88.0133 263.074 90.744 264.994 92.792C266.914 94.7973 269.453 95.8 272.61 95.8C276.365 95.8 279.629 94.0507 282.402 90.552L291.938 99.064C289.72 101.965 286.904 104.184 283.49 105.72C280.077 107.256 276.194 108.024 271.842 108.024ZM353.129 80.568L352.169 88.632H359.913V98.232H350.953L349.865 107H339.625L340.713 98.232H334.377L333.289 107H323.049L324.137 98.232H316.393V88.632H325.353L326.313 80.568H318.569V70.968H327.529L328.617 62.2H338.857L337.769 70.968H344.105L345.193 62.2H355.433L354.345 70.968H362.089V80.568H353.129ZM342.889 80.568H336.553L335.593 88.632H341.929L342.889 80.568ZM402.552 95.288V107H366.648V97.72L382.84 82.744C384.248 81.4213 385.187 80.2907 385.656 79.352C386.126 78.4133 386.36 77.496 386.36 76.6C386.36 75.4907 385.976 74.6373 385.208 74.04C384.483 73.4 383.416 73.08 382.008 73.08C380.643 73.08 379.363 73.4427 378.168 74.168C376.974 74.8933 376.056 75.9173 375.416 77.24L364.024 71.544C365.731 68.344 368.227 65.8267 371.512 63.992C374.798 62.1147 378.766 61.176 383.416 61.176C386.958 61.176 390.094 61.752 392.824 62.904C395.555 64.056 397.688 65.6987 399.224 67.832C400.76 69.9653 401.528 72.4187 401.528 75.192C401.528 77.6667 400.995 79.992 399.928 82.168C398.904 84.3013 396.878 86.7333 393.848 89.464L387.448 95.288H402.552Z" fill="black"/>
<path d="M74.9037 160.494C75.7413 160.886 76.3386 161.412 76.6955 162.071C77.0548 162.717 77.1586 163.467 77.0071 164.321C76.7927 165.528 76.1797 166.388 75.1681 166.899C74.1566 167.41 72.804 167.515 71.1105 167.214L64.5727 166.054L67.0201 152.269L73.1837 153.363C74.7328 153.638 75.8858 154.161 76.6427 154.932C77.3996 155.703 77.6778 156.653 77.4774 157.782C77.3492 158.504 77.0612 159.096 76.6135 159.558C76.179 160.023 75.609 160.335 74.9037 160.494ZM68.4953 158.605L71.9217 159.213C72.7488 159.36 73.408 159.308 73.8995 159.056C74.391 158.805 74.6939 158.358 74.8081 157.714C74.9223 157.071 74.7919 156.547 74.417 156.142C74.0443 155.724 73.4445 155.441 72.6174 155.294L69.191 154.686L68.4953 158.605ZM71.3813 165.231C73.193 165.553 74.22 165.031 74.4624 163.666C74.7002 162.327 73.9132 161.496 72.1016 161.175L68.1631 160.475L67.4429 164.532L71.3813 165.231ZM84.3209 169.702C83.2313 169.508 82.294 169.105 81.5092 168.492C80.7243 167.878 80.1612 167.122 79.82 166.222C79.4811 165.308 79.4037 164.333 79.5879 163.296C79.772 162.259 80.1792 161.376 80.8094 160.649C81.4397 159.921 82.2223 159.403 83.1572 159.095C84.1052 158.789 85.1306 158.735 86.2333 158.93C87.2704 159.114 88.139 159.485 88.839 160.043C89.5521 160.603 90.0356 161.312 90.2896 162.169L88.2034 162.936C87.9877 162.397 87.671 161.968 87.2535 161.651C86.8514 161.322 86.3813 161.11 85.843 161.014C84.9241 160.851 84.109 161.018 83.3979 161.514C82.6892 161.998 82.2462 162.739 82.0691 163.736C81.8919 164.734 82.0451 165.587 82.5287 166.296C83.0277 166.994 83.7432 167.426 84.6753 167.591C85.2136 167.687 85.7268 167.656 86.2152 167.499C86.7189 167.331 87.1649 167.031 87.5531 166.599L89.2477 168.038C88.7009 168.753 87.9952 169.257 87.1306 169.551C86.2815 169.833 85.3449 169.884 84.3209 169.702ZM102.208 167.373C102.178 167.544 102.122 167.784 102.04 168.095L93.7886 166.63C93.7955 167.43 94.0601 168.113 94.5824 168.68C95.1202 169.236 95.842 169.594 96.7478 169.755C97.9031 169.96 98.9225 169.748 99.8059 169.12L100.856 170.87C100.283 171.351 99.6102 171.672 98.8369 171.832C98.0636 171.993 97.224 171.993 96.3181 171.832C95.1629 171.627 94.1862 171.216 93.3882 170.601C92.5902 169.985 92.0206 169.227 91.6794 168.327C91.3536 167.416 91.2828 166.442 91.4669 165.405C91.6487 164.381 92.0416 163.503 92.6456 162.77C93.2651 162.027 94.0291 161.499 94.9378 161.187C95.8464 160.874 96.8193 160.81 97.8564 160.994C98.8804 161.176 99.752 161.567 100.471 162.169C101.206 162.76 101.723 163.509 102.023 164.415C102.338 165.31 102.399 166.296 102.208 167.373ZM97.5068 162.963C96.7191 162.823 96.0076 162.941 95.3723 163.315C94.7525 163.679 94.3148 164.238 94.0591 164.992L100.026 166.051C100.056 165.271 99.8439 164.597 99.3895 164.029C98.9352 163.46 98.3076 163.105 97.5068 162.963ZM114.907 174.99L116.144 168.019L111.558 173.258L110.495 173.069L108.054 166.562L106.813 173.553L104.568 173.154L106.435 162.639L109.015 163.097L111.589 170.338L116.675 164.457L118.979 164.866L117.132 175.385L114.907 174.99ZM131.818 178.135C130.728 177.941 129.791 177.538 129.006 176.924C128.221 176.311 127.658 175.554 127.317 174.654C126.978 173.741 126.901 172.766 127.085 171.729C127.269 170.691 127.676 169.809 128.307 169.081C128.937 168.354 129.719 167.836 130.654 167.528C131.602 167.222 132.628 167.167 133.73 167.363C134.768 167.547 135.636 167.918 136.336 168.476C137.049 169.036 137.533 169.744 137.787 170.602L135.7 171.369C135.485 170.83 135.168 170.401 134.751 170.083C134.349 169.755 133.878 169.542 133.34 169.447C132.421 169.284 131.606 169.451 130.895 169.947C130.186 170.431 129.743 171.171 129.566 172.169C129.389 173.167 129.542 174.02 130.026 174.729C130.525 175.427 131.24 175.859 132.172 176.024C132.711 176.12 133.224 176.089 133.712 175.932C134.216 175.764 134.662 175.464 135.05 175.032L136.745 176.47C136.198 177.186 135.492 177.69 134.628 177.983C133.779 178.266 132.842 178.316 131.818 178.135ZM150.257 170.419L148.39 180.935L145.929 180.498L147.425 172.07L143.487 171.37L143.018 173.44C142.705 174.82 142.366 175.965 142.002 176.875C141.652 177.775 141.199 178.46 140.642 178.929C140.1 179.388 139.435 179.548 138.647 179.408C138.28 179.343 137.84 179.19 137.327 178.95L137.812 176.904C137.989 176.976 138.143 177.023 138.274 177.046C138.773 177.135 139.182 177.005 139.502 176.655C139.823 176.292 140.066 175.841 140.229 175.301C140.408 174.751 140.616 173.962 140.853 172.934L141.75 168.909L150.257 170.419ZM164.088 172.875L157.148 183.363C156.485 184.424 155.785 185.125 155.047 185.468C154.307 185.824 153.471 185.92 152.539 185.754C152.014 185.661 151.51 185.483 151.028 185.222C150.547 184.96 150.169 184.649 149.894 184.289L151.2 182.652C151.397 182.918 151.641 183.144 151.933 183.331C152.238 183.52 152.554 183.644 152.883 183.703C153.316 183.78 153.69 183.731 154.005 183.557C154.334 183.385 154.663 183.057 154.992 182.574L155.243 182.192L152.529 170.822L155.089 171.277L157.016 179.643L161.725 172.455L164.088 172.875ZM181.886 176.035L180.019 186.55L164.521 183.799L166.388 173.283L168.85 173.72L167.354 182.148L171.43 182.872L172.926 174.444L175.388 174.881L173.891 183.309L177.928 184.026L179.425 175.598L181.886 176.035ZM189.726 177.305C191.275 177.58 192.39 178.164 193.072 179.056C193.768 179.938 193.984 181.128 193.718 182.624L192.624 188.788L190.3 188.375L190.527 187.095C190.144 187.501 189.647 187.779 189.039 187.928C188.445 188.066 187.755 188.066 186.967 187.926C186.179 187.786 185.514 187.532 184.969 187.165C184.428 186.784 184.035 186.329 183.79 185.798C183.561 185.256 183.501 184.683 183.608 184.079C183.776 183.134 184.258 182.441 185.054 182C185.865 181.548 187.026 181.457 188.535 181.725L191.253 182.207L191.281 182.05C191.411 181.314 191.288 180.71 190.912 180.237C190.549 179.766 189.934 179.454 189.067 179.3C188.477 179.195 187.876 179.184 187.266 179.265C186.669 179.348 186.144 179.519 185.692 179.778L185.045 177.814C185.671 177.492 186.391 177.288 187.205 177.202C188.02 177.117 188.86 177.151 189.726 177.305ZM187.797 186.225C188.414 186.334 188.984 186.293 189.505 186.101C190.042 185.899 190.456 185.553 190.746 185.062L190.963 183.841L188.422 183.39C187.005 183.139 186.213 183.479 186.047 184.411C185.968 184.857 186.082 185.243 186.39 185.569C186.698 185.894 187.167 186.113 187.797 186.225ZM206.086 182.484L202.404 181.831L200.908 190.259L198.446 189.822L199.942 181.394L196.24 180.736L196.611 178.649L206.457 180.397L206.086 182.484ZM217.274 187.802C217.243 187.973 217.187 188.213 217.105 188.523L208.854 187.059C208.861 187.859 209.126 188.542 209.648 189.109C210.186 189.665 210.907 190.023 211.813 190.184C212.969 190.389 213.988 190.177 214.871 189.549L215.922 191.299C215.349 191.78 214.676 192.101 213.902 192.261C213.129 192.422 212.289 192.422 211.384 192.261C210.228 192.056 209.252 191.645 208.454 191.03C207.656 190.414 207.086 189.656 206.745 188.756C206.419 187.845 206.348 186.871 206.532 185.834C206.714 184.81 207.107 183.932 207.711 183.199C208.33 182.456 209.095 181.928 210.003 181.616C210.912 181.303 211.885 181.239 212.922 181.423C213.946 181.605 214.817 181.996 215.537 182.598C216.271 183.189 216.788 183.938 217.088 184.844C217.403 185.739 217.465 186.725 217.274 187.802ZM212.572 183.392C211.785 183.252 211.073 183.37 210.438 183.744C209.818 184.108 209.38 184.667 209.125 185.421L215.091 186.48C215.121 185.7 214.909 185.026 214.455 184.458C214.001 183.889 213.373 183.534 212.572 183.392ZM230.897 184.736L229.03 195.252L226.569 194.815L228.065 186.386L224.127 185.687L223.657 187.757C223.345 189.137 223.006 190.282 222.641 191.192C222.292 192.092 221.839 192.776 221.281 193.246C220.739 193.705 220.075 193.865 219.287 193.725C218.919 193.66 218.479 193.507 217.967 193.267L218.452 191.22C218.629 191.292 218.783 191.34 218.914 191.363C219.413 191.452 219.822 191.322 220.141 190.972C220.463 190.609 220.706 190.158 220.869 189.618C221.048 189.068 221.256 188.279 221.493 187.251L222.39 183.226L230.897 184.736ZM243.684 187.006L241.817 197.522L239.612 197.13L240.174 193.96L237.398 193.467L234.689 196.256L232.05 195.788L235.153 192.723C234.438 192.325 233.925 191.821 233.614 191.211C233.318 190.589 233.241 189.878 233.383 189.078C233.598 187.87 234.19 187.013 235.16 186.509C236.13 186.004 237.363 185.884 238.859 186.15L243.684 187.006ZM238.571 188.231C236.983 187.949 236.082 188.406 235.87 189.6C235.66 190.782 236.324 191.509 237.86 191.782L240.479 192.247L241.111 188.682L238.571 188.231ZM256.057 200.05L257.295 193.079L252.708 198.318L251.645 198.129L249.205 191.623L247.964 198.613L245.719 198.215L247.586 187.699L250.165 188.157L252.739 195.398L257.826 189.517L260.13 189.926L258.282 200.445L256.057 200.05ZM278.546 204.043L279.784 197.072L275.197 202.311L274.134 202.122L271.694 195.615L270.453 202.606L268.208 202.207L270.075 191.692L272.654 192.15L275.228 199.391L280.315 193.51L282.619 193.919L280.771 204.438L278.546 204.043ZM291.035 198.988C292.374 199.226 293.345 199.71 293.946 200.439C294.548 201.169 294.751 202.085 294.555 203.188C294.35 204.344 293.798 205.166 292.898 205.657C292.012 206.149 290.854 206.262 289.426 205.995L284.664 205.129L286.531 194.613L288.992 195.05L288.38 198.497L291.035 198.988ZM297.145 196.498L299.606 196.935L297.739 207.45L295.278 207.013L297.145 196.498ZM289.531 204.145C290.25 204.286 290.829 204.233 291.265 203.985C291.702 203.738 291.974 203.312 292.081 202.708C292.186 202.118 292.079 201.652 291.76 201.311C291.442 200.97 290.909 200.726 290.164 200.58L288.08 200.19L287.447 203.754L289.531 204.145ZM64.7442 190.602C63.6808 190.413 62.7633 190.013 61.9915 189.402C61.2198 188.791 60.6633 188.035 60.322 187.135C59.9963 186.224 59.9255 185.25 60.1096 184.213C60.2937 183.176 60.6943 182.292 61.3115 181.562C61.9417 180.835 62.7243 180.317 63.6592 180.009C64.5941 179.701 65.5932 179.641 66.6566 179.83C67.7331 180.021 68.6572 180.422 69.429 181.033C70.2007 181.644 70.7506 182.399 71.0787 183.296C71.42 184.197 71.4985 185.165 71.3144 186.202C71.1302 187.239 70.7219 188.128 70.0893 188.869C69.4722 189.599 68.6962 190.118 67.7613 190.426C66.8264 190.734 65.8207 190.793 64.7442 190.602ZM65.1183 188.494C66.0241 188.655 66.826 188.486 67.524 187.987C68.222 187.488 68.6584 186.746 68.8332 185.762C69.008 184.777 68.8536 183.93 68.3701 183.222C67.8865 182.513 67.1918 182.078 66.286 181.917C65.3802 181.756 64.5783 181.926 63.8803 182.425C63.1954 182.926 62.7656 183.669 62.5908 184.653C62.416 185.638 62.5638 186.484 63.0342 187.19C63.5177 187.899 64.2124 188.334 65.1183 188.494ZM82.8448 184.979L79.1624 184.325L77.666 192.753L75.2045 192.316L76.7009 183.888L72.9988 183.231L73.3694 181.144L83.2154 182.892L82.8448 184.979ZM95.674 185.104L93.807 195.619L91.3652 195.186L92.8616 186.757L87.6826 185.838L86.1862 194.266L83.7247 193.829L85.5917 183.314L95.674 185.104ZM105.436 186.715C106.46 186.897 107.333 187.282 108.054 187.87C108.789 188.461 109.314 189.204 109.629 190.1C109.944 190.996 110.007 191.975 109.818 193.038C109.629 194.102 109.232 195.006 108.625 195.752C108.021 196.484 107.273 197.001 106.38 197.303C105.5 197.607 104.548 197.668 103.524 197.486C102.106 197.235 101.067 196.563 100.408 195.471L99.5024 200.571L97.0409 200.134L99.5861 185.798L101.929 186.214L101.685 187.593C102.18 187.166 102.746 186.881 103.381 186.736C104.029 186.594 104.714 186.587 105.436 186.715ZM103.622 195.33C104.528 195.491 105.323 195.321 106.008 194.82C106.706 194.321 107.142 193.579 107.317 192.594C107.492 191.61 107.338 190.763 106.854 190.054C106.384 189.348 105.695 188.914 104.79 188.753C104.199 188.648 103.643 188.692 103.121 188.884C102.602 189.062 102.16 189.377 101.796 189.827C101.432 190.276 101.191 190.83 101.075 191.486C100.958 192.142 100.993 192.745 101.181 193.292C101.368 193.84 101.673 194.294 102.097 194.653C102.523 195 103.031 195.226 103.622 195.33ZM117.597 188.874C119.146 189.149 120.261 189.733 120.942 190.626C121.639 191.508 121.854 192.697 121.589 194.194L120.494 200.357L118.171 199.945L118.398 198.665C118.014 199.071 117.518 199.348 116.91 199.497C116.316 199.636 115.626 199.635 114.838 199.495C114.05 199.355 113.384 199.102 112.84 198.734C112.298 198.354 111.905 197.898 111.661 197.367C111.432 196.825 111.371 196.253 111.479 195.649C111.646 194.704 112.128 194.01 112.924 193.57C113.736 193.118 114.896 193.026 116.406 193.294L119.124 193.776L119.152 193.619C119.282 192.884 119.159 192.28 118.783 191.806C118.419 191.336 117.805 191.023 116.938 190.87C116.347 190.765 115.747 190.753 115.137 190.834C114.539 190.918 114.015 191.089 113.563 191.347L112.916 189.384C113.542 189.061 114.262 188.857 115.076 188.772C115.89 188.686 116.731 188.72 117.597 188.874ZM115.668 197.794C116.285 197.904 116.854 197.863 117.376 197.671C117.913 197.468 118.327 197.122 118.617 196.632L118.834 195.411L116.293 194.96C114.875 194.708 114.084 195.048 113.918 195.98C113.839 196.427 113.953 196.813 114.261 197.138C114.569 197.464 115.038 197.682 115.668 197.794ZM132.724 196.882C133.954 197.506 134.454 198.462 134.226 199.748C134.058 200.694 133.574 201.359 132.774 201.745C131.975 202.131 130.879 202.201 129.487 201.954L124.131 201.003L125.998 190.487L131.138 191.4C132.424 191.628 133.387 192.043 134.025 192.644C134.663 193.245 134.905 193.978 134.751 194.845C134.656 195.383 134.428 195.823 134.07 196.166C133.724 196.511 133.275 196.749 132.724 196.882ZM127.562 195.295L130.141 195.753C131.415 195.979 132.13 195.652 132.286 194.773C132.437 193.919 131.876 193.38 130.603 193.153L128.023 192.695L127.562 195.295ZM129.609 200.127C130.961 200.367 131.715 200.047 131.871 199.168C131.953 198.708 131.856 198.339 131.58 198.06C131.307 197.768 130.836 197.562 130.166 197.443L127.272 196.929L126.793 199.627L129.609 200.127ZM148.312 194.449L146.445 204.965L143.983 204.528L145.48 196.099L141.541 195.4L141.072 197.47C140.76 198.85 140.421 199.995 140.056 200.905C139.707 201.805 139.254 202.489 138.696 202.959C138.154 203.418 137.49 203.578 136.702 203.438C136.334 203.373 135.894 203.22 135.382 202.98L135.867 200.933C136.044 201.005 136.198 201.053 136.329 201.076C136.828 201.165 137.237 201.034 137.556 200.685C137.878 200.322 138.121 199.871 138.284 199.331C138.463 198.781 138.671 197.992 138.908 196.964L139.805 192.939L148.312 194.449ZM161.099 196.719L159.232 207.235L157.026 206.843L157.589 203.673L154.813 203.18L152.103 205.969L149.465 205.501L152.568 202.436C151.853 202.038 151.34 201.534 151.029 200.924C150.733 200.302 150.656 199.591 150.798 198.791C151.013 197.583 151.605 196.726 152.575 196.222C153.544 195.717 154.778 195.597 156.274 195.863L161.099 196.719ZM155.986 197.944C154.397 197.662 153.497 198.119 153.285 199.313C153.075 200.495 153.738 201.222 155.274 201.495L157.893 201.96L158.526 198.395L155.986 197.944ZM173.903 204.477C173.872 204.648 173.816 204.888 173.734 205.199L165.483 203.734C165.49 204.534 165.754 205.217 166.277 205.784C166.815 206.34 167.536 206.698 168.442 206.859C169.597 207.064 170.617 206.853 171.5 206.224L172.55 207.974C171.978 208.455 171.305 208.776 170.531 208.936C169.758 209.097 168.918 209.097 168.013 208.936C166.857 208.731 165.881 208.321 165.083 207.705C164.285 207.089 163.715 206.331 163.374 205.431C163.048 204.52 162.977 203.546 163.161 202.509C163.343 201.485 163.736 200.607 164.34 199.874C164.959 199.131 165.723 198.603 166.632 198.291C167.541 197.978 168.514 197.914 169.551 198.098C170.575 198.28 171.446 198.672 172.166 199.273C172.9 199.864 173.417 200.613 173.717 201.519C174.032 202.414 174.094 203.4 173.903 204.477ZM169.201 200.067C168.413 199.927 167.702 200.045 167.067 200.42C166.447 200.783 166.009 201.342 165.753 202.096L171.72 203.155C171.75 202.375 171.538 201.701 171.084 201.133C170.63 200.565 170.002 200.209 169.201 200.067ZM186.601 212.094L187.839 205.123L183.252 210.362L182.189 210.173L179.749 203.666L178.508 210.657L176.263 210.259L178.13 199.743L180.709 200.201L183.283 207.442L188.37 201.561L190.674 201.97L188.826 212.489L186.601 212.094ZM209.539 205.32L207.672 215.835L205.211 215.398L205.934 211.322C204.837 211.628 203.737 211.683 202.635 211.488C201.282 211.247 200.3 210.755 199.688 210.01C199.077 209.251 198.887 208.229 199.115 206.942L199.713 203.575L202.174 204.012L201.604 207.222C201.486 207.891 201.594 208.425 201.929 208.823C202.265 209.221 202.794 209.485 203.516 209.613C204.435 209.776 205.349 209.735 206.26 209.49L207.078 204.882L209.539 205.32ZM222.342 213.077C222.312 213.248 222.255 213.488 222.173 213.799L213.922 212.334C213.929 213.134 214.194 213.817 214.716 214.384C215.254 214.94 215.976 215.298 216.882 215.459C218.037 215.664 219.056 215.453 219.94 214.824L220.99 216.575C220.417 217.055 219.744 217.376 218.971 217.536C218.197 217.697 217.358 217.697 216.452 217.536C215.297 217.331 214.32 216.921 213.522 216.305C212.724 215.689 212.154 214.931 211.813 214.031C211.487 213.12 211.417 212.146 211.601 211.109C211.782 210.085 212.175 209.207 212.779 208.475C213.399 207.731 214.163 207.203 215.071 206.891C215.98 206.578 216.953 206.514 217.99 206.698C219.014 206.88 219.886 207.272 220.605 207.873C221.34 208.464 221.857 209.213 222.156 210.119C222.471 211.015 222.533 212.001 222.342 213.077ZM217.641 208.667C216.853 208.527 216.141 208.645 215.506 209.02C214.886 209.383 214.448 209.942 214.193 210.696L220.16 211.755C220.19 210.975 219.978 210.301 219.523 209.733C219.069 209.165 218.441 208.809 217.641 208.667ZM229.822 215.421L227.912 215.082L227.164 219.296L224.702 218.859L226.569 208.343L229.031 208.78L228.275 213.034L230.245 213.383L234.111 209.682L236.75 210.151L232.031 214.533L235.139 220.712L232.244 220.198L229.822 215.421ZM237.548 214.436L242.964 215.398L242.6 217.446L237.185 216.484L237.548 214.436ZM256.397 213.639L254.53 224.154L252.068 223.717L253.565 215.289L249.626 214.59L249.157 216.66C248.844 218.04 248.506 219.185 248.141 220.095C247.792 220.994 247.338 221.679 246.781 222.149C246.239 222.608 245.574 222.767 244.787 222.628C244.419 222.562 243.979 222.41 243.466 222.17L243.952 220.123C244.128 220.195 244.282 220.243 244.414 220.266C244.913 220.355 245.322 220.224 245.641 219.875C245.963 219.512 246.205 219.061 246.369 218.521C246.548 217.97 246.756 217.181 246.992 216.153L247.89 212.128L256.397 213.639ZM260.302 214.332L262.764 214.769L261.533 221.701L268.573 215.801L270.818 216.199L268.951 226.715L266.49 226.278L267.72 219.346L260.7 225.25L258.436 224.848L260.302 214.332ZM277.614 228.395C276.524 228.201 275.587 227.798 274.802 227.185C274.017 226.571 273.454 225.815 273.113 224.914C272.774 224.001 272.697 223.026 272.881 221.989C273.065 220.952 273.472 220.069 274.102 219.342C274.732 218.614 275.515 218.096 276.45 217.788C277.398 217.482 278.423 217.427 279.526 217.623C280.563 217.807 281.432 218.178 282.132 218.736C282.845 219.296 283.328 220.005 283.582 220.862L281.496 221.629C281.28 221.09 280.964 220.661 280.546 220.344C280.144 220.015 279.674 219.803 279.136 219.707C278.217 219.544 277.402 219.711 276.691 220.207C275.982 220.691 275.539 221.432 275.362 222.429C275.185 223.427 275.338 224.28 275.821 224.989C276.32 225.687 277.036 226.119 277.968 226.284C278.506 226.38 279.02 226.349 279.508 226.192C280.012 226.024 280.458 225.724 280.846 225.292L282.54 226.73C281.994 227.446 281.288 227.95 280.423 228.244C279.574 228.526 278.638 228.577 277.614 228.395ZM294.616 222.577L290.933 221.924L289.437 230.352L286.976 229.915L288.472 221.487L284.77 220.829L285.14 218.742L294.986 220.49L294.616 222.577ZM301.867 225.287C303.206 225.524 304.177 226.008 304.778 226.738C305.38 227.468 305.583 228.384 305.387 229.487C305.182 230.642 304.63 231.465 303.73 231.955C302.844 232.448 301.686 232.56 300.258 232.293L295.496 231.427L297.363 220.912L299.824 221.349L299.212 224.795L301.867 225.287ZM307.977 222.796L310.438 223.233L308.571 233.749L306.11 233.312L307.977 222.796ZM300.363 230.443C301.082 230.584 301.661 230.531 302.097 230.284C302.534 230.036 302.806 229.611 302.913 229.007C303.018 228.416 302.911 227.95 302.593 227.609C302.274 227.268 301.742 227.025 300.996 226.879L298.912 226.489L298.279 230.053L300.363 230.443ZM313.795 231.447C314.254 231.528 314.608 231.747 314.857 232.102C315.105 232.458 315.186 232.878 315.1 233.364C315.062 233.574 314.99 233.792 314.882 234.016C314.79 234.23 314.611 234.55 314.346 234.977L312.849 237.576L311.254 237.292L312.576 234.419C312.309 234.25 312.111 234.025 311.985 233.746C311.874 233.455 311.849 233.139 311.91 232.798C311.996 232.312 312.217 231.945 312.572 231.697C312.928 231.448 313.335 231.365 313.795 231.447ZM328.663 237.458C327.573 237.265 326.636 236.861 325.851 236.248C325.066 235.635 324.503 234.878 324.162 233.978C323.823 233.065 323.746 232.089 323.93 231.052C324.114 230.015 324.521 229.133 325.152 228.405C325.782 227.677 326.564 227.159 327.499 226.851C328.447 226.546 329.473 226.491 330.575 226.687C331.613 226.871 332.481 227.242 333.181 227.799C333.894 228.359 334.378 229.068 334.632 229.926L332.545 230.693C332.33 230.153 332.013 229.725 331.596 229.407C331.194 229.078 330.723 228.866 330.185 228.771C329.266 228.607 328.451 228.774 327.74 229.271C327.031 229.754 326.588 230.495 326.411 231.493C326.234 232.49 326.387 233.344 326.871 234.053C327.37 234.75 328.085 235.182 329.017 235.348C329.556 235.443 330.069 235.413 330.557 235.255C331.061 235.088 331.507 234.788 331.895 234.355L333.59 235.794C333.043 236.509 332.337 237.014 331.473 237.307C330.624 237.59 329.687 237.64 328.663 237.458ZM347.885 229.882L346.018 240.397L343.576 239.964L345.072 231.535L339.893 230.616L338.397 239.044L335.935 238.607L337.802 228.092L347.885 229.882ZM351.797 230.576L354.258 231.013L353.027 237.945L360.067 232.045L362.312 232.443L360.445 242.959L357.984 242.522L359.214 235.59L352.194 241.494L349.93 241.092L351.797 230.576ZM369.108 244.639C368.018 244.445 367.081 244.042 366.296 243.429C365.511 242.815 364.948 242.059 364.607 241.159C364.268 240.245 364.191 239.27 364.375 238.233C364.559 237.196 364.966 236.313 365.596 235.586C366.227 234.858 367.009 234.34 367.944 234.032C368.892 233.727 369.918 233.672 371.02 233.867C372.057 234.051 372.926 234.422 373.626 234.98C374.339 235.54 374.823 236.249 375.077 237.106L372.99 237.873C372.775 237.334 372.458 236.905 372.04 236.588C371.638 236.259 371.168 236.047 370.63 235.951C369.711 235.788 368.896 235.955 368.185 236.452C367.476 236.935 367.033 237.676 366.856 238.673C366.679 239.671 366.832 240.524 367.316 241.233C367.815 241.931 368.53 242.363 369.462 242.528C370.001 242.624 370.514 242.593 371.002 242.436C371.506 242.268 371.952 241.968 372.34 241.536L374.035 242.975C373.488 243.69 372.782 244.194 371.918 244.488C371.068 244.77 370.132 244.821 369.108 244.639ZM381.5 242.35L379.59 242.011L378.842 246.225L376.38 245.788L378.247 235.272L380.709 235.709L379.953 239.963L381.923 240.312L385.789 236.611L388.428 237.08L383.709 241.462L386.817 247.641L383.922 247.127L381.5 242.35ZM391.011 237.538L393.472 237.975L392.242 244.907L399.281 239.007L401.526 239.405L399.659 249.921L397.198 249.484L398.428 242.552L391.408 248.456L389.144 248.054L391.011 237.538ZM67.2845 204.439L65.4175 214.954L62.956 214.517L64.4524 206.089L60.5139 205.39L60.0449 207.46C59.7322 208.84 59.3935 209.985 59.0287 210.895C58.6794 211.794 58.2261 212.479 57.6688 212.949C57.1268 213.408 56.462 213.567 55.6744 213.427C55.3068 213.362 54.8667 213.21 54.3541 212.97L54.8393 210.923C55.0161 210.995 55.1702 211.043 55.3014 211.066C55.8003 211.155 56.2094 211.024 56.5288 210.674C56.8505 210.312 57.0931 209.861 57.2566 209.321C57.4356 208.77 57.6434 207.981 57.88 206.953L58.7775 202.928L67.2845 204.439ZM71.1902 205.132L73.6518 205.569L72.4211 212.501L79.4609 206.6L81.7058 206.999L79.8388 217.515L77.3773 217.078L78.608 210.146L71.5879 216.05L69.3233 215.648L71.1902 205.132ZM93.5669 211.258L89.8845 210.604L88.3881 219.032L85.9266 218.595L87.423 210.167L83.7209 209.51L84.0915 207.423L93.9375 209.171L93.5669 211.258ZM104.754 216.576C104.724 216.746 104.668 216.987 104.586 217.297L96.3346 215.832C96.3415 216.632 96.6061 217.316 97.1284 217.883C97.6662 218.439 98.388 218.797 99.2938 218.958C100.449 219.163 101.468 218.951 102.352 218.323L103.402 220.073C102.829 220.554 102.156 220.874 101.383 221.035C100.61 221.195 99.77 221.195 98.8641 221.035C97.7089 220.829 96.7322 220.419 95.9342 219.803C95.1362 219.188 94.5666 218.43 94.2254 217.53C93.8996 216.619 93.8288 215.645 94.0129 214.608C94.1947 213.584 94.5876 212.705 95.1916 211.973C95.8111 211.23 96.5751 210.702 97.4837 210.389C98.3924 210.077 99.3653 210.012 100.402 210.197C101.426 210.378 102.298 210.77 103.017 211.372C103.752 211.963 104.269 212.711 104.569 213.618C104.883 214.513 104.945 215.499 104.754 216.576ZM100.053 212.166C99.2651 212.026 98.5536 212.143 97.9183 212.518C97.2985 212.882 96.8607 213.441 96.6051 214.194L102.572 215.254C102.602 214.474 102.39 213.799 101.935 213.231C101.481 212.663 100.854 212.308 100.053 212.166ZM114.831 212.758C115.855 212.94 116.728 213.325 117.449 213.914C118.184 214.505 118.709 215.248 119.024 216.143C119.339 217.039 119.402 218.018 119.213 219.082C119.024 220.145 118.627 221.049 118.021 221.795C117.417 222.527 116.668 223.044 115.775 223.346C114.895 223.65 113.943 223.712 112.919 223.53C111.501 223.278 110.462 222.606 109.803 221.514L108.898 226.614L106.436 226.177L108.981 211.842L111.325 212.258L111.08 213.636C111.575 213.209 112.141 212.924 112.776 212.779C113.424 212.637 114.109 212.63 114.831 212.758ZM113.017 221.374C113.923 221.535 114.718 221.364 115.403 220.863C116.101 220.364 116.538 219.622 116.712 218.638C116.887 217.653 116.733 216.806 116.249 216.098C115.779 215.391 115.091 214.958 114.185 214.797C113.594 214.692 113.038 214.735 112.516 214.927C111.997 215.106 111.555 215.42 111.191 215.87C110.827 216.32 110.586 216.873 110.47 217.529C110.353 218.186 110.389 218.788 110.576 219.336C110.763 219.884 111.068 220.337 111.492 220.697C111.918 221.043 112.426 221.269 113.017 221.374ZM126.992 214.917C128.541 215.192 129.657 215.776 130.338 216.669C131.034 217.551 131.25 218.74 130.984 220.237L129.89 226.401L127.566 225.988L127.793 224.708C127.41 225.114 126.913 225.392 126.305 225.541C125.711 225.679 125.021 225.678 124.233 225.539C123.445 225.399 122.78 225.145 122.235 224.778C121.694 224.397 121.301 223.941 121.056 223.411C120.827 222.869 120.767 222.296 120.874 221.692C121.042 220.747 121.524 220.054 122.32 219.613C123.131 219.161 124.292 219.069 125.801 219.337L128.519 219.82L128.547 219.662C128.677 218.927 128.554 218.323 128.178 217.85C127.815 217.379 127.2 217.067 126.333 216.913C125.743 216.808 125.142 216.796 124.532 216.877C123.935 216.961 123.41 217.132 122.958 217.39L122.311 215.427C122.937 215.105 123.657 214.901 124.471 214.815C125.286 214.73 126.126 214.764 126.992 214.917ZM125.063 223.838C125.68 223.947 126.25 223.906 126.771 223.714C127.308 223.512 127.722 223.165 128.012 222.675L128.229 221.454L125.688 221.003C124.271 220.751 123.479 221.092 123.313 222.024C123.234 222.47 123.348 222.856 123.656 223.182C123.964 223.507 124.433 223.726 125.063 223.838ZM143.352 220.097L139.67 219.443L138.174 227.871L135.712 227.434L137.208 219.006L133.506 218.349L133.877 216.262L143.723 218.01L143.352 220.097ZM156.101 220.207L149.161 230.696C148.498 231.756 147.798 232.458 147.06 232.801C146.32 233.157 145.484 233.252 144.552 233.087C144.027 232.993 143.523 232.816 143.041 232.555C142.56 232.293 142.182 231.982 141.907 231.622L143.213 229.985C143.41 230.25 143.654 230.476 143.946 230.664C144.251 230.853 144.567 230.977 144.896 231.035C145.329 231.112 145.703 231.064 146.018 230.889C146.347 230.717 146.676 230.39 147.005 229.907L147.256 229.525L144.542 218.155L147.102 218.61L149.029 226.975L153.738 219.788L156.101 220.207ZM164.251 221.532C165.275 221.714 166.148 222.099 166.87 222.688C167.604 223.279 168.129 224.022 168.444 224.918C168.759 225.813 168.822 226.792 168.633 227.856C168.445 228.919 168.047 229.824 167.441 230.569C166.837 231.301 166.088 231.819 165.195 232.12C164.315 232.425 163.363 232.486 162.339 232.304C160.921 232.052 159.882 231.38 159.223 230.288L158.318 235.389L155.856 234.952L158.401 220.616L160.745 221.032L160.5 222.41C160.996 221.984 161.561 221.698 162.196 221.553C162.844 221.411 163.529 221.404 164.251 221.532ZM162.437 230.148C163.343 230.309 164.138 230.139 164.823 229.637C165.521 229.138 165.958 228.396 166.132 227.412C166.307 226.427 166.153 225.581 165.669 224.872C165.199 224.165 164.511 223.732 163.605 223.571C163.014 223.466 162.458 223.509 161.936 223.701C161.417 223.88 160.976 224.194 160.611 224.644C160.247 225.094 160.007 225.647 159.89 226.304C159.774 226.96 159.809 227.562 159.996 228.11C160.183 228.658 160.488 229.111 160.912 229.471C161.338 229.817 161.846 230.043 162.437 230.148ZM177.112 227.513C178.451 227.75 179.421 228.234 180.023 228.964C180.625 229.694 180.828 230.61 180.632 231.713C180.427 232.868 179.875 233.691 178.975 234.181C178.089 234.674 176.931 234.786 175.502 234.519L170.74 233.653L172.607 223.138L175.069 223.575L174.457 227.021L177.112 227.513ZM183.221 225.022L185.683 225.459L183.816 235.975L181.354 235.538L183.221 225.022ZM175.607 232.669C176.327 232.81 176.905 232.757 177.342 232.51C177.779 232.262 178.051 231.837 178.158 231.233C178.263 230.642 178.156 230.176 177.837 229.835C177.519 229.494 176.986 229.251 176.24 229.105L174.156 228.715L173.524 232.279L175.607 232.669ZM195.616 227.223L198.077 227.66L196.846 234.591L203.886 228.691L206.131 229.09L204.264 239.605L201.803 239.168L203.033 232.237L196.013 238.14L193.749 237.738L195.616 227.223ZM229.039 238.56C228.75 240.188 227.978 241.371 226.722 242.11C225.48 242.851 223.844 243.109 221.812 242.883L221.161 246.546L218.838 246.133L219.484 242.49C217.499 242.003 216.051 241.197 215.14 240.074C214.229 238.951 213.919 237.568 214.211 235.927C214.5 234.3 215.263 233.128 216.5 232.414C217.74 231.686 219.375 231.434 221.407 231.66L222.11 227.702L224.434 228.114L223.731 232.072C225.716 232.56 227.166 233.359 228.079 234.469C229.005 235.582 229.325 236.945 229.039 238.56ZM216.633 236.357C216.453 237.368 216.622 238.211 217.139 238.885C217.669 239.561 218.573 240.074 219.852 240.423L221.037 233.747C219.718 233.621 218.695 233.778 217.967 234.218C217.252 234.66 216.807 235.373 216.633 236.357ZM222.175 240.835C224.79 241.056 226.277 240.155 226.636 238.133C226.813 237.136 226.628 236.311 226.08 235.658C225.548 234.995 224.641 234.495 223.36 234.16L222.175 240.835ZM232.945 233.85L235.407 234.287L234.176 241.219L241.216 235.319L243.461 235.717L241.594 246.233L239.132 245.796L240.363 238.864L233.343 244.768L231.078 244.366L232.945 233.85ZM256.893 238.102L255.027 248.618L252.565 248.181L254.061 239.753L250.123 239.053L249.654 241.123C249.341 242.503 249.003 243.648 248.638 244.558C248.288 245.458 247.835 246.143 247.278 246.612C246.736 247.071 246.071 247.231 245.283 247.091C244.916 247.026 244.476 246.873 243.963 246.633L244.448 244.587C244.625 244.659 244.779 244.706 244.91 244.73C245.409 244.818 245.818 244.688 246.138 244.338C246.459 243.975 246.702 243.524 246.866 242.984C247.045 242.434 247.252 241.645 247.489 240.617L248.387 236.592L256.893 238.102ZM265.461 243.198C266.801 243.436 267.771 243.92 268.373 244.65C268.987 245.382 269.197 246.299 269.001 247.402C268.796 248.557 268.244 249.38 267.344 249.87C266.445 250.361 265.28 250.472 263.852 250.205L258.932 249.311L260.799 238.796L263.261 239.233L262.649 242.679L265.461 243.198ZM263.957 248.355C264.677 248.496 265.255 248.443 265.691 248.196C266.128 247.948 266.4 247.522 266.507 246.919C266.612 246.328 266.505 245.862 266.187 245.521C265.868 245.18 265.336 244.937 264.59 244.791L262.348 244.372L261.715 247.937L263.957 248.355ZM281.457 253.31L282.695 246.339L278.109 251.578L277.045 251.39L274.605 244.883L273.364 251.873L271.119 251.475L272.986 240.959L275.566 241.417L278.139 248.659L283.226 242.777L285.53 243.186L283.683 253.705L281.457 253.31ZM292.237 255.366C291.174 255.178 290.256 254.778 289.485 254.167C288.713 253.556 288.156 252.8 287.815 251.9C287.489 250.989 287.419 250.015 287.603 248.978C287.787 247.941 288.187 247.057 288.805 246.327C289.435 245.6 290.217 245.082 291.152 244.774C292.087 244.466 293.086 244.406 294.15 244.595C295.226 244.786 296.15 245.187 296.922 245.798C297.694 246.409 298.244 247.163 298.572 248.061C298.913 248.961 298.992 249.93 298.807 250.967C298.623 252.004 298.215 252.893 297.582 253.634C296.965 254.364 296.189 254.883 295.254 255.191C294.319 255.499 293.314 255.558 292.237 255.366ZM292.611 253.259C293.517 253.42 294.319 253.251 295.017 252.752C295.715 252.253 296.151 251.511 296.326 250.527C296.501 249.542 296.347 248.695 295.863 247.987C295.38 247.278 294.685 246.843 293.779 246.682C292.873 246.521 292.071 246.691 291.373 247.19C290.689 247.691 290.259 248.434 290.084 249.418C289.909 250.403 290.057 251.249 290.527 251.955C291.011 252.664 291.706 253.099 292.611 253.259ZM309.489 252.64C310.719 253.265 311.22 254.22 310.991 255.507C310.823 256.452 310.34 257.118 309.54 257.504C308.74 257.89 307.644 257.96 306.253 257.713L300.896 256.762L302.763 246.246L307.903 247.159C309.19 247.387 310.152 247.802 310.79 248.402C311.428 249.003 311.67 249.737 311.516 250.603C311.421 251.142 311.194 251.582 310.835 251.924C310.489 252.269 310.041 252.508 309.489 252.64ZM304.327 251.053L306.907 251.511C308.18 251.738 308.895 251.411 309.051 250.531C309.203 249.678 308.642 249.138 307.368 248.912L304.789 248.454L304.327 251.053ZM306.374 255.886C307.726 256.126 308.48 255.806 308.636 254.926C308.718 254.467 308.621 254.098 308.346 253.818C308.072 253.526 307.601 253.321 306.932 253.202L304.037 252.688L303.558 255.386L306.374 255.886ZM315.003 256.036C315.463 256.118 315.817 256.337 316.065 256.692C316.313 257.048 316.394 257.468 316.308 257.954C316.271 258.164 316.198 258.381 316.091 258.606C315.999 258.82 315.82 259.14 315.554 259.567L314.057 262.165L312.462 261.882L313.785 259.009C313.517 258.84 313.32 258.615 313.193 258.335C313.083 258.045 313.057 257.729 313.118 257.388C313.204 256.902 313.425 256.535 313.781 256.287C314.136 256.038 314.544 255.955 315.003 256.036ZM336.706 260.966L335.919 265.397L333.615 264.988L334.031 262.644L325.918 261.204L325.502 263.547L323.218 263.142L324.004 258.711L324.497 258.799C325.171 258.891 325.7 258.545 326.083 257.76C326.481 256.964 326.855 255.811 327.204 254.303L327.982 250.723L336.646 252.262L335.15 260.69L336.706 260.966ZM329.418 254.878C329.151 256.077 328.878 257.044 328.598 257.78C328.318 258.516 327.956 259.033 327.51 259.333L332.689 260.253L333.814 253.912L329.777 253.195L329.418 254.878ZM343.787 264.519C342.723 264.33 341.806 263.93 341.034 263.319C340.262 262.708 339.706 261.952 339.364 261.052C339.039 260.141 338.968 259.167 339.152 258.13C339.336 257.093 339.737 256.209 340.354 255.479C340.984 254.752 341.767 254.234 342.702 253.926C343.636 253.618 344.636 253.558 345.699 253.747C346.775 253.938 347.7 254.339 348.471 254.95C349.243 255.561 349.793 256.316 350.121 257.213C350.462 258.114 350.541 259.082 350.357 260.119C350.173 261.157 349.764 262.046 349.132 262.786C348.515 263.516 347.739 264.035 346.804 264.343C345.869 264.651 344.863 264.71 343.787 264.519ZM344.161 262.412C345.067 262.572 345.868 262.403 346.566 261.904C347.264 261.405 347.701 260.664 347.876 259.679C348.05 258.694 347.896 257.848 347.412 257.139C346.929 256.43 346.234 255.995 345.328 255.834C344.423 255.674 343.621 255.843 342.923 256.342C342.238 256.843 341.808 257.586 341.633 258.571C341.458 259.555 341.606 260.401 342.077 261.107C342.56 261.816 343.255 262.251 344.161 262.412ZM364.395 257.188L362.528 267.704L360.086 267.27L361.583 258.842L356.404 257.923L354.907 266.351L352.446 265.914L354.313 255.398L364.395 257.188ZM62.0295 238.728L63.2671 231.757L58.6807 236.996L57.6173 236.807L55.1772 230.3L53.936 237.291L51.6911 236.893L53.5581 226.377L56.1378 226.835L58.7115 234.076L63.798 228.195L66.1019 228.604L64.2547 239.123L62.0295 238.728ZM73.9537 229.876C75.5028 230.151 76.6179 230.735 77.299 231.628C77.9956 232.51 78.211 233.699 77.9453 235.196L76.851 241.359L74.5273 240.947L74.7546 239.667C74.371 240.073 73.8749 240.35 73.2661 240.5C72.6728 240.638 71.9822 240.637 71.1946 240.497C70.4069 240.358 69.741 240.104 69.1968 239.736C68.655 239.356 68.262 238.9 68.0177 238.369C67.7888 237.828 67.728 237.255 67.8352 236.651C68.0031 235.706 68.485 235.013 69.281 234.572C70.0924 234.12 71.253 234.028 72.7628 234.296L75.4803 234.778L75.5082 234.621C75.6388 233.886 75.5158 233.282 75.1394 232.809C74.7761 232.338 74.1612 232.026 73.2947 231.872C72.704 231.767 72.1035 231.755 71.4932 231.836C70.8961 231.92 70.3714 232.091 69.9193 232.349L69.2726 230.386C69.8985 230.063 70.6186 229.86 71.4328 229.774C72.247 229.688 73.0873 229.722 73.9537 229.876ZM72.0247 238.796C72.6417 238.906 73.211 238.865 73.7326 238.673C74.2696 238.47 74.6832 238.124 74.9733 237.634L75.1901 236.413L72.6498 235.962C71.232 235.71 70.4403 236.05 70.2748 236.982C70.1956 237.429 70.3099 237.815 70.6177 238.14C70.9256 238.466 71.3946 238.684 72.0247 238.796ZM90.3138 235.056L86.6314 234.402L85.135 242.83L82.6735 242.393L84.1699 233.965L80.4678 233.308L80.8384 231.22L90.6844 232.968L90.3138 235.056ZM101.501 240.373C101.471 240.544 101.415 240.785 101.332 241.095L93.0815 239.63C93.0884 240.43 93.353 241.114 93.8753 241.68C94.413 242.236 95.1348 242.595 96.0407 242.755C97.196 242.961 98.2153 242.749 99.0988 242.12L100.149 243.871C99.5761 244.351 98.9031 244.672 98.1297 244.833C97.3564 244.993 96.5168 244.993 95.611 244.832C94.4557 244.627 93.4791 244.217 92.6811 243.601C91.8831 242.986 91.3135 242.228 90.9723 241.327C90.6465 240.416 90.5757 239.442 90.7598 238.405C90.9416 237.381 91.3345 236.503 91.9385 235.771C92.5579 235.028 93.322 234.5 94.2306 234.187C95.1393 233.874 96.1122 233.81 97.1493 233.994C98.1733 234.176 99.0449 234.568 99.7641 235.17C100.499 235.76 101.016 236.509 101.315 237.415C101.63 238.311 101.692 239.297 101.501 240.373ZM96.7997 235.964C96.012 235.824 95.3005 235.941 94.6652 236.316C94.0454 236.68 93.6076 237.239 93.352 237.992L99.3186 239.051C99.3488 238.271 99.1367 237.597 98.6824 237.029C98.228 236.461 97.6005 236.106 96.7997 235.964ZM111.578 236.556C112.602 236.738 113.475 237.123 114.196 237.712C114.931 238.302 115.456 239.046 115.771 239.941C116.086 240.837 116.149 241.816 115.96 242.879C115.771 243.943 115.374 244.847 114.767 245.593C114.163 246.325 113.415 246.842 112.522 247.144C111.642 247.448 110.69 247.509 109.666 247.328C108.248 247.076 107.209 246.404 106.55 245.312L105.644 250.412L103.183 249.975L105.728 235.639L108.072 236.055L107.827 237.434C108.322 237.007 108.888 236.722 109.523 236.577C110.171 236.435 110.856 236.428 111.578 236.556ZM109.764 245.172C110.67 245.332 111.465 245.162 112.15 244.661C112.848 244.162 113.284 243.42 113.459 242.435C113.634 241.451 113.48 240.604 112.996 239.895C112.526 239.189 111.838 238.755 110.932 238.594C110.341 238.49 109.785 238.533 109.263 238.725C108.744 238.903 108.302 239.218 107.938 239.668C107.574 240.118 107.333 240.671 107.217 241.327C107.1 241.984 107.136 242.586 107.323 243.133C107.51 243.681 107.815 244.135 108.239 244.495C108.665 244.841 109.173 245.067 109.764 245.172ZM119.934 238.161L122.396 238.599L121.165 245.53L128.205 239.63L130.45 240.028L128.583 250.544L126.121 250.107L127.352 243.175L120.332 249.079L118.067 248.677L119.934 238.161ZM138.291 241.299C139.84 241.574 140.956 242.158 141.637 243.051C142.333 243.933 142.549 245.122 142.283 246.618L141.189 252.782L138.865 252.37L139.092 251.09C138.709 251.495 138.212 251.773 137.604 251.922C137.01 252.061 136.32 252.06 135.532 251.92C134.744 251.78 134.079 251.527 133.534 251.159C132.993 250.778 132.6 250.323 132.355 249.792C132.126 249.25 132.066 248.677 132.173 248.074C132.341 247.128 132.823 246.435 133.619 245.994C134.43 245.542 135.591 245.451 137.1 245.719L139.818 246.201L139.846 246.044C139.976 245.308 139.853 244.704 139.477 244.231C139.114 243.76 138.499 243.448 137.632 243.294C137.042 243.189 136.441 243.178 135.831 243.259C135.234 243.342 134.709 243.513 134.257 243.772L133.61 241.808C134.236 241.486 134.956 241.282 135.77 241.197C136.585 241.111 137.425 241.145 138.291 241.299ZM136.362 250.219C136.979 250.328 137.549 250.287 138.07 250.096C138.607 249.893 139.021 249.547 139.311 249.056L139.528 247.836L136.987 247.385C135.57 247.133 134.778 247.473 134.612 248.405C134.533 248.851 134.648 249.237 134.955 249.563C135.263 249.888 135.732 250.107 136.362 250.219ZM156.223 244.604L154.356 255.12L151.895 254.683L153.391 246.255L149.453 245.555L148.984 247.625C148.671 249.005 148.332 250.15 147.967 251.061C147.618 251.96 147.165 252.645 146.608 253.114C146.066 253.573 145.401 253.733 144.613 253.593C144.246 253.528 143.805 253.375 143.293 253.135L143.778 251.089C143.955 251.161 144.109 251.208 144.24 251.232C144.739 251.32 145.148 251.19 145.468 250.84C145.789 250.477 146.032 250.026 146.195 249.487C146.374 248.936 146.582 248.147 146.819 247.119L147.716 243.094L156.223 244.604ZM164.634 249.673C165.973 249.91 166.943 250.394 167.545 251.124C168.146 251.854 168.349 252.77 168.154 253.873C167.949 255.028 167.396 255.851 166.497 256.341C165.61 256.834 164.453 256.946 163.024 256.679L158.262 255.813L160.129 245.298L162.591 245.735L161.979 249.181L164.634 249.673ZM170.743 247.182L173.205 247.619L171.338 258.135L168.876 257.698L170.743 247.182ZM163.129 254.829C163.849 254.97 164.427 254.917 164.864 254.67C165.3 254.422 165.572 253.997 165.679 253.393C165.784 252.802 165.677 252.336 165.359 251.995C165.04 251.654 164.508 251.411 163.762 251.265L161.678 250.874L161.045 254.439L163.129 254.829ZM192.865 259.804L192.079 264.234L189.775 263.825L190.191 261.482L182.078 260.042L181.662 262.385L179.377 261.979L180.164 257.549L180.656 257.636C181.33 257.729 181.859 257.382 182.242 256.597C182.641 255.801 183.015 254.649 183.364 253.14L184.141 249.561L192.806 251.099L191.31 259.528L192.865 259.804ZM185.577 253.716C185.31 254.914 185.037 255.882 184.757 256.617C184.478 257.353 184.115 257.871 183.669 258.171L188.848 259.09L189.974 252.75L185.937 252.033L185.577 253.716ZM206.682 253.563L204.815 264.078L202.353 263.641L203.85 255.213L199.911 254.514L199.442 256.584C199.13 257.964 198.791 259.109 198.426 260.019C198.077 260.919 197.623 261.603 197.066 262.073C196.524 262.532 195.859 262.692 195.072 262.552C194.704 262.486 194.264 262.334 193.751 262.094L194.237 260.047C194.413 260.119 194.567 260.167 194.699 260.19C195.198 260.279 195.607 260.148 195.926 259.799C196.248 259.436 196.49 258.985 196.654 258.445C196.833 257.895 197.041 257.105 197.277 256.078L198.175 252.053L206.682 253.563ZM219.469 255.833L217.602 266.349L215.396 265.957L215.959 262.787L213.183 262.294L210.473 265.083L207.834 264.615L210.938 261.55C210.223 261.152 209.71 260.648 209.399 260.037C209.103 259.416 209.026 258.705 209.168 257.904C209.382 256.697 209.975 255.84 210.944 255.335C211.914 254.83 213.148 254.711 214.644 254.977L219.469 255.833ZM214.356 257.058C212.767 256.776 211.867 257.232 211.655 258.427C211.445 259.609 212.108 260.336 213.644 260.608L216.263 261.073L216.896 257.509L214.356 257.058ZM52.2564 261.51C51.1668 261.317 50.2296 260.914 49.4447 260.3C48.6598 259.687 48.0968 258.93 47.7555 258.03C47.4166 257.117 47.3392 256.141 47.5234 255.104C47.7075 254.067 48.1147 253.185 48.7449 252.457C49.3752 251.729 50.1578 251.212 51.0927 250.904C52.0407 250.598 53.0661 250.543 54.1688 250.739C55.206 250.923 56.0745 251.294 56.7745 251.851C57.4876 252.411 57.9711 253.12 58.2251 253.978L56.1389 254.745C55.9232 254.206 55.6066 253.777 55.189 253.459C54.787 253.13 54.3168 252.918 53.7786 252.823C52.8596 252.66 52.0446 252.826 51.3334 253.323C50.6247 253.807 50.1817 254.547 50.0046 255.545C49.8274 256.543 49.9806 257.396 50.4642 258.105C50.9632 258.803 51.6787 259.234 52.6108 259.4C53.1491 259.495 53.6624 259.465 54.1507 259.308C54.6544 259.14 55.1004 258.84 55.4886 258.408L57.1832 259.846C56.6364 260.561 55.9307 261.066 55.0661 261.359C54.217 261.642 53.2804 261.692 52.2564 261.51ZM65.3353 252.721C66.8844 252.996 67.9995 253.58 68.6806 254.473C69.3771 255.355 69.5926 256.544 69.3268 258.041L68.2325 264.205L65.9089 263.792L66.1361 262.512C65.7526 262.918 65.2565 263.196 64.6477 263.345C64.0543 263.483 63.3638 263.482 62.5761 263.343C61.7885 263.203 61.1225 262.949 60.5784 262.582C60.0366 262.201 59.6435 261.745 59.3992 261.214C59.1704 260.673 59.1096 260.1 59.2168 259.496C59.3846 258.551 59.8665 257.858 60.6626 257.417C61.474 256.965 62.6346 256.873 64.1443 257.141L66.8618 257.624L66.8898 257.466C67.0203 256.731 66.8974 256.127 66.521 255.654C66.1577 255.183 65.5428 254.871 64.6763 254.717C64.0856 254.612 63.485 254.6 62.8748 254.681C62.2776 254.765 61.753 254.936 61.3009 255.194L60.6542 253.231C61.2801 252.909 62.0002 252.705 62.8144 252.619C63.6285 252.533 64.4689 252.568 65.3353 252.721ZM63.4063 261.641C64.0233 261.751 64.5926 261.71 65.1141 261.518C65.6512 261.316 66.0647 260.969 66.3549 260.479L66.5717 259.258L64.0314 258.807C62.6136 258.555 61.8219 258.896 61.6564 259.828C61.5772 260.274 61.6915 260.66 61.9993 260.985C62.3071 261.311 62.7761 261.53 63.4063 261.641ZM82.2076 266.686L83.4452 259.715L78.8588 264.954L77.7954 264.765L75.3553 258.258L74.1142 265.249L71.8693 264.85L73.7362 254.335L76.3159 254.793L78.8896 262.034L83.9761 256.153L86.2801 256.562L84.4328 267.081L82.2076 266.686ZM92.9874 268.742C91.9241 268.553 91.0065 268.153 90.2348 267.542C89.463 266.931 88.9065 266.176 88.5653 265.275C88.2395 264.364 88.1687 263.39 88.3528 262.353C88.537 261.316 88.9376 260.433 89.5547 259.703C90.185 258.975 90.9675 258.457 91.9024 258.149C92.8373 257.841 93.8365 257.782 94.8998 257.97C95.9763 258.161 96.9005 258.562 97.6722 259.173C98.444 259.784 98.9939 260.539 99.322 261.437C99.6632 262.337 99.7418 263.306 99.5576 264.343C99.3735 265.38 98.9651 266.269 98.3326 267.01C97.7154 267.74 96.9394 268.259 96.0045 268.567C95.0696 268.875 94.0639 268.933 92.9874 268.742ZM93.3615 266.635C94.2674 266.796 95.0693 266.627 95.7672 266.128C96.4652 265.629 96.9016 264.887 97.0764 263.902C97.2512 262.918 97.0969 262.071 96.6133 261.362C96.1298 260.653 95.4351 260.218 94.5292 260.058C93.6234 259.897 92.8215 260.066 92.1235 260.565C91.4387 261.066 91.0089 261.809 90.834 262.794C90.6592 263.778 90.807 264.624 91.2775 265.33C91.761 266.039 92.4557 266.474 93.3615 266.635ZM106.407 271.124C105.318 270.931 104.38 270.528 103.596 269.914C102.811 269.301 102.248 268.544 101.906 267.644C101.567 266.731 101.49 265.756 101.674 264.718C101.858 263.681 102.266 262.799 102.896 262.071C103.526 261.343 104.309 260.826 105.243 260.518C106.192 260.212 107.217 260.157 108.32 260.353C109.357 260.537 110.225 260.908 110.925 261.465C111.638 262.025 112.122 262.734 112.376 263.592L110.29 264.359C110.074 263.82 109.757 263.391 109.34 263.073C108.938 262.744 108.468 262.532 107.929 262.437C107.01 262.274 106.195 262.44 105.484 262.937C104.776 263.421 104.333 264.161 104.155 265.159C103.978 266.157 104.131 267.01 104.615 267.719C105.114 268.417 105.83 268.848 106.762 269.014C107.3 269.109 107.813 269.079 108.301 268.922C108.805 268.754 109.251 268.454 109.639 268.022L111.334 269.46C110.787 270.175 110.082 270.68 109.217 270.973C108.368 271.256 107.431 271.306 106.407 271.124ZM123.409 265.307L119.727 264.653L118.231 273.081L115.769 272.644L117.266 264.216L113.563 263.559L113.934 261.472L123.78 263.22L123.409 265.307ZM128.49 275.045C127.427 274.856 126.509 274.456 125.737 273.845C124.966 273.234 124.409 272.479 124.068 271.579C123.742 270.668 123.671 269.694 123.855 268.657C124.04 267.619 124.44 266.736 125.057 266.006C125.688 265.278 126.47 264.76 127.405 264.452C128.34 264.144 129.339 264.085 130.402 264.274C131.479 264.465 132.403 264.866 133.175 265.477C133.947 266.088 134.496 266.842 134.825 267.74C135.166 268.64 135.244 269.609 135.06 270.646C134.876 271.683 134.468 272.572 133.835 273.313C133.218 274.043 132.442 274.562 131.507 274.87C130.572 275.178 129.567 275.236 128.49 275.045ZM128.864 272.938C129.77 273.099 130.572 272.93 131.27 272.431C131.968 271.932 132.404 271.19 132.579 270.205C132.754 269.221 132.599 268.374 132.116 267.665C131.632 266.956 130.938 266.522 130.032 266.361C129.126 266.2 128.324 266.369 127.626 266.868C126.941 267.369 126.511 268.112 126.337 269.097C126.162 270.082 126.31 270.927 126.78 271.634C127.264 272.342 127.958 272.777 128.864 272.938ZM147.551 267.44L145.684 277.956L143.479 277.564L144.042 274.394L141.265 273.901L138.556 276.69L135.917 276.221L139.02 273.157C138.306 272.759 137.792 272.255 137.481 271.644C137.185 271.023 137.108 270.312 137.25 269.511C137.465 268.303 138.057 267.447 139.027 266.942C139.997 266.437 141.23 266.318 142.727 266.583L147.551 267.44ZM142.438 268.665C140.85 268.383 139.949 268.839 139.737 270.034C139.528 271.216 140.191 271.943 141.727 272.215L144.346 272.68L144.978 269.116L142.438 268.665ZM159.412 271.699L155.73 271.045L154.233 279.473L151.772 279.036L153.268 270.608L149.566 269.951L149.937 267.864L159.783 269.612L159.412 271.699ZM170.599 277.016C170.569 277.187 170.513 277.428 170.431 277.738L162.18 276.273C162.187 277.073 162.451 277.757 162.974 278.324C163.511 278.879 164.233 279.238 165.139 279.399C166.294 279.604 167.314 279.392 168.197 278.763L169.247 280.514C168.674 280.995 168.001 281.315 167.228 281.476C166.455 281.636 165.615 281.636 164.709 281.475C163.554 281.27 162.577 280.86 161.779 280.244C160.981 279.629 160.412 278.871 160.071 277.971C159.745 277.06 159.674 276.086 159.858 275.049C160.04 274.025 160.433 273.146 161.037 272.414C161.656 271.671 162.42 271.143 163.329 270.83C164.238 270.518 165.21 270.453 166.248 270.638C167.272 270.819 168.143 271.211 168.862 271.813C169.597 272.404 170.114 273.152 170.414 274.058C170.729 274.954 170.791 275.94 170.599 277.016ZM165.898 272.607C165.11 272.467 164.399 272.584 163.763 272.959C163.144 273.323 162.706 273.882 162.45 274.635L168.417 275.695C168.447 274.915 168.235 274.24 167.781 273.672C167.326 273.104 166.699 272.749 165.898 272.607ZM184.223 273.951L182.356 284.466L179.894 284.029L181.391 275.601L177.452 274.902L176.983 276.972C176.671 278.352 176.332 279.497 175.967 280.407C175.618 281.306 175.164 281.991 174.607 282.461C174.065 282.92 173.4 283.079 172.613 282.94C172.245 282.874 171.805 282.722 171.292 282.482L171.778 280.435C171.954 280.507 172.108 280.555 172.24 280.578C172.739 280.667 173.148 280.536 173.467 280.187C173.789 279.824 174.031 279.373 174.195 278.833C174.374 278.282 174.582 277.493 174.818 276.466L175.716 272.44L184.223 273.951ZM192.791 279.047C194.13 279.285 195.1 279.768 195.702 280.498C196.317 281.23 196.526 282.148 196.33 283.25C196.125 284.406 195.573 285.229 194.673 285.719C193.774 286.209 192.61 286.321 191.181 286.053L186.262 285.16L188.129 274.644L190.59 275.081L189.978 278.527L192.791 279.047ZM191.286 284.203C192.006 284.345 192.584 284.292 193.021 284.044C193.457 283.797 193.729 283.371 193.837 282.767C193.941 282.176 193.835 281.71 193.516 281.37C193.197 281.029 192.665 280.785 191.919 280.639L189.678 280.221L189.045 283.785L191.286 284.203ZM200.315 276.808L202.777 277.245L202.018 281.518L207.315 282.459L208.074 278.185L210.535 278.622L208.669 289.138L206.207 288.701L206.945 284.546L201.648 283.605L200.91 287.76L198.448 287.323L200.315 276.808ZM217.22 290.798C216.157 290.61 215.239 290.21 214.468 289.599C213.696 288.988 213.14 288.232 212.798 287.332C212.473 286.421 212.402 285.447 212.586 284.41C212.77 283.373 213.171 282.489 213.788 281.759C214.418 281.031 215.201 280.514 216.135 280.206C217.07 279.898 218.069 279.838 219.133 280.027C220.209 280.218 221.133 280.619 221.905 281.23C222.677 281.841 223.227 282.595 223.555 283.493C223.896 284.393 223.975 285.362 223.791 286.399C223.606 287.436 223.198 288.325 222.566 289.066C221.948 289.796 221.172 290.315 220.238 290.623C219.303 290.931 218.297 290.99 217.22 290.798ZM217.595 288.691C218.5 288.852 219.302 288.683 220 288.184C220.698 287.685 221.135 286.943 221.309 285.959C221.484 284.974 221.33 284.127 220.846 283.419C220.363 282.71 219.668 282.275 218.762 282.114C217.856 281.953 217.054 282.123 216.357 282.622C215.672 283.123 215.242 283.866 215.067 284.85C214.892 285.835 215.04 286.681 215.51 287.387C215.994 288.096 216.689 288.531 217.595 288.691ZM227.746 281.678L230.208 282.115L228.977 289.047L236.017 283.146L238.262 283.545L236.395 294.061L233.934 293.624L235.164 286.692L228.144 292.596L225.88 292.194L227.746 281.678ZM233.067 281.343C232.004 281.154 231.233 280.767 230.755 280.181C230.292 279.584 230.138 278.812 230.292 277.864L231.927 278.155C231.856 278.629 231.934 279.029 232.161 279.354C232.401 279.681 232.777 279.89 233.289 279.981C233.787 280.069 234.206 280.001 234.543 279.777C234.894 279.555 235.118 279.209 235.215 278.738L236.889 279.036C236.708 279.978 236.291 280.649 235.638 281.048C234.987 281.433 234.13 281.532 233.067 281.343ZM258.279 287.099L256.412 297.614L253.971 297.181L255.467 288.753L250.288 287.833L248.792 296.261L246.33 295.824L248.197 285.309L258.279 287.099ZM268.041 288.71C269.065 288.892 269.938 289.277 270.66 289.866C271.394 290.457 271.919 291.2 272.234 292.095C272.549 292.991 272.612 293.97 272.423 295.034C272.235 296.097 271.837 297.001 271.231 297.747C270.627 298.479 269.878 298.996 268.985 299.298C268.105 299.602 267.153 299.664 266.129 299.482C264.711 299.23 263.672 298.558 263.013 297.466L262.108 302.566L259.646 302.129L262.191 287.793L264.535 288.21L264.29 289.588C264.786 289.161 265.351 288.876 265.986 288.731C266.634 288.589 267.319 288.582 268.041 288.71ZM266.227 297.326C267.133 297.487 267.928 297.316 268.613 296.815C269.311 296.316 269.748 295.574 269.922 294.59C270.097 293.605 269.943 292.758 269.459 292.05C268.989 291.343 268.301 290.909 267.395 290.749C266.804 290.644 266.248 290.687 265.726 290.879C265.207 291.058 264.766 291.372 264.401 291.822C264.037 292.272 263.797 292.825 263.68 293.481C263.564 294.138 263.599 294.74 263.786 295.288C263.973 295.835 264.278 296.289 264.702 296.649C265.128 296.995 265.636 297.221 266.227 297.326ZM280.202 290.869C281.752 291.144 282.867 291.728 283.548 292.621C284.244 293.503 284.46 294.692 284.194 296.189L283.1 302.353L280.776 301.94L281.003 300.66C280.62 301.066 280.124 301.343 279.515 301.493C278.922 301.631 278.231 301.63 277.443 301.491C276.656 301.351 275.99 301.097 275.446 300.73C274.904 300.349 274.511 299.893 274.266 299.362C274.038 298.821 273.977 298.248 274.084 297.644C274.252 296.699 274.734 296.006 275.53 295.565C276.341 295.113 277.502 295.021 279.012 295.289L281.729 295.772L281.757 295.614C281.888 294.879 281.765 294.275 281.388 293.802C281.025 293.331 280.41 293.019 279.544 292.865C278.953 292.76 278.352 292.748 277.742 292.829C277.145 292.913 276.62 293.084 276.168 293.342L275.521 291.379C276.147 291.057 276.867 290.853 277.682 290.767C278.496 290.681 279.336 290.715 280.202 290.869ZM278.273 299.789C278.89 299.899 279.46 299.858 279.981 299.666C280.518 299.464 280.932 299.117 281.222 298.627L281.439 297.406L278.899 296.955C277.481 296.703 276.689 297.044 276.524 297.976C276.444 298.422 276.559 298.808 276.866 299.133C277.174 299.459 277.643 299.678 278.273 299.789ZM291.856 299.56L289.946 299.221L289.198 303.435L286.736 302.998L288.603 292.483L291.065 292.92L290.31 297.173L292.279 297.523L296.145 293.822L298.784 294.29L294.065 298.673L297.173 304.851L294.278 304.337L291.856 299.56ZM309.192 298.291L305.509 297.637L304.013 306.066L301.551 305.629L303.048 297.2L299.346 296.543L299.716 294.456L309.562 296.204L309.192 298.291ZM311.938 296.626L314.4 297.063L313.169 303.994L320.209 298.094L322.454 298.493L320.587 309.008L318.126 308.571L319.356 301.64L312.336 307.543L310.072 307.141L311.938 296.626ZM329.609 306.263L327.699 305.924L326.951 310.138L324.489 309.701L326.356 299.185L328.817 299.622L328.062 303.876L330.032 304.226L333.898 300.524L336.537 300.993L331.818 305.376L334.926 311.554L332.031 311.04L329.609 306.263ZM339.12 301.451L341.581 301.889L340.35 308.82L347.39 302.92L349.635 303.318L347.768 313.834L345.307 313.397L346.537 306.465L339.517 312.369L337.253 311.967L339.12 301.451ZM353.763 300.679L356.677 301.197L354.549 310.325L352.599 309.979L353.763 300.679ZM352.748 314.86C352.289 314.779 351.934 314.567 351.683 314.224C351.435 313.869 351.349 313.474 351.426 313.041C351.503 312.608 351.718 312.274 352.071 312.039C352.425 311.803 352.831 311.727 353.29 311.808C353.737 311.887 354.079 312.097 354.316 312.437C354.567 312.78 354.654 313.167 354.577 313.601C354.5 314.034 354.284 314.375 353.928 314.623C353.588 314.86 353.195 314.94 352.748 314.86Z" fill="black"/>
</svg>
