<svg width="457" height="380" viewBox="0 0 457 380" fill="none" xmlns="http://www.w3.org/2000/svg">
<path d="M447.931 188.606C455.897 289.82 466.65 340.123 440.161 362.211C428.27 372.107 415.301 373.835 391.147 375.778C271.496 385.34 177.765 375.916 156.476 373.678C37.3158 361.131 27.3286 356.242 17.7534 345.502C-5.22318 319.703 -1.73059 271.933 5.23498 176.433C8.31553 134.219 13.162 111.934 30.0559 93.9297C48.1468 74.6293 71.712 65.9117 94.3354 65.1853C138.856 63.7323 226.701 67.4432 299.496 71.9787C292.55 51.5984 277.598 16.355 253.346 -0.000213623C253.346 -0.000213623 324.14 26.2899 366.208 76.7498C385.908 78.3794 401.37 79.4789 409.748 81.2068C433.117 86.0368 442.437 118.806 447.931 188.606Z" fill="#FDCE02"/>
<path d="M41.0717 62.2H79.9197V73.592H55.9197V78.776H66.6077C72.0691 78.776 76.2504 79.9493 79.1517 82.296C82.0957 84.6 83.5677 87.9493 83.5677 92.344C83.5677 96.9093 81.9037 100.493 78.5757 103.096C75.2477 105.699 70.6184 107 64.6877 107H41.0717V62.2ZM63.6637 96.44C65.1571 96.44 66.3091 96.12 67.1197 95.48C67.9731 94.84 68.3997 93.9227 68.3997 92.728C68.3997 90.424 66.8211 89.272 63.6637 89.272H55.9197V96.44H63.6637ZM113.463 108.024C108.642 108.024 104.311 107.021 100.471 105.016C96.6312 103.011 93.6232 100.237 91.4472 96.696C89.2712 93.112 88.1832 89.08 88.1832 84.6C88.1832 80.12 89.2712 76.1093 91.4472 72.568C93.6232 68.984 96.6312 66.1893 100.471 64.184C104.311 62.1787 108.642 61.176 113.463 61.176C118.285 61.176 122.615 62.1787 126.455 64.184C130.295 66.1893 133.303 68.984 135.479 72.568C137.655 76.1093 138.743 80.12 138.743 84.6C138.743 89.08 137.655 93.112 135.479 96.696C133.303 100.237 130.295 103.011 126.455 105.016C122.615 107.021 118.285 108.024 113.463 108.024ZM113.463 95.8C115.341 95.8 117.026 95.352 118.519 94.456C120.055 93.5173 121.271 92.216 122.167 90.552C123.063 88.8453 123.511 86.8613 123.511 84.6C123.511 82.3387 123.063 80.376 122.167 78.712C121.271 77.0053 120.055 75.704 118.519 74.808C117.026 73.8693 115.341 73.4 113.463 73.4C111.586 73.4 109.879 73.8693 108.343 74.808C106.85 75.704 105.655 77.0053 104.759 78.712C103.863 80.376 103.415 82.3387 103.415 84.6C103.415 86.8613 103.863 88.8453 104.759 90.552C105.655 92.216 106.85 93.5173 108.343 94.456C109.879 95.352 111.586 95.8 113.463 95.8ZM190.259 62.2V107H175.155V90.488H161.203V107H146.099V62.2H161.203V78.072H175.155V62.2H190.259ZM244.944 62.2L226.96 95.928C224.827 99.9387 222.203 102.989 219.088 105.08C216.016 107.171 212.624 108.216 208.912 108.216C206.054 108.216 203.152 107.619 200.208 106.424L203.728 95.544C205.606 96.056 207.142 96.312 208.336 96.312C209.446 96.312 210.384 96.12 211.152 95.736C211.963 95.352 212.731 94.712 213.456 93.816L196.304 62.2H212.24L221.136 81.08L230.352 62.2H244.944ZM271.842 108.024C267.106 108.024 262.84 107.043 259.042 105.08C255.245 103.075 252.258 100.301 250.082 96.76C247.949 93.176 246.882 89.1227 246.882 84.6C246.882 80.0773 247.949 76.0453 250.082 72.504C252.258 68.92 255.245 66.1467 259.042 64.184C262.84 62.1787 267.106 61.176 271.842 61.176C276.194 61.176 280.077 61.944 283.49 63.48C286.904 65.016 289.72 67.2347 291.938 70.136L282.402 78.648C279.629 75.1493 276.365 73.4 272.61 73.4C269.453 73.4 266.914 74.424 264.994 76.472C263.074 78.4773 262.114 81.1867 262.114 84.6C262.114 88.0133 263.074 90.744 264.994 92.792C266.914 94.7973 269.453 95.8 272.61 95.8C276.365 95.8 279.629 94.0507 282.402 90.552L291.938 99.064C289.72 101.965 286.904 104.184 283.49 105.72C280.077 107.256 276.194 108.024 271.842 108.024ZM353.129 80.568L352.169 88.632H359.913V98.232H350.953L349.865 107H339.625L340.713 98.232H334.377L333.289 107H323.049L324.137 98.232H316.393V88.632H325.353L326.313 80.568H318.569V70.968H327.529L328.617 62.2H338.857L337.769 70.968H344.105L345.193 62.2H355.433L354.345 70.968H362.089V80.568H353.129ZM342.889 80.568H336.553L335.593 88.632H341.929L342.889 80.568ZM402.552 95.288V107H366.648V97.72L382.84 82.744C384.248 81.4213 385.187 80.2907 385.656 79.352C386.126 78.4133 386.36 77.496 386.36 76.6C386.36 75.4907 385.976 74.6373 385.208 74.04C384.483 73.4 383.416 73.08 382.008 73.08C380.643 73.08 379.363 73.4427 378.168 74.168C376.974 74.8933 376.056 75.9173 375.416 77.24L364.024 71.544C365.731 68.344 368.227 65.8267 371.512 63.992C374.798 62.1147 378.766 61.176 383.416 61.176C386.958 61.176 390.094 61.752 392.824 62.904C395.555 64.056 397.688 65.6987 399.224 67.832C400.76 69.9653 401.528 72.4187 401.528 75.192C401.528 77.6667 400.995 79.992 399.928 82.168C398.904 84.3013 396.878 86.7333 393.848 89.464L387.448 95.288H402.552Z" fill="black"/>
<path d="M74.9037 160.494C75.7413 160.886 76.3386 161.412 76.6955 162.071C77.0548 162.717 77.1586 163.467 77.0071 164.321C76.7927 165.528 76.1797 166.388 75.1681 166.899C74.1566 167.41 72.804 167.515 71.1105 167.214L64.5727 166.054L67.0201 152.269L73.1837 153.363C74.7328 153.638 75.8858 154.161 76.6427 154.932C77.3996 155.703 77.6778 156.653 77.4774 157.782C77.3492 158.504 77.0612 159.096 76.6135 159.558C76.179 160.023 75.609 160.335 74.9037 160.494ZM68.4953 158.605L71.9217 159.213C72.7488 159.36 73.408 159.308 73.8995 159.056C74.391 158.805 74.6939 158.358 74.8081 157.714C74.9223 157.071 74.7919 156.547 74.417 156.142C74.0443 155.724 73.4445 155.441 72.6174 155.294L69.191 154.686L68.4953 158.605ZM71.3813 165.231C73.193 165.553 74.22 165.031 74.4624 163.666C74.7002 162.327 73.9132 161.496 72.1016 161.175L68.1631 160.475L67.4429 164.532L71.3813 165.231ZM84.3209 169.702C83.2313 169.508 82.294 169.105 81.5092 168.492C80.7243 167.878 80.1612 167.122 79.82 166.222C79.4811 165.308 79.4037 164.333 79.5879 163.296C79.772 162.259 80.1792 161.376 80.8094 160.649C81.4397 159.921 82.2223 159.403 83.1572 159.095C84.1052 158.789 85.1306 158.735 86.2333 158.93C87.2704 159.114 88.139 159.485 88.839 160.043C89.5521 160.603 90.0356 161.312 90.2896 162.169L88.2034 162.936C87.9877 162.397 87.671 161.968 87.2535 161.651C86.8514 161.322 86.3813 161.11 85.843 161.014C84.9241 160.851 84.109 161.018 83.3979 161.514C82.6892 161.998 82.2462 162.739 82.0691 163.736C81.8919 164.734 82.0451 165.587 82.5287 166.296C83.0277 166.994 83.7432 167.426 84.6753 167.591C85.2136 167.687 85.7268 167.656 86.2152 167.499C86.7189 167.331 87.1649 167.031 87.5531 166.599L89.2477 168.038C88.7009 168.753 87.9952 169.257 87.1306 169.551C86.2815 169.833 85.3449 169.884 84.3209 169.702ZM93.4601 160.335L95.9216 160.772L94.0547 171.288L91.5931 170.851L93.4601 160.335ZM95.0084 158.823C94.562 158.743 94.2123 158.539 93.9593 158.21C93.7087 157.867 93.6206 157.486 93.6952 157.066C93.7698 156.646 93.9825 156.325 94.3334 156.103C94.6866 155.868 95.0864 155.79 95.5328 155.869C95.9791 155.948 96.3288 156.152 96.5818 156.482C96.8371 156.798 96.9287 157.159 96.8564 157.566C96.7795 158 96.5633 158.34 96.2077 158.589C95.8676 158.826 95.4678 158.904 95.0084 158.823ZM108.311 173.819L109.548 166.848L104.962 172.087L103.898 171.898L101.458 165.391L100.217 172.382L97.9723 171.983L99.8392 161.468L102.419 161.926L104.993 169.167L110.079 163.286L112.383 163.695L110.536 174.214L108.311 173.819ZM132.253 167.223L125.313 177.711C124.65 178.771 123.95 179.473 123.212 179.816C122.472 180.172 121.636 180.268 120.704 180.102C120.179 180.009 119.675 179.831 119.193 179.57C118.712 179.308 118.334 178.997 118.059 178.637L119.365 177C119.562 177.265 119.806 177.492 120.098 177.679C120.403 177.868 120.719 177.992 121.048 178.051C121.481 178.127 121.855 178.079 122.17 177.905C122.499 177.733 122.828 177.405 123.157 176.922L123.408 176.54L120.694 165.17L123.254 165.625L125.181 173.991L129.89 166.803L132.253 167.223ZM143.474 169.215L141.607 179.73L139.145 179.293L139.869 175.217C138.772 175.523 137.672 175.579 136.569 175.383C135.217 175.143 134.235 174.65 133.622 173.905C133.012 173.147 132.821 172.124 133.05 170.838L133.648 167.47L136.109 167.907L135.539 171.117C135.42 171.787 135.529 172.32 135.864 172.719C136.2 173.117 136.729 173.38 137.451 173.508C138.37 173.671 139.284 173.63 140.194 173.386L141.012 168.778L143.474 169.215ZM151.314 170.485C152.864 170.76 153.979 171.344 154.66 172.237C155.356 173.119 155.572 174.308 155.306 175.805L154.212 181.968L151.888 181.556L152.115 180.276C151.732 180.682 151.236 180.959 150.627 181.108C150.033 181.247 149.343 181.246 148.555 181.106C147.768 180.966 147.102 180.713 146.558 180.345C146.016 179.965 145.623 179.509 145.378 178.978C145.15 178.436 145.089 177.864 145.196 177.26C145.364 176.315 145.846 175.621 146.642 175.18C147.453 174.729 148.614 174.637 150.124 174.905L152.841 175.387L152.869 175.23C152.999 174.495 152.877 173.89 152.5 173.417C152.137 172.947 151.522 172.634 150.655 172.481C150.065 172.376 149.464 172.364 148.854 172.445C148.257 172.529 147.732 172.7 147.28 172.958L146.633 170.995C147.259 170.672 147.979 170.468 148.794 170.383C149.608 170.297 150.448 170.331 151.314 170.485ZM149.385 179.405C150.002 179.515 150.572 179.474 151.093 179.282C151.63 179.079 152.044 178.733 152.334 178.243L152.551 177.022L150.011 176.571C148.593 176.319 147.801 176.659 147.636 177.591C147.556 178.038 147.671 178.424 147.978 178.749C148.286 179.075 148.755 179.293 149.385 179.405ZM162.609 183.601C161.52 183.408 160.582 183.005 159.797 182.391C159.013 181.778 158.449 181.021 158.108 180.121C157.769 179.208 157.692 178.232 157.876 177.195C158.06 176.158 158.467 175.276 159.098 174.548C159.728 173.82 160.51 173.303 161.445 172.995C162.393 172.689 163.419 172.634 164.522 172.83C165.559 173.014 166.427 173.385 167.127 173.942C167.84 174.502 168.324 175.211 168.578 176.069L166.492 176.836C166.276 176.297 165.959 175.868 165.542 175.55C165.14 175.221 164.669 175.009 164.131 174.914C163.212 174.751 162.397 174.917 161.686 175.414C160.977 175.897 160.534 176.638 160.357 177.636C160.18 178.634 160.333 179.487 160.817 180.196C161.316 180.894 162.031 181.325 162.964 181.491C163.502 181.586 164.015 181.556 164.503 181.399C165.007 181.231 165.453 180.931 165.841 180.499L167.536 181.937C166.989 182.652 166.283 183.157 165.419 183.45C164.57 183.733 163.633 183.783 162.609 183.601ZM171.748 174.235L174.21 174.672L173.451 178.945L178.748 179.885L179.507 175.612L181.968 176.049L180.102 186.565L177.64 186.128L178.378 181.973L173.081 181.032L172.343 185.187L169.881 184.75L171.748 174.235ZM185.858 176.74L188.32 177.177L187.089 184.108L194.129 178.208L196.374 178.607L194.507 189.122L192.045 188.685L193.276 181.754L186.256 187.657L183.991 187.255L185.858 176.74ZM203.528 186.377L201.618 186.038L200.87 190.252L198.409 189.815L200.276 179.3L202.737 179.737L201.982 183.99L203.951 184.34L207.818 180.639L210.456 181.107L205.738 185.49L208.845 191.668L205.951 191.154L203.528 186.377ZM216.787 182.109C218.336 182.384 219.451 182.968 220.132 183.861C220.829 184.743 221.044 185.932 220.778 187.429L219.684 193.592L217.36 193.18L217.588 191.9C217.204 192.306 216.708 192.583 216.099 192.732C215.506 192.871 214.815 192.87 214.028 192.73C213.24 192.59 212.574 192.337 212.03 191.969C211.488 191.589 211.095 191.133 210.851 190.602C210.622 190.06 210.561 189.488 210.668 188.884C210.836 187.939 211.318 187.246 212.114 186.805C212.925 186.353 214.086 186.261 215.596 186.529L218.313 187.011L218.341 186.854C218.472 186.119 218.349 185.515 217.972 185.041C217.609 184.571 216.994 184.258 216.128 184.105C215.537 184 214.936 183.988 214.326 184.069C213.729 184.153 213.204 184.324 212.752 184.582L212.106 182.619C212.731 182.296 213.452 182.092 214.266 182.007C215.08 181.921 215.92 181.955 216.787 182.109ZM214.858 191.029C215.475 191.139 216.044 191.098 216.566 190.906C217.103 190.703 217.516 190.357 217.806 189.867L218.023 188.646L215.483 188.195C214.065 187.943 213.273 188.283 213.108 189.215C213.029 189.662 213.143 190.048 213.451 190.373C213.759 190.699 214.228 190.917 214.858 191.029ZM233.659 196.074L234.897 189.103L230.31 194.341L229.247 194.153L226.807 187.646L225.566 194.637L223.321 194.238L225.188 183.722L227.767 184.18L230.341 191.422L235.427 185.54L237.731 185.95L235.884 196.469L233.659 196.074ZM250.929 194.793L249.019 194.454L248.271 198.668L245.81 198.231L247.677 187.715L250.138 188.152L249.383 192.406L251.352 192.755L255.219 189.054L257.857 189.523L253.139 193.905L256.246 200.084L253.352 199.57L250.929 194.793ZM269.769 191.638L262.829 202.126C262.166 203.186 261.466 203.888 260.728 204.231C259.988 204.587 259.152 204.682 258.22 204.517C257.694 204.424 257.191 204.246 256.709 203.985C256.228 203.723 255.85 203.412 255.575 203.052L256.881 201.415C257.078 201.68 257.322 201.907 257.614 202.094C257.919 202.283 258.235 202.407 258.564 202.465C258.997 202.542 259.371 202.494 259.686 202.319C260.015 202.148 260.344 201.82 260.673 201.337L260.924 200.955L258.21 189.585L260.77 190.04L262.697 198.405L267.406 191.218L269.769 191.638ZM277.919 192.963C278.943 193.144 279.816 193.53 280.537 194.118C281.272 194.709 281.797 195.452 282.112 196.348C282.427 197.243 282.49 198.223 282.301 199.286C282.112 200.349 281.715 201.254 281.109 201.999C280.505 202.732 279.756 203.249 278.863 203.551C277.983 203.855 277.031 203.916 276.007 203.734C274.589 203.482 273.55 202.811 272.891 201.719L271.986 206.819L269.524 206.382L272.069 192.046L274.413 192.462L274.168 193.84C274.663 193.414 275.229 193.128 275.864 192.984C276.512 192.841 277.197 192.834 277.919 192.963ZM276.105 201.578C277.011 201.739 277.806 201.569 278.491 201.067C279.189 200.568 279.626 199.827 279.8 198.842C279.975 197.857 279.821 197.011 279.337 196.302C278.867 195.596 278.179 195.162 277.273 195.001C276.682 194.896 276.126 194.94 275.604 195.131C275.085 195.31 274.643 195.624 274.279 196.074C273.915 196.524 273.674 197.077 273.558 197.734C273.441 198.39 273.477 198.992 273.664 199.54C273.851 200.088 274.156 200.542 274.58 200.901C275.006 201.248 275.514 201.473 276.105 201.578ZM289.169 206.071C288.079 205.878 287.142 205.474 286.357 204.861C285.572 204.248 285.009 203.491 284.668 202.591C284.329 201.677 284.252 200.702 284.436 199.665C284.62 198.628 285.027 197.746 285.658 197.018C286.288 196.29 287.07 195.772 288.005 195.464C288.953 195.159 289.979 195.104 291.081 195.3C292.119 195.484 292.987 195.855 293.687 196.412C294.4 196.972 294.884 197.681 295.138 198.538L293.051 199.306C292.836 198.766 292.519 198.338 292.102 198.02C291.7 197.691 291.229 197.479 290.691 197.383C289.772 197.22 288.957 197.387 288.246 197.884C287.537 198.367 287.094 199.108 286.917 200.106C286.74 201.103 286.893 201.957 287.377 202.665C287.876 203.363 288.591 203.795 289.523 203.961C290.062 204.056 290.575 204.025 291.063 203.868C291.567 203.7 292.013 203.4 292.401 202.968L294.096 204.407C293.549 205.122 292.843 205.627 291.979 205.92C291.13 206.202 290.193 206.253 289.169 206.071ZM308.098 198.443L301.158 208.931C300.496 209.991 299.796 210.693 299.058 211.036C298.317 211.392 297.481 211.488 296.549 211.322C296.024 211.229 295.521 211.051 295.039 210.79C294.557 210.528 294.179 210.217 293.904 209.857L295.211 208.22C295.407 208.485 295.652 208.712 295.943 208.899C296.248 209.088 296.565 209.212 296.893 209.271C297.326 209.347 297.7 209.299 298.016 209.125C298.344 208.953 298.673 208.625 299.003 208.142L299.253 207.76L296.539 196.39L299.099 196.845L301.026 205.211L305.735 198.023L308.098 198.443ZM324.903 212.273L326.141 205.302L321.554 210.541L320.491 210.352L318.051 203.846L316.81 210.836L314.565 210.438L316.432 199.922L319.011 200.38L321.585 207.622L326.672 201.74L328.976 202.149L327.128 212.668L324.903 212.273ZM332.888 202.844L335.349 203.281L334.119 210.212L341.158 204.312L343.403 204.711L341.536 215.226L339.075 214.789L340.305 207.858L333.285 213.761L331.021 213.359L332.888 202.844ZM61.9489 179.116L64.4104 179.553L63.6517 183.826L68.9489 184.767L69.7076 180.494L72.1691 180.931L70.3021 191.446L67.8406 191.009L68.5783 186.854L63.2811 185.914L62.5435 190.069L60.0819 189.632L61.9489 179.116ZM79.9984 182.199C81.5475 182.474 82.6626 183.058 83.3437 183.95C84.0402 184.832 84.2557 186.022 83.99 187.518L82.8956 193.682L80.572 193.269L80.7992 191.989C80.4157 192.395 79.9196 192.673 79.3108 192.822C78.7174 192.96 78.0269 192.96 77.2392 192.82C76.4516 192.68 75.7857 192.426 75.2415 192.059C74.6997 191.678 74.3066 191.223 74.0623 190.692C73.8335 190.15 73.7727 189.577 73.8799 188.973C74.0477 188.028 74.5296 187.335 75.3257 186.894C76.1371 186.442 77.2977 186.351 78.8074 186.619L81.5249 187.101L81.5529 186.944C81.6834 186.208 81.5605 185.604 81.1841 185.131C80.8208 184.66 80.2059 184.348 79.3394 184.194C78.7487 184.089 78.1482 184.078 77.5379 184.159C76.9408 184.242 76.4161 184.413 75.964 184.672L75.3173 182.708C75.9432 182.386 76.6633 182.182 77.4775 182.096C78.2916 182.011 79.132 182.045 79.9984 182.199ZM78.0694 191.119C78.6864 191.228 79.2557 191.187 79.7773 190.995C80.3143 190.793 80.7279 190.447 81.018 189.956L81.2348 188.735L78.6945 188.284C77.2767 188.033 76.485 188.373 76.3195 189.305C76.2403 189.751 76.3546 190.137 76.6624 190.463C76.9703 190.788 77.4392 191.007 78.0694 191.119ZM98.1274 194.233L97.3408 198.664L95.0368 198.255L95.4529 195.911L87.3397 194.471L86.9237 196.814L84.6394 196.409L85.4261 191.978L85.9184 192.065C86.5926 192.158 87.1212 191.812 87.5044 191.027C87.903 190.231 88.2768 189.078 88.626 187.57L89.4036 183.99L98.0681 185.529L96.5718 193.957L98.1274 194.233ZM90.8394 188.145C90.5725 189.344 90.2992 190.311 90.0196 191.047C89.74 191.783 89.3772 192.3 88.9312 192.6L94.1103 193.52L95.236 187.179L91.1992 186.462L90.8394 188.145ZM105.307 197.803C104.217 197.61 103.28 197.206 102.495 196.593C101.71 195.98 101.147 195.223 100.806 194.323C100.467 193.409 100.39 192.434 100.574 191.397C100.758 190.36 101.165 189.478 101.795 188.75C102.425 188.022 103.208 187.504 104.143 187.196C105.091 186.891 106.116 186.836 107.219 187.032C108.256 187.216 109.125 187.587 109.825 188.144C110.538 188.704 111.021 189.413 111.275 190.27L109.189 191.038C108.973 190.498 108.657 190.07 108.239 189.752C107.837 189.423 107.367 189.211 106.829 189.115C105.91 188.952 105.095 189.119 104.384 189.616C103.675 190.099 103.232 190.84 103.055 191.838C102.878 192.835 103.031 193.689 103.514 194.397C104.013 195.095 104.729 195.527 105.661 195.693C106.199 195.788 106.713 195.757 107.201 195.6C107.705 195.432 108.151 195.132 108.539 194.7L110.234 196.139C109.687 196.854 108.981 197.359 108.116 197.652C107.267 197.934 106.331 197.985 105.307 197.803ZM114.446 188.436L116.907 188.873L115.677 195.805L122.717 189.905L124.961 190.303L123.095 200.819L120.633 200.382L121.864 193.45L114.844 199.354L112.579 198.952L114.446 188.436ZM138.394 192.688L136.527 203.204L134.066 202.767L135.562 194.339L131.624 193.639L131.155 195.709C130.842 197.089 130.503 198.234 130.139 199.145C129.789 200.044 129.336 200.729 128.779 201.198C128.237 201.657 127.572 201.817 126.784 201.677C126.417 201.612 125.977 201.459 125.464 201.219L125.949 199.173C126.126 199.245 126.28 199.292 126.411 199.316C126.91 199.404 127.319 199.274 127.639 198.924C127.96 198.561 128.203 198.11 128.367 197.571C128.545 197.02 128.753 196.231 128.99 195.203L129.887 191.178L138.394 192.688ZM146.24 193.959C147.789 194.234 148.904 194.818 149.585 195.711C150.282 196.593 150.497 197.782 150.231 199.279L149.137 205.443L146.813 205.03L147.041 203.75C146.657 204.156 146.161 204.434 145.552 204.583C144.959 204.721 144.268 204.72 143.481 204.581C142.693 204.441 142.027 204.187 141.483 203.82C140.941 203.439 140.548 202.983 140.304 202.452C140.075 201.911 140.014 201.338 140.121 200.734C140.289 199.789 140.771 199.096 141.567 198.655C142.379 198.203 143.539 198.111 145.049 198.379L147.766 198.862L147.794 198.704C147.925 197.969 147.802 197.365 147.425 196.892C147.062 196.421 146.447 196.109 145.581 195.955C144.99 195.85 144.39 195.838 143.779 195.919C143.182 196.003 142.658 196.174 142.205 196.432L141.559 194.469C142.185 194.147 142.905 193.943 143.719 193.857C144.533 193.771 145.373 193.806 146.24 193.959ZM144.311 202.879C144.928 202.989 145.497 202.948 146.019 202.756C146.556 202.554 146.969 202.207 147.259 201.717L147.476 200.496L144.936 200.045C143.518 199.793 142.726 200.134 142.561 201.066C142.482 201.512 142.596 201.898 142.904 202.223C143.212 202.549 143.681 202.768 144.311 202.879ZM157.629 207.113C156.527 206.917 155.576 206.511 154.778 205.896C153.983 205.267 153.408 204.501 153.053 203.599C152.701 202.683 152.617 201.707 152.801 200.67C152.986 199.633 153.4 198.745 154.046 198.006C154.692 197.268 155.495 196.747 156.456 196.444C157.42 196.127 158.453 196.067 159.556 196.263C160.514 196.433 161.353 196.744 162.071 197.197C162.79 197.649 163.366 198.219 163.799 198.905L162.137 200.032C161.456 199.058 160.512 198.464 159.305 198.249C158.412 198.091 157.601 198.197 156.871 198.569C156.157 198.93 155.637 199.494 155.311 200.262L160.175 201.126L159.861 202.898L155.016 202.038C155.076 202.847 155.38 203.538 155.928 204.109C156.479 204.667 157.194 205.025 158.074 205.181C159.282 205.395 160.374 205.156 161.35 204.462L162.523 206.093C161.891 206.603 161.153 206.946 160.309 207.121C159.481 207.286 158.588 207.283 157.629 207.113ZM175.203 210.07L176.44 203.099L171.854 208.338L170.791 208.15L168.35 201.643L167.109 208.633L164.864 208.235L166.731 197.719L169.311 198.177L171.885 205.419L176.971 199.537L179.275 199.946L177.428 210.465L175.203 210.07ZM185.983 212.126C184.919 211.938 184.002 211.538 183.23 210.927C182.458 210.316 181.902 209.56 181.56 208.66C181.235 207.749 181.164 206.775 181.348 205.738C181.532 204.701 181.933 203.817 182.55 203.087C183.18 202.359 183.963 201.842 184.898 201.534C185.832 201.226 186.832 201.166 187.895 201.355C188.971 201.546 189.896 201.947 190.667 202.558C191.439 203.169 191.989 203.923 192.317 204.821C192.658 205.721 192.737 206.69 192.553 207.727C192.369 208.764 191.96 209.653 191.328 210.394C190.711 211.124 189.935 211.643 189 211.951C188.065 212.259 187.059 212.318 185.983 212.126ZM186.357 210.019C187.263 210.18 188.064 210.011 188.762 209.512C189.46 209.013 189.897 208.271 190.072 207.287C190.246 206.302 190.092 205.455 189.608 204.747C189.125 204.038 188.43 203.603 187.524 203.442C186.619 203.281 185.817 203.451 185.119 203.95C184.434 204.451 184.004 205.194 183.829 206.178C183.654 207.163 183.802 208.009 184.273 208.715C184.756 209.424 185.451 209.859 186.357 210.019ZM211.462 205.661L209.595 216.176L207.134 215.739L207.857 211.663C206.76 211.969 205.66 212.025 204.558 211.829C203.205 211.589 202.223 211.096 201.611 210.351C201 209.593 200.81 208.57 201.038 207.284L201.636 203.916L204.097 204.353L203.527 207.563C203.409 208.233 203.517 208.767 203.853 209.165C204.188 209.563 204.717 209.826 205.439 209.954C206.358 210.117 207.272 210.077 208.183 209.832L209.001 205.224L211.462 205.661ZM224.265 213.418C224.235 213.589 224.179 213.83 224.096 214.14L215.845 212.675C215.852 213.475 216.117 214.159 216.639 214.726C217.177 215.281 217.899 215.64 218.805 215.801C219.96 216.006 220.979 215.794 221.863 215.165L222.913 216.916C222.34 217.397 221.667 217.717 220.894 217.878C220.12 218.038 219.281 218.038 218.375 217.877C217.22 217.672 216.243 217.262 215.445 216.646C214.647 216.031 214.077 215.273 213.736 214.373C213.41 213.462 213.34 212.488 213.524 211.45C213.706 210.426 214.098 209.548 214.702 208.816C215.322 208.073 216.086 207.545 216.995 207.232C217.903 206.92 218.876 206.855 219.913 207.039C220.937 207.221 221.809 207.613 222.528 208.215C223.263 208.806 223.78 209.554 224.079 210.46C224.394 211.356 224.456 212.342 224.265 213.418ZM219.564 209.009C218.776 208.869 218.064 208.986 217.429 209.361C216.809 209.725 216.372 210.284 216.116 211.037L222.083 212.097C222.113 211.316 221.901 210.642 221.446 210.074C220.992 209.506 220.364 209.151 219.564 209.009ZM231.745 215.762L229.835 215.423L229.087 219.637L226.625 219.2L228.492 208.684L230.954 209.121L230.198 213.375L232.168 213.725L236.034 210.024L238.673 210.492L233.954 214.875L237.062 221.053L234.167 220.539L231.745 215.762ZM239.471 214.778L244.887 215.739L244.523 217.787L239.108 216.826L239.471 214.778ZM258.32 213.98L256.453 224.496L253.991 224.059L255.488 215.63L251.549 214.931L251.08 217.001C250.767 218.381 250.429 219.526 250.064 220.436C249.715 221.336 249.261 222.02 248.704 222.49C248.162 222.949 247.497 223.109 246.71 222.969C246.342 222.904 245.902 222.751 245.389 222.511L245.875 220.464C246.051 220.536 246.205 220.584 246.337 220.607C246.836 220.696 247.245 220.566 247.564 220.216C247.886 219.853 248.128 219.402 248.292 218.862C248.471 218.312 248.679 217.523 248.915 216.495L249.813 212.47L258.32 213.98ZM262.226 214.674L264.687 215.111L263.456 222.042L270.496 216.142L272.741 216.541L270.874 227.056L268.413 226.619L269.643 219.687L262.623 225.591L260.359 225.189L262.226 214.674ZM279.537 228.736C278.447 228.543 277.51 228.139 276.725 227.526C275.94 226.913 275.377 226.156 275.036 225.256C274.697 224.343 274.62 223.367 274.804 222.33C274.988 221.293 275.395 220.411 276.025 219.683C276.656 218.955 277.438 218.437 278.373 218.13C279.321 217.824 280.346 217.769 281.449 217.965C282.486 218.149 283.355 218.52 284.055 219.077C284.768 219.637 285.251 220.346 285.505 221.204L283.419 221.971C283.203 221.431 282.887 221.003 282.469 220.685C282.067 220.356 281.597 220.144 281.059 220.049C280.14 219.885 279.325 220.052 278.614 220.549C277.905 221.032 277.462 221.773 277.285 222.771C277.108 223.768 277.261 224.622 277.744 225.331C278.244 226.028 278.959 226.46 279.891 226.626C280.429 226.721 280.943 226.691 281.431 226.533C281.935 226.366 282.381 226.066 282.769 225.633L284.464 227.072C283.917 227.787 283.211 228.292 282.346 228.585C281.497 228.868 280.561 228.918 279.537 228.736ZM296.539 222.919L292.857 222.265L291.36 230.693L288.899 230.256L290.395 221.828L286.693 221.171L287.063 219.083L296.91 220.831L296.539 222.919ZM299.286 221.253L301.747 221.69L300.517 228.622L307.556 222.722L309.801 223.12L307.934 233.636L305.473 233.199L306.704 226.267L299.683 232.171L297.419 231.769L299.286 221.253ZM313.16 231.334C313.62 231.415 313.974 231.634 314.222 231.99C314.47 232.345 314.551 232.766 314.465 233.252C314.428 233.462 314.355 233.679 314.248 233.904C314.156 234.117 313.977 234.438 313.712 234.865L312.214 237.463L310.619 237.18L311.942 234.307C311.674 234.137 311.477 233.913 311.35 233.633C311.24 233.342 311.214 233.027 311.275 232.685C311.361 232.199 311.582 231.832 311.938 231.584C312.293 231.336 312.701 231.252 313.16 231.334ZM335.217 227.633L333.35 238.148L330.908 237.715L332.405 229.286L327.226 228.367L325.729 236.795L323.268 236.358L325.135 225.843L335.217 227.633ZM348.031 235.392C348.001 235.563 347.945 235.803 347.862 236.114L339.611 234.649C339.618 235.449 339.883 236.133 340.405 236.699C340.943 237.255 341.665 237.613 342.571 237.774C343.726 237.979 344.745 237.768 345.629 237.139L346.679 238.89C346.106 239.37 345.433 239.691 344.66 239.851C343.886 240.012 343.047 240.012 342.141 239.851C340.986 239.646 340.009 239.236 339.211 238.62C338.413 238.004 337.843 237.246 337.502 236.346C337.176 235.435 337.106 234.461 337.29 233.424C337.472 232.4 337.864 231.522 338.468 230.79C339.088 230.046 339.852 229.519 340.761 229.206C341.669 228.893 342.642 228.829 343.679 229.013C344.703 229.195 345.575 229.587 346.294 230.188C347.029 230.779 347.546 231.528 347.845 232.434C348.16 233.33 348.222 234.316 348.031 235.392ZM343.33 230.982C342.542 230.843 341.83 230.96 341.195 231.335C340.575 231.699 340.138 232.257 339.882 233.011L345.849 234.07C345.879 233.29 345.667 232.616 345.212 232.048C344.758 231.48 344.13 231.125 343.33 230.982ZM358.108 231.575C359.132 231.757 360.005 232.142 360.726 232.73C361.461 233.321 361.986 234.064 362.301 234.96C362.616 235.855 362.679 236.835 362.49 237.898C362.301 238.962 361.904 239.866 361.297 240.612C360.693 241.344 359.945 241.861 359.052 242.163C358.172 242.467 357.22 242.528 356.196 242.346C354.778 242.095 353.739 241.423 353.08 240.331L352.174 245.431L349.713 244.994L352.258 230.658L354.602 231.074L354.357 232.453C354.852 232.026 355.418 231.74 356.053 231.596C356.701 231.454 357.386 231.447 358.108 231.575ZM356.294 240.19C357.2 240.351 357.995 240.181 358.68 239.68C359.378 239.181 359.814 238.439 359.989 237.454C360.164 236.47 360.01 235.623 359.526 234.914C359.056 234.208 358.368 233.774 357.462 233.613C356.871 233.508 356.315 233.552 355.793 233.744C355.274 233.922 354.832 234.237 354.468 234.686C354.104 235.136 353.863 235.69 353.747 236.346C353.63 237.002 353.666 237.604 353.853 238.152C354.04 238.7 354.345 239.154 354.769 239.513C355.195 239.86 355.703 240.086 356.294 240.19ZM375.366 240.245C375.336 240.416 375.28 240.656 375.197 240.967L366.946 239.502C366.953 240.302 367.218 240.986 367.74 241.552C368.278 242.108 369 242.467 369.906 242.627C371.061 242.833 372.08 242.621 372.964 241.992L374.014 243.743C373.441 244.223 372.768 244.544 371.995 244.705C371.221 244.865 370.382 244.865 369.476 244.704C368.321 244.499 367.344 244.089 366.546 243.473C365.748 242.858 365.179 242.1 364.837 241.199C364.512 240.288 364.441 239.314 364.625 238.277C364.807 237.253 365.2 236.375 365.804 235.643C366.423 234.9 367.187 234.372 368.096 234.059C369.004 233.746 369.977 233.682 371.014 233.866C372.038 234.048 372.91 234.44 373.629 235.041C374.364 235.632 374.881 236.381 375.18 237.287C375.495 238.183 375.557 239.169 375.366 240.245ZM370.665 235.836C369.877 235.696 369.165 235.813 368.53 236.188C367.91 236.552 367.473 237.11 367.217 237.864L373.184 238.923C373.214 238.143 373.002 237.469 372.547 236.901C372.093 236.333 371.465 235.978 370.665 235.836ZM388.99 237.18L387.123 247.695L384.661 247.258L386.157 238.83L382.219 238.131L381.75 240.201C381.437 241.58 381.099 242.726 380.734 243.636C380.385 244.535 379.931 245.22 379.374 245.69C378.832 246.149 378.167 246.308 377.379 246.168C377.012 246.103 376.572 245.951 376.059 245.711L376.544 243.664C376.721 243.736 376.875 243.784 377.007 243.807C377.505 243.895 377.914 243.765 378.234 243.415C378.556 243.053 378.798 242.601 378.962 242.062C379.141 241.511 379.348 240.722 379.585 239.694L380.483 235.669L388.99 237.18ZM392.895 237.873L395.357 238.31L393.49 248.826L391.028 248.389L392.895 237.873ZM394.444 236.36C393.997 236.281 393.648 236.077 393.395 235.748C393.144 235.405 393.056 235.024 393.13 234.604C393.205 234.184 393.418 233.863 393.769 233.64C394.122 233.405 394.522 233.327 394.968 233.407C395.414 233.486 395.764 233.69 396.017 234.019C396.272 234.336 396.364 234.697 396.292 235.104C396.215 235.537 395.999 235.878 395.643 236.126C395.303 236.364 394.903 236.442 394.444 236.36ZM402.527 246.083L400.617 245.744L399.869 249.958L397.408 249.521L399.274 239.006L401.736 239.443L400.981 243.696L402.95 244.046L406.817 240.345L409.455 240.813L404.736 245.196L407.844 251.374L404.95 250.86L402.527 246.083ZM67.2845 204.439L65.4175 214.954L62.956 214.517L64.4524 206.089L60.5139 205.39L60.0449 207.46C59.7322 208.84 59.3935 209.985 59.0287 210.895C58.6794 211.794 58.2261 212.479 57.6688 212.949C57.1268 213.408 56.462 213.567 55.6744 213.427C55.3068 213.362 54.8667 213.21 54.3541 212.97L54.8393 210.923C55.0161 210.995 55.1702 211.043 55.3014 211.066C55.8003 211.155 56.2094 211.024 56.5288 210.674C56.8505 210.312 57.0931 209.861 57.2566 209.321C57.4356 208.77 57.6434 207.981 57.88 206.953L58.7775 202.928L67.2845 204.439ZM71.1902 205.132L73.6518 205.569L71.7848 216.085L69.3233 215.648L71.1902 205.132ZM72.7385 203.619C72.2922 203.54 71.9425 203.336 71.6895 203.007C71.4388 202.664 71.3508 202.283 71.4254 201.863C71.4999 201.443 71.7127 201.122 72.0636 200.9C72.4168 200.664 72.8166 200.586 73.2629 200.666C73.7093 200.745 74.059 200.949 74.312 201.278C74.5673 201.595 74.6588 201.956 74.5866 202.363C74.5097 202.796 74.2934 203.137 73.9379 203.385C73.5978 203.623 73.198 203.701 72.7385 203.619ZM85.5285 209.831L81.8461 209.177L80.3498 217.605L77.8883 217.168L79.3846 208.74L75.6825 208.083L76.0531 205.995L85.8991 207.744L85.5285 209.831ZM96.7159 215.148C96.6856 215.319 96.6294 215.56 96.5472 215.87L88.2962 214.405C88.3031 215.205 88.5677 215.889 89.09 216.455C89.6278 217.011 90.3496 217.37 91.2554 217.531C92.4107 217.736 93.4301 217.524 94.3136 216.895L95.3637 218.646C94.7909 219.126 94.1178 219.447 93.3445 219.608C92.5712 219.768 91.7316 219.768 90.8258 219.607C89.6705 219.402 88.6939 218.992 87.8959 218.376C87.0979 217.761 86.5282 217.003 86.187 216.103C85.8612 215.192 85.7904 214.218 85.9746 213.18C86.1564 212.156 86.5493 211.278 87.1532 210.546C87.7727 209.803 88.5367 209.275 89.4454 208.962C90.354 208.65 91.3269 208.585 92.364 208.769C93.388 208.951 94.2596 209.343 94.9788 209.945C95.7135 210.535 96.2306 211.284 96.5302 212.19C96.8451 213.086 96.9071 214.072 96.7159 215.148ZM92.0144 210.739C91.2267 210.599 90.5152 210.716 89.88 211.091C89.2601 211.455 88.8224 212.014 88.5667 212.767L94.5334 213.827C94.5636 213.046 94.3515 212.372 93.8971 211.804C93.4428 211.236 92.8152 210.881 92.0144 210.739ZM106.793 211.331C107.817 211.513 108.69 211.898 109.411 212.487C110.146 213.078 110.671 213.821 110.986 214.716C111.301 215.612 111.364 216.591 111.175 217.655C110.986 218.718 110.588 219.622 109.982 220.368C109.378 221.1 108.63 221.617 107.736 221.919C106.856 222.223 105.904 222.285 104.88 222.103C103.463 221.851 102.424 221.179 101.765 220.087L100.859 225.187L98.3977 224.75L100.943 210.414L103.286 210.83L103.042 212.209C103.537 211.782 104.102 211.497 104.737 211.352C105.386 211.21 106.071 211.203 106.793 211.331ZM104.979 219.947C105.885 220.108 106.68 219.937 107.365 219.436C108.063 218.937 108.499 218.195 108.674 217.211C108.849 216.226 108.694 215.379 108.211 214.67C107.74 213.964 107.052 213.53 106.146 213.37C105.556 213.265 105 213.308 104.478 213.5C103.959 213.679 103.517 213.993 103.153 214.443C102.789 214.893 102.548 215.446 102.432 216.102C102.315 216.759 102.35 217.361 102.537 217.909C102.725 218.456 103.03 218.91 103.454 219.27C103.88 219.616 104.388 219.842 104.979 219.947ZM118.954 213.49C120.503 213.765 121.618 214.349 122.299 215.242C122.996 216.124 123.211 217.313 122.946 218.81L121.851 224.974L119.528 224.561L119.755 223.281C119.371 223.687 118.875 223.964 118.266 224.114C117.673 224.252 116.982 224.251 116.195 224.111C115.407 223.972 114.741 223.718 114.197 223.351C113.655 222.97 113.262 222.514 113.018 221.983C112.789 221.442 112.728 220.869 112.835 220.265C113.003 219.32 113.485 218.627 114.281 218.186C115.093 217.734 116.253 217.642 117.763 217.91L120.481 218.393L120.508 218.235C120.639 217.5 120.516 216.896 120.14 216.423C119.776 215.952 119.161 215.64 118.295 215.486C117.704 215.381 117.104 215.369 116.493 215.45C115.896 215.534 115.372 215.705 114.92 215.963L114.273 214C114.899 213.678 115.619 213.474 116.433 213.388C117.247 213.302 118.088 213.336 118.954 213.49ZM117.025 222.41C117.642 222.52 118.211 222.479 118.733 222.287C119.27 222.084 119.683 221.738 119.974 221.248L120.19 220.027L117.65 219.576C116.232 219.324 115.441 219.665 115.275 220.597C115.196 221.043 115.31 221.429 115.618 221.754C115.926 222.08 116.395 222.299 117.025 222.41ZM135.314 218.67L131.632 218.016L130.135 226.444L127.674 226.007L129.17 217.579L125.468 216.922L125.839 214.834L135.685 216.583L135.314 218.67ZM148.063 218.78L141.122 229.268C140.46 230.329 139.76 231.031 139.022 231.374C138.282 231.73 137.445 231.825 136.513 231.66C135.988 231.566 135.485 231.389 135.003 231.127C134.521 230.866 134.143 230.555 133.869 230.195L135.175 228.558C135.372 228.823 135.616 229.049 135.908 229.236C136.213 229.426 136.529 229.55 136.857 229.608C137.29 229.685 137.665 229.636 137.98 229.462C138.309 229.29 138.638 228.963 138.967 228.48L139.218 228.097L136.503 216.728L139.063 217.182L140.991 225.548L145.7 218.361L148.063 218.78ZM156.213 220.105C157.237 220.287 158.11 220.672 158.831 221.261C159.566 221.852 160.091 222.595 160.406 223.49C160.721 224.386 160.784 225.365 160.595 226.429C160.406 227.492 160.009 228.396 159.402 229.142C158.798 229.874 158.05 230.391 157.157 230.693C156.276 230.997 155.324 231.059 154.3 230.877C152.883 230.625 151.844 229.953 151.185 228.861L150.279 233.961L147.818 233.524L150.363 219.189L152.706 219.605L152.462 220.983C152.957 220.556 153.523 220.271 154.158 220.126C154.806 219.984 155.491 219.977 156.213 220.105ZM154.399 228.721C155.305 228.882 156.1 228.711 156.785 228.21C157.483 227.711 157.919 226.969 158.094 225.985C158.269 225 158.115 224.153 157.631 223.445C157.161 222.738 156.472 222.305 155.567 222.144C154.976 222.039 154.42 222.082 153.898 222.274C153.379 222.453 152.937 222.767 152.573 223.217C152.209 223.667 151.968 224.22 151.852 224.876C151.735 225.533 151.77 226.135 151.958 226.683C152.145 227.231 152.45 227.684 152.874 228.044C153.3 228.39 153.808 228.616 154.399 228.721ZM164.569 221.711L167.031 222.148L165.8 229.079L172.84 223.179L175.085 223.578L173.218 234.093L170.756 233.656L171.987 226.725L164.967 232.628L162.702 232.226L164.569 221.711ZM192.979 228.908L189.296 228.254L187.8 236.682L185.338 236.245L186.835 227.817L183.133 227.16L183.503 225.072L193.349 226.82L192.979 228.908ZM199.665 227.82C201.214 228.095 202.329 228.679 203.011 229.572C203.707 230.454 203.922 231.643 203.657 233.14L202.562 239.303L200.239 238.891L200.466 237.611C200.083 238.017 199.586 238.294 198.978 238.443C198.384 238.582 197.694 238.581 196.906 238.441C196.118 238.301 195.452 238.048 194.908 237.68C194.367 237.3 193.973 236.844 193.729 236.313C193.5 235.771 193.44 235.199 193.547 234.595C193.715 233.649 194.196 232.956 194.992 232.515C195.804 232.064 196.965 231.972 198.474 232.24L201.192 232.722L201.22 232.565C201.35 231.83 201.227 231.225 200.851 230.752C200.488 230.282 199.873 229.969 199.006 229.815C198.415 229.711 197.815 229.699 197.205 229.78C196.608 229.864 196.083 230.034 195.631 230.293L194.984 228.329C195.61 228.007 196.33 227.803 197.144 227.718C197.958 227.632 198.799 227.666 199.665 227.82ZM197.736 236.74C198.353 236.85 198.923 236.808 199.444 236.617C199.981 236.414 200.395 236.068 200.685 235.578L200.902 234.357L198.361 233.906C196.943 233.654 196.152 233.994 195.986 234.926C195.907 235.373 196.021 235.759 196.329 236.084C196.637 236.41 197.106 236.628 197.736 236.74ZM66.5307 234.083C66.2417 235.711 65.4696 236.894 64.2145 237.633C62.9725 238.374 61.3356 238.632 59.3037 238.407L58.6534 242.069L56.3297 241.657L56.9765 238.014C54.9912 237.526 53.5431 236.72 52.6321 235.597C51.7211 234.474 51.4112 233.092 51.7026 231.451C51.9916 229.823 52.7548 228.652 53.9921 227.937C55.2318 227.209 56.8675 226.958 58.8994 227.183L59.6022 223.225L61.9258 223.638L61.2231 227.596C63.2084 228.084 64.6577 228.882 65.571 229.993C66.4975 231.105 66.8174 232.469 66.5307 234.083ZM54.1247 231.881C53.9452 232.892 54.1139 233.734 54.6307 234.408C55.1606 235.084 56.0649 235.597 57.3436 235.946L58.5288 229.27C57.2105 229.145 56.1873 229.302 55.4593 229.741C54.7444 230.183 54.2995 230.896 54.1247 231.881ZM59.6673 236.359C62.2823 236.579 63.7693 235.679 64.1283 233.657C64.3054 232.659 64.1201 231.834 63.5724 231.182C63.0402 230.518 62.1335 230.019 60.8525 229.683L59.6673 236.359ZM70.4371 229.374L72.8986 229.811L71.0317 240.326L68.5702 239.889L70.4371 229.374ZM71.9854 227.861C71.539 227.782 71.1893 227.578 70.9363 227.248C70.6857 226.906 70.5976 226.525 70.6722 226.104C70.7468 225.684 70.9595 225.363 71.3104 225.141C71.6637 224.906 72.0634 224.828 72.5098 224.907C72.9561 224.986 73.3058 225.191 73.5588 225.52C73.8141 225.836 73.9057 226.198 73.8334 226.605C73.7565 227.038 73.5403 227.379 73.1847 227.627C72.8446 227.865 72.4448 227.943 71.9854 227.861ZM86.3472 232.198L84.4803 242.714L82.0187 242.277L83.5151 233.849L79.5767 233.149L79.1076 235.219C78.7949 236.599 78.4562 237.744 78.0915 238.655C77.7422 239.554 77.2889 240.239 76.7315 240.709C76.1896 241.168 75.5248 241.327 74.7371 241.187C74.3695 241.122 73.9294 240.969 73.4168 240.729L73.9021 238.683C74.0789 238.755 74.2329 238.802 74.3642 238.826C74.8631 238.914 75.2722 238.784 75.5915 238.434C75.9132 238.072 76.1558 237.62 76.3193 237.081C76.4983 236.53 76.7062 235.741 76.9428 234.713L77.8402 230.688L86.3472 232.198ZM94.9151 237.295C96.2542 237.532 97.2246 238.016 97.8263 238.746C98.4411 239.478 98.6506 240.395 98.4548 241.498C98.2497 242.653 97.6974 243.476 96.7978 243.966C95.8983 244.457 94.7342 244.568 93.3056 244.301L88.386 243.407L90.253 232.892L92.7145 233.329L92.1027 236.775L94.9151 237.295ZM93.4106 242.451C94.1303 242.592 94.7085 242.539 95.1451 242.292C95.5818 242.044 95.8537 241.619 95.9609 241.015C96.0658 240.424 95.9589 239.958 95.6403 239.617C95.3217 239.276 94.7894 239.033 94.0434 238.887L91.802 238.468L91.1692 242.033L93.4106 242.451ZM110.911 247.407L112.149 240.436L107.562 245.674L106.499 245.486L104.059 238.979L102.818 245.97L100.573 245.571L102.44 235.056L105.019 235.514L107.593 242.755L112.68 236.874L114.984 237.283L113.136 247.802L110.911 247.407ZM118.896 237.977L121.357 238.414L119.49 248.93L117.029 248.493L118.896 237.977ZM120.444 236.464C119.998 236.385 119.648 236.181 119.395 235.852C119.144 235.509 119.056 235.128 119.131 234.708C119.205 234.288 119.418 233.967 119.769 233.745C120.122 233.509 120.522 233.431 120.968 233.511C121.415 233.59 121.764 233.794 122.017 234.123C122.273 234.44 122.364 234.801 122.292 235.208C122.215 235.641 121.999 235.982 121.643 236.231C121.303 236.468 120.903 236.546 120.444 236.464ZM132.001 245.504C133.23 246.128 133.731 247.084 133.503 248.371C133.335 249.316 132.851 249.981 132.051 250.368C131.251 250.754 130.156 250.823 128.764 250.576L123.408 249.625L125.275 239.11L130.414 240.022C131.701 240.251 132.663 240.665 133.301 241.266C133.94 241.867 134.182 242.6 134.028 243.467C133.932 244.005 133.705 244.446 133.346 244.788C133.001 245.133 132.552 245.372 132.001 245.504ZM126.839 243.917L129.418 244.375C130.692 244.601 131.406 244.274 131.563 243.395C131.714 242.542 131.153 242.002 129.88 241.776L127.3 241.318L126.839 243.917ZM128.885 248.749C130.238 248.989 130.992 248.67 131.148 247.79C131.229 247.331 131.133 246.961 130.857 246.682C130.584 246.39 130.113 246.184 129.443 246.065L126.548 245.552L126.069 248.249L128.885 248.749ZM137.515 248.9C137.974 248.982 138.328 249.2 138.576 249.556C138.825 249.911 138.906 250.332 138.82 250.818C138.782 251.028 138.71 251.245 138.602 251.47C138.51 251.684 138.331 252.004 138.066 252.431L136.569 255.029L134.974 254.746L136.296 251.873C136.028 251.703 135.831 251.479 135.705 251.199C135.594 250.909 135.569 250.593 135.629 250.251C135.716 249.766 135.937 249.399 136.292 249.15C136.648 248.902 137.055 248.818 137.515 248.9ZM157.961 255.76L159.198 248.789L154.612 254.028L153.548 253.839L151.108 247.332L149.867 254.323L147.622 253.924L149.489 243.409L152.069 243.867L154.643 251.108L159.729 245.227L162.033 245.636L160.186 256.155L157.961 255.76ZM169.885 246.908C171.434 247.183 172.549 247.767 173.23 248.66C173.927 249.542 174.142 250.731 173.876 252.228L172.782 258.391L170.458 257.979L170.686 256.699C170.302 257.105 169.806 257.382 169.197 257.531C168.604 257.67 167.913 257.669 167.126 257.529C166.338 257.389 165.672 257.136 165.128 256.768C164.586 256.388 164.193 255.932 163.949 255.401C163.72 254.859 163.659 254.287 163.766 253.683C163.934 252.737 164.416 252.044 165.212 251.603C166.023 251.152 167.184 251.06 168.694 251.328L171.411 251.81L171.439 251.653C171.57 250.918 171.447 250.313 171.07 249.84C170.707 249.37 170.092 249.057 169.226 248.903C168.635 248.799 168.035 248.787 167.424 248.868C166.827 248.952 166.302 249.123 165.85 249.381L165.204 247.418C165.83 247.095 166.55 246.891 167.364 246.806C168.178 246.72 169.018 246.754 169.885 246.908ZM167.956 255.828C168.573 255.938 169.142 255.897 169.664 255.705C170.201 255.502 170.614 255.156 170.904 254.666L171.121 253.445L168.581 252.994C167.163 252.742 166.371 253.082 166.206 254.014C166.127 254.461 166.241 254.847 166.549 255.172C166.857 255.498 167.326 255.716 167.956 255.828ZM186.245 252.088L182.562 251.434L181.066 259.862L178.605 259.425L180.101 250.997L176.399 250.34L176.769 248.252L186.615 250L186.245 252.088ZM197.432 257.405C197.402 257.576 197.346 257.816 197.263 258.127L189.013 256.662C189.019 257.462 189.284 258.145 189.806 258.712C190.344 259.268 191.066 259.626 191.972 259.787C193.127 259.992 194.146 259.781 195.03 259.152L196.08 260.903C195.507 261.383 194.834 261.704 194.061 261.864C193.287 262.025 192.448 262.025 191.542 261.864C190.387 261.659 189.41 261.249 188.612 260.633C187.814 260.017 187.245 259.259 186.903 258.359C186.578 257.448 186.507 256.474 186.691 255.437C186.873 254.413 187.266 253.535 187.87 252.803C188.489 252.059 189.253 251.532 190.162 251.219C191.07 250.906 192.043 250.842 193.08 251.026C194.104 251.208 194.976 251.6 195.695 252.201C196.43 252.792 196.947 253.541 197.246 254.447C197.561 255.343 197.623 256.329 197.432 257.405ZM192.731 252.995C191.943 252.856 191.232 252.973 190.596 253.348C189.976 253.712 189.539 254.27 189.283 255.024L195.25 256.083C195.28 255.303 195.068 254.629 194.613 254.061C194.159 253.493 193.532 253.138 192.731 252.995ZM207.509 253.588C208.533 253.77 209.406 254.155 210.127 254.743C210.862 255.334 211.387 256.077 211.702 256.973C212.017 257.868 212.08 258.848 211.891 259.911C211.702 260.975 211.305 261.879 210.698 262.625C210.094 263.357 209.346 263.874 208.453 264.176C207.573 264.48 206.621 264.541 205.597 264.359C204.179 264.108 203.14 263.436 202.481 262.344L201.576 267.444L199.114 267.007L201.659 252.671L204.003 253.087L203.758 254.466C204.253 254.039 204.819 253.753 205.454 253.609C206.102 253.467 206.787 253.46 207.509 253.588ZM205.695 262.203C206.601 262.364 207.396 262.194 208.081 261.693C208.779 261.194 209.215 260.452 209.39 259.467C209.565 258.483 209.411 257.636 208.927 256.927C208.457 256.221 207.769 255.787 206.863 255.626C206.272 255.521 205.716 255.565 205.194 255.757C204.675 255.935 204.233 256.25 203.869 256.699C203.505 257.149 203.264 257.703 203.148 258.359C203.031 259.015 203.067 259.617 203.254 260.165C203.441 260.713 203.746 261.167 204.17 261.526C204.596 261.873 205.104 262.099 205.695 262.203ZM215.865 255.193L218.327 255.63L216.46 266.146L213.998 265.709L215.865 255.193ZM217.413 253.681C216.967 253.601 216.617 253.397 216.364 253.068C216.114 252.725 216.026 252.344 216.1 251.924C216.175 251.504 216.388 251.183 216.739 250.961C217.092 250.726 217.492 250.648 217.938 250.727C218.384 250.806 218.734 251.01 218.987 251.34C219.242 251.656 219.334 252.017 219.262 252.424C219.185 252.858 218.968 253.198 218.613 253.447C218.273 253.684 217.873 253.762 217.413 253.681ZM226.184 256.903C227.733 257.178 228.848 257.762 229.529 258.655C230.226 259.537 230.441 260.727 230.176 262.223L229.081 268.387L226.758 267.974L226.985 266.694C226.601 267.1 226.105 267.378 225.496 267.527C224.903 267.665 224.213 267.665 223.425 267.525C222.637 267.385 221.971 267.131 221.427 266.764C220.885 266.383 220.492 265.927 220.248 265.397C220.019 264.855 219.958 264.282 220.066 263.678C220.233 262.733 220.715 262.04 221.511 261.599C222.323 261.147 223.483 261.055 224.993 261.323L227.711 261.806L227.739 261.648C227.869 260.913 227.746 260.309 227.37 259.836C227.006 259.365 226.392 259.053 225.525 258.899C224.934 258.794 224.334 258.782 223.724 258.864C223.126 258.947 222.602 259.118 222.15 259.376L221.503 257.413C222.129 257.091 222.849 256.887 223.663 256.801C224.477 256.716 225.318 256.75 226.184 256.903ZM224.255 265.824C224.872 265.933 225.441 265.892 225.963 265.7C226.5 265.498 226.913 265.151 227.204 264.661L227.42 263.44L224.88 262.989C223.462 262.738 222.671 263.078 222.505 264.01C222.426 264.456 222.54 264.842 222.848 265.168C223.156 265.493 223.625 265.712 224.255 265.824ZM244.116 260.209L242.249 270.725L239.787 270.288L241.284 261.859L237.345 261.16L236.876 263.23C236.564 264.61 236.225 265.755 235.86 266.665C235.511 267.565 235.058 268.249 234.5 268.719C233.958 269.178 233.293 269.338 232.506 269.198C232.138 269.133 231.698 268.98 231.186 268.74L231.671 266.693C231.848 266.765 232.002 266.813 232.133 266.836C232.632 266.925 233.041 266.794 233.36 266.445C233.682 266.082 233.925 265.631 234.088 265.091C234.267 264.541 234.475 263.752 234.712 262.724L235.609 258.699L244.116 260.209ZM248.022 260.902L250.483 261.339L249.253 268.271L256.292 262.371L258.537 262.769L256.67 273.285L254.209 272.848L255.439 265.916L248.419 271.82L246.155 271.418L248.022 260.902ZM278.2 274.954L277.414 279.385L275.11 278.976L275.526 276.633L267.413 275.192L266.997 277.536L264.712 277.13L265.499 272.699L265.991 272.787C266.665 272.879 267.194 272.533 267.577 271.748C267.976 270.952 268.35 269.8 268.699 268.291L269.476 264.712L278.141 266.25L276.645 274.678L278.2 274.954ZM270.912 268.867C270.645 270.065 270.372 271.032 270.092 271.768C269.813 272.504 269.45 273.022 269.004 273.322L274.183 274.241L275.309 267.9L271.272 267.184L270.912 268.867ZM292.017 268.713L290.15 279.229L287.688 278.792L289.185 270.364L285.246 269.665L284.777 271.734C284.465 273.114 284.126 274.259 283.761 275.17C283.412 276.069 282.958 276.754 282.401 277.224C281.859 277.683 281.194 277.842 280.407 277.702C280.039 277.637 279.599 277.484 279.086 277.244L279.572 275.198C279.748 275.27 279.903 275.317 280.034 275.341C280.533 275.429 280.942 275.299 281.261 274.949C281.583 274.587 281.825 274.135 281.989 273.596C282.168 273.045 282.376 272.256 282.612 271.228L283.51 267.203L292.017 268.713ZM304.804 270.984L302.937 281.499L300.731 281.108L301.294 277.937L298.518 277.444L295.808 280.234L293.17 279.765L296.273 276.7C295.558 276.303 295.045 275.799 294.734 275.188C294.438 274.567 294.361 273.856 294.503 273.055C294.717 271.847 295.31 270.991 296.279 270.486C297.249 269.981 298.483 269.861 299.979 270.127L304.804 270.984ZM299.691 272.209C298.102 271.927 297.202 272.383 296.99 273.578C296.78 274.759 297.443 275.486 298.979 275.759L301.598 276.224L302.231 272.66L299.691 272.209ZM52.2564 261.51C51.1668 261.317 50.2296 260.914 49.4447 260.3C48.6598 259.687 48.0968 258.93 47.7555 258.03C47.4166 257.117 47.3392 256.141 47.5234 255.104C47.7075 254.067 48.1147 253.185 48.7449 252.457C49.3752 251.729 50.1578 251.212 51.0927 250.904C52.0407 250.598 53.0661 250.543 54.1688 250.739C55.206 250.923 56.0745 251.294 56.7745 251.851C57.4876 252.411 57.9711 253.12 58.2251 253.978L56.1389 254.745C55.9232 254.206 55.6066 253.777 55.189 253.459C54.787 253.13 54.3168 252.918 53.7786 252.823C52.8596 252.66 52.0446 252.826 51.3334 253.323C50.6247 253.807 50.1817 254.547 50.0046 255.545C49.8274 256.543 49.9806 257.396 50.4642 258.105C50.9632 258.803 51.6787 259.234 52.6108 259.4C53.1491 259.495 53.6624 259.465 54.1507 259.308C54.6544 259.14 55.1004 258.84 55.4886 258.408L57.1832 259.846C56.6364 260.561 55.9307 261.066 55.0661 261.359C54.217 261.642 53.2804 261.692 52.2564 261.51ZM65.3353 252.721C66.8844 252.996 67.9995 253.58 68.6806 254.473C69.3771 255.355 69.5926 256.544 69.3268 258.041L68.2325 264.205L65.9089 263.792L66.1361 262.512C65.7526 262.918 65.2565 263.196 64.6477 263.345C64.0543 263.483 63.3638 263.482 62.5761 263.343C61.7885 263.203 61.1225 262.949 60.5784 262.582C60.0366 262.201 59.6435 261.745 59.3992 261.214C59.1704 260.673 59.1096 260.1 59.2168 259.496C59.3846 258.551 59.8665 257.858 60.6626 257.417C61.474 256.965 62.6346 256.873 64.1443 257.141L66.8618 257.624L66.8898 257.466C67.0203 256.731 66.8974 256.127 66.521 255.654C66.1577 255.183 65.5428 254.871 64.6763 254.717C64.0856 254.612 63.485 254.6 62.8748 254.681C62.2776 254.765 61.753 254.936 61.3009 255.194L60.6542 253.231C61.2801 252.909 62.0002 252.705 62.8144 252.619C63.6285 252.533 64.4689 252.568 65.3353 252.721ZM63.4063 261.641C64.0233 261.751 64.5926 261.71 65.1141 261.518C65.6512 261.316 66.0647 260.969 66.3549 260.479L66.5717 259.258L64.0314 258.807C62.6136 258.555 61.8219 258.896 61.6564 259.828C61.5772 260.274 61.6915 260.66 61.9993 260.985C62.3071 261.311 62.7761 261.53 63.4063 261.641ZM82.2076 266.686L83.4452 259.715L78.8588 264.954L77.7954 264.765L75.3553 258.258L74.1142 265.249L71.8693 264.85L73.7362 254.335L76.3159 254.793L78.8896 262.034L83.9761 256.153L86.2801 256.562L84.4328 267.081L82.2076 266.686ZM92.9874 268.742C91.9241 268.553 91.0065 268.153 90.2348 267.542C89.463 266.931 88.9065 266.176 88.5653 265.275C88.2395 264.364 88.1687 263.39 88.3528 262.353C88.537 261.316 88.9376 260.433 89.5547 259.703C90.185 258.975 90.9675 258.457 91.9024 258.149C92.8373 257.841 93.8365 257.782 94.8998 257.97C95.9763 258.161 96.9005 258.562 97.6722 259.173C98.444 259.784 98.9939 260.539 99.322 261.437C99.6632 262.337 99.7418 263.306 99.5576 264.343C99.3735 265.38 98.9651 266.269 98.3326 267.01C97.7154 267.74 96.9394 268.259 96.0045 268.567C95.0696 268.875 94.0639 268.933 92.9874 268.742ZM93.3615 266.635C94.2674 266.796 95.0693 266.627 95.7672 266.128C96.4652 265.629 96.9016 264.887 97.0764 263.902C97.2512 262.918 97.0969 262.071 96.6133 261.362C96.1298 260.653 95.4351 260.218 94.5292 260.058C93.6234 259.897 92.8215 260.066 92.1235 260.565C91.4387 261.066 91.0089 261.809 90.834 262.794C90.6592 263.778 90.807 264.624 91.2775 265.33C91.761 266.039 92.4557 266.474 93.3615 266.635ZM106.407 271.124C105.318 270.931 104.38 270.528 103.596 269.914C102.811 269.301 102.248 268.544 101.906 267.644C101.567 266.731 101.49 265.756 101.674 264.718C101.858 263.681 102.266 262.799 102.896 262.071C103.526 261.343 104.309 260.826 105.243 260.518C106.192 260.212 107.217 260.157 108.32 260.353C109.357 260.537 110.225 260.908 110.925 261.465C111.638 262.025 112.122 262.734 112.376 263.592L110.29 264.359C110.074 263.82 109.757 263.391 109.34 263.073C108.938 262.744 108.468 262.532 107.929 262.437C107.01 262.274 106.195 262.44 105.484 262.937C104.776 263.421 104.333 264.161 104.155 265.159C103.978 266.157 104.131 267.01 104.615 267.719C105.114 268.417 105.83 268.848 106.762 269.014C107.3 269.109 107.813 269.079 108.301 268.922C108.805 268.754 109.251 268.454 109.639 268.022L111.334 269.46C110.787 270.175 110.082 270.68 109.217 270.973C108.368 271.256 107.431 271.306 106.407 271.124ZM123.409 265.307L119.727 264.653L118.231 273.081L115.769 272.644L117.266 264.216L113.563 263.559L113.934 261.472L123.78 263.22L123.409 265.307ZM126.156 263.642L128.618 264.079L126.751 274.594L124.289 274.157L126.156 263.642ZM127.705 262.129C127.258 262.05 126.909 261.845 126.656 261.516C126.405 261.174 126.317 260.792 126.391 260.372C126.466 259.952 126.679 259.631 127.03 259.409C127.383 259.174 127.783 259.096 128.229 259.175C128.675 259.254 129.025 259.459 129.278 259.788C129.533 260.104 129.625 260.466 129.553 260.873C129.476 261.306 129.259 261.647 128.904 261.895C128.564 262.132 128.164 262.21 127.705 262.129ZM132.535 264.774L134.997 265.211L133.766 272.143L140.806 266.242L143.051 266.641L141.184 277.157L138.723 276.72L139.953 269.788L132.933 275.692L130.668 275.29L132.535 264.774ZM137.856 264.439C136.793 264.25 136.022 263.863 135.543 263.277C135.081 262.68 134.927 261.908 135.081 260.96L136.716 261.251C136.645 261.726 136.723 262.125 136.95 262.45C137.19 262.777 137.565 262.986 138.077 263.077C138.576 263.165 138.995 263.097 139.332 262.873C139.683 262.651 139.907 262.305 140.004 261.834L141.678 262.132C141.497 263.074 141.08 263.745 140.427 264.144C139.776 264.529 138.919 264.628 137.856 264.439ZM146.953 267.334L149.414 267.771L148.656 272.044L153.953 272.984L154.712 268.711L157.173 269.148L155.306 279.664L152.845 279.227L153.582 275.072L148.285 274.131L147.548 278.286L145.086 277.849L146.953 267.334ZM163.858 281.324C162.795 281.136 161.877 280.736 161.105 280.125C160.334 279.514 159.777 278.758 159.436 277.858C159.11 276.947 159.039 275.973 159.223 274.936C159.408 273.899 159.808 273.015 160.425 272.285C161.056 271.557 161.838 271.04 162.773 270.732C163.708 270.424 164.707 270.364 165.77 270.553C166.847 270.744 167.771 271.145 168.543 271.756C169.315 272.367 169.864 273.121 170.193 274.019C170.534 274.919 170.612 275.888 170.428 276.925C170.244 277.962 169.836 278.851 169.203 279.592C168.586 280.322 167.81 280.841 166.875 281.149C165.94 281.457 164.935 281.515 163.858 281.324ZM164.232 279.217C165.138 279.378 165.94 279.209 166.638 278.71C167.336 278.211 167.772 277.469 167.947 276.485C168.122 275.5 167.967 274.653 167.484 273.945C167 273.236 166.306 272.801 165.4 272.64C164.494 272.479 163.692 272.648 162.994 273.147C162.309 273.649 161.879 274.392 161.705 275.376C161.53 276.361 161.678 277.206 162.148 277.913C162.632 278.622 163.326 279.056 164.232 279.217ZM174.345 272.197L176.806 272.634L174.939 283.15L172.478 282.713L174.345 272.197ZM174.386 270.478C174.058 270.419 173.801 270.265 173.615 270.016C173.444 269.755 173.389 269.454 173.45 269.113C173.511 268.772 173.666 268.508 173.915 268.322C174.178 268.139 174.474 268.076 174.802 268.134C175.117 268.19 175.36 268.349 175.53 268.609C175.714 268.872 175.775 269.174 175.715 269.515C175.656 269.843 175.496 270.099 175.233 270.283C174.983 270.469 174.701 270.534 174.386 270.478ZM177.399 271.013C177.071 270.954 176.815 270.794 176.631 270.531C176.461 270.271 176.405 269.976 176.463 269.648C176.524 269.307 176.679 269.043 176.928 268.857C177.191 268.674 177.487 268.611 177.815 268.669C178.143 268.728 178.392 268.887 178.563 269.147C178.733 269.408 178.788 269.709 178.728 270.05C178.667 270.391 178.512 270.655 178.262 270.841C178.015 271.014 177.727 271.071 177.399 271.013ZM196.782 276.181L194.915 286.696L192.474 286.263L193.97 277.834L188.791 276.915L187.295 285.343L184.833 284.906L186.7 274.391L196.782 276.181ZM206.544 277.792C207.568 277.974 208.441 278.359 209.163 278.947C209.897 279.538 210.422 280.281 210.737 281.177C211.052 282.072 211.115 283.052 210.926 284.115C210.738 285.179 210.34 286.083 209.734 286.829C209.13 287.561 208.381 288.078 207.488 288.38C206.608 288.684 205.656 288.745 204.632 288.563C203.214 288.312 202.176 287.64 201.516 286.548L200.611 291.648L198.149 291.211L200.695 276.875L203.038 277.291L202.793 278.67C203.289 278.243 203.854 277.957 204.489 277.813C205.137 277.671 205.822 277.664 206.544 277.792ZM204.73 286.407C205.636 286.568 206.432 286.398 207.116 285.897C207.814 285.398 208.251 284.656 208.426 283.671C208.6 282.687 208.446 281.84 207.962 281.131C207.492 280.425 206.804 279.991 205.898 279.83C205.307 279.725 204.751 279.769 204.23 279.961C203.71 280.139 203.269 280.454 202.904 280.904C202.54 281.353 202.3 281.907 202.183 282.563C202.067 283.219 202.102 283.822 202.289 284.369C202.476 284.917 202.782 285.371 203.205 285.73C203.631 286.077 204.14 286.303 204.73 286.407ZM218.706 279.951C220.255 280.226 221.37 280.81 222.051 281.703C222.747 282.585 222.963 283.774 222.697 285.271L221.603 291.434L219.279 291.022L219.506 289.742C219.123 290.148 218.627 290.425 218.018 290.574C217.425 290.713 216.734 290.712 215.946 290.572C215.159 290.432 214.493 290.179 213.949 289.811C213.407 289.431 213.014 288.975 212.77 288.444C212.541 287.902 212.48 287.33 212.587 286.726C212.755 285.781 213.237 285.087 214.033 284.646C214.844 284.195 216.005 284.103 217.515 284.371L220.232 284.853L220.26 284.696C220.391 283.961 220.268 283.357 219.891 282.883C219.528 282.413 218.913 282.1 218.047 281.947C217.456 281.842 216.855 281.83 216.245 281.911C215.648 281.995 215.123 282.166 214.671 282.424L214.024 280.461C214.65 280.138 215.37 279.934 216.185 279.849C216.999 279.763 217.839 279.797 218.706 279.951ZM216.777 288.871C217.394 288.981 217.963 288.94 218.484 288.748C219.021 288.545 219.435 288.199 219.725 287.709L219.942 286.488L217.402 286.037C215.984 285.785 215.192 286.125 215.027 287.057C214.947 287.504 215.062 287.89 215.37 288.215C215.677 288.541 216.146 288.759 216.777 288.871ZM230.359 288.642L228.449 288.303L227.701 292.517L225.24 292.08L227.107 281.564L229.568 282.001L228.813 286.255L230.782 286.605L234.649 282.903L237.287 283.372L232.569 287.755L235.676 293.933L232.782 293.419L230.359 288.642ZM247.695 287.373L244.012 286.719L242.516 295.147L240.054 294.71L241.551 286.282L237.849 285.625L238.219 283.537L248.065 285.286L247.695 287.373ZM250.442 285.707L252.903 286.144L251.672 293.076L258.712 287.176L260.957 287.574L259.09 298.09L256.629 297.653L257.859 290.721L250.839 296.625L248.575 296.223L250.442 285.707ZM268.112 295.345L266.202 295.006L265.454 299.22L262.992 298.783L264.859 288.267L267.321 288.704L266.565 292.958L268.535 293.307L272.401 289.606L275.04 290.075L270.321 294.457L273.429 300.636L270.534 300.122L268.112 295.345ZM277.623 290.533L280.084 290.97L278.854 297.902L285.893 292.002L288.138 292.4L286.271 302.916L283.81 302.479L285.041 295.547L278.02 301.451L275.756 301.049L277.623 290.533ZM292.266 289.761L295.181 290.279L293.052 299.407L291.103 299.061L292.266 289.761ZM291.252 303.942C290.792 303.861 290.437 303.649 290.186 303.306C289.938 302.951 289.852 302.556 289.929 302.123C290.006 301.69 290.221 301.355 290.574 301.12C290.928 300.885 291.334 300.808 291.794 300.89C292.24 300.969 292.582 301.179 292.819 301.519C293.07 301.861 293.157 302.249 293.08 302.682C293.003 303.116 292.787 303.456 292.431 303.705C292.091 303.942 291.698 304.021 291.252 303.942Z" fill="black"/>
</svg>
