<svg width="457" height="419" viewBox="0 0 457 419" fill="none" xmlns="http://www.w3.org/2000/svg">
<path d="M447.935 230.374C455.901 129.16 466.654 78.8568 440.165 56.7683C428.274 46.8727 415.305 45.1449 391.151 43.2011C271.5 33.6392 177.769 43.0636 156.48 45.3019C37.3196 57.8482 27.3324 62.7371 17.7572 73.477C-5.2194 99.2763 -1.7268 147.046 5.23876 242.547C8.31931 284.76 13.1658 307.045 30.0597 325.05C48.1506 344.35 71.7158 353.068 94.3391 353.794C138.86 355.247 226.704 351.536 299.5 347.001C292.554 367.381 277.602 402.624 253.35 418.98C253.35 418.98 324.144 392.69 366.212 342.23C385.912 340.6 401.373 339.501 409.752 337.773C433.121 332.943 442.441 300.173 447.935 230.374Z" fill="#FDCE02"/>
<path d="M41.0755 17.2H79.9235V28.592H55.9235V33.776H66.6115C72.0728 33.776 76.2542 34.9493 79.1555 37.296C82.0995 39.6 83.5715 42.9493 83.5715 47.344C83.5715 51.9093 81.9075 55.4933 78.5795 58.096C75.2515 60.6987 70.6222 62 64.6915 62H41.0755V17.2ZM63.6675 51.44C65.1608 51.44 66.3128 51.12 67.1235 50.48C67.9768 49.84 68.4035 48.9227 68.4035 47.728C68.4035 45.424 66.8248 44.272 63.6675 44.272H55.9235V51.44H63.6675ZM113.467 63.024C108.646 63.024 104.315 62.0213 100.475 60.016C96.635 58.0107 93.627 55.2373 91.451 51.696C89.275 48.112 88.187 44.08 88.187 39.6C88.187 35.12 89.275 31.1093 91.451 27.568C93.627 23.984 96.635 21.1893 100.475 19.184C104.315 17.1787 108.646 16.176 113.467 16.176C118.288 16.176 122.619 17.1787 126.459 19.184C130.299 21.1893 133.307 23.984 135.483 27.568C137.659 31.1093 138.747 35.12 138.747 39.6C138.747 44.08 137.659 48.112 135.483 51.696C133.307 55.2373 130.299 58.0107 126.459 60.016C122.619 62.0213 118.288 63.024 113.467 63.024ZM113.467 50.8C115.344 50.8 117.03 50.352 118.523 49.456C120.059 48.5173 121.275 47.216 122.171 45.552C123.067 43.8453 123.515 41.8613 123.515 39.6C123.515 37.3387 123.067 35.376 122.171 33.712C121.275 32.0053 120.059 30.704 118.523 29.808C117.03 28.8693 115.344 28.4 113.467 28.4C111.59 28.4 109.883 28.8693 108.347 29.808C106.854 30.704 105.659 32.0053 104.763 33.712C103.867 35.376 103.419 37.3387 103.419 39.6C103.419 41.8613 103.867 43.8453 104.763 45.552C105.659 47.216 106.854 48.5173 108.347 49.456C109.883 50.352 111.59 50.8 113.467 50.8ZM190.263 17.2V62H175.159V45.488H161.207V62H146.103V17.2H161.207V33.072H175.159V17.2H190.263ZM244.948 17.2L226.964 50.928C224.831 54.9387 222.207 57.9893 219.092 60.08C216.02 62.1707 212.628 63.216 208.916 63.216C206.057 63.216 203.156 62.6187 200.212 61.424L203.732 50.544C205.609 51.056 207.145 51.312 208.34 51.312C209.449 51.312 210.388 51.12 211.156 50.736C211.967 50.352 212.735 49.712 213.46 48.816L196.308 17.2H212.244L221.14 36.08L230.356 17.2H244.948ZM271.846 63.024C267.11 63.024 262.843 62.0427 259.046 60.08C255.249 58.0747 252.262 55.3013 250.086 51.76C247.953 48.176 246.886 44.1227 246.886 39.6C246.886 35.0773 247.953 31.0453 250.086 27.504C252.262 23.92 255.249 21.1467 259.046 19.184C262.843 17.1787 267.11 16.176 271.846 16.176C276.198 16.176 280.081 16.944 283.494 18.48C286.907 20.016 289.723 22.2347 291.942 25.136L282.406 33.648C279.633 30.1493 276.369 28.4 272.614 28.4C269.457 28.4 266.918 29.424 264.998 31.472C263.078 33.4773 262.118 36.1867 262.118 39.6C262.118 43.0133 263.078 45.744 264.998 47.792C266.918 49.7973 269.457 50.8 272.614 50.8C276.369 50.8 279.633 49.0507 282.406 45.552L291.942 54.064C289.723 56.9653 286.907 59.184 283.494 60.72C280.081 62.256 276.198 63.024 271.846 63.024ZM353.133 35.568L352.173 43.632H359.917V53.232H350.957L349.869 62H339.629L340.717 53.232H334.381L333.293 62H323.053L324.141 53.232H316.397V43.632H325.357L326.317 35.568H318.573V25.968H327.533L328.621 17.2H338.861L337.773 25.968H344.109L345.197 17.2H355.437L354.349 25.968H362.093V35.568H353.133ZM342.893 35.568H336.557L335.597 43.632H341.933L342.893 35.568ZM387.964 17.2V62H372.86V28.592H365.18V17.2H387.964Z" fill="black"/>
<path d="M49.7281 189.285L51.8891 203.117L54.4184 202.722L52.597 191.063L59.77 189.943L61.5914 201.601L64.1207 201.206L61.9597 187.374L49.7281 189.285ZM72.5192 188.963C71.0767 189.188 69.9287 189.874 69.2563 191.011L69.0401 189.628L66.6887 189.995L68.9362 204.381L71.4062 203.995L70.6066 198.877C71.6076 199.712 72.8642 199.982 74.2079 199.772C77.2905 199.29 79.2295 196.801 78.717 193.521C78.2077 190.26 75.6018 188.481 72.5192 188.963ZM73.6009 197.701C71.8225 197.979 70.2584 196.907 69.9435 194.892C69.6286 192.876 70.7914 191.379 72.5698 191.101C74.3482 190.823 75.8926 191.897 76.2075 193.913C76.5224 195.928 75.3793 197.423 73.6009 197.701ZM82.5924 198.32L84.8649 197.965L89.5877 190.102L90.6744 197.058L93.1444 196.672L91.4959 186.12L89.2432 186.472L84.5006 194.338L83.4139 187.382L80.9439 187.768L82.5924 198.32ZM101.883 195.448C103.938 195.127 105.44 193.982 106.003 192.274L103.933 191.464C103.458 192.57 102.58 193.173 101.533 193.337C99.7152 193.621 98.1375 192.592 97.8164 190.537C97.4985 188.502 98.6841 187.021 100.502 186.737C101.549 186.573 102.569 186.879 103.359 187.788L105.083 186.386C104.022 184.912 102.25 184.318 100.195 184.639C96.8551 185.161 94.8327 187.764 95.3266 190.926C95.8206 194.088 98.5438 195.97 101.883 195.448ZM113.705 193.601C116.985 193.089 118.984 190.469 118.49 187.307C117.997 184.145 115.296 182.28 112.016 182.792C108.775 183.299 106.753 185.902 107.247 189.064C107.741 192.225 110.464 194.107 113.705 193.601ZM113.374 191.487C111.596 191.765 110.052 190.69 109.737 188.675C109.422 186.659 110.565 185.165 112.343 184.887C114.141 184.606 115.686 185.68 116.001 187.696C116.316 189.711 115.173 191.206 113.374 191.487ZM131.413 185.349C130.897 182.049 128.308 180.247 125.225 180.729C122.084 181.219 120.124 183.833 120.614 186.975C121.105 190.117 123.753 192.031 127.29 191.479C129.108 191.195 130.497 190.37 131.269 189.096L129.708 187.781C129.077 188.669 128.207 189.19 127.022 189.375C125.184 189.662 123.745 188.875 123.208 187.38L131.488 186.086C131.47 185.846 131.444 185.546 131.413 185.349ZM125.534 182.705C127.155 182.451 128.484 183.317 128.919 184.807L122.932 185.743C122.928 184.164 123.934 182.955 125.534 182.705ZM144.762 186.462L143.441 178.004L134.746 179.362L135.173 183C135.44 185.489 135.545 187.841 134.072 188.132L133.578 188.209L134.273 192.655L136.565 192.297L136.197 189.945L144.339 188.673L144.706 191.025L147.018 190.664L146.323 186.218L144.762 186.462ZM137.453 182.826L137.247 181.117L141.298 180.485L142.292 186.847L137.095 187.659C137.818 186.716 137.683 184.815 137.453 182.826ZM149.449 187.875L151.722 187.52L156.445 179.657L157.531 186.612L160.001 186.226L158.353 175.674L156.1 176.026L151.358 183.893L150.271 176.937L147.801 177.323L149.449 187.875ZM163.917 185.615L166.387 185.229L165.735 181.059L171.051 180.229L171.702 184.398L174.172 184.012L172.524 173.46L170.054 173.846L170.724 178.134L165.408 178.965L164.738 174.677L162.268 175.063L163.917 185.615ZM180.498 172.215C177.553 172.675 175.883 174.292 176.269 176.762C176.522 178.382 177.545 179.356 179.127 179.635L177.186 183.542L179.834 183.128L181.491 179.61L184.277 179.175L184.774 182.356L186.987 182.01L185.339 171.458L180.498 172.215ZM180.901 174.277L183.45 173.879L184.009 177.455L181.381 177.866C179.859 178.104 178.982 177.674 178.791 176.449C178.593 175.184 179.379 174.515 180.901 174.277ZM194.178 168.802C196.292 168.472 197.303 167.302 197.044 165.379L195.364 165.641C195.492 166.593 194.953 167.284 193.945 167.442C192.917 167.602 192.232 167.102 192.064 166.157L190.424 166.413C190.743 168.327 192.063 169.132 194.178 168.802ZM190.903 181.399L193.175 181.044L197.898 173.18L198.985 180.136L201.455 179.75L199.806 169.198L197.554 169.55L192.811 177.416L191.724 170.461L189.254 170.847L190.903 181.399ZM210.194 178.526C212.249 178.205 213.75 177.06 214.313 175.353L212.243 174.542C211.768 175.649 210.891 176.252 209.844 176.415C208.026 176.699 206.448 175.67 206.127 173.615C205.809 171.58 206.994 170.099 208.812 169.815C209.86 169.652 210.879 169.958 211.669 170.867L213.393 169.464C212.333 167.99 210.56 167.396 208.505 167.718C205.165 168.239 203.143 170.843 203.637 174.004C204.131 177.166 206.854 179.048 210.194 178.526ZM219.577 166.109C216.633 166.569 214.963 168.186 215.349 170.656C215.602 172.277 216.624 173.251 218.206 173.53L216.266 177.436L218.914 177.022L220.571 173.504L223.357 173.069L223.854 176.251L226.067 175.905L224.419 165.353L219.577 166.109ZM219.981 168.172L222.53 167.773L223.089 171.35L220.46 171.761C218.939 171.998 218.062 171.568 217.871 170.343C217.673 169.079 218.459 168.409 219.981 168.172ZM234.388 163.795L236.037 174.347L238.507 173.961L237.185 165.504L242.382 164.692L243.704 173.149L246.154 172.767L244.505 162.215L234.388 163.795ZM254.261 160.569C252.819 160.794 251.671 161.48 250.998 162.617L250.782 161.234L248.431 161.601L250.678 175.987L253.148 175.601L252.349 170.483C253.35 171.318 254.606 171.588 255.95 171.378C259.033 170.896 260.972 168.407 260.459 165.127C259.95 161.866 257.344 160.087 254.261 160.569ZM255.343 169.307C253.565 169.584 252.001 168.513 251.686 166.498C251.371 164.482 252.534 162.985 254.312 162.707C256.09 162.429 257.635 163.503 257.95 165.519C258.265 167.534 257.122 169.029 255.343 169.307ZM266.409 158.792C263.465 159.252 261.795 160.87 262.181 163.34C262.434 164.96 263.456 165.934 265.038 166.213L263.098 170.119L265.746 169.706L267.403 166.188L270.189 165.752L270.686 168.934L272.899 168.588L271.251 158.036L266.409 158.792ZM266.813 160.855L269.362 160.457L269.92 164.033L267.292 164.444C265.771 164.682 264.894 164.252 264.702 163.027C264.505 161.762 265.291 161.093 266.813 160.855ZM289.422 166.007L287.753 155.458L285.441 155.819L282.54 163.033L277.755 157.02L275.166 157.424L276.814 167.976L279.067 167.624L277.971 160.61L282.392 165.971L283.459 165.805L286.096 159.36L287.189 166.356L289.422 166.007ZM298.052 164.8C301.332 164.288 303.332 161.668 302.838 158.506C302.344 155.344 299.644 153.479 296.363 153.991C293.123 154.497 291.1 157.101 291.594 160.263C292.088 163.424 294.811 165.306 298.052 164.8ZM297.722 162.686C295.943 162.964 294.399 161.889 294.084 159.874C293.769 157.858 294.912 156.364 296.691 156.086C298.489 155.805 300.033 156.879 300.348 158.895C300.663 160.91 299.52 162.405 297.722 162.686ZM317.572 161.75C319.627 161.429 321.129 160.284 321.692 158.576L319.622 157.766C319.147 158.873 318.269 159.475 317.222 159.639C315.404 159.923 313.827 158.894 313.505 156.839C313.187 154.804 314.373 153.323 316.191 153.039C317.238 152.876 318.258 153.182 319.048 154.091L320.772 152.688C319.711 151.214 317.939 150.62 315.884 150.941C312.544 151.463 310.522 154.067 311.016 157.228C311.51 160.39 314.233 162.272 317.572 161.75ZM333.734 153.74C333.219 150.44 330.63 148.638 327.547 149.119C324.405 149.61 322.445 152.224 322.936 155.366C323.427 158.508 326.074 160.422 329.611 159.87C331.429 159.586 332.818 158.761 333.591 157.487L332.029 156.172C331.399 157.06 330.529 157.58 329.343 157.766C327.505 158.053 326.067 157.265 325.529 155.77L333.809 154.477C333.792 154.237 333.765 153.937 333.734 153.74ZM327.856 151.095C329.476 150.842 330.805 151.707 331.241 153.198L325.253 154.133C325.25 152.555 326.255 151.345 327.856 151.095ZM341.119 145.845C343.233 145.515 344.244 144.345 343.984 142.422L342.305 142.684C342.433 143.636 341.894 144.327 340.886 144.485C339.858 144.645 339.173 144.145 339.005 143.2L337.365 143.456C337.684 145.37 339.004 146.175 341.119 145.845ZM337.844 158.442L340.116 158.087L344.839 150.223L345.926 157.179L348.396 156.793L346.747 146.241L344.494 146.593L339.752 154.459L338.665 147.504L336.195 147.89L337.844 158.442ZM357.144 144.617L357.866 149.241C357.078 149.769 356.181 150.111 355.311 150.247C353.888 150.469 352.943 149.99 352.727 148.606L352.224 145.385L349.754 145.771L350.282 149.15C350.692 151.778 352.419 152.723 355.086 152.307C356.252 152.124 357.276 151.681 358.153 151.078L358.793 155.169L361.263 154.783L359.614 144.231L357.144 144.617ZM367.442 142.886C365.743 143.152 364.171 143.843 363.18 144.888L364.429 146.535C365.118 145.76 366.281 145.173 367.467 144.988C369.226 144.713 370.228 145.427 370.453 146.869L370.478 147.027L367.751 147.453C364.55 147.954 363.58 149.522 363.855 151.281C364.142 153.118 365.87 154.205 368.281 153.828C369.862 153.581 370.928 152.888 371.379 151.887L371.579 153.171L373.911 152.807L372.945 146.622C372.469 143.579 370.485 142.411 367.442 142.886ZM368.514 151.95C367.249 152.147 366.409 151.691 366.27 150.802C366.15 150.032 366.505 149.328 368.185 149.066L370.734 148.668L370.925 149.893C370.68 151.044 369.719 151.761 368.514 151.95ZM382.384 151.625C384.439 151.304 385.94 150.158 386.503 148.451L384.433 147.641C383.958 148.747 383.081 149.35 382.034 149.513C380.216 149.797 378.638 148.769 378.317 146.714C377.999 144.678 379.185 143.198 381.002 142.914C382.05 142.75 383.069 143.056 383.859 143.965L385.583 142.562C384.523 141.088 382.75 140.495 380.695 140.816C377.356 141.338 375.333 143.941 375.827 147.103C376.321 150.264 379.044 152.146 382.384 151.625ZM55.2973 226.876L57.5698 226.521L62.2926 218.657L63.3793 225.613L65.8493 225.227L64.2008 214.675L61.9481 215.027L57.2055 222.893L56.1188 215.938L53.6488 216.324L55.2973 226.876ZM74.1702 213.118L75.8187 223.67L78.2888 223.284L76.9674 214.826L82.1644 214.014L83.4857 222.472L85.936 222.089L84.2874 211.537L74.1702 213.118ZM94.5862 220.879C97.8664 220.367 99.866 217.747 99.372 214.585C98.878 211.423 96.1777 209.558 92.8975 210.07C89.6568 210.577 87.6344 213.18 88.1284 216.342C88.6223 219.503 91.3455 221.385 94.5862 220.879ZM94.2559 218.765C92.4775 219.043 90.9331 217.968 90.6182 215.953C90.3033 213.937 91.4463 212.443 93.2248 212.165C95.0229 211.884 96.5673 212.958 96.8822 214.974C97.1971 216.99 96.0541 218.484 94.2559 218.765ZM102.492 208.693L102.95 212.791C103.175 215.003 103.467 217.265 101.847 217.518C101.709 217.54 101.547 217.545 101.363 217.533L101.569 219.626C102.104 219.684 102.571 219.692 102.966 219.631C105.456 219.242 105.571 216.349 105.162 212.567L104.934 210.457L108.886 209.84L110.207 218.297L112.677 217.911L111.029 207.359L102.492 208.693ZM122.536 205.561L120.416 213.888L115.877 206.602L113.308 207.003L119.567 216.875L119.454 217.318C119.143 218.439 118.694 218.935 117.825 219.07C117.153 219.175 116.438 219.004 115.893 218.623L115.189 220.596C115.956 221.103 117.118 221.286 118.166 221.122C119.924 220.848 121.154 219.907 121.749 217.364L124.907 205.191L122.536 205.561ZM133.697 203.818L134.42 208.441C133.632 208.969 132.734 209.312 131.864 209.448C130.442 209.67 129.496 209.19 129.28 207.807L128.777 204.586L126.307 204.972L126.835 208.351C127.245 210.979 128.972 211.924 131.639 211.507C132.805 211.325 133.829 210.882 134.707 210.279L135.346 214.37L137.816 213.984L136.167 203.432L133.697 203.818ZM141.73 213.372L144.003 213.017L148.725 205.154L149.812 212.109L152.282 211.724L150.634 201.172L148.381 201.523L143.638 209.39L142.552 202.434L140.082 202.82L141.73 213.372ZM161.63 199.453L162.089 203.552C162.313 205.764 162.605 208.026 160.985 208.279C160.847 208.3 160.686 208.305 160.501 208.294L160.707 210.387C161.242 210.445 161.709 210.453 162.105 210.391C164.594 210.002 164.709 207.11 164.3 203.328L164.072 201.218L168.024 200.6L169.345 209.058L171.815 208.672L170.167 198.12L161.63 199.453ZM175.735 208.059L178.007 207.704L182.73 199.841L183.817 206.797L186.287 206.411L184.638 195.859L182.386 196.211L177.643 204.077L176.556 197.122L174.086 197.507L175.735 208.059ZM195.035 194.235L195.757 198.858C194.97 199.386 194.072 199.729 193.202 199.865C191.779 200.087 190.834 199.607 190.618 198.224L190.115 195.003L187.645 195.389L188.173 198.768C188.583 201.396 190.31 202.341 192.977 201.924C194.143 201.742 195.167 201.299 196.045 200.696L196.684 204.787L199.154 204.401L197.505 193.849L195.035 194.235ZM203.068 203.789L205.538 203.403L204.887 199.234L210.202 198.403L210.854 202.573L213.324 202.187L211.675 191.635L209.205 192.021L209.875 196.309L204.559 197.139L203.89 192.851L201.419 193.237L203.068 203.789ZM223.166 189.84L221.046 198.167L216.507 190.88L213.938 191.281L220.197 201.153L220.084 201.596C219.773 202.718 219.324 203.213 218.455 203.349C217.783 203.454 217.068 203.282 216.523 202.902L215.819 204.874C216.586 205.382 217.748 205.564 218.796 205.401C220.554 205.126 221.784 204.185 222.379 201.643L225.537 189.469L223.166 189.84ZM237.47 187.483C234.724 187.912 232.872 189.922 232.773 192.529L230.955 192.813L230.316 188.723L227.846 189.108L229.494 199.66L231.964 199.275L231.304 195.046L233.082 194.768C233.944 197.305 236.353 198.731 239.159 198.292C242.34 197.795 244.3 195.181 243.806 192.02C243.309 188.838 240.652 186.986 237.47 187.483ZM238.832 196.198C237.113 196.466 235.608 195.386 235.29 193.35C234.972 191.315 236.078 189.847 237.798 189.578C239.517 189.309 241.038 190.367 241.356 192.402C241.674 194.438 240.551 195.929 238.832 196.198ZM261.27 194.696L264.174 194.242L259.229 189.408L262.269 183.73L259.621 184.144L257.166 188.9L255.19 189.209L254.523 184.941L252.053 185.327L253.701 195.879L256.172 195.493L255.511 191.264L257.428 190.964L261.27 194.696ZM270.887 193.335C274.167 192.823 276.166 190.203 275.672 187.041C275.178 183.88 272.478 182.014 269.198 182.526C265.957 183.033 263.935 185.636 264.429 188.798C264.923 191.959 267.646 193.842 270.887 193.335ZM270.556 191.221C268.778 191.499 267.233 190.424 266.919 188.409C266.604 186.393 267.747 184.899 269.525 184.621C271.323 184.34 272.868 185.415 273.183 187.43C273.498 189.446 272.354 190.94 270.556 191.221ZM279.53 191.843L282 191.457L281.348 187.288L286.664 186.458L287.315 190.627L289.785 190.241L288.137 179.689L285.667 180.075L286.337 184.363L281.021 185.193L280.351 180.905L277.881 181.291L279.53 191.843ZM298.512 189.019C300.567 188.698 302.068 187.553 302.631 185.845L300.561 185.035C300.086 186.142 299.209 186.745 298.162 186.908C296.344 187.192 294.766 186.163 294.445 184.108C294.127 182.073 295.312 180.592 297.13 180.308C298.178 180.145 299.197 180.451 299.987 181.36L301.711 179.957C300.651 178.483 298.878 177.889 296.823 178.211C293.483 178.732 291.461 181.336 291.955 184.497C292.449 187.659 295.172 189.541 298.512 189.019ZM311.567 176.028L309.447 184.355L304.908 177.069L302.339 177.47L308.598 187.342L308.485 187.785C308.174 188.907 307.725 189.402 306.856 189.538C306.184 189.643 305.469 189.471 304.924 189.09L304.22 191.063C304.987 191.57 306.15 191.753 307.197 191.59C308.956 191.315 310.185 190.374 310.78 187.831L313.938 175.658L311.567 176.028ZM316.618 175.239L317.076 179.338C317.301 181.55 317.593 183.812 315.973 184.065C315.835 184.086 315.673 184.091 315.489 184.08L315.695 186.173C316.23 186.231 316.697 186.239 317.092 186.177C319.582 185.788 319.697 182.896 319.288 179.114L319.06 177.004L323.012 176.386L324.333 184.844L326.803 184.458L325.155 173.906L316.618 175.239ZM334.913 175.944L332.084 176.365L331.544 172.907L329.074 173.293L330.723 183.845L335.666 183.093C338.554 182.662 339.987 181.082 339.626 178.77C339.283 176.577 337.62 175.521 334.913 175.944ZM335.164 181.309L332.909 181.641L332.35 178.065L334.606 177.733C336.071 177.524 336.922 177.917 337.11 179.123C337.302 180.348 336.61 181.104 335.164 181.309ZM348.678 170.231L338.797 171.774L339.125 173.869L342.84 173.288L344.161 181.746L346.631 181.36L345.31 172.903L349.005 172.325L348.678 170.231ZM354.976 169.125C353.276 169.391 351.704 170.082 350.714 171.127L351.963 172.774C352.651 171.998 353.815 171.412 355 171.227C356.759 170.952 357.761 171.666 357.987 173.108L358.011 173.266L355.284 173.692C352.083 174.192 351.114 175.761 351.389 177.519C351.676 179.357 353.404 180.443 355.815 180.067C357.396 179.82 358.461 179.127 358.912 178.125L359.113 179.41L361.445 179.046L360.478 172.861C360.003 169.817 358.019 168.65 354.976 169.125ZM356.048 178.188C354.783 178.386 353.943 177.93 353.804 177.041C353.683 176.27 354.039 175.567 355.719 175.305L358.268 174.906L358.459 176.131C358.214 177.283 357.253 178 356.048 178.188ZM374.746 174.822L373.424 166.364L370.954 166.75L372.276 175.208L367.237 175.995L365.915 167.537L363.445 167.923L365.094 178.475L374.362 177.027L374.741 179.458L377.053 179.097L376.346 174.572L374.746 174.822ZM379.465 176.23L381.737 175.875L386.46 168.012L387.547 174.967L390.017 174.582L388.368 164.03L386.116 164.382L381.373 172.248L380.286 165.292L377.816 165.678L379.465 176.23ZM401.908 161.793C399.162 162.222 397.31 164.232 397.211 166.838L395.393 167.122L394.754 163.032L392.284 163.418L393.932 173.97L396.402 173.584L395.742 169.355L397.52 169.077C398.382 171.615 400.791 173.04 403.597 172.602C406.778 172.105 408.738 169.491 408.245 166.329C407.747 163.148 405.09 161.296 401.908 161.793ZM403.27 170.507C401.551 170.776 400.046 169.695 399.728 167.66C399.41 165.624 400.516 164.156 402.236 163.887C403.955 163.619 405.476 164.677 405.794 166.712C406.112 168.747 404.989 170.238 403.27 170.507ZM63.8253 249.976C65.8804 249.655 67.3816 248.51 67.9448 246.802L65.8749 245.992C65.4 247.099 64.5226 247.701 63.4753 247.865C61.6573 248.149 60.0796 247.12 59.7585 245.065C59.4405 243.03 60.6262 241.549 62.4441 241.265C63.4914 241.101 64.5109 241.408 65.3007 242.317L67.0248 240.914C65.9646 239.44 64.1917 238.846 62.1367 239.167C58.7972 239.689 56.7748 242.292 57.2687 245.454C57.7627 248.616 60.4859 250.498 63.8253 249.976ZM83.8406 235.898L73.9604 237.441L74.2876 239.536L78.0026 238.956L79.3239 247.413L81.7939 247.027L80.4726 238.57L84.1678 237.992L83.8406 235.898ZM92.0556 234.493C90.6131 234.718 89.4651 235.404 88.7926 236.541L88.5765 235.158L86.2251 235.525L88.4725 249.911L90.9426 249.525L90.143 244.407C91.144 245.243 92.4006 245.512 93.7443 245.302C96.8269 244.82 98.7659 242.331 98.2534 239.051C97.744 235.79 95.1382 234.011 92.0556 234.493ZM93.1373 243.231C91.3589 243.509 89.7948 242.437 89.4799 240.422C89.165 238.406 90.3278 236.909 92.1062 236.631C93.8846 236.353 95.429 237.427 95.7439 239.443C96.0588 241.459 94.9157 242.953 93.1373 243.231ZM111.194 237.09C110.678 233.79 108.089 231.988 105.007 232.47C101.865 232.96 99.9047 235.574 100.396 238.716C100.886 241.858 103.534 243.772 107.071 243.22C108.889 242.936 110.278 242.111 111.051 240.837L109.489 239.522C108.858 240.41 107.988 240.931 106.803 241.116C104.965 241.403 103.526 240.616 102.989 239.121L111.269 237.827C111.251 237.587 111.225 237.288 111.194 237.09ZM105.315 234.446C106.936 234.192 108.265 235.058 108.7 236.548L102.713 237.484C102.709 235.905 103.715 234.696 105.315 234.446ZM115.303 241.792L117.773 241.406L117.122 237.237L122.438 236.406L123.089 240.576L125.559 240.19L123.91 229.638L121.44 230.024L122.11 234.312L116.795 235.142L116.125 230.854L113.655 231.24L115.303 241.792ZM138.527 232.82C138.012 229.52 135.422 227.718 132.34 228.199C129.198 228.69 127.238 231.304 127.729 234.446C128.22 237.588 130.867 239.502 134.404 238.949C136.222 238.665 137.611 237.841 138.384 236.567L136.822 235.252C136.192 236.14 135.322 236.66 134.136 236.846C132.298 237.133 130.86 236.345 130.322 234.85L138.602 233.557C138.585 233.317 138.558 233.017 138.527 232.82ZM132.649 230.175C134.269 229.922 135.598 230.787 136.034 232.278L130.046 233.213C130.043 231.635 131.048 230.425 132.649 230.175ZM146.819 225.937C145.376 226.163 144.228 226.848 143.556 227.985L143.34 226.602L140.988 226.97L143.236 241.355L145.706 240.969L144.906 235.851C145.907 236.687 147.164 236.956 148.507 236.746C151.59 236.264 153.529 233.775 153.016 230.495C152.507 227.235 149.901 225.456 146.819 225.937ZM147.9 234.675C146.122 234.953 144.558 233.881 144.243 231.866C143.928 229.85 145.091 228.353 146.869 228.075C148.648 227.797 150.192 228.872 150.507 230.887C150.822 232.903 149.679 234.397 147.9 234.675ZM159.022 224.031C157.323 224.296 155.75 224.987 154.76 226.033L156.009 227.679C156.698 226.904 157.861 226.317 159.047 226.132C160.805 225.857 161.808 226.571 162.033 228.014L162.058 228.172L159.331 228.598C156.129 229.098 155.16 230.666 155.435 232.425C155.722 234.263 157.45 235.349 159.861 234.972C161.442 234.725 162.508 234.032 162.958 233.031L163.159 234.315L165.491 233.951L164.525 227.766C164.049 224.723 162.065 223.555 159.022 224.031ZM160.094 233.094C158.829 233.291 157.989 232.836 157.85 231.946C157.729 231.176 158.085 230.472 159.765 230.21L162.314 229.812L162.505 231.037C162.26 232.189 161.299 232.906 160.094 233.094ZM181.747 231.411L180.079 220.862L177.767 221.224L174.866 228.438L170.08 222.424L167.492 222.829L169.14 233.381L171.393 233.029L170.297 226.014L174.718 231.376L175.785 231.209L178.421 224.765L179.514 231.76L181.747 231.411ZM185.653 230.801L187.926 230.446L192.648 222.583L193.735 229.538L196.205 229.152L194.557 218.6L192.304 218.952L187.561 226.819L186.475 219.863L184.005 220.249L185.653 230.801ZM213.743 226.413L216.647 225.959L211.702 221.124L214.742 215.447L212.094 215.861L209.639 220.617L207.663 220.925L206.996 216.657L204.526 217.043L206.174 227.595L208.645 227.209L207.984 222.98L209.901 222.681L213.743 226.413ZM224.324 213.95L222.204 222.277L217.664 214.99L215.096 215.392L221.354 225.264L221.241 225.707C220.931 226.828 220.482 227.323 219.612 227.459C218.941 227.564 218.225 227.392 217.68 227.012L216.976 228.984C217.744 229.492 218.906 229.675 219.953 229.511C221.712 229.236 222.941 228.295 223.536 225.753L226.695 213.579L224.324 213.95ZM234.834 212.186C233.391 212.412 232.243 213.097 231.571 214.235L231.355 212.851L229.003 213.219L231.251 227.604L233.721 227.218L232.921 222.1C233.922 222.936 235.179 223.205 236.522 222.995C239.605 222.514 241.544 220.025 241.032 216.744C240.522 213.484 237.916 211.705 234.834 212.186ZM235.915 220.924C234.137 221.202 232.573 220.131 232.258 218.115C231.943 216.099 233.106 214.602 234.884 214.324C236.663 214.046 238.207 215.121 238.522 217.136C238.837 219.152 237.694 220.646 235.915 220.924ZM249.73 220.932C251.785 220.611 253.287 219.465 253.85 217.758L251.78 216.948C251.305 218.054 250.428 218.657 249.38 218.821C247.562 219.105 245.985 218.076 245.664 216.021C245.346 213.985 246.531 212.505 248.349 212.221C249.396 212.057 250.416 212.363 251.206 213.272L252.93 211.869C251.87 210.395 250.097 209.802 248.042 210.123C244.702 210.645 242.68 213.248 243.174 216.41C243.668 219.571 246.391 221.454 249.73 220.932ZM259.247 208.372C257.547 208.638 255.975 209.329 254.985 210.374L256.234 212.021C256.922 211.245 258.086 210.659 259.271 210.474C261.03 210.199 262.032 210.913 262.258 212.355L262.282 212.513L259.555 212.939C256.354 213.439 255.385 215.008 255.66 216.767C255.947 218.604 257.675 219.691 260.086 219.314C261.667 219.067 262.732 218.374 263.183 217.373L263.384 218.657L265.716 218.293L264.749 212.108C264.274 209.065 262.29 207.897 259.247 208.372ZM260.319 217.435C259.054 217.633 258.214 217.177 258.075 216.288C257.954 215.517 258.31 214.814 259.99 214.552L262.539 214.153L262.73 215.379C262.485 216.53 261.524 217.247 260.319 217.435ZM268.767 213.12L270.724 212.814L269.773 203.489L266.848 203.946L268.767 213.12ZM270.493 217.688C271.402 217.546 271.946 216.752 271.813 215.903C271.681 215.053 270.924 214.483 270.015 214.625C269.086 214.77 268.519 215.547 268.652 216.397C268.785 217.246 269.564 217.833 270.493 217.688Z" fill="black"/>
</svg>
