<svg width="457" height="419" viewBox="0 0 457 419" fill="none" xmlns="http://www.w3.org/2000/svg">
<path d="M447.935 230.374C455.901 129.16 466.654 78.8568 440.165 56.7683C428.274 46.8727 415.305 45.1449 391.151 43.2011C271.5 33.6392 177.769 43.0636 156.48 45.3019C37.3196 57.8482 27.3324 62.7371 17.7572 73.477C-5.2194 99.2763 -1.7268 147.046 5.23876 242.547C8.31931 284.76 13.1658 307.045 30.0597 325.05C48.1506 344.35 71.7158 353.068 94.3391 353.794C138.86 355.247 226.704 351.536 299.5 347.001C292.554 367.381 277.602 402.624 253.35 418.98C253.35 418.98 324.144 392.69 366.212 342.23C385.912 340.6 401.373 339.501 409.752 337.773C433.121 332.943 442.441 300.173 447.935 230.374Z" fill="#FDCE02"/>
<path d="M41.0755 17.2H79.9235V28.592H55.9235V33.776H66.6115C72.0728 33.776 76.2542 34.9493 79.1555 37.296C82.0995 39.6 83.5715 42.9493 83.5715 47.344C83.5715 51.9093 81.9075 55.4933 78.5795 58.096C75.2515 60.6987 70.6222 62 64.6915 62H41.0755V17.2ZM63.6675 51.44C65.1608 51.44 66.3128 51.12 67.1235 50.48C67.9768 49.84 68.4035 48.9227 68.4035 47.728C68.4035 45.424 66.8248 44.272 63.6675 44.272H55.9235V51.44H63.6675ZM113.467 63.024C108.646 63.024 104.315 62.0213 100.475 60.016C96.635 58.0107 93.627 55.2373 91.451 51.696C89.275 48.112 88.187 44.08 88.187 39.6C88.187 35.12 89.275 31.1093 91.451 27.568C93.627 23.984 96.635 21.1893 100.475 19.184C104.315 17.1787 108.646 16.176 113.467 16.176C118.288 16.176 122.619 17.1787 126.459 19.184C130.299 21.1893 133.307 23.984 135.483 27.568C137.659 31.1093 138.747 35.12 138.747 39.6C138.747 44.08 137.659 48.112 135.483 51.696C133.307 55.2373 130.299 58.0107 126.459 60.016C122.619 62.0213 118.288 63.024 113.467 63.024ZM113.467 50.8C115.344 50.8 117.03 50.352 118.523 49.456C120.059 48.5173 121.275 47.216 122.171 45.552C123.067 43.8453 123.515 41.8613 123.515 39.6C123.515 37.3387 123.067 35.376 122.171 33.712C121.275 32.0053 120.059 30.704 118.523 29.808C117.03 28.8693 115.344 28.4 113.467 28.4C111.59 28.4 109.883 28.8693 108.347 29.808C106.854 30.704 105.659 32.0053 104.763 33.712C103.867 35.376 103.419 37.3387 103.419 39.6C103.419 41.8613 103.867 43.8453 104.763 45.552C105.659 47.216 106.854 48.5173 108.347 49.456C109.883 50.352 111.59 50.8 113.467 50.8ZM190.263 17.2V62H175.159V45.488H161.207V62H146.103V17.2H161.207V33.072H175.159V17.2H190.263ZM244.948 17.2L226.964 50.928C224.831 54.9387 222.207 57.9893 219.092 60.08C216.02 62.1707 212.628 63.216 208.916 63.216C206.057 63.216 203.156 62.6187 200.212 61.424L203.732 50.544C205.609 51.056 207.145 51.312 208.34 51.312C209.449 51.312 210.388 51.12 211.156 50.736C211.967 50.352 212.735 49.712 213.46 48.816L196.308 17.2H212.244L221.14 36.08L230.356 17.2H244.948ZM271.846 63.024C267.11 63.024 262.843 62.0427 259.046 60.08C255.249 58.0747 252.262 55.3013 250.086 51.76C247.953 48.176 246.886 44.1227 246.886 39.6C246.886 35.0773 247.953 31.0453 250.086 27.504C252.262 23.92 255.249 21.1467 259.046 19.184C262.843 17.1787 267.11 16.176 271.846 16.176C276.198 16.176 280.081 16.944 283.494 18.48C286.907 20.016 289.723 22.2347 291.942 25.136L282.406 33.648C279.633 30.1493 276.369 28.4 272.614 28.4C269.457 28.4 266.918 29.424 264.998 31.472C263.078 33.4773 262.118 36.1867 262.118 39.6C262.118 43.0133 263.078 45.744 264.998 47.792C266.918 49.7973 269.457 50.8 272.614 50.8C276.369 50.8 279.633 49.0507 282.406 45.552L291.942 54.064C289.723 56.9653 286.907 59.184 283.494 60.72C280.081 62.256 276.198 63.024 271.846 63.024ZM353.133 35.568L352.173 43.632H359.917V53.232H350.957L349.869 62H339.629L340.717 53.232H334.381L333.293 62H323.053L324.141 53.232H316.397V43.632H325.357L326.317 35.568H318.573V25.968H327.533L328.621 17.2H338.861L337.773 25.968H344.109L345.197 17.2H355.437L354.349 25.968H362.093V35.568H353.133ZM342.893 35.568H336.557L335.597 43.632H341.933L342.893 35.568ZM387.964 17.2V62H372.86V28.592H365.18V17.2H387.964Z" fill="black"/>
<path d="M61.9597 187.374L64.1207 201.206L61.5914 201.601L59.77 189.943L52.597 191.063L54.4184 202.722L51.8891 203.117L49.7281 189.285L61.9597 187.374ZM72.5192 188.963C73.5467 188.802 74.4973 188.883 75.3708 189.206C76.2576 189.526 76.9953 190.058 77.584 190.803C78.1726 191.548 78.5503 192.454 78.717 193.521C78.8838 194.588 78.8014 195.572 78.47 196.474C78.1365 197.363 77.5964 198.095 76.8496 198.671C76.116 199.244 75.2354 199.611 74.2079 199.772C72.7852 199.994 71.5847 199.696 70.6066 198.877L71.4062 203.995L68.9362 204.381L66.6887 189.995L69.0401 189.628L69.2563 191.011C69.5864 190.447 70.0284 189.993 70.5821 189.65C71.1489 189.305 71.7947 189.076 72.5192 188.963ZM73.6009 197.701C74.5099 197.559 75.2069 197.139 75.6918 196.443C76.19 195.744 76.3618 194.901 76.2075 193.913C76.0531 192.925 75.6322 192.174 74.9447 191.661C74.2704 191.145 73.4788 190.959 72.5698 191.101C71.977 191.193 71.4651 191.415 71.034 191.766C70.601 192.103 70.2852 192.544 70.0868 193.088C69.8883 193.632 69.8406 194.233 69.9435 194.892C70.0464 195.55 70.2753 196.108 70.6301 196.566C70.985 197.023 71.4211 197.353 71.9386 197.556C72.454 197.745 73.0081 197.793 73.6009 197.701ZM80.9439 187.768L83.4139 187.382L84.5006 194.338L89.2432 186.472L91.4959 186.12L93.1444 196.672L90.6744 197.058L89.5877 190.102L84.8649 197.965L82.5924 198.32L80.9439 187.768ZM107.296 183.53C108.323 183.369 109.274 183.45 110.147 183.772C111.034 184.093 111.772 184.625 112.361 185.37C112.949 186.115 113.327 187.021 113.494 188.088C113.66 189.155 113.578 190.139 113.247 191.041C112.913 191.93 112.373 192.662 111.626 193.238C110.893 193.811 110.012 194.178 108.984 194.339C107.562 194.561 106.361 194.263 105.383 193.444L106.183 198.562L103.713 198.948L101.465 184.562L103.817 184.195L104.033 185.578C104.363 185.014 104.805 184.56 105.359 184.217C105.926 183.872 106.571 183.643 107.296 183.53ZM108.377 192.267C109.286 192.125 109.983 191.706 110.468 191.01C110.967 190.311 111.138 189.468 110.984 188.48C110.83 187.492 110.409 186.741 109.721 186.228C109.047 185.712 108.255 185.526 107.346 185.668C106.754 185.76 106.242 185.982 105.811 186.333C105.378 186.67 105.062 187.111 104.863 187.655C104.665 188.198 104.617 188.8 104.72 189.458C104.823 190.117 105.052 190.675 105.407 191.132C105.762 191.59 106.198 191.92 106.715 192.122C107.231 192.312 107.785 192.36 108.377 192.267ZM119.499 181.623C121.054 181.38 122.298 181.57 123.232 182.194C124.177 182.802 124.767 183.857 125.002 185.359L125.968 191.544L123.636 191.908L123.436 190.623C123.205 191.132 122.825 191.555 122.298 191.894C121.782 192.218 121.129 192.441 120.338 192.565C119.548 192.688 118.836 192.665 118.202 192.494C117.566 192.31 117.046 192.006 116.642 191.583C116.25 191.145 116.007 190.623 115.912 190.017C115.764 189.069 115.994 188.257 116.604 187.581C117.225 186.891 118.293 186.427 119.808 186.19L122.535 185.764L122.51 185.606C122.395 184.868 122.082 184.337 121.573 184.012C121.076 183.684 120.393 183.589 119.524 183.725C118.931 183.817 118.359 184.001 117.808 184.276C117.271 184.549 116.83 184.881 116.486 185.272L115.237 183.625C115.724 183.117 116.339 182.69 117.082 182.345C117.824 182 118.63 181.759 119.499 181.623ZM120.571 190.686C121.19 190.59 121.715 190.366 122.146 190.015C122.588 189.649 122.867 189.187 122.982 188.629L122.791 187.404L120.242 187.803C118.819 188.025 118.181 188.604 118.327 189.539C118.397 189.987 118.63 190.315 119.027 190.523C119.424 190.731 119.939 190.785 120.571 190.686ZM127.969 180.421L130.439 180.035L131.109 184.323L136.424 183.493L135.754 179.205L138.224 178.819L139.873 189.371L137.403 189.757L136.751 185.588L131.436 186.418L132.087 190.587L129.617 190.973L127.969 180.421ZM142.127 178.209L144.597 177.823L145.267 182.111L150.583 181.281L149.913 176.993L152.383 176.607L154.032 187.159L151.562 187.545L150.91 183.376L145.595 184.206L146.246 188.375L143.776 188.761L142.127 178.209ZM156.286 175.997L158.756 175.611L160.405 186.163L157.935 186.549L156.286 175.997ZM157.259 174.064C156.811 174.134 156.414 174.054 156.068 173.825C155.72 173.582 155.513 173.25 155.447 172.829C155.381 172.407 155.478 172.034 155.738 171.711C155.996 171.373 156.348 171.17 156.796 171.1C157.244 171.03 157.641 171.11 157.987 171.339C158.332 171.555 158.536 171.867 158.599 172.276C158.667 172.71 158.573 173.103 158.318 173.453C158.073 173.788 157.72 173.992 157.259 174.064ZM162.687 174.997L165.157 174.611L166.244 181.567L170.987 173.701L173.239 173.349L174.888 183.901L172.418 184.287L171.331 177.331L166.608 185.194L164.336 185.549L162.687 174.997ZM167.611 172.953C166.544 173.119 165.689 173.003 165.046 172.604C164.415 172.19 164.018 171.51 163.857 170.563L165.497 170.307C165.584 170.779 165.788 171.132 166.108 171.366C166.441 171.597 166.864 171.673 167.378 171.592C167.879 171.514 168.252 171.314 168.499 170.992C168.759 170.668 168.858 170.268 168.797 169.792L170.477 169.529C170.612 170.48 170.435 171.25 169.947 171.839C169.457 172.415 168.678 172.786 167.611 172.953ZM189.582 181.747C188.515 181.913 187.517 181.833 186.589 181.506C185.661 181.178 184.889 180.645 184.274 179.904C183.67 179.148 183.287 178.25 183.124 177.209C182.962 176.168 183.054 175.203 183.4 174.312C183.76 173.419 184.332 172.675 185.116 172.08C185.901 171.485 186.826 171.104 187.893 170.938C188.973 170.769 189.978 170.848 190.906 171.176C191.834 171.503 192.599 172.038 193.201 172.78C193.816 173.521 194.205 174.412 194.368 175.452C194.53 176.493 194.433 177.467 194.075 178.373C193.728 179.264 193.163 180.006 192.379 180.601C191.594 181.196 190.662 181.578 189.582 181.747ZM189.252 179.632C190.161 179.49 190.864 179.07 191.362 178.371C191.86 177.673 192.032 176.829 191.878 175.841C191.724 174.853 191.303 174.103 190.615 173.589C189.928 173.076 189.129 172.89 188.22 173.032C187.311 173.174 186.608 173.595 186.11 174.293C185.625 174.99 185.46 175.832 185.614 176.82C185.768 177.808 186.183 178.56 186.857 179.075C187.544 179.589 188.343 179.774 189.252 179.632ZM206.694 168.122L208.342 178.674L205.892 179.057L204.571 170.599L199.374 171.411L200.695 179.869L198.225 180.255L196.576 169.703L206.694 168.122ZM220.183 166.014L221.832 176.566L219.362 176.952L218.04 168.495L214.088 169.112L214.317 171.222C214.469 172.629 214.521 173.822 214.471 174.801C214.433 175.766 214.226 176.56 213.852 177.186C213.488 177.796 212.911 178.163 212.121 178.286C211.752 178.344 211.286 178.342 210.723 178.282L210.518 176.188C210.708 176.199 210.87 176.194 211.001 176.174C211.502 176.095 211.847 175.839 212.035 175.405C212.222 174.957 212.305 174.452 212.284 173.888C212.274 173.309 212.215 172.495 212.105 171.447L211.647 167.348L220.183 166.014ZM228.016 164.669C229.571 164.426 230.815 164.617 231.749 165.24C232.694 165.848 233.284 166.903 233.519 168.405L234.485 174.59L232.153 174.954L231.953 173.669C231.722 174.178 231.343 174.601 230.815 174.94C230.299 175.264 229.646 175.487 228.855 175.611C228.065 175.734 227.353 175.711 226.719 175.54C226.083 175.356 225.563 175.052 225.16 174.63C224.767 174.192 224.524 173.67 224.429 173.064C224.281 172.115 224.512 171.303 225.121 170.628C225.742 169.937 226.81 169.473 228.325 169.236L231.052 168.81L231.027 168.652C230.912 167.914 230.6 167.383 230.09 167.058C229.593 166.73 228.91 166.635 228.041 166.771C227.448 166.863 226.876 167.047 226.326 167.322C225.788 167.595 225.347 167.927 225.003 168.318L223.754 166.671C224.242 166.163 224.857 165.736 225.599 165.391C226.341 165.046 227.147 164.805 228.016 164.669ZM229.088 173.732C229.707 173.636 230.232 173.412 230.663 173.061C231.106 172.695 231.384 172.233 231.5 171.676L231.308 170.45L228.759 170.849C227.336 171.071 226.698 171.65 226.844 172.585C226.914 173.033 227.148 173.361 227.544 173.569C227.941 173.777 228.456 173.831 229.088 173.732ZM245.172 164.256L241.477 164.833L242.798 173.291L240.328 173.677L239.007 165.219L235.292 165.8L234.964 163.705L244.845 162.162L245.172 164.256ZM247.229 161.789L249.699 161.403L251.348 171.955L248.878 172.341L247.229 161.789ZM248.202 159.856C247.754 159.926 247.357 159.846 247.011 159.617C246.663 159.374 246.456 159.042 246.39 158.621C246.324 158.199 246.421 157.826 246.681 157.502C246.938 157.165 247.291 156.962 247.739 156.892C248.187 156.822 248.584 156.901 248.93 157.131C249.275 157.347 249.479 157.659 249.542 158.067C249.61 158.502 249.516 158.895 249.261 159.245C249.016 159.58 248.663 159.784 248.202 159.856ZM268.122 163.707C269.488 163.898 270.272 164.64 270.473 165.931C270.621 166.879 270.38 167.666 269.749 168.291C269.118 168.916 268.104 169.337 266.708 169.555L261.333 170.395L259.684 159.843L264.842 159.037C266.133 158.836 267.177 158.915 267.976 159.276C268.775 159.637 269.242 160.253 269.378 161.122C269.462 161.662 269.39 162.153 269.162 162.593C268.947 163.031 268.601 163.403 268.122 163.707ZM262.724 163.882L265.313 163.478C266.591 163.278 267.161 162.737 267.023 161.854C266.889 160.998 266.183 160.67 264.905 160.87L262.317 161.274L262.724 163.882ZM266.229 167.788C267.586 167.576 268.195 167.029 268.058 166.146C267.985 165.685 267.774 165.367 267.423 165.193C267.07 165.005 266.557 164.964 265.885 165.069L262.98 165.522L263.403 168.23L266.229 167.788ZM272.511 157.839L274.981 157.453L276.068 164.409L280.811 156.542L283.063 156.191L284.712 166.743L282.242 167.128L281.155 160.173L276.432 168.036L274.16 168.391L272.511 157.839ZM299.406 164.589C298.339 164.755 297.341 164.675 296.413 164.348C295.485 164.02 294.713 163.486 294.098 162.746C293.494 161.99 293.111 161.092 292.948 160.051C292.786 159.01 292.878 158.045 293.224 157.154C293.584 156.261 294.156 155.517 294.94 154.922C295.725 154.327 296.65 153.946 297.717 153.78C298.797 153.611 299.802 153.69 300.73 154.017C301.658 154.345 302.423 154.88 303.025 155.622C303.64 156.363 304.029 157.254 304.192 158.294C304.354 159.335 304.257 160.308 303.899 161.215C303.552 162.105 302.987 162.848 302.203 163.443C301.418 164.038 300.486 164.42 299.406 164.589ZM299.076 162.474C299.985 162.332 300.688 161.912 301.186 161.213C301.684 160.515 301.856 159.671 301.702 158.683C301.548 157.695 301.127 156.945 300.439 156.431C299.752 155.918 298.953 155.732 298.044 155.874C297.135 156.016 296.432 156.437 295.934 157.135C295.449 157.832 295.284 158.674 295.438 159.662C295.592 160.65 296.007 161.402 296.681 161.917C297.368 162.431 298.167 162.616 299.076 162.474ZM314.7 153.394L311.005 153.971L312.326 162.428L309.856 162.814L308.535 154.357L304.82 154.937L304.493 152.843L314.373 151.299L314.7 153.394ZM322.588 149.894C323.616 149.734 324.566 149.814 325.44 150.137C326.326 150.457 327.064 150.99 327.653 151.734C328.241 152.479 328.619 153.385 328.786 154.452C328.953 155.519 328.87 156.504 328.539 157.406C328.205 158.294 327.665 159.026 326.918 159.602C326.185 160.175 325.304 160.542 324.277 160.703C322.854 160.925 321.654 160.627 320.675 159.808L321.475 164.926L319.005 165.312L316.757 150.926L319.109 150.559L319.325 151.942C319.655 151.378 320.097 150.924 320.651 150.581C321.218 150.236 321.863 150.007 322.588 149.894ZM323.67 158.632C324.579 158.49 325.276 158.071 325.761 157.374C326.259 156.675 326.431 155.832 326.276 154.844C326.122 153.856 325.701 153.105 325.014 152.592C324.339 152.077 323.548 151.89 322.639 152.032C322.046 152.124 321.534 152.346 321.103 152.697C320.67 153.034 320.354 153.475 320.156 154.019C319.957 154.563 319.909 155.164 320.012 155.823C320.115 156.481 320.344 157.039 320.699 157.497C321.054 157.954 321.49 158.284 322.007 158.487C322.523 158.676 323.077 158.724 323.67 158.632ZM331.013 148.699L333.483 148.313L334.569 155.269L339.312 147.403L341.565 147.051L343.213 157.603L340.743 157.989L339.657 151.033L334.934 158.896L332.661 159.251L331.013 148.699ZM357.503 155.37L356.41 148.375L353.773 154.819L352.706 154.986L348.285 149.624L349.381 156.639L347.129 156.991L345.48 146.439L348.069 146.035L352.854 152.048L355.756 144.834L358.067 144.472L359.736 155.021L357.503 155.37ZM371.952 142.303L368.794 154.477C368.512 155.695 368.077 156.586 367.491 157.15C366.906 157.727 366.146 158.089 365.211 158.235C364.684 158.317 364.15 158.313 363.61 158.222C363.069 158.131 362.61 157.96 362.234 157.708L362.938 155.736C363.21 155.923 363.514 156.057 363.851 156.14C364.201 156.22 364.541 156.234 364.87 156.183C365.305 156.115 365.643 155.947 365.884 155.68C366.139 155.411 366.344 154.994 366.499 154.43L366.612 153.988L360.353 144.115L362.922 143.714L367.461 151.001L369.581 142.674L371.952 142.303ZM380.545 151.932C379.439 152.105 378.408 152.03 377.453 151.707C376.497 151.37 375.704 150.833 375.076 150.094C374.446 149.343 374.049 148.446 373.887 147.406C373.724 146.365 373.828 145.391 374.199 144.482C374.57 143.574 375.161 142.821 375.971 142.222C376.78 141.61 377.737 141.217 378.844 141.044C379.806 140.894 380.7 140.916 381.526 141.111C382.353 141.306 383.083 141.657 383.716 142.166L382.509 143.771C381.549 143.071 380.464 142.816 379.252 143.005C378.356 143.145 377.623 143.509 377.054 144.097C376.496 144.67 376.187 145.373 376.128 146.205L381.009 145.443L381.287 147.221L376.426 147.981C376.745 148.727 377.256 149.281 377.961 149.644C378.663 149.993 379.456 150.098 380.338 149.961C381.55 149.771 382.505 149.19 383.204 148.217L384.842 149.378C384.41 150.067 383.823 150.631 383.082 151.07C382.353 151.495 381.507 151.782 380.545 151.932ZM394.693 140.896L390.998 141.473L392.319 149.931L389.849 150.317L388.528 141.859L384.813 142.44L384.486 140.345L394.366 138.801L394.693 140.896ZM407.001 142.293C407.028 142.464 407.053 142.71 407.076 143.03L398.796 144.324C399.062 145.078 399.535 145.639 400.213 146.005C400.902 146.356 401.701 146.461 402.61 146.319C403.769 146.138 404.664 145.607 405.296 144.725L406.858 146.04C406.472 146.681 405.939 147.202 405.26 147.605C404.581 148.008 403.787 148.281 402.878 148.423C401.718 148.604 400.662 148.533 399.707 148.21C398.752 147.887 397.967 147.355 397.352 146.614C396.748 145.858 396.365 144.96 396.203 143.919C396.042 142.892 396.129 141.934 396.462 141.045C396.807 140.141 397.358 139.393 398.116 138.803C398.874 138.212 399.773 137.835 400.814 137.673C401.841 137.512 402.793 137.6 403.668 137.935C404.555 138.255 405.287 138.796 405.865 139.556C406.453 140.3 406.832 141.213 407.001 142.293ZM401.122 139.649C400.332 139.772 399.697 140.114 399.218 140.675C398.75 141.22 398.517 141.891 398.52 142.687L404.507 141.751C404.283 141.004 403.863 140.435 403.249 140.045C402.635 139.655 401.926 139.523 401.122 139.649ZM59.0235 221.962L57.1067 222.261L57.7674 226.49L55.2973 226.876L53.6488 216.324L56.1188 215.938L56.7857 220.206L58.7617 219.897L61.217 215.141L63.8649 214.728L60.8248 220.405L65.7703 225.239L62.8655 225.693L59.0235 221.962ZM72.4825 224.333C71.4154 224.499 70.4177 224.419 69.4894 224.092C68.5611 223.764 67.7894 223.23 67.1744 222.49C66.5705 221.734 66.1872 220.836 66.0247 219.795C65.8621 218.754 65.9541 217.788 66.3007 216.898C66.6605 216.005 67.2326 215.261 68.0168 214.666C68.8011 214.071 69.7267 213.69 70.7938 213.524C71.874 213.355 72.8783 213.434 73.8066 213.761C74.7349 214.089 75.5 214.624 76.1018 215.366C76.7169 216.107 77.1057 216.998 77.2683 218.038C77.4309 219.079 77.3333 220.052 76.9755 220.959C76.6289 221.849 76.0634 222.592 75.2792 223.187C74.4949 223.782 73.5627 224.164 72.4825 224.333ZM72.1521 222.218C73.0611 222.076 73.7647 221.656 74.2628 220.957C74.7609 220.259 74.9328 219.415 74.7785 218.427C74.6241 217.439 74.2032 216.689 73.5157 216.175C72.8282 215.662 72.03 215.476 71.121 215.618C70.212 215.76 69.5085 216.181 69.0104 216.879C68.5254 217.576 68.3601 218.418 68.5145 219.406C68.6688 220.394 69.0831 221.146 69.7575 221.661C70.4449 222.175 71.2432 222.36 72.1521 222.218ZM79.4769 212.289L81.9469 211.903L82.6168 216.191L87.9324 215.36L87.2624 211.072L89.7325 210.686L91.381 221.238L88.911 221.624L88.2596 217.455L82.9441 218.285L83.5955 222.455L81.1254 222.841L79.4769 212.289ZM100.108 220.017C99.0141 220.187 97.9967 220.11 97.0552 219.785C96.1137 219.46 95.3354 218.927 94.7204 218.186C94.1033 217.432 93.7135 216.535 93.5509 215.494C93.3883 214.454 93.4869 213.487 93.8467 212.594C94.2065 211.701 94.7786 210.957 95.5628 210.362C96.3602 209.765 97.3122 209.381 98.4188 209.208C99.4595 209.045 100.401 209.114 101.245 209.414C102.101 209.712 102.788 210.225 103.307 210.954L101.583 212.357C101.204 211.917 100.765 211.614 100.267 211.449C99.78 211.269 99.2664 211.221 98.7263 211.305C97.8041 211.449 97.0874 211.872 96.5761 212.572C96.0627 213.26 95.8843 214.104 96.0407 215.105C96.1971 216.107 96.6191 216.864 97.3065 217.377C98.0051 217.875 98.8221 218.051 99.7574 217.905C100.298 217.821 100.773 217.625 101.184 217.318C101.606 216.996 101.93 216.567 102.157 216.032L104.227 216.843C103.942 217.697 103.438 218.403 102.716 218.961C102.005 219.504 101.135 219.856 100.108 220.017ZM115.534 206.655L112.376 218.829C112.094 220.047 111.659 220.938 111.073 221.502C110.488 222.079 109.728 222.441 108.793 222.587C108.266 222.669 107.732 222.665 107.192 222.574C106.651 222.483 106.192 222.311 105.816 222.06L106.52 220.088C106.792 220.275 107.096 220.409 107.433 220.492C107.783 220.572 108.123 220.586 108.452 220.535C108.887 220.467 109.225 220.299 109.466 220.032C109.721 219.763 109.926 219.346 110.081 218.782L110.194 218.34L103.935 208.467L106.504 208.066L111.043 215.353L113.163 207.026L115.534 206.655ZM126.751 204.903L128.399 215.455L125.929 215.841L124.608 207.383L120.656 208.001L120.884 210.111C121.036 211.517 121.088 212.71 121.039 213.69C121 214.654 120.794 215.449 120.419 216.074C120.056 216.684 119.479 217.051 118.688 217.174C118.319 217.232 117.854 217.231 117.291 217.17L117.085 215.077C117.276 215.087 117.437 215.082 117.569 215.062C118.069 214.984 118.414 214.727 118.602 214.293C118.789 213.846 118.872 213.34 118.851 212.777C118.842 212.198 118.782 211.384 118.672 210.335L118.214 206.236L126.751 204.903ZM136.509 206.941C137.853 206.731 138.928 206.873 139.734 207.368C140.553 207.861 141.049 208.661 141.222 209.767C141.403 210.927 141.148 211.884 140.456 212.64C139.764 213.396 138.7 213.879 137.262 214.09L132.318 214.842L130.67 204.29L133.14 203.905L133.68 207.363L136.509 206.941ZM136.76 212.306C137.487 212.206 138.016 211.968 138.349 211.593C138.682 211.217 138.801 210.726 138.706 210.12C138.613 209.527 138.361 209.121 137.949 208.902C137.537 208.683 136.954 208.626 136.201 208.73L133.946 209.062L134.505 212.639L136.76 212.306ZM150.601 203.322L146.905 203.9L148.227 212.357L145.757 212.743L144.435 204.286L140.72 204.866L140.393 202.771L150.273 201.228L150.601 203.322ZM156.572 200.122C158.126 199.879 159.37 200.07 160.304 200.693C161.25 201.301 161.84 202.356 162.074 203.858L163.041 210.043L160.709 210.407L160.508 209.123C160.277 209.631 159.898 210.055 159.371 210.393C158.854 210.717 158.201 210.94 157.411 211.064C156.62 211.187 155.908 211.164 155.274 210.993C154.638 210.809 154.118 210.505 153.715 210.083C153.323 209.645 153.079 209.123 152.984 208.517C152.836 207.568 153.067 206.756 153.677 206.081C154.297 205.39 155.365 204.926 156.88 204.689L159.607 204.263L159.583 204.105C159.467 203.368 159.155 202.836 158.645 202.511C158.149 202.184 157.466 202.088 156.596 202.224C156.004 202.316 155.432 202.5 154.881 202.775C154.343 203.048 153.903 203.38 153.559 203.771L152.31 202.124C152.797 201.616 153.412 201.19 154.154 200.844C154.896 200.499 155.702 200.258 156.572 200.122ZM157.643 209.186C158.263 209.089 158.788 208.865 159.219 208.514C159.661 208.148 159.94 207.686 160.055 207.129L159.863 205.904L157.314 206.302C155.892 206.524 155.253 207.103 155.399 208.038C155.469 208.486 155.703 208.814 156.1 209.022C156.497 209.23 157.011 209.284 157.643 209.186ZM177.942 205.569L178.649 210.094L176.337 210.455L175.957 208.025L166.69 209.473L165.041 198.921L167.511 198.535L168.833 206.992L173.871 206.205L172.55 197.747L175.02 197.362L176.342 205.819L177.942 205.569ZM179.412 196.675L181.882 196.289L183.531 206.841L181.061 207.227L179.412 196.675ZM180.385 194.742C179.938 194.812 179.541 194.732 179.194 194.503C178.846 194.26 178.639 193.928 178.573 193.507C178.507 193.085 178.604 192.713 178.864 192.389C179.122 192.051 179.474 191.848 179.922 191.778C180.37 191.708 180.767 191.788 181.114 192.017C181.458 192.233 181.662 192.545 181.725 192.954C181.793 193.388 181.7 193.781 181.444 194.131C181.199 194.466 180.847 194.67 180.385 194.742ZM195.438 194.05C196.492 193.886 197.47 193.969 198.372 194.3C199.272 194.619 200.024 195.156 200.627 195.911C201.229 196.654 201.612 197.546 201.774 198.586C201.937 199.627 201.846 200.6 201.501 201.504C201.155 202.394 200.602 203.135 199.844 203.726C199.086 204.317 198.181 204.694 197.127 204.859C196.205 205.003 195.334 204.957 194.514 204.721C193.692 204.471 192.98 204.056 192.376 203.476C191.771 202.882 191.329 202.168 191.05 201.335L189.271 201.613L189.932 205.841L187.462 206.227L185.813 195.675L188.284 195.289L188.923 199.38L190.741 199.096C190.769 198.241 190.984 197.459 191.386 196.748C191.786 196.024 192.334 195.432 193.032 194.973C193.727 194.5 194.529 194.192 195.438 194.05ZM196.799 202.764C197.379 202.674 197.879 202.461 198.299 202.125C198.717 201.777 199.018 201.331 199.203 200.79C199.387 200.235 199.427 199.628 199.324 198.969C199.167 197.968 198.753 197.216 198.081 196.714C197.42 196.197 196.648 196.007 195.765 196.145C194.883 196.283 194.205 196.699 193.734 197.393C193.26 198.075 193.101 198.916 193.257 199.917C193.414 200.918 193.823 201.678 194.484 202.195C195.158 202.71 195.93 202.9 196.799 202.764ZM218.706 192.682L215.011 193.259L216.333 201.717L213.863 202.103L212.541 193.645L208.826 194.226L208.499 192.131L218.379 190.587L218.706 192.682ZM226.594 189.183C227.622 189.022 228.572 189.103 229.446 189.425C230.333 189.746 231.07 190.278 231.659 191.023C232.248 191.768 232.625 192.673 232.792 193.74C232.959 194.808 232.876 195.792 232.545 196.694C232.212 197.583 231.671 198.315 230.925 198.89C230.191 199.464 229.31 199.831 228.283 199.991C226.86 200.214 225.66 199.915 224.682 199.097L225.481 204.214L223.011 204.6L220.764 190.215L223.115 189.848L223.331 191.231C223.661 190.666 224.103 190.213 224.657 189.87C225.224 189.525 225.87 189.296 226.594 189.183ZM227.676 197.92C228.585 197.778 229.282 197.359 229.767 196.662C230.265 195.964 230.437 195.121 230.283 194.133C230.128 193.145 229.707 192.394 229.02 191.88C228.345 191.365 227.554 191.178 226.645 191.32C226.052 191.413 225.54 191.635 225.109 191.985C224.676 192.323 224.36 192.764 224.162 193.307C223.963 193.851 223.916 194.453 224.019 195.111C224.121 195.77 224.35 196.328 224.705 196.785C225.06 197.243 225.496 197.573 226.014 197.775C226.529 197.965 227.083 198.013 227.676 197.92ZM245.733 191.779C245.759 191.951 245.784 192.196 245.807 192.517L237.528 193.81C237.794 194.565 238.266 195.125 238.944 195.492C239.633 195.843 240.432 195.948 241.341 195.806C242.501 195.624 243.396 195.093 244.028 194.212L245.589 195.526C245.204 196.167 244.671 196.689 243.992 197.092C243.313 197.495 242.518 197.767 241.609 197.909C240.45 198.09 239.393 198.019 238.439 197.696C237.484 197.373 236.699 196.841 236.084 196.101C235.48 195.345 235.097 194.446 234.934 193.406C234.774 192.378 234.86 191.42 235.194 190.531C235.538 189.627 236.089 188.88 236.847 188.289C237.605 187.698 238.505 187.322 239.545 187.159C240.573 186.999 241.524 187.086 242.4 187.422C243.287 187.742 244.019 188.282 244.596 189.042C245.185 189.787 245.564 190.699 245.733 191.779ZM239.854 189.135C239.064 189.259 238.429 189.601 237.95 190.161C237.482 190.707 237.249 191.378 237.252 192.173L243.239 191.238C243.014 190.49 242.595 189.922 241.981 189.532C241.366 189.142 240.658 189.01 239.854 189.135ZM248.194 185.929L250.664 185.544L251.333 189.832L256.649 189.001L255.979 184.713L258.449 184.327L260.098 194.879L257.628 195.265L256.976 191.096L251.661 191.926L252.312 196.096L249.842 196.481L248.194 185.929ZM273.066 187.509C273.093 187.68 273.118 187.926 273.141 188.246L264.861 189.54C265.127 190.295 265.6 190.855 266.278 191.221C266.967 191.573 267.766 191.677 268.675 191.535C269.834 191.354 270.729 190.823 271.361 189.941L272.923 191.256C272.537 191.897 272.004 192.418 271.325 192.821C270.646 193.225 269.852 193.497 268.943 193.639C267.783 193.82 266.726 193.749 265.772 193.426C264.817 193.103 264.032 192.571 263.417 191.83C262.813 191.074 262.43 190.176 262.268 189.135C262.107 188.108 262.193 187.15 262.527 186.261C262.872 185.357 263.423 184.61 264.181 184.019C264.939 183.428 265.838 183.051 266.879 182.889C267.906 182.728 268.858 182.816 269.733 183.151C270.62 183.472 271.352 184.012 271.93 184.772C272.518 185.516 272.897 186.429 273.066 187.509ZM267.187 184.865C266.397 184.988 265.762 185.33 265.283 185.891C264.815 186.437 264.582 187.107 264.585 187.903L270.572 186.968C270.348 186.22 269.928 185.651 269.314 185.261C268.7 184.871 267.991 184.739 267.187 184.865ZM281.357 180.627C282.385 180.466 283.335 180.547 284.209 180.869C285.096 181.19 285.833 181.722 286.422 182.467C287.011 183.212 287.388 184.118 287.555 185.185C287.722 186.252 287.639 187.236 287.308 188.138C286.975 189.027 286.434 189.759 285.688 190.335C284.954 190.908 284.074 191.275 283.046 191.436C281.623 191.658 280.423 191.36 279.445 190.541L280.244 195.659L277.774 196.045L275.527 181.659L277.878 181.292L278.094 182.675C278.425 182.111 278.866 181.657 279.42 181.314C279.987 180.969 280.633 180.74 281.357 180.627ZM282.439 189.365C283.348 189.223 284.045 188.803 284.53 188.107C285.028 187.408 285.2 186.565 285.046 185.577C284.891 184.589 284.47 183.838 283.783 183.325C283.109 182.809 282.317 182.623 281.408 182.765C280.815 182.857 280.303 183.079 279.872 183.43C279.439 183.767 279.123 184.208 278.925 184.752C278.726 185.295 278.679 185.897 278.782 186.555C278.884 187.214 279.113 187.772 279.468 188.229C279.823 188.687 280.259 189.017 280.777 189.219C281.292 189.409 281.846 189.457 282.439 189.365ZM293.561 178.72C295.115 178.477 296.359 178.668 297.293 179.291C298.239 179.899 298.829 180.954 299.063 182.456L300.029 188.641L297.698 189.005L297.497 187.72C297.266 188.229 296.887 188.652 296.36 188.991C295.843 189.315 295.19 189.538 294.4 189.662C293.609 189.785 292.897 189.762 292.263 189.591C291.627 189.407 291.107 189.103 290.704 188.681C290.312 188.243 290.068 187.721 289.973 187.115C289.825 186.166 290.056 185.354 290.666 184.678C291.286 183.988 292.354 183.524 293.869 183.287L296.596 182.861L296.572 182.703C296.456 181.965 296.144 181.434 295.634 181.109C295.138 180.781 294.455 180.686 293.585 180.822C292.993 180.914 292.421 181.098 291.87 181.373C291.332 181.646 290.892 181.978 290.548 182.369L289.299 180.722C289.786 180.214 290.401 179.787 291.143 179.442C291.885 179.097 292.691 178.856 293.561 178.72ZM294.632 187.783C295.252 187.687 295.777 187.463 296.208 187.112C296.65 186.746 296.929 186.284 297.044 185.727L296.852 184.501L294.303 184.9C292.881 185.122 292.242 185.701 292.388 186.636C292.458 187.084 292.692 187.412 293.089 187.62C293.486 187.828 294 187.882 294.632 187.783ZM71.8449 242.954C73.2108 243.146 73.9946 243.887 74.1963 245.178C74.3445 246.126 74.103 246.913 73.4719 247.538C72.8408 248.163 71.8271 248.584 70.4307 248.803L65.0559 249.642L63.4073 239.09L68.5648 238.284C69.8558 238.083 70.9006 238.162 71.6992 238.524C72.4979 238.885 72.9651 239.5 73.1009 240.369C73.1853 240.909 73.1135 241.4 72.8854 241.84C72.6705 242.279 72.3237 242.65 71.8449 242.954ZM66.4472 243.129L69.0358 242.725C70.3137 242.525 70.8836 241.984 70.7458 241.102C70.612 240.245 69.9062 239.917 68.6283 240.117L66.0397 240.521L66.4472 243.129ZM69.9522 247.035C71.309 246.823 71.9185 246.276 71.7806 245.393C71.7086 244.932 71.497 244.614 71.1458 244.44C70.7926 244.252 70.2801 244.211 69.6082 244.316L66.7035 244.77L67.1264 247.477L69.9522 247.035ZM92.4057 234.56L94.0543 245.112L91.604 245.495L90.2827 237.037L85.0857 237.849L86.407 246.306L83.937 246.692L82.2884 236.14L92.4057 234.56ZM102.704 243.902C101.637 244.069 100.64 243.988 99.7114 243.661C98.7831 243.334 98.0115 242.8 97.3964 242.059C96.7925 241.303 96.4093 240.405 96.2467 239.364C96.0841 238.324 96.1761 237.358 96.5228 236.467C96.8826 235.574 97.4546 234.83 98.2388 234.235C99.0231 233.641 99.9487 233.26 101.016 233.093C102.096 232.924 103.1 233.004 104.029 233.331C104.957 233.658 105.722 234.193 106.324 234.936C106.939 235.676 107.328 236.567 107.49 237.608C107.653 238.649 107.555 239.622 107.198 240.528C106.851 241.419 106.285 242.162 105.501 242.757C104.717 243.351 103.785 243.733 102.704 243.902ZM102.374 241.788C103.283 241.646 103.987 241.225 104.485 240.527C104.983 239.828 105.155 238.985 105 237.997C104.846 237.009 104.425 236.258 103.738 235.745C103.05 235.231 102.252 235.046 101.343 235.188C100.434 235.33 99.7305 235.75 99.2324 236.449C98.7474 237.145 98.5821 237.987 98.7365 238.975C98.8908 239.963 99.3052 240.715 99.9795 241.231C100.667 241.744 101.465 241.93 102.374 241.788ZM122.168 238.574L122.862 243.02L120.55 243.381L120.183 241.03L112.042 242.301L112.409 244.653L110.117 245.011L109.422 240.565L109.916 240.488C110.584 240.357 110.972 239.857 111.079 238.99C111.198 238.108 111.177 236.897 111.018 235.356L110.591 231.719L119.285 230.36L120.607 238.818L122.168 238.574ZM113.298 235.182C113.435 236.402 113.49 237.406 113.465 238.193C113.439 238.979 113.264 239.587 112.94 240.015L118.137 239.204L117.143 232.841L113.092 233.474L113.298 235.182ZM127.559 228.946C129.114 228.703 130.358 228.894 131.292 229.517C132.237 230.125 132.827 231.18 133.062 232.682L134.028 238.867L131.696 239.231L131.496 237.946C131.265 238.455 130.885 238.878 130.358 239.217C129.842 239.541 129.189 239.764 128.398 239.888C127.608 240.011 126.896 239.988 126.262 239.817C125.626 239.633 125.106 239.329 124.702 238.907C124.31 238.469 124.067 237.946 123.972 237.341C123.824 236.392 124.054 235.58 124.664 234.904C125.285 234.214 126.353 233.75 127.868 233.513L130.595 233.087L130.57 232.929C130.455 232.191 130.142 231.66 129.633 231.335C129.136 231.007 128.453 230.912 127.584 231.048C126.991 231.14 126.419 231.324 125.868 231.599C125.331 231.872 124.89 232.204 124.546 232.595L123.297 230.948C123.784 230.44 124.399 230.013 125.142 229.668C125.884 229.323 126.69 229.082 127.559 228.946ZM128.631 238.009C129.25 237.913 129.775 237.689 130.206 237.338C130.648 236.972 130.927 236.51 131.042 235.952L130.851 234.727L128.302 235.126C126.879 235.348 126.241 235.927 126.387 236.862C126.457 237.31 126.69 237.638 127.087 237.846C127.484 238.054 127.999 238.108 128.631 238.009ZM141.859 226.712C142.887 226.552 143.837 226.632 144.711 226.955C145.598 227.275 146.335 227.808 146.924 228.552C147.513 229.297 147.89 230.203 148.057 231.27C148.224 232.337 148.141 233.322 147.81 234.223C147.477 235.112 146.936 235.844 146.19 236.42C145.456 236.993 144.575 237.36 143.548 237.521C142.125 237.743 140.925 237.445 139.947 236.626L140.746 241.744L138.276 242.13L136.029 227.744L138.38 227.377L138.596 228.76C138.926 228.196 139.368 227.742 139.922 227.399C140.489 227.054 141.135 226.825 141.859 226.712ZM142.941 235.45C143.85 235.308 144.547 234.888 145.032 234.192C145.53 233.493 145.702 232.65 145.548 231.662C145.393 230.674 144.972 229.923 144.285 229.41C143.61 228.895 142.819 228.708 141.91 228.85C141.317 228.942 140.805 229.164 140.374 229.515C139.941 229.852 139.625 230.293 139.427 230.837C139.228 231.381 139.181 231.982 139.284 232.641C139.386 233.299 139.615 233.857 139.97 234.315C140.325 234.772 140.761 235.102 141.279 235.305C141.794 235.494 142.348 235.542 142.941 235.45ZM159.954 224.007L156.795 236.18C156.513 237.398 156.079 238.289 155.492 238.853C154.907 239.43 154.147 239.792 153.212 239.938C152.685 240.02 152.151 240.016 151.611 239.925C151.07 239.834 150.612 239.663 150.235 239.411L150.939 237.439C151.211 237.626 151.516 237.761 151.852 237.843C152.202 237.923 152.542 237.938 152.871 237.886C153.306 237.818 153.644 237.651 153.886 237.384C154.141 237.114 154.345 236.698 154.5 236.134L154.613 235.691L148.354 225.819L150.923 225.417L155.462 232.704L157.582 224.377L159.954 224.007ZM162.262 223.646L164.732 223.26L165.402 227.548L170.718 226.718L170.048 222.43L172.518 222.044L174.166 232.596L171.696 232.982L171.045 228.812L165.729 229.643L166.381 233.812L163.911 234.198L162.262 223.646ZM182.794 231.389C181.727 231.556 180.729 231.476 179.801 231.149C178.873 230.821 178.101 230.287 177.486 229.547C176.882 228.791 176.499 227.893 176.336 226.852C176.173 225.811 176.266 224.845 176.612 223.955C176.972 223.062 177.544 222.318 178.328 221.723C179.112 221.128 180.038 220.747 181.105 220.581C182.185 220.412 183.19 220.491 184.118 220.818C185.046 221.146 185.811 221.681 186.413 222.423C187.028 223.164 187.417 224.055 187.58 225.095C187.742 226.136 187.645 227.109 187.287 228.015C186.94 228.906 186.375 229.649 185.591 230.244C184.806 230.839 183.874 231.221 182.794 231.389ZM182.464 229.275C183.373 229.133 184.076 228.713 184.574 228.014C185.072 227.316 185.244 226.472 185.09 225.484C184.936 224.496 184.515 223.746 183.827 223.232C183.14 222.719 182.341 222.533 181.432 222.675C180.523 222.817 179.82 223.237 179.322 223.936C178.837 224.633 178.672 225.475 178.826 226.463C178.98 227.451 179.395 228.203 180.069 228.718C180.756 229.231 181.555 229.417 182.464 229.275ZM195.163 224.983L193.246 225.283L193.907 229.512L191.437 229.897L189.788 219.345L192.258 218.96L192.925 223.228L194.901 222.919L197.356 218.163L200.004 217.749L196.964 223.427L201.91 228.261L199.005 228.715L195.163 224.983ZM201.728 214.12L204.653 213.663L205.603 222.988L203.647 223.293L201.728 214.12ZM205.373 227.862C204.912 227.934 204.507 227.849 204.159 227.606C203.809 227.351 203.599 227.005 203.532 226.571C203.464 226.136 203.559 225.75 203.816 225.413C204.074 225.076 204.433 224.871 204.894 224.799C205.342 224.729 205.734 224.816 206.069 225.061C206.417 225.303 206.625 225.642 206.693 226.077C206.761 226.511 206.667 226.904 206.412 227.254C206.167 227.589 205.821 227.792 205.373 227.862Z" fill="black"/>
</svg>
