<svg width="373" height="336" viewBox="0 0 373 336" fill="none" xmlns="http://www.w3.org/2000/svg">
<g clip-path="url(#clip0)">
<path d="M29.1502 23.4595C29.1016 21.2678 28.4693 19.7255 27.6262 18.8001C27.6262 18.2643 27.6262 17.7448 27.6262 17.209C27.5938 9.64352 20.6225 9.62728 20.6549 17.209C20.9791 110.82 21.3196 204.448 21.6439 298.059C21.6763 305.657 28.4369 305.608 28.6152 298.059C30.8849 206.591 31.0633 114.993 29.1502 23.4595Z" fill="#01737B"/>
<path d="M74.7882 12.7769C73.5399 13.475 72.5023 15.2446 72.4536 18.102C71.4322 68.9663 70.4109 119.831 69.3895 170.695C68.4005 219.773 66.1794 269.388 70.5243 318.174C71.1242 324.911 77.2849 322.996 77.366 316.615C78.8251 215.341 80.3004 114.067 81.7596 12.7931C81.873 5.22759 74.9179 5.22759 74.7882 12.7769Z" fill="#01737B"/>
<path d="M101.02 15.9427C101.02 16.1375 101.02 16.3323 101.02 16.5272C100.809 17.2577 100.696 18.102 100.68 19.0761L99.1718 330.318C99.1394 337.883 106.094 337.899 106.143 330.318C106.759 225.521 107.375 120.74 107.991 15.9427C108.04 8.37717 101.069 8.37717 101.02 15.9427Z" fill="#01737B"/>
<path d="M157.634 19.1247C157.407 11.5917 150.435 11.543 150.662 19.1247C151.295 40.7335 151.716 62.3586 151.976 83.9836C151.279 84.9253 150.76 86.289 150.63 88.1073C145.474 161.408 144.502 235.294 147.728 308.92C148.052 316.502 154.326 316.469 154.699 308.92C159.466 212.516 160.439 115.723 157.634 19.1247Z" fill="#01737B"/>
<path d="M192.62 95.2832C193.025 74.0803 193.723 52.8774 194.695 31.7069C194.89 27.5995 192.896 25.7324 190.999 26.0896C190.853 19.5306 190.691 12.9717 190.545 6.39652C190.367 -1.13653 183.395 -1.25017 183.574 6.33158C184.271 35.9605 184.968 65.5894 185.649 95.2345C184.319 163.811 185.908 232.453 190.448 300.689C190.934 307.994 197.597 308.498 197.419 300.754C195.814 232.258 194.209 163.763 192.62 95.2832Z" fill="#01737B"/>
<path d="M243.187 13.3613C241.112 11.7216 238.064 13.3776 238.112 18.4104C238.955 111.291 239.815 204.172 240.658 297.052C240.723 304.618 247.58 304.634 247.629 297.052C248.229 203.668 248.829 110.284 249.445 16.9006C249.477 10.8124 244.97 9.62728 243.187 13.3613Z" fill="#01737B"/>
<path d="M281.027 5.90948C280.929 -1.65604 273.958 -1.67228 274.055 5.90948C274.136 12.0626 274.185 18.1994 274.25 24.3525C274.136 24.9369 274.055 25.5701 274.055 26.3007C273.942 120.675 273.828 215.033 273.699 309.407C273.682 316.989 280.573 316.972 280.67 309.407C282.113 208.247 282.226 107.07 281.027 5.90948Z" fill="#01737B"/>
<path d="M342.569 289.243C340.235 196.427 337.884 103.628 335.549 10.8125C335.355 3.26317 328.74 3.2307 328.578 10.8125C326.551 106.404 327.913 202.077 332.663 297.393C333.036 304.877 340.008 304.942 339.635 297.393C339.586 296.549 339.554 295.721 339.521 294.877C341.159 294.682 342.666 292.815 342.569 289.243Z" fill="#01737B"/>
<path d="M369.757 4.15608C368.833 -2.15934 362.64 -0.990423 362.9 5.71464C364.245 39.6621 365.072 73.6582 365.429 107.671C365.202 123.906 364.975 140.124 364.748 156.359C364.034 206.428 363.337 256.513 362.624 306.582C362.51 314.148 369.498 314.148 369.595 306.582L370.601 235.083C371.119 234.158 371.476 232.924 371.508 231.316C372.546 190.112 372.822 148.875 372.384 107.671C372.53 97.2964 372.676 86.9222 372.822 76.548C373.178 52.1955 373.243 27.9566 369.757 4.15608Z" fill="#01737B"/>
</g>
<defs>
<clipPath id="clip0">
<rect width="721" height="336" fill="white" transform="translate(-348)"/>
</clipPath>
</defs>
</svg>
