<svg width="196" height="543" viewBox="0 0 196 543" fill="none" xmlns="http://www.w3.org/2000/svg">
<path d="M179.373 219.627C174.335 236.836 158.698 248.845 142.551 256.665C126.405 264.486 108.817 269.443 93.6994 279.058C58.6202 301.41 42.6194 347.071 48.957 388.198C55.2906 429.298 80.9827 465.573 113.093 492.029C132.688 508.175 155.732 521.494 180.962 524.069C206.192 526.644 233.84 516.607 246.961 494.892C255.007 481.584 257.119 465.205 265.883 452.355C277.843 434.794 299.883 427.114 320.894 423.907C341.905 420.7 363.625 420.748 383.663 413.648C429.346 397.485 454.943 348.563 466.322 301.443C469.522 288.205 471.923 274.155 467.766 261.192C459.846 236.393 430.253 222.128 425.681 196.493C423.128 182.162 429.193 167.877 431.664 153.534C437.678 118.759 421.444 82.2925 394.72 59.2151C368.052 36.1296 332.257 25.3552 296.97 24.0768C261.683 22.7985 226.635 30.3502 192.798 40.3479C162.935 49.1619 117.609 68.4902 129.521 107.039C141.107 144.535 192.116 176.172 179.373 219.627Z" fill="#FDCE02"/>
</svg>
