<svg width="550" height="153" viewBox="0 0 550 153" fill="none" xmlns="http://www.w3.org/2000/svg">
<path d="M558.015 42.713C556.848 34.1617 555.667 25.596 554.5 17.0448C553.953 13.0359 548.305 10.8007 544.66 12.4014C542.542 9.15682 537.284 9.32987 534.374 11.7813C533.308 7.88783 527.43 7.62827 524.102 9.79132C522.056 7.57058 517.95 7.61385 515.17 9.24335C513.354 8.13298 510.848 8.0753 508.715 8.854C508.499 8.30602 508.312 7.75805 508.081 7.19566C506.05 2.45136 497.435 1.96106 495.648 7.19566C495.216 8.45023 494.827 9.71922 494.424 10.9738C492.652 10.2528 490.548 10.1951 488.762 10.8584C487.177 9.69038 484.771 9.50291 482.61 10.0653C481.04 8.82516 479.109 8.01762 476.703 7.80131C472.612 7.42638 469.514 8.78189 467.152 11.1468C464.53 8.10414 459.07 7.58501 456.231 11.1757C454.214 13.7425 452.428 16.367 450.886 19.0492C450.411 17.9532 449.892 16.8573 449.345 15.7613C447.602 12.286 440.355 9.94994 437.747 14.2184C437.157 12.8773 436.537 11.5362 435.846 10.2095C433.93 6.46022 426.827 4.48463 424.061 8.95494C423.758 9.43081 423.528 9.9211 423.24 10.397C420.92 8.33486 416.987 8.17624 414.394 9.90668C414.365 9.86342 414.351 9.82016 414.322 9.7769C412.723 6.76305 408.458 6.63326 405.476 8.10414C405.131 7.19566 404.799 6.27275 404.425 5.36427C402.35 0.302724 394.138 0.461347 391.992 5.36427C391.559 6.34485 391.214 7.32544 390.853 8.30602C387.655 7.46964 383.621 9.15682 382.325 11.9111C381.921 12.7619 381.561 13.6271 381.201 14.4779C380.135 12.834 378.997 11.2045 377.714 9.61828C376.086 7.59943 373.724 6.89283 371.491 7.16681C370.597 5.62384 369.618 4.08086 368.508 2.5523C365.526 -1.54308 358.539 -0.346193 356.724 3.80687C356.335 4.70093 356.003 5.60942 355.643 6.5179C352.675 4.15296 347.201 5.11912 345.314 8.04646C345.285 8.06088 345.242 8.06088 345.198 8.0753C342.706 4.72977 339.22 2.85513 334.336 3.61941C332.059 3.97992 330.186 4.8163 328.645 6.02761C327.752 5.91224 326.786 5.86898 325.749 5.96992C324.164 6.11413 322.781 6.53232 321.571 7.15239C319.468 5.43637 316.889 4.45579 313.705 4.57115C310.42 4.68651 308.014 5.76804 306.271 7.48406C304.614 7.41196 302.886 7.84457 301.344 8.91168C299.399 10.2672 297.944 11.9976 296.835 13.9444C295.394 13.7137 293.867 13.8867 292.513 14.4203C291.98 13.1801 291.447 11.9544 290.856 10.7142C288.205 5.11912 278.913 6.08529 278.192 12.113C278.019 13.6127 277.875 15.098 277.775 16.5833C277.126 16.3526 276.449 16.2084 275.714 16.1651C274.951 13.656 274.115 11.1613 273.121 8.68095C271.306 4.02318 263.613 3.87897 261.236 7.59943C258.657 8.59443 256.597 10.7431 257.072 13.5983C259.291 26.9804 259.968 40.3913 259.406 53.8744C259.219 58.46 265.039 59.9165 268.914 58.287C269.966 64.6896 282.125 64.9492 281.765 58.1284C281.592 54.7973 281.376 51.4662 281.131 48.1351C282.5 50.8749 285.785 51.6392 288.637 50.9326C289.775 54.6963 295.236 55.8499 298.607 54.2925C302.021 57.9986 310.464 57.3641 310.147 51.5815C310.089 50.4712 310.003 49.3608 309.931 48.2504C312.135 49.4761 315.218 49.4906 317.436 48.3946C317.494 48.683 317.566 48.9426 317.624 49.1877C318.69 53.7878 325.418 53.8599 328.602 51.0624C331.987 52.8794 337.26 51.1201 338.514 47.4573C340.314 52.8073 350.255 51.2931 350.961 46.0585C353.007 51.4662 363.74 51.3364 363.553 44.8761C363.466 41.8622 363.279 38.8772 362.976 35.9066C362.976 34.8972 363.005 33.8877 363.048 32.8783C363.38 34.3348 363.783 35.7912 364.302 37.2621C365.742 41.271 373.565 42.4246 376.043 38.9204C376.029 40.2327 376.058 41.545 376.13 42.8716C376.461 49.6204 388.678 49.6348 389.024 42.8716C389.11 41.17 389.096 39.4973 389.009 37.8245C389.024 37.4784 389.038 37.1467 389.053 36.8007C389.37 38.1562 389.73 39.5261 390.162 40.896C391.343 44.6742 396.429 45.424 399.786 43.8378C401.975 46.4479 406.658 46.8949 409.409 45.0635C410.591 47.6015 413.947 48.1639 416.872 47.3275C418.558 52.8361 428.801 50.6442 429.363 45.3663C429.953 39.9587 429.881 34.652 429.204 29.4174C430.097 33.9454 430.458 38.5744 430.227 43.3763C430.256 50.1539 442.804 50.1106 443.121 43.3763C443.121 42.9437 443.136 42.5255 443.15 42.0929C443.179 43.0735 443.208 44.0541 443.179 45.0635C443.064 51.8411 455.698 51.7834 456.073 45.0635C456.39 39.2233 457.73 33.8012 460.006 28.6099C460.092 29.1434 460.164 29.6914 460.222 30.225C459.675 35.3298 459.689 40.0164 459.747 42.6986C459.847 48.3514 471.387 50.1539 472.41 44.0974C472.482 43.6215 472.525 43.16 472.597 42.6986H472.641C472.641 42.5976 472.641 42.4967 472.641 42.3958C473.116 39.007 473.332 35.7047 473.203 32.4457C473.39 31.0469 473.649 29.6482 473.952 28.2638C473.419 32.6043 473.447 36.9881 474.067 41.4873C474.47 44.3425 477.582 46.3325 480.651 46.6209C481.76 49.4473 485.391 50.5577 488.459 49.9376C490.606 53.9465 499.481 54.4079 500.647 49.2887C500.777 48.7407 500.849 48.1927 500.964 47.6448C503.298 49.0291 506.67 49.2166 508.903 47.8466C510.631 49.1445 513.196 49.4185 515.429 48.7407C515.631 54.9991 526.508 55.1722 528.107 49.5338C531.853 51.048 537.471 49.5483 537.716 45.0491C537.731 44.9049 537.745 44.7607 537.745 44.6165C537.774 45.3808 537.803 46.145 537.803 46.9093C537.961 53.4417 549.904 53.6581 550.625 47.515C554.356 48.2216 558.548 46.6353 558.015 42.713Z" fill="#EEA2A2"/>
<path d="M303.788 101.614L301.295 94.6059C300.287 91.794 296.815 90.3087 293.371 90.9432C292.377 91.1306 291.513 91.4623 290.721 91.8516C290.505 91.7363 290.274 91.6353 290.058 91.52C289.15 89.9193 287.321 88.708 284.497 88.708C282.883 88.708 281.63 89.1406 280.65 89.7751C279.915 89.155 279.109 88.5494 278.187 87.987C275.507 86.3142 271.675 87.3958 269.73 89.4579C266.978 88.4196 263.276 88.9099 261.403 90.9864C259.573 86.5738 250.021 85.723 249.042 91.1162C248.523 93.957 248.12 96.7834 247.788 99.6242C247.212 98.3696 246.636 97.1151 246.016 95.8605C243.841 91.5056 235.139 90.2798 233.583 95.8605C233.18 97.3314 232.791 98.8167 232.431 100.288C232.085 98.759 231.754 97.216 231.408 95.6875C230.27 90.5394 221.049 90.9576 219.133 95.3702C216.425 93.6253 211.786 94.5338 209.538 96.9276C209.178 95.9759 208.847 95.0385 208.458 94.0868C206.671 89.7463 200.304 89.2416 197.221 92.3419C196.788 89.9626 196.313 87.5832 195.78 85.2039C194.815 80.921 186.271 79.9404 183.995 83.9493C183.707 84.4684 183.433 84.9876 183.16 85.5067C181.013 82.1612 174.184 81.6565 171.879 85.3048C171.231 86.3287 170.654 87.3525 170.107 88.3763C169.704 87.3525 169.329 86.3142 168.897 85.2904C167.11 81.0796 160.094 80.0125 157.112 84.0358C156.521 84.8289 155.974 85.6221 155.455 86.4296C153.078 83.1417 149.779 81.0508 145.227 81.0364C140.991 81.022 137.735 82.8245 135.199 85.6797C134.09 83.1994 130.517 82.1756 127.521 82.637C124.365 83.1129 122.118 84.3675 120.461 86.0402C120.173 85.1462 119.943 84.2377 119.626 83.3436C118.084 79.0175 110.679 78.1667 107.841 82.0891C106.76 83.5744 105.781 85.0885 104.815 86.6026C102.727 83.5744 99.6146 81.743 95.1197 81.8583C92.3248 81.9304 90.1062 82.8678 88.3053 84.2954C87.5994 82.7236 86.8502 81.1517 86.0291 79.5799C84.185 76.0469 76.8087 76.2344 74.8926 79.5799C74.4604 80.3298 74.0858 81.0652 73.6969 81.8151C71.7808 79.8827 68.2511 79.3059 65.413 80.5317C63.1655 81.5122 61.2782 82.8389 59.6935 84.4107C57.1002 82.0314 53.657 81.0941 49.0613 82.4496C48.1248 82.7236 47.2892 83.1129 46.5113 83.5599C43.7452 80.1423 39.8409 77.8351 34.1358 78.8445C27.8977 79.9549 24.6706 84.2954 22.9706 89.1262C20.9536 88.3187 18.7638 87.987 16.4011 88.3187C14.0528 86.1844 10.9409 84.7424 6.56126 84.5982C2.97397 84.4828 0.251088 87.1074 0.121427 89.8472C-0.757386 106.964 3.14685 123.014 11.4163 138.732C12.324 140.448 14.0672 141.227 15.9545 141.313C16.0697 141.587 16.1706 141.861 16.2714 142.15C18.5909 147.817 28.5028 146.736 28.935 140.751C29.1799 137.377 29.2519 134.002 29.1511 130.642C30.1452 132.387 31.2113 134.118 32.3638 135.819C34.8274 139.424 40.4748 138.891 43.0536 136.165C46.4536 138.328 52.3028 137.881 53.3257 133.7C53.513 132.935 53.657 132.157 53.8155 131.392C56.3655 135.877 65.2689 135.012 66.0469 129.186C66.5799 125.22 67.7757 112.011 66.1621 100.562C66.6663 102.97 67.1418 105.392 67.5163 107.815C67.3579 114.996 68.1358 122.293 69.1443 129.676C69.8935 135.17 78.3935 136.295 81.1596 132.445C82.8163 136.713 91.3307 137.16 93.1892 132.921C95.9553 136.367 103.692 136.67 104.859 131.71C105.81 127.729 108.057 117.491 108.518 107.325C109.181 105.335 109.973 103.359 110.838 101.398C111.716 107.325 112.048 113.28 112.105 119.265C111.889 123.202 111.846 127.138 111.976 131.089C112.206 137.838 124.697 137.867 124.87 131.089C124.971 126.936 125.028 122.783 124.985 118.659C125.115 116.438 125.273 114.218 125.561 111.997C125.662 111.218 125.835 109.271 126.109 106.906C126.469 110.425 126.671 113.944 126.714 117.491C126.656 119.654 126.671 121.5 126.699 122.855C126.858 129.604 139.421 129.619 139.593 122.855C139.637 121.168 139.637 119.481 139.608 117.794C139.723 113.799 140.127 109.863 141.106 105.868C141.351 104.83 144.838 92.6736 144.304 92.8034C145.673 92.4717 147.69 113.151 148.223 121.298C148.266 122.279 148.31 123.274 148.353 124.269C148.699 131.003 161.088 131.061 161.247 124.269C161.319 121.111 161.607 115.112 161.247 108.565C161.362 107.325 161.535 106.085 161.751 104.844C162.788 109.661 163.408 114.52 163.61 119.467C163.61 121.341 163.638 123.216 163.682 125.105C163.826 130.815 172.801 131.681 175.682 127.744C175.697 128.335 175.711 128.926 175.726 129.518C175.899 135.185 184.485 136.064 187.539 132.272C189.657 136.886 199.583 136.137 200.03 130.21C200.347 125.999 200.938 121.86 201.773 117.794C202.133 120.26 202.349 122.74 202.493 125.235C202.277 129.388 202.249 133.57 202.277 137.766C202.335 143.909 212.189 144.385 214.624 139.569C218.254 142.208 225.602 140.982 225.53 135.848C225.487 133.498 225.559 131.147 225.66 128.825C226.337 131.911 227.014 134.983 227.705 138.069C229.031 144.039 240.239 142.409 240.369 136.67C240.499 130.801 240.974 124.975 241.766 119.193C243.625 124.946 245.238 130.772 246.794 136.627C248.336 142.438 259.588 141.112 259.458 135.228C259.415 133.368 259.386 131.508 259.343 129.647C259.443 130.123 259.559 130.585 259.66 131.061C260.827 136.886 271.531 135.473 272.251 130.123C273.216 131.58 275.06 132.33 277.049 132.431C277.063 132.488 277.063 132.546 277.077 132.618C278.143 138.689 289.467 136.872 289.741 131.219C289.842 129.272 289.856 127.326 289.856 125.379C293.688 127.225 299.509 125.927 299.509 121.139C299.509 117.664 299.638 112.776 299.048 107.902C302.275 107.296 304.969 104.945 303.788 101.614ZM37.5791 101.845C37.435 102.609 37.3485 103.374 37.2333 104.152C37.0892 103.893 36.9596 103.633 36.8011 103.374C36.0231 102.076 35.0579 100.533 33.9197 98.932C34.0206 95.7019 34.6401 93.2504 36.3545 93.409C37.3918 93.4956 38.2418 94.2598 38.9765 95.3702C38.3282 97.7063 37.9248 99.9847 37.5791 101.845ZM94.9613 108.579C94.6875 105.854 94.2553 103.143 93.6791 100.446C93.8375 99.2205 93.996 97.9659 94.1257 96.7113C94.4138 98.2399 94.6155 99.7684 94.7019 101.297C94.9324 103.647 95.0045 105.998 95.0189 108.363C95.0045 108.435 94.9901 108.507 94.9613 108.579Z" fill="#EEA2A2"/>
</svg>
