<svg width="515" height="467" viewBox="0 0 515 467" fill="none" xmlns="http://www.w3.org/2000/svg">
<g clip-path="url(#clip0)">
<path d="M60.2486 173.765C81.081 80.9866 85.3479 32.9968 115.186 20.5597C128.574 14.9943 140.672 17.0367 162.851 21.9805C272.7 46.5302 354.077 80.8984 372.534 88.7919C475.833 132.99 483.431 140.128 489.042 152.388C502.499 181.833 486.169 223.615 453.537 307.148C439.111 344.072 428.61 362.673 408.498 374.11C386.955 386.376 363.432 387.657 342.961 382.047C302.669 371.029 224.986 343.402 161.016 319.202C161.607 339.362 165.264 375.037 182.474 396.383C182.474 396.383 126.309 353.269 102.561 296.474C85.36 289.565 71.8104 284.303 64.781 280.438C45.1773 269.65 45.8823 237.747 60.2486 173.765Z" fill="#01737B"/>
</g>
<path d="M129.485 80.1626C128.128 79.7236 126.998 79.0359 126.096 78.0995C125.198 77.1504 124.606 76.0552 124.321 74.8138C124.04 73.5598 124.108 72.2858 124.527 70.9918C124.945 69.6978 125.634 68.6312 126.592 67.7919C127.554 66.94 128.675 66.3987 129.955 66.1679C131.238 65.9245 132.559 66.0223 133.917 66.4613C135.274 66.9004 136.402 67.5944 137.3 68.5435C138.202 69.4799 138.796 70.5688 139.081 71.8101C139.366 73.0515 139.298 74.3255 138.875 75.6322C138.453 76.9389 137.762 78.0118 136.804 78.8511C135.846 79.6903 134.725 80.2316 133.441 80.4751C132.162 80.7058 130.843 80.6016 129.485 80.1626ZM130.187 77.9933C131.075 78.2805 131.938 78.3423 132.776 78.1788C133.617 78.0026 134.356 77.6249 134.992 77.0458C135.632 76.4539 136.095 75.714 136.382 74.826C136.67 73.9379 136.725 73.073 136.549 72.2313C136.377 71.3769 135.999 70.6381 135.416 70.0151C134.837 69.3794 134.103 68.9179 133.215 68.6307C132.327 68.3435 131.462 68.288 130.62 68.4642C129.783 68.6277 129.044 69.0054 128.404 69.5972C127.768 70.1764 127.307 70.91 127.02 71.798C126.733 72.6861 126.675 73.5573 126.847 74.4117C127.023 75.2534 127.401 75.9922 127.98 76.6279C128.563 77.2509 129.299 77.7061 130.187 77.9933ZM150.258 77.6741L146.7 76.5232L144.066 84.6678L141.687 83.8986L144.321 75.7539L140.744 74.5969L141.396 72.5798L150.911 75.6569L150.258 77.6741ZM153.207 76.3996L155.586 77.1689L154.25 81.2983L159.369 82.9538L160.705 78.8244L163.083 79.5937L159.797 89.7555L157.418 88.9862L158.717 84.9709L153.598 83.3154L152.299 87.3307L149.921 86.5614L153.207 76.3996ZM168.042 92.569C167.014 92.2367 166.16 91.7152 165.479 91.0045C164.798 90.2938 164.35 89.4692 164.135 88.5309C163.937 87.5839 164 86.6093 164.324 85.6071C164.648 84.6049 165.165 83.7843 165.876 83.1455C166.6 82.5107 167.446 82.1047 168.414 81.9274C169.383 81.75 170.381 81.8275 171.408 82.1599C172.448 82.4963 173.309 83.0199 173.99 83.7306C174.671 84.4413 175.113 85.2638 175.315 86.198C175.53 87.1364 175.476 88.1067 175.151 89.1089C174.827 90.1111 174.301 90.936 173.573 91.5834C172.862 92.2223 172.023 92.6304 171.055 92.8077C170.086 92.985 169.082 92.9055 168.042 92.569ZM168.7 90.5329C169.576 90.816 170.393 90.758 171.153 90.3591C171.912 89.9602 172.446 89.285 172.754 88.3335C173.061 87.382 173.024 86.5222 172.642 85.754C172.26 84.9857 171.631 84.4601 170.756 84.177C169.88 83.8939 169.063 83.9518 168.303 84.3508C167.556 84.7538 167.029 85.4311 166.721 86.3825C166.414 87.334 166.445 88.1918 166.814 88.9559C167.196 89.7241 167.825 90.2498 168.7 90.5329ZM194.692 89.8161L191.405 99.9779L176.429 95.1344L179.715 84.9726L182.094 85.7419L179.46 93.8866L183.399 95.1605L186.033 87.0159L188.412 87.7852L185.778 95.9298L189.679 97.1914L192.313 89.0468L194.692 89.8161ZM206.314 99.2503C206.261 99.4152 206.172 99.6458 206.048 99.9421L198.075 97.3634C197.972 98.157 198.141 98.8702 198.581 99.503C199.038 100.127 199.704 100.581 200.579 100.864C201.696 101.225 202.734 101.154 203.696 100.653L204.497 102.53C203.864 102.928 203.153 103.154 202.365 103.207C201.577 103.26 200.745 103.146 199.87 102.863C198.753 102.501 197.842 101.962 197.136 101.243C196.429 100.524 195.969 99.695 195.754 98.7567C195.555 97.8097 195.618 96.8351 195.942 95.8329C196.262 94.8434 196.772 94.0271 197.47 93.3842C198.185 92.7326 199.014 92.3141 199.957 92.1286C200.9 91.943 201.873 92.0123 202.875 92.3364C203.864 92.6565 204.674 93.1636 205.304 93.8579C205.952 94.5436 206.361 95.3559 206.534 96.2946C206.724 97.2248 206.651 98.21 206.314 99.2503ZM202.259 94.2394C201.498 93.9932 200.777 94.0123 200.097 94.2967C199.433 94.5725 198.923 95.0662 198.567 95.7778L204.333 97.6425C204.469 96.8739 204.351 96.1771 203.979 95.5522C203.606 94.9273 203.033 94.4897 202.259 94.2394ZM211.148 95.1383L213.527 95.9076L212.192 100.037L217.311 101.693L218.646 97.5631L221.025 98.3324L217.738 108.494L215.36 107.725L216.658 103.71L211.539 102.054L210.241 106.069L207.862 105.3L211.148 95.1383ZM224.784 99.5481L227.162 100.317L224.996 107.016L232.776 102.133L234.945 102.834L231.659 112.996L229.28 112.227L231.447 105.529L223.685 110.418L221.497 109.71L224.784 99.5481ZM247.298 106.83L244.012 116.991L241.881 116.302L242.871 113.238L240.188 112.371L237.123 114.763L234.573 113.939L238.066 111.327C237.413 110.835 236.973 110.266 236.748 109.618C236.54 108.963 236.561 108.248 236.811 107.474C237.189 106.307 237.892 105.539 238.922 105.172C239.952 104.804 241.19 104.854 242.636 105.322L247.298 106.83ZM242.066 107.344C240.531 106.848 239.577 107.177 239.203 108.331C238.834 109.473 239.392 110.284 240.876 110.764L243.407 111.583L244.521 108.138L242.066 107.344ZM262.688 117.188C263.821 117.975 264.186 118.99 263.784 120.233C263.489 121.146 262.918 121.74 262.073 122.013C261.228 122.286 260.133 122.205 258.788 121.77L253.612 120.096L256.899 109.934L261.866 111.541C263.109 111.943 264.006 112.485 264.556 113.167C265.106 113.85 265.245 114.61 264.974 115.447C264.806 115.967 264.521 116.372 264.119 116.663C263.729 116.957 263.252 117.132 262.688 117.188ZM257.791 114.91L260.284 115.717C261.514 116.115 262.267 115.889 262.542 115.039C262.809 114.214 262.327 113.603 261.096 113.205L258.603 112.399L257.791 114.91ZM259.158 119.977C260.465 120.4 261.256 120.186 261.531 119.336C261.674 118.892 261.629 118.513 261.394 118.199C261.163 117.872 260.725 117.604 260.078 117.395L257.28 116.49L256.437 119.097L259.158 119.977ZM273.076 115.04C274.573 115.524 275.597 116.255 276.15 117.233C276.72 118.201 276.77 119.409 276.303 120.855L274.376 126.812L272.131 126.085L272.531 124.848C272.096 125.198 271.566 125.405 270.943 125.47C270.336 125.526 269.652 125.431 268.891 125.185C268.13 124.938 267.505 124.596 267.016 124.158C266.531 123.707 266.204 123.202 266.035 122.642C265.882 122.074 265.9 121.499 266.089 120.915C266.384 120.002 266.956 119.381 267.805 119.053C268.671 118.716 269.833 118.784 271.292 119.256L273.918 120.105L273.967 119.953C274.197 119.242 274.158 118.627 273.849 118.107C273.554 117.591 272.987 117.198 272.15 116.927C271.579 116.742 270.986 116.648 270.37 116.645C269.767 116.647 269.224 116.744 268.741 116.938L268.369 114.905C269.033 114.671 269.774 114.568 270.592 114.594C271.41 114.621 272.238 114.769 273.076 115.04ZM269.946 123.613C270.542 123.806 271.111 123.843 271.654 123.724C272.214 123.597 272.671 123.31 273.025 122.864L273.407 121.684L270.952 120.891C269.582 120.447 268.751 120.676 268.46 121.577C268.321 122.008 268.381 122.406 268.642 122.771C268.902 123.135 269.337 123.416 269.946 123.613ZM288.856 126.996L287.143 126.442L285.826 130.514L283.466 129.751L284.783 125.679L283.071 125.125L279.28 128.397L276.464 127.487L281.492 123.311L279.997 117.405L282.528 118.223L283.673 123.134L285.423 123.7L286.753 119.59L289.112 120.353L287.783 124.463L289.515 125.023L293.337 121.719L295.868 122.537L291.197 126.45L292.848 132.785L290.013 131.868L288.856 126.996ZM298.473 123.38L300.852 124.149L299.516 128.279L304.635 129.934L305.971 125.805L308.35 126.574L305.063 136.736L302.684 135.967L303.983 131.951L298.864 130.296L297.566 134.311L295.187 133.542L298.473 123.38ZM315.973 132.739C317.267 133.158 318.162 133.769 318.658 134.575C319.155 135.38 319.231 136.315 318.886 137.381C318.525 138.497 317.865 139.237 316.907 139.599C315.962 139.966 314.8 139.92 313.421 139.46L308.822 137.952L312.108 127.79L314.487 128.559L313.41 131.889L315.973 132.739ZM322.365 131.107L324.744 131.876L321.458 142.038L319.079 141.269L322.365 131.107ZM313.778 137.641C314.471 137.88 315.051 137.906 315.518 137.721C315.984 137.535 316.312 137.151 316.501 136.567C316.685 135.996 316.643 135.52 316.374 135.139C316.105 134.758 315.611 134.444 314.892 134.197L312.881 133.526L311.767 136.97L313.778 137.641ZM329.192 129.825L332.008 130.736L328.652 139.488L326.768 138.879L329.192 129.825ZM326.249 143.735C325.805 143.591 325.482 143.332 325.28 142.959C325.083 142.573 325.052 142.17 325.187 141.752C325.323 141.333 325.581 141.031 325.963 140.847C326.345 140.662 326.759 140.641 327.203 140.785C327.634 140.925 327.944 141.179 328.133 141.548C328.334 141.922 328.367 142.318 328.232 142.736C328.097 143.155 327.836 143.463 327.45 143.661C327.08 143.849 326.68 143.874 326.249 143.735ZM343.256 149.298C341.911 148.863 340.787 148.177 339.885 147.241C339 146.296 338.414 145.203 338.129 143.961C337.857 142.724 337.932 141.452 338.354 140.146C338.777 138.839 339.467 137.766 340.425 136.927C341.383 136.087 342.496 135.55 343.763 135.316C345.047 135.072 346.361 135.168 347.706 135.603C348.797 135.956 349.731 136.468 350.509 137.14C351.286 137.812 351.869 138.61 352.257 139.534L350.172 140.52C349.545 139.168 348.527 138.264 347.118 137.809C346.205 137.514 345.321 137.452 344.467 137.624C343.616 137.784 342.873 138.153 342.238 138.732C341.602 139.311 341.138 140.051 340.847 140.952C340.556 141.852 340.498 142.724 340.674 143.565C340.851 144.407 341.235 145.148 341.826 145.788C342.422 146.415 343.177 146.876 344.09 147.172C345.499 147.627 346.855 147.484 348.16 146.743L349.266 148.782C348.41 149.304 347.464 149.608 346.428 149.693C345.404 149.783 344.347 149.651 343.256 149.298ZM121.271 98.0216L119.426 97.4246L118.109 101.497L115.73 100.728L119.016 90.5658L121.395 91.3351L120.066 95.4455L121.969 96.061L126.305 92.923L128.855 93.7476L123.581 97.4443L125.815 103.989L123.018 103.085L121.271 98.0216ZM140.561 97.5336L137.274 107.695L134.896 106.926L137.53 98.7814L133.724 97.5505L132.976 99.5369C132.478 100.861 131.986 101.949 131.5 102.801C131.031 103.644 130.489 104.261 129.872 104.65C129.273 105.031 128.592 105.098 127.831 104.852C127.476 104.737 127.061 104.525 126.586 104.218L127.346 102.256C127.512 102.352 127.658 102.42 127.785 102.461C128.267 102.617 128.69 102.544 129.054 102.241C129.422 101.926 129.724 101.512 129.96 101C130.212 100.479 130.526 99.7254 130.901 98.7396L132.34 94.8749L140.561 97.5336ZM144.335 98.7542L146.714 99.5235L144.548 106.222L152.328 101.339L154.497 102.041L151.211 112.202L148.832 111.433L150.998 104.735L143.237 109.624L141.049 108.916L144.335 98.7542ZM166.121 111.475C166.067 111.64 165.979 111.871 165.855 112.167L157.882 109.588C157.779 110.382 157.948 111.095 158.388 111.728C158.845 112.352 159.511 112.806 160.386 113.089C161.502 113.45 162.541 113.379 163.502 112.878L164.303 114.755C163.67 115.153 162.96 115.379 162.172 115.432C161.384 115.485 160.552 115.371 159.677 115.088C158.56 114.727 157.649 114.187 156.942 113.468C156.236 112.749 155.775 111.92 155.56 110.982C155.362 110.035 155.425 109.06 155.749 108.058C156.069 107.068 156.578 106.252 157.277 105.609C157.992 104.958 158.821 104.539 159.764 104.354C160.707 104.168 161.679 104.237 162.681 104.561C163.671 104.881 164.481 105.389 165.111 106.083C165.758 106.769 166.168 107.581 166.341 108.52C166.531 109.45 166.457 110.435 166.121 111.475ZM162.066 106.464C161.305 106.218 160.584 106.237 159.903 106.522C159.24 106.798 158.73 107.291 158.373 108.003L164.139 109.868C164.276 109.099 164.158 108.402 163.785 107.777C163.413 107.152 162.84 106.715 162.066 106.464ZM170.955 107.363L173.334 108.133L171.998 112.262L177.117 113.918L178.453 109.788L180.831 110.557L177.545 120.719L175.166 119.95L176.465 115.935L171.346 114.279L170.047 118.294L167.669 117.525L170.955 107.363ZM191.987 116.393L188.429 115.243L185.795 123.387L183.416 122.618L186.05 114.473L182.473 113.316L183.125 111.299L192.64 114.376L191.987 116.393ZM198.76 116.23C200.257 116.714 201.282 117.445 201.834 118.422C202.404 119.391 202.455 120.599 201.987 122.045L200.061 128.001L197.815 127.275L198.215 126.038C197.78 126.388 197.25 126.595 196.627 126.659C196.02 126.715 195.336 126.62 194.575 126.374C193.814 126.128 193.189 125.786 192.7 125.347C192.215 124.896 191.888 124.391 191.719 123.832C191.566 123.264 191.584 122.688 191.773 122.105C192.068 121.191 192.64 120.57 193.489 120.242C194.355 119.906 195.517 119.973 196.976 120.445L199.602 121.294L199.651 121.142C199.881 120.432 199.842 119.817 199.534 119.296C199.238 118.78 198.672 118.387 197.834 118.116C197.263 117.932 196.67 117.838 196.055 117.835C195.452 117.836 194.909 117.934 194.425 118.128L194.053 116.095C194.717 115.861 195.458 115.757 196.276 115.784C197.095 115.81 197.923 115.959 198.76 116.23ZM195.63 124.802C196.226 124.995 196.796 125.032 197.339 124.914C197.898 124.786 198.355 124.5 198.71 124.054L199.091 122.874L196.636 122.08C195.266 121.637 194.436 121.866 194.144 122.766C194.005 123.198 194.065 123.596 194.326 123.96C194.586 124.325 195.021 124.605 195.63 124.802ZM213.566 132.369L215.744 125.632L210.485 130.195L209.457 129.863L207.929 123.084L205.744 129.839L203.575 129.138L206.861 118.976L209.354 119.782L210.914 127.307L216.757 122.176L218.983 122.896L215.716 133.064L213.566 132.369ZM222.764 124.119L225.142 124.888L222.976 131.586L230.756 126.704L232.926 127.405L229.639 137.567L227.26 136.798L229.427 130.099L221.666 134.988L219.477 134.281L222.764 124.119ZM235.13 136.001C235.575 136.144 235.895 136.409 236.093 136.795C236.29 137.182 236.313 137.609 236.161 138.079C236.095 138.282 235.994 138.487 235.857 138.695C235.736 138.894 235.515 139.187 235.194 139.574L233.356 141.943L231.814 141.445L233.517 138.779C233.275 138.575 233.111 138.325 233.024 138.031C232.953 137.728 232.972 137.412 233.078 137.082C233.23 136.612 233.499 136.279 233.885 136.081C234.271 135.884 234.686 135.857 235.13 136.001ZM253.413 133.905C254.402 134.225 255.214 134.726 255.849 135.407C256.496 136.093 256.914 136.901 257.104 137.831C257.293 138.761 257.222 139.74 256.89 140.768C256.557 141.795 256.04 142.637 255.337 143.293C254.639 143.936 253.827 144.345 252.901 144.522C251.987 144.703 251.036 144.634 250.046 144.314C248.676 143.871 247.739 143.063 247.235 141.891L245.641 146.82L243.263 146.051L247.743 132.197L250.008 132.93L249.577 134.262C250.126 133.907 250.725 133.701 251.374 133.645C252.035 133.592 252.715 133.679 253.413 133.905ZM250.438 142.192C251.314 142.475 252.125 142.415 252.872 142.012C253.631 141.613 254.165 140.938 254.473 139.986C254.781 139.035 254.743 138.175 254.361 137.407C253.992 136.642 253.369 136.119 252.494 135.836C251.923 135.651 251.366 135.618 250.823 135.737C250.285 135.843 249.804 136.094 249.382 136.49C248.959 136.886 248.646 137.401 248.44 138.035C248.235 138.669 248.188 139.271 248.298 139.839C248.409 140.407 248.65 140.898 249.02 141.313C249.395 141.714 249.867 142.007 250.438 142.192ZM270.783 139.649L262.475 149.09C261.674 150.05 260.884 150.65 260.106 150.889C259.324 151.14 258.483 151.12 257.582 150.829C257.075 150.665 256.6 150.42 256.159 150.095C255.718 149.771 255.385 149.411 255.163 149.017L256.68 147.574C256.839 147.863 257.05 148.12 257.313 148.346C257.59 148.575 257.886 148.741 258.203 148.844C258.622 148.979 258.999 148.982 259.336 148.853C259.684 148.727 260.055 148.448 260.448 148.014L260.748 147.67L259.613 136.036L262.087 136.836L262.853 145.387L268.5 138.91L270.783 139.649ZM275.261 147.823L273.416 147.226L272.099 151.299L269.72 150.529L273.006 140.368L275.385 141.137L274.056 145.247L275.959 145.863L280.295 142.725L282.845 143.549L277.571 147.246L279.806 153.791L277.008 152.887L275.261 147.823ZM286.206 156.008C285.178 155.676 284.324 155.154 283.643 154.444C282.962 153.733 282.514 152.908 282.299 151.97C282.1 151.023 282.163 150.049 282.487 149.046C282.812 148.044 283.329 147.224 284.04 146.585C284.764 145.95 285.61 145.544 286.578 145.367C287.546 145.189 288.544 145.267 289.572 145.599C290.612 145.935 291.473 146.459 292.154 147.17C292.835 147.88 293.277 148.703 293.479 149.637C293.694 150.576 293.639 151.546 293.315 152.548C292.991 153.55 292.465 154.375 291.737 155.023C291.026 155.661 290.187 156.07 289.218 156.247C288.25 156.424 287.246 156.345 286.206 156.008ZM286.864 153.972C287.739 154.255 288.557 154.197 289.317 153.798C290.076 153.399 290.61 152.724 290.918 151.773C291.225 150.821 291.188 149.961 290.806 149.193C290.424 148.425 289.795 147.899 288.92 147.616C288.044 147.333 287.227 147.391 286.467 147.79C285.72 148.193 285.193 148.87 284.885 149.822C284.577 150.773 284.608 151.631 284.978 152.395C285.36 153.163 285.989 153.689 286.864 153.972ZM303.668 155.665C304.801 156.452 305.166 157.467 304.764 158.71C304.469 159.624 303.899 160.217 303.054 160.49C302.209 160.763 301.114 160.682 299.769 160.248L294.593 158.574L297.879 148.412L302.846 150.018C304.089 150.42 304.986 150.962 305.536 151.645C306.086 152.327 306.226 153.087 305.955 153.924C305.787 154.444 305.501 154.85 305.099 155.14C304.71 155.434 304.233 155.609 303.668 155.665ZM298.771 153.388L301.264 154.194C302.495 154.592 303.248 154.366 303.522 153.516C303.789 152.691 303.307 152.08 302.077 151.682L299.584 150.876L298.771 153.388ZM300.139 158.454C301.445 158.877 302.236 158.663 302.511 157.813C302.655 157.369 302.609 156.99 302.374 156.676C302.144 156.349 301.705 156.081 301.058 155.872L298.261 154.967L297.417 157.574L300.139 158.454ZM311.432 164.167C310.404 163.834 309.55 163.313 308.869 162.602C308.188 161.891 307.74 161.067 307.525 160.128C307.326 159.181 307.389 158.207 307.714 157.205C308.038 156.202 308.555 155.382 309.266 154.743C309.99 154.108 310.836 153.702 311.804 153.525C312.773 153.348 313.77 153.425 314.798 153.757C315.838 154.094 316.699 154.617 317.38 155.328C318.061 156.039 318.503 156.861 318.705 157.796C318.92 158.734 318.865 159.704 318.541 160.706C318.217 161.709 317.691 162.534 316.963 163.181C316.252 163.82 315.413 164.228 314.444 164.405C313.476 164.583 312.472 164.503 311.432 164.167ZM312.09 162.13C312.965 162.414 313.783 162.356 314.543 161.957C315.302 161.558 315.836 160.882 316.144 159.931C316.451 158.98 316.414 158.12 316.032 157.351C315.65 156.583 315.021 156.058 314.146 155.775C313.27 155.491 312.453 155.549 311.693 155.948C310.946 156.351 310.419 157.029 310.111 157.98C309.804 158.932 309.834 159.789 310.204 160.553C310.586 161.322 311.215 161.847 312.09 162.13ZM331.207 168.187L329.822 172.468L327.595 171.748L328.328 169.484L320.488 166.948L319.755 169.213L317.548 168.499L318.933 164.217L319.408 164.371C320.063 164.555 320.634 164.284 321.121 163.559C321.625 162.825 322.153 161.734 322.705 160.287L323.964 156.848L332.337 159.556L329.703 167.701L331.207 168.187ZM324.819 161.16C324.391 162.311 323.988 163.232 323.61 163.922C323.233 164.613 322.803 165.076 322.32 165.313L327.325 166.931L329.306 160.804L325.405 159.542L324.819 161.16ZM336.536 160.914L338.915 161.683L336.748 168.381L344.528 163.499L346.698 164.2L343.411 174.362L341.033 173.593L343.199 166.894L335.438 171.783L333.25 171.076L336.536 160.914ZM357.866 170.04L354.307 168.889L351.673 177.034L349.294 176.265L351.928 168.12L348.351 166.963L349.003 164.946L358.518 168.023L357.866 170.04ZM368.221 176.837C368.168 177.001 368.079 177.232 367.956 177.528L359.982 174.95C359.88 175.743 360.048 176.456 360.488 177.089C360.945 177.713 361.611 178.167 362.487 178.45C363.603 178.811 364.642 178.741 365.603 178.239L366.404 180.116C365.771 180.514 365.06 180.74 364.272 180.793C363.484 180.847 362.653 180.732 361.777 180.449C360.661 180.088 359.749 179.548 359.043 178.829C358.337 178.11 357.876 177.281 357.661 176.343C357.463 175.396 357.526 174.421 357.85 173.419C358.17 172.43 358.679 171.613 359.377 170.97C360.093 170.319 360.922 169.9 361.864 169.715C362.807 169.529 363.78 169.599 364.782 169.923C365.772 170.243 366.581 170.75 367.212 171.444C367.859 172.13 368.269 172.942 368.442 173.881C368.631 174.811 368.558 175.796 368.221 176.837ZM364.167 171.826C363.405 171.579 362.685 171.599 362.004 171.883C361.34 172.159 360.83 172.652 360.474 173.364L366.24 175.229C366.376 174.46 366.258 173.763 365.886 173.138C365.514 172.514 364.94 172.076 364.167 171.826ZM382.136 175.661L378.849 185.823L376.471 185.054L379.105 176.909L375.299 175.678L374.551 177.665C374.053 178.989 373.561 180.077 373.075 180.929C372.606 181.772 372.064 182.388 371.447 182.777C370.848 183.158 370.168 183.225 369.406 182.979C369.051 182.864 368.636 182.653 368.161 182.345L368.921 180.384C369.087 180.48 369.233 180.548 369.36 180.589C369.842 180.745 370.265 180.671 370.629 180.369C370.997 180.053 371.299 179.64 371.535 179.127C371.787 178.606 372.101 177.853 372.476 176.867L373.915 173.003L382.136 175.661ZM394.493 179.657L391.206 189.819L389.075 189.13L390.066 186.066L387.383 185.198L384.317 187.591L381.768 186.767L385.261 184.155C384.607 183.663 384.168 183.094 383.943 182.446C383.734 181.79 383.755 181.076 384.006 180.302C384.383 179.135 385.087 178.367 386.116 178C387.146 177.632 388.384 177.682 389.83 178.15L394.493 179.657ZM389.26 180.172C387.725 179.676 386.771 180.005 386.398 181.159C386.028 182.301 386.586 183.112 388.07 183.592L390.601 184.411L391.715 180.966L389.26 180.172ZM404.967 194.27L407.146 187.533L401.887 192.096L400.859 191.764L399.331 184.985L397.146 191.74L394.977 191.039L398.263 180.877L400.756 181.683L402.316 189.208L408.158 184.077L410.385 184.797L407.118 194.965L404.967 194.27ZM414.165 186.02L416.544 186.789L414.378 193.488L422.158 188.605L424.327 189.306L421.041 199.468L418.662 198.699L420.828 192L413.067 196.889L410.879 196.182L414.165 186.02ZM433.928 192.411L436.307 193.181L434.14 199.879L441.92 194.996L444.09 195.698L440.803 205.859L438.425 205.09L440.591 198.392L432.83 203.281L430.642 202.573L433.928 192.411ZM121.374 116.552L118.088 126.714L115.728 125.951L118.362 117.806L113.357 116.188L110.723 124.332L108.345 123.563L111.631 113.401L121.374 116.552ZM126.354 129.535C125.327 129.202 124.472 128.681 123.791 127.97C123.11 127.259 122.662 126.435 122.447 125.497C122.249 124.55 122.312 123.575 122.636 122.573C122.96 121.571 123.478 120.75 124.189 120.111C124.913 119.476 125.759 119.07 126.727 118.893C127.695 118.716 128.693 118.793 129.721 119.126C130.761 119.462 131.622 119.986 132.303 120.696C132.984 121.407 133.425 122.229 133.628 123.164C133.843 124.102 133.788 125.072 133.464 126.075C133.14 127.077 132.614 127.902 131.886 128.549C131.175 129.188 130.335 129.596 129.367 129.773C128.399 129.951 127.394 129.871 126.354 129.535ZM127.013 127.499C127.888 127.782 128.706 127.724 129.465 127.325C130.225 126.926 130.758 126.251 131.066 125.299C131.374 124.348 131.337 123.488 130.955 122.72C130.572 121.951 129.944 121.426 129.068 121.143C128.193 120.86 127.375 120.917 126.616 121.316C125.869 121.719 125.342 122.397 125.034 123.348C124.726 124.3 124.757 125.157 125.126 125.922C125.509 126.69 126.137 127.215 127.013 127.499ZM146.129 133.555L144.744 137.837L142.518 137.116L143.25 134.852L135.41 132.316L134.678 134.581L132.47 133.867L133.855 129.585L134.331 129.739C134.986 129.923 135.557 129.652 136.044 128.927C136.548 128.193 137.075 127.102 137.627 125.655L138.887 122.216L147.26 124.924L144.626 133.069L146.129 133.555ZM139.741 126.528C139.313 127.679 138.91 128.6 138.533 129.29C138.155 129.981 137.725 130.445 137.242 130.681L142.247 132.299L144.229 126.172L140.328 124.91L139.741 126.528ZM160.079 129.07L156.793 139.232L154.414 138.462L155.688 134.523C154.559 134.677 153.462 134.581 152.396 134.236C151.09 133.814 150.184 133.192 149.679 132.37C149.178 131.535 149.129 130.496 149.531 129.253L150.583 125.999L152.962 126.768L151.959 129.87C151.749 130.517 151.784 131.061 152.062 131.501C152.34 131.941 152.828 132.274 153.526 132.5C154.414 132.787 155.325 132.871 156.26 132.753L157.7 128.301L160.079 129.07ZM163.849 130.289L166.227 131.058L164.061 137.757L171.841 132.874L174.01 133.575L170.724 143.737L168.345 142.968L170.512 136.269L162.751 141.159L160.562 140.451L163.849 130.289ZM177.781 134.795L180.16 135.564L178.824 139.694L183.943 141.349L185.279 137.22L187.657 137.989L184.371 148.151L181.992 147.381L183.291 143.366L178.172 141.711L176.873 145.726L174.495 144.957L177.781 134.795ZM199.269 147.42C199.216 147.585 199.127 147.815 199.004 148.112L191.03 145.533C190.928 146.326 191.096 147.04 191.536 147.672C191.993 148.297 192.659 148.75 193.534 149.033C194.651 149.394 195.69 149.324 196.651 148.822L197.452 150.7C196.819 151.097 196.108 151.323 195.32 151.376C194.532 151.43 193.7 151.315 192.825 151.032C191.709 150.671 190.797 150.131 190.091 149.412C189.384 148.693 188.924 147.864 188.709 146.926C188.511 145.979 188.573 145.005 188.898 144.002C189.218 143.013 189.727 142.197 190.425 141.554C191.14 140.902 191.969 140.484 192.912 140.298C193.855 140.112 194.828 140.182 195.83 140.506C196.819 140.826 197.629 141.333 198.26 142.027C198.907 142.713 199.317 143.525 199.489 144.464C199.679 145.394 199.606 146.379 199.269 147.42ZM195.214 142.409C194.453 142.163 193.732 142.182 193.052 142.466C192.388 142.742 191.878 143.236 191.522 143.947L197.288 145.812C197.424 145.043 197.306 144.347 196.934 143.722C196.561 143.097 195.988 142.659 195.214 142.409ZM204.104 143.308L206.482 144.077L205.147 148.207L210.266 149.862L211.601 145.733L213.98 146.502L210.693 156.664L208.315 155.894L209.613 151.879L204.494 150.224L203.196 154.239L200.817 153.47L204.104 143.308ZM217.739 147.718L220.117 148.487L218.782 152.616L223.901 154.272L225.236 150.142L227.615 150.912L224.329 161.073L221.95 160.304L223.248 156.289L218.13 154.633L216.831 158.649L214.452 157.879L217.739 147.718ZM235.238 157.077C236.532 157.495 237.427 158.107 237.924 158.912C238.42 159.717 238.496 160.653 238.151 161.718C237.79 162.835 237.131 163.574 236.173 163.937C235.227 164.304 234.065 164.257 232.686 163.797L228.087 162.289L231.374 152.127L233.752 152.897L232.675 156.227L235.238 157.077ZM241.631 155.444L244.009 156.214L240.723 166.376L238.344 165.606L241.631 155.444ZM233.043 161.979C233.737 162.217 234.317 162.244 234.783 162.058C235.25 161.873 235.577 161.488 235.766 160.905C235.951 160.334 235.908 159.858 235.639 159.476C235.37 159.095 234.876 158.781 234.157 158.535L232.146 157.863L231.032 161.308L233.043 161.979ZM254.482 170.825L256.661 164.089L251.401 168.652L250.374 168.32L248.846 161.54L246.661 168.296L244.491 167.594L247.778 157.432L250.271 158.239L251.831 165.764L257.673 160.633L259.9 161.353L256.632 171.521L254.482 170.825ZM263.68 162.575L266.059 163.345L263.893 170.043L271.673 165.16L273.842 165.862L270.556 176.024L268.177 175.254L270.343 168.556L262.582 173.445L260.394 172.737L263.68 162.575ZM276.047 174.457C276.491 174.601 276.812 174.866 277.009 175.252C277.206 175.638 277.229 176.066 277.077 176.535C277.012 176.738 276.91 176.944 276.773 177.152C276.653 177.351 276.432 177.644 276.111 178.03L274.272 180.4L272.731 179.901L274.434 177.236C274.192 177.031 274.027 176.782 273.94 176.488C273.87 176.185 273.888 175.868 273.995 175.538C274.147 175.069 274.415 174.736 274.802 174.538C275.188 174.341 275.603 174.314 276.047 174.457ZM289.954 182.444C288.901 182.104 288.028 181.576 287.334 180.861C286.64 180.147 286.186 179.32 285.971 178.382C285.76 177.431 285.817 176.454 286.141 175.452C286.465 174.45 286.989 173.631 287.713 172.996C288.437 172.362 289.282 171.956 290.251 171.778C291.232 171.605 292.255 171.691 293.321 172.035C294.323 172.359 295.132 172.846 295.75 173.494C296.38 174.146 296.762 174.914 296.896 175.798L294.725 176.273C294.585 175.709 294.33 175.241 293.959 174.869C293.606 174.489 293.169 174.214 292.649 174.046C291.761 173.759 290.931 173.813 290.159 174.208C289.39 174.59 288.85 175.263 288.539 176.227C288.227 177.191 288.262 178.058 288.644 178.826C289.043 179.585 289.693 180.111 290.594 180.402C291.114 180.57 291.626 180.61 292.132 180.521C292.654 180.424 293.136 180.188 293.58 179.812L295.062 181.469C294.423 182.103 293.655 182.506 292.758 182.679C291.878 182.843 290.944 182.764 289.954 182.444ZM315.861 179.451L312.574 189.613L310.215 188.85L312.849 180.705L307.844 179.087L305.21 187.231L302.831 186.462L306.118 176.3L315.861 179.451ZM323.465 181.784C324.962 182.268 325.987 182.999 326.54 183.977C327.109 184.946 327.16 186.153 326.692 187.6L324.766 193.556L322.52 192.83L322.92 191.593C322.485 191.942 321.956 192.149 321.332 192.214C320.725 192.27 320.041 192.175 319.28 191.929C318.519 191.683 317.894 191.34 317.405 190.902C316.921 190.451 316.593 189.946 316.424 189.387C316.271 188.819 316.289 188.243 316.478 187.659C316.774 186.746 317.346 186.125 318.194 185.797C319.06 185.461 320.222 185.528 321.681 186L324.307 186.849L324.357 186.697C324.586 185.987 324.547 185.371 324.239 184.851C323.943 184.335 323.377 183.942 322.54 183.671C321.969 183.486 321.375 183.393 320.76 183.39C320.157 183.391 319.614 183.489 319.131 183.683L318.758 181.649C319.422 181.416 320.163 181.312 320.982 181.339C321.8 181.365 322.628 181.514 323.465 181.784ZM320.335 190.357C320.931 190.55 321.501 190.587 322.044 190.468C322.603 190.341 323.061 190.054 323.415 189.609L323.796 188.429L321.342 187.635C319.972 187.192 319.141 187.42 318.85 188.321C318.71 188.753 318.771 189.15 319.031 189.515C319.291 189.879 319.726 190.16 320.335 190.357ZM337.236 186.238C338.226 186.558 339.038 187.059 339.672 187.741C340.319 188.426 340.738 189.234 340.927 190.164C341.117 191.094 341.046 192.073 340.713 193.101C340.381 194.129 339.863 194.97 339.161 195.626C338.463 196.269 337.65 196.679 336.724 196.856C335.811 197.037 334.859 196.967 333.87 196.647C332.5 196.204 331.563 195.397 331.059 194.225L329.465 199.153L327.086 198.384L331.567 184.531L333.831 185.263L333.4 186.595C333.95 186.24 334.549 186.034 335.197 185.978C335.859 185.926 336.539 186.012 337.236 186.238ZM334.262 194.525C335.137 194.808 335.949 194.748 336.695 194.345C337.455 193.946 337.989 193.271 338.296 192.319C338.604 191.368 338.567 190.508 338.185 189.74C337.815 188.976 337.193 188.452 336.318 188.169C335.747 187.984 335.19 187.951 334.647 188.07C334.108 188.176 333.628 188.427 333.205 188.823C332.783 189.219 332.469 189.734 332.264 190.368C332.059 191.003 332.012 191.604 332.122 192.172C332.233 192.741 332.473 193.232 332.844 193.646C333.218 194.047 333.691 194.34 334.262 194.525ZM352.32 193.471L348.762 192.32L346.128 200.464L343.749 199.695L346.383 191.55L342.805 190.393L343.458 188.376L352.973 191.453L352.32 193.471ZM355.269 192.196L357.648 192.965L356.312 197.095L361.431 198.75L362.766 194.621L365.145 195.39L361.859 205.552L359.48 204.783L360.779 200.767L355.66 199.112L354.361 203.127L351.982 202.358L355.269 192.196ZM376.757 204.821C376.704 204.986 376.615 205.216 376.491 205.513L368.518 202.934C368.415 203.728 368.584 204.441 369.024 205.074C369.481 205.698 370.147 206.151 371.022 206.435C372.139 206.796 373.177 206.725 374.139 206.223L374.94 208.101C374.306 208.499 373.596 208.724 372.808 208.778C372.02 208.831 371.188 208.716 370.313 208.433C369.196 208.072 368.285 207.532 367.579 206.813C366.872 206.094 366.412 205.266 366.197 204.327C365.998 203.38 366.061 202.406 366.385 201.404C366.705 200.414 367.215 199.598 367.913 198.955C368.628 198.303 369.457 197.885 370.4 197.699C371.343 197.514 372.315 197.583 373.318 197.907C374.307 198.227 375.117 198.734 375.747 199.429C376.394 200.114 376.804 200.927 376.977 201.865C377.167 202.795 377.094 203.781 376.757 204.821ZM372.702 199.81C371.941 199.564 371.22 199.583 370.54 199.867C369.876 200.143 369.366 200.637 369.01 201.348L374.776 203.213C374.912 202.445 374.794 201.748 374.422 201.123C374.049 200.498 373.476 200.06 372.702 199.81ZM387.261 202.417C388.251 202.737 389.063 203.237 389.697 203.919C390.344 204.605 390.762 205.413 390.952 206.343C391.142 207.273 391.07 208.252 390.738 209.279C390.406 210.307 389.888 211.149 389.186 211.804C388.487 212.447 387.675 212.857 386.749 213.034C385.836 213.215 384.884 213.146 383.895 212.826C382.524 212.383 381.587 211.575 381.084 210.403L379.49 215.332L377.111 214.563L381.591 200.709L383.856 201.441L383.425 202.773C383.974 202.419 384.573 202.213 385.222 202.156C385.884 202.104 386.563 202.191 387.261 202.417ZM384.287 210.703C385.162 210.986 385.973 210.926 386.72 210.523C387.48 210.125 388.013 209.449 388.321 208.498C388.629 207.546 388.592 206.686 388.209 205.918C387.84 205.154 387.218 204.631 386.342 204.347C385.771 204.163 385.214 204.13 384.672 204.249C384.133 204.355 383.652 204.606 383.23 205.002C382.808 205.397 382.494 205.913 382.289 206.547C382.084 207.181 382.036 207.782 382.147 208.351C382.257 208.919 382.498 209.41 382.868 209.824C383.243 210.226 383.716 210.519 384.287 210.703ZM399.013 206.217C400.51 206.701 401.535 207.432 402.088 208.41C402.657 209.379 402.708 210.586 402.24 212.032L400.314 217.989L398.068 217.263L398.468 216.026C398.033 216.375 397.504 216.582 396.88 216.647C396.274 216.703 395.59 216.608 394.828 216.362C394.067 216.116 393.442 215.773 392.953 215.335C392.469 214.884 392.142 214.379 391.972 213.819C391.819 213.252 391.837 212.676 392.026 212.092C392.322 211.179 392.894 210.558 393.743 210.23C394.608 209.893 395.77 209.961 397.229 210.433L399.855 211.282L399.905 211.13C400.134 210.42 400.095 209.804 399.787 209.284C399.491 208.768 398.925 208.375 398.088 208.104C397.517 207.919 396.923 207.826 396.308 207.823C395.705 207.824 395.162 207.922 394.679 208.116L394.306 206.082C394.97 205.849 395.712 205.745 396.53 205.771C397.348 205.798 398.176 205.946 399.013 206.217ZM395.883 214.79C396.479 214.983 397.049 215.02 397.592 214.901C398.152 214.774 398.609 214.487 398.963 214.041L399.345 212.862L396.89 212.068C395.52 211.625 394.689 211.853 394.398 212.754C394.258 213.186 394.319 213.583 394.579 213.948C394.84 214.312 395.274 214.593 395.883 214.79ZM413.819 222.356L415.997 215.62L410.738 220.183L409.711 219.851L408.182 213.071L405.998 219.827L403.828 219.125L407.115 208.964L409.608 209.77L411.168 217.295L417.01 212.164L419.237 212.884L415.969 223.052L413.819 222.356ZM423.017 214.106L425.396 214.876L423.229 221.574L431.009 216.691L433.179 217.393L429.892 227.555L427.514 226.785L429.68 220.087L421.919 224.976L419.731 224.268L423.017 214.106ZM104.246 136.237L106.625 137.006L104.458 143.704L112.238 138.822L114.408 139.523L111.121 149.685L108.742 148.916L110.909 142.217L103.148 147.106L100.959 146.399L104.246 136.237ZM132.221 154.281L130.836 158.562L128.61 157.842L129.342 155.578L121.502 153.042L120.77 155.307L118.562 154.593L119.947 150.311L120.423 150.465C121.078 150.649 121.649 150.378 122.136 149.653C122.639 148.919 123.167 147.828 123.719 146.381L124.979 142.942L133.352 145.65L130.718 153.795L132.221 154.281ZM125.833 147.254C125.405 148.405 125.002 149.326 124.625 150.016C124.247 150.707 123.817 151.17 123.334 151.407L128.339 153.025L130.321 146.898L126.42 145.636L125.833 147.254ZM143.22 148.715C144.21 149.035 145.022 149.536 145.656 150.218C146.303 150.904 146.721 151.711 146.911 152.642C147.101 153.572 147.029 154.551 146.697 155.578C146.365 156.606 145.847 157.447 145.145 158.103C144.446 158.746 143.634 159.156 142.708 159.333C141.795 159.514 140.843 159.445 139.854 159.125C138.484 158.681 137.547 157.874 137.043 156.702L135.449 161.631L133.07 160.861L137.551 147.008L139.815 147.74L139.384 149.072C139.933 148.717 140.532 148.512 141.181 148.455C141.843 148.403 142.522 148.49 143.22 148.715ZM140.246 157.002C141.121 157.285 141.932 157.225 142.679 156.822C143.439 156.423 143.973 155.748 144.28 154.797C144.588 153.845 144.551 152.985 144.169 152.217C143.799 151.453 143.177 150.929 142.301 150.646C141.731 150.462 141.174 150.429 140.631 150.547C140.092 150.653 139.611 150.904 139.189 151.3C138.767 151.696 138.453 152.211 138.248 152.846C138.043 153.48 137.995 154.081 138.106 154.65C138.216 155.218 138.457 155.709 138.828 156.123C139.202 156.525 139.675 156.818 140.246 157.002ZM160.591 154.459L152.282 163.901C151.481 164.861 150.692 165.46 149.914 165.699C149.132 165.951 148.291 165.931 147.39 165.64C146.882 165.475 146.408 165.231 145.966 164.906C145.525 164.581 145.193 164.221 144.97 163.827L146.488 162.384C146.646 162.674 146.857 162.931 147.121 163.156C147.397 163.386 147.694 163.552 148.011 163.654C148.429 163.79 148.807 163.793 149.143 163.663C149.492 163.538 149.863 163.258 150.255 162.825L150.556 162.48L149.42 150.847L151.894 151.647L152.66 160.197L158.307 153.721L160.591 154.459ZM167.067 161.935C167.644 162.318 168.038 162.767 168.249 163.284C168.477 163.792 168.501 164.325 168.321 164.884C168.119 165.505 167.732 165.989 167.157 166.336C166.587 166.67 165.89 166.851 165.068 166.88C164.246 166.908 163.366 166.771 162.427 166.467C161.641 166.213 160.902 165.876 160.211 165.456C159.524 165.024 158.931 164.538 158.433 163.998L159.691 162.45C160.095 162.889 160.584 163.285 161.156 163.639C161.728 163.992 162.325 164.269 162.947 164.47C163.746 164.729 164.407 164.809 164.929 164.712C165.468 164.606 165.807 164.337 165.946 163.906C166.073 163.512 165.994 163.15 165.709 162.82C165.436 162.493 164.983 162.228 164.348 162.022L162.369 161.382L162.886 159.784L164.675 160.362C165.271 160.555 165.767 160.604 166.162 160.507C166.571 160.415 166.834 160.185 166.953 159.817C167.072 159.449 166.964 159.092 166.627 158.745C166.291 158.398 165.768 158.109 165.057 157.88C164.043 157.551 162.891 157.452 161.601 157.582L161.559 155.634C163.092 155.443 164.537 155.567 165.894 156.006C166.757 156.285 167.492 156.656 168.099 157.119C168.71 157.569 169.137 158.071 169.378 158.625C169.635 159.171 169.676 159.717 169.5 160.262C169.34 160.757 169.044 161.152 168.612 161.447C168.185 161.729 167.67 161.892 167.067 161.935ZM177.697 163.691C178.991 164.109 179.886 164.721 180.382 165.526C180.891 166.336 180.973 167.273 180.629 168.339C180.268 169.455 179.608 170.195 178.65 170.558C177.692 170.92 176.523 170.872 175.145 170.412L170.394 168.854L173.68 158.692L176.059 159.462L174.982 162.792L177.697 163.691ZM175.502 168.593C176.195 168.832 176.775 168.858 177.242 168.673C177.708 168.487 178.036 168.103 178.224 167.519C178.409 166.948 178.367 166.472 178.098 166.091C177.829 165.71 177.335 165.396 176.616 165.149L174.452 164.428L173.338 167.873L175.502 168.593ZM193.314 165.042L190.028 175.204L187.897 174.515L188.887 171.451L186.204 170.583L183.139 172.976L180.589 172.152L184.082 169.54C183.429 169.048 182.989 168.479 182.764 167.831C182.556 167.175 182.577 166.46 182.827 165.687C183.205 164.519 183.908 163.752 184.938 163.384C185.968 163.017 187.206 163.067 188.652 163.535L193.314 165.042ZM188.082 165.557C186.547 165.061 185.593 165.39 185.219 166.544C184.85 167.686 185.408 168.497 186.892 168.977L189.423 169.796L190.537 166.351L188.082 165.557ZM203.789 179.655L205.968 172.918L200.708 177.481L199.681 177.149L198.153 170.37L195.968 177.125L193.798 176.424L197.085 166.262L199.578 167.068L201.138 174.593L206.98 169.462L209.207 170.182L205.939 180.35L203.789 179.655ZM212.987 171.405L215.366 172.174L213.199 178.872L220.98 173.99L223.149 174.691L219.862 184.853L217.484 184.084L219.65 177.385L211.889 182.274L209.701 181.567L212.987 171.405ZM224.313 186.439C223.882 186.3 223.561 186.035 223.351 185.645C223.145 185.242 223.116 184.812 223.264 184.355C223.415 183.886 223.684 183.553 224.071 183.355C224.469 183.162 224.891 183.137 225.335 183.281C225.779 183.424 226.1 183.689 226.297 184.075C226.507 184.465 226.536 184.895 226.384 185.365C226.237 185.821 225.961 186.153 225.558 186.359C225.16 186.552 224.745 186.579 224.313 186.439ZM90.7825 178.841L101.154 182.195L100.495 184.231L92.5597 181.665L91.5012 184.938L95.4403 186.212C97.0388 186.729 98.1416 187.457 98.7488 188.396C99.3727 189.327 99.4816 190.42 99.0754 191.676C98.6487 192.995 97.8617 193.869 96.7145 194.296C95.5713 194.711 94.156 194.646 92.4688 194.1L86.4744 192.162L90.7825 178.841ZM92.951 192.154C93.9025 192.462 94.6851 192.512 95.2988 192.304C95.9126 192.096 96.3323 191.643 96.5579 190.946C97.0011 189.576 96.2521 188.577 94.3111 187.949L90.8858 186.841L89.5257 191.047L92.951 192.154ZM113.389 189.642L105.081 199.083C104.28 200.043 103.49 200.643 102.712 200.882C101.93 201.133 101.089 201.113 100.188 200.822C99.6807 200.658 99.2062 200.413 98.7648 200.088C98.3234 199.763 97.9912 199.404 97.7684 199.009L99.2861 197.566C99.4447 197.856 99.6558 198.113 99.9192 198.339C100.195 198.568 100.492 198.734 100.809 198.837C101.228 198.972 101.605 198.975 101.941 198.846C102.29 198.72 102.661 198.441 103.053 198.007L103.354 197.663L102.219 186.029L104.693 186.829L105.459 195.38L111.105 188.903L113.389 189.642ZM123.193 201.809L121.808 206.091L119.582 205.37L120.314 203.106L112.474 200.57L111.742 202.835L109.534 202.121L110.919 197.839L111.395 197.993C112.05 198.177 112.621 197.906 113.108 197.181C113.611 196.447 114.139 195.356 114.691 193.909L115.951 190.47L124.324 193.178L121.69 201.323L123.193 201.809ZM116.805 194.782C116.377 195.933 115.974 196.854 115.597 197.544C115.219 198.235 114.789 198.699 114.306 198.935L119.311 200.553L121.293 194.426L117.392 193.164L116.805 194.782ZM136.376 202.751C136.322 202.916 136.234 203.147 136.11 203.443L128.136 200.864C128.034 201.658 128.203 202.371 128.643 203.004C129.099 203.628 129.765 204.082 130.641 204.365C131.757 204.726 132.796 204.655 133.757 204.153L134.558 206.031C133.925 206.429 133.214 206.654 132.426 206.708C131.638 206.761 130.807 206.646 129.931 206.363C128.815 206.002 127.904 205.462 127.197 204.743C126.491 204.024 126.03 203.196 125.815 202.257C125.617 201.311 125.68 200.336 126.004 199.334C126.324 198.344 126.833 197.528 127.532 196.885C128.247 196.233 129.076 195.815 130.019 195.629C130.961 195.444 131.934 195.513 132.936 195.837C133.926 196.157 134.736 196.664 135.366 197.359C136.013 198.044 136.423 198.857 136.596 199.795C136.785 200.726 136.712 201.711 136.376 202.751ZM132.321 197.74C131.56 197.494 130.839 197.513 130.158 197.798C129.494 198.073 128.984 198.567 128.628 199.279L134.394 201.143C134.531 200.375 134.413 199.678 134.04 199.053C133.668 198.428 133.095 197.99 132.321 197.74ZM147.914 212.032L150.093 205.295L144.833 209.858L143.806 209.526L142.278 202.747L140.093 209.502L137.923 208.801L141.21 198.639L143.703 199.445L145.263 206.971L151.105 201.839L153.332 202.559L150.064 212.727L147.914 212.032ZM172.533 208.769L164.225 218.211C163.424 219.171 162.634 219.77 161.856 220.009C161.074 220.261 160.233 220.241 159.332 219.95C158.825 219.786 158.35 219.541 157.909 219.216C157.467 218.891 157.135 218.532 156.912 218.137L158.43 216.694C158.589 216.984 158.8 217.241 159.063 217.466C159.339 217.696 159.636 217.862 159.953 217.964C160.372 218.1 160.749 218.103 161.085 217.973C161.434 217.848 161.805 217.568 162.197 217.135L162.498 216.791L161.363 205.157L163.837 205.957L164.603 214.507L170.249 208.031L172.533 208.769ZM183.376 212.276L180.09 222.438L177.711 221.669L178.985 217.73C177.857 217.883 176.759 217.787 175.694 217.443C174.387 217.02 173.481 216.398 172.976 215.576C172.476 214.741 172.426 213.703 172.828 212.459L173.881 209.205L176.259 209.974L175.256 213.076C175.047 213.723 175.081 214.267 175.359 214.707C175.637 215.147 176.125 215.48 176.823 215.706C177.711 215.993 178.623 216.078 179.558 215.96L180.998 211.507L183.376 212.276ZM187.146 213.495L189.525 214.265L187.358 220.963L195.139 216.08L197.308 216.782L194.021 226.944L191.643 226.174L193.809 219.476L186.048 224.365L183.86 223.657L187.146 213.495ZM208.476 222.622L204.917 221.471L202.283 229.615L199.904 228.846L202.538 220.702L198.961 219.544L199.613 217.527L209.128 220.605L208.476 222.622ZM215.441 226.346C216.735 226.764 217.63 227.376 218.127 228.181C218.636 228.99 218.718 229.928 218.373 230.994C218.012 232.11 217.353 232.85 216.394 233.212C215.436 233.575 214.268 233.526 212.889 233.067L208.138 231.509L211.424 221.347L213.803 222.116L212.726 225.447L215.441 226.346ZM213.246 231.248C213.94 231.487 214.52 231.513 214.986 231.327C215.453 231.142 215.78 230.757 215.969 230.174C216.153 229.603 216.111 229.127 215.842 228.746C215.573 228.364 215.079 228.05 214.36 227.804L212.197 227.083L211.083 230.528L213.246 231.248ZM224.496 236.946C223.443 236.606 222.57 236.078 221.876 235.363C221.182 234.649 220.728 233.822 220.513 232.884C220.302 231.933 220.358 230.956 220.683 229.954C221.007 228.951 221.531 228.133 222.254 227.498C222.978 226.863 223.824 226.457 224.792 226.28C225.773 226.107 226.797 226.193 227.862 226.537C228.865 226.861 229.674 227.347 230.291 227.995C230.921 228.648 231.303 229.416 231.438 230.3L229.266 230.775C229.126 230.211 228.871 229.743 228.501 229.371C228.148 228.991 227.711 228.716 227.191 228.548C226.303 228.261 225.473 228.315 224.7 228.71C223.932 229.092 223.392 229.765 223.08 230.729C222.769 231.693 222.804 232.559 223.186 233.328C223.585 234.087 224.235 234.613 225.135 234.904C225.655 235.072 226.168 235.112 226.673 235.023C227.195 234.926 227.678 234.689 228.122 234.314L229.604 235.971C228.964 236.605 228.196 237.008 227.3 237.181C226.42 237.344 225.485 237.266 224.496 236.946ZM243.133 231.602L239.846 241.764L237.715 241.074L238.706 238.011L236.023 237.143L232.958 239.536L230.408 238.711L233.901 236.099C233.247 235.608 232.808 235.038 232.583 234.391C232.374 233.735 232.395 233.02 232.646 232.246C233.023 231.079 233.727 230.312 234.757 229.944C235.786 229.576 237.024 229.626 238.471 230.094L243.133 231.602ZM237.901 232.117C236.365 231.62 235.411 231.949 235.038 233.104C234.669 234.246 235.226 235.057 236.71 235.537L239.241 236.355L240.355 232.911L237.901 232.117ZM253.933 246.467C252.905 246.134 252.051 245.613 251.37 244.902C250.689 244.191 250.241 243.367 250.026 242.428C249.828 241.481 249.891 240.507 250.215 239.505C250.539 238.502 251.057 237.682 251.768 237.043C252.491 236.408 253.337 236.002 254.306 235.825C255.274 235.648 256.272 235.725 257.299 236.057C258.34 236.394 259.2 236.917 259.881 237.628C260.562 238.339 261.004 239.161 261.206 240.096C261.421 241.034 261.367 242.004 261.043 243.007C260.719 244.009 260.193 244.834 259.465 245.481C258.754 246.12 257.914 246.528 256.946 246.705C255.977 246.883 254.973 246.803 253.933 246.467ZM254.591 244.43C255.467 244.714 256.284 244.656 257.044 244.257C257.804 243.858 258.337 243.183 258.645 242.231C258.953 241.28 258.915 240.42 258.533 239.652C258.151 238.883 257.522 238.358 256.647 238.075C255.772 237.791 254.954 237.849 254.195 238.248C253.448 238.651 252.92 239.329 252.613 240.28C252.305 241.232 252.336 242.089 252.705 242.854C253.087 243.622 253.716 244.147 254.591 244.43ZM270.946 241.144C271.91 241.455 272.693 241.94 273.293 242.596C273.898 243.24 274.284 243.996 274.452 244.863C274.632 245.734 274.569 246.645 274.261 247.597C273.945 248.574 273.436 249.369 272.733 249.982C272.034 250.583 271.205 250.959 270.245 251.111C269.285 251.263 268.278 251.169 267.225 250.829C265.462 250.258 264.287 249.234 263.7 247.755C263.114 246.276 263.175 244.439 263.885 242.244C264.545 240.202 265.506 238.726 266.767 237.816C268.028 236.907 269.621 236.553 271.546 236.755L276.591 237.273L276.244 239.515L271.68 239.006C270.367 238.861 269.308 238.995 268.502 239.407C267.696 239.819 267.064 240.561 266.605 241.632C267.239 241.234 267.926 240.994 268.667 240.911C269.413 240.816 270.172 240.893 270.946 241.144ZM267.904 248.925C268.779 249.208 269.574 249.157 270.287 248.771C271.017 248.376 271.524 247.742 271.807 246.866C272.09 245.991 272.045 245.198 271.672 244.489C271.311 243.784 270.693 243.29 269.818 243.007C268.93 242.72 268.127 242.754 267.409 243.111C266.691 243.467 266.191 244.083 265.908 244.958C265.621 245.846 265.66 246.658 266.024 247.392C266.402 248.131 267.029 248.642 267.904 248.925ZM293.846 248.003L290.56 258.165L275.584 253.322L278.87 243.16L281.249 243.929L278.615 252.074L282.554 253.348L285.188 245.203L287.567 245.972L284.933 254.117L288.834 255.379L291.468 247.234L293.846 248.003ZM292.678 256.622L291.348 260.732L289.122 260.012L289.799 257.919L288.105 257.371L288.757 255.354L292.678 256.622ZM301.439 250.333C302.936 250.817 303.961 251.548 304.514 252.525C305.083 253.494 305.134 254.702 304.667 256.148L302.74 262.104L300.495 261.378L300.895 260.141C300.459 260.491 299.93 260.698 299.307 260.763C298.7 260.819 298.016 260.723 297.255 260.477C296.494 260.231 295.869 259.889 295.38 259.451C294.895 258.999 294.568 258.494 294.398 257.935C294.246 257.367 294.264 256.791 294.453 256.208C294.748 255.294 295.32 254.674 296.169 254.346C297.035 254.009 298.197 254.077 299.656 254.548L302.282 255.398L302.331 255.245C302.561 254.535 302.522 253.92 302.213 253.4C301.918 252.884 301.351 252.49 300.514 252.22C299.943 252.035 299.35 251.941 298.734 251.938C298.131 251.939 297.588 252.037 297.105 252.231L296.733 250.198C297.397 249.964 298.138 249.861 298.956 249.887C299.774 249.913 300.602 250.062 301.439 250.333ZM298.31 258.906C298.906 259.098 299.475 259.136 300.018 259.017C300.578 258.89 301.035 258.603 301.389 258.157L301.771 256.977L299.316 256.183C297.946 255.74 297.115 255.969 296.824 256.87C296.685 257.301 296.745 257.699 297.005 258.063C297.266 258.428 297.701 258.709 298.31 258.906ZM316.938 257.699L313.38 256.549L310.746 264.693L308.367 263.924L311.001 255.779L307.423 254.622L308.076 252.605L317.591 255.682L316.938 257.699ZM323.904 261.424C325.198 261.842 326.093 262.454 326.589 263.259C327.098 264.068 327.18 265.006 326.836 266.071C326.475 267.188 325.815 267.927 324.857 268.29C323.899 268.653 322.73 268.604 321.352 268.144L316.601 266.587L319.887 256.425L322.266 257.194L321.189 260.524L323.904 261.424ZM321.709 266.326C322.402 266.564 322.982 266.591 323.449 266.405C323.915 266.22 324.243 265.835 324.431 265.252C324.616 264.681 324.574 264.205 324.305 263.823C324.036 263.442 323.542 263.128 322.823 262.882L320.659 262.161L319.545 265.605L321.709 266.326ZM332.958 272.024C331.905 271.684 331.032 271.156 330.338 270.441C329.645 269.726 329.19 268.9 328.975 267.961C328.764 267.01 328.821 266.034 329.145 265.031C329.469 264.029 329.993 263.211 330.717 262.576C331.441 261.941 332.287 261.535 333.255 261.358C334.236 261.185 335.259 261.27 336.325 261.615C337.327 261.939 338.137 262.425 338.754 263.073C339.384 263.725 339.766 264.494 339.9 265.378L337.729 265.853C337.589 265.289 337.334 264.821 336.964 264.449C336.61 264.069 336.174 263.794 335.653 263.626C334.765 263.339 333.935 263.393 333.163 263.787C332.395 264.17 331.855 264.843 331.543 265.807C331.231 266.771 331.266 267.637 331.648 268.405C332.047 269.165 332.697 269.691 333.598 269.982C334.118 270.15 334.631 270.19 335.136 270.101C335.658 270.003 336.141 269.767 336.584 269.392L338.066 271.049C337.427 271.683 336.659 272.086 335.762 272.258C334.883 272.422 333.948 272.344 332.958 272.024ZM351.595 266.68L348.309 276.842L346.178 276.152L347.169 273.089L344.485 272.221L341.42 274.614L338.87 273.789L342.364 271.177C341.71 270.686 341.27 270.116 341.045 269.469C340.837 268.813 340.858 268.098 341.108 267.324C341.486 266.157 342.189 265.389 343.219 265.022C344.249 264.654 345.487 264.704 346.933 265.172L351.595 266.68ZM346.363 267.195C344.828 266.698 343.874 267.027 343.5 268.182C343.131 269.323 343.689 270.134 345.173 270.614L347.704 271.433L348.818 267.989L346.363 267.195ZM362.491 281.575C361.438 281.235 360.564 280.707 359.871 279.992C359.177 279.277 358.723 278.451 358.508 277.512C358.297 276.561 358.353 275.585 358.677 274.582C359.002 273.58 359.525 272.762 360.249 272.127C360.973 271.492 361.819 271.086 362.787 270.909C363.768 270.736 364.791 270.821 365.857 271.166C366.859 271.49 367.669 271.976 368.286 272.624C368.916 273.276 369.298 274.045 369.433 274.929L367.261 275.404C367.121 274.84 366.866 274.372 366.496 274C366.143 273.62 365.706 273.345 365.186 273.177C364.298 272.89 363.467 272.944 362.695 273.338C361.927 273.721 361.387 274.394 361.075 275.358C360.763 276.322 360.798 277.188 361.181 277.956C361.58 278.716 362.229 279.242 363.13 279.533C363.65 279.701 364.163 279.741 364.668 279.652C365.19 279.554 365.673 279.318 366.116 278.943L367.599 280.6C366.959 281.234 366.191 281.637 365.295 281.809C364.415 281.973 363.48 281.895 362.491 281.575ZM91.3005 207.722L88.0141 217.884L85.6354 217.114L88.2695 208.97L84.4635 207.739L83.716 209.725C83.2177 211.049 82.7257 212.138 82.24 212.989C81.7711 213.833 81.2284 214.449 80.6121 214.838C80.0125 215.219 79.3322 215.286 78.571 215.04C78.2158 214.925 77.8006 214.714 77.3256 214.406L78.086 212.445C78.2513 212.54 78.3974 212.609 78.5243 212.65C79.0064 212.805 79.4295 212.732 79.7936 212.429C80.1618 212.114 80.4638 211.7 80.6996 211.188C80.9521 210.667 81.2658 209.914 81.6407 208.928L83.0797 205.063L91.3005 207.722ZM104.398 211.832C105.413 212.16 106.248 212.675 106.904 213.378C107.564 214.068 107.993 214.886 108.191 215.833C108.393 216.767 108.332 217.735 108.008 218.738C107.684 219.74 107.165 220.567 106.449 221.218C105.738 221.857 104.911 222.269 103.968 222.455C103.026 222.64 102.047 222.569 101.032 222.241C100.144 221.954 99.3873 221.52 98.7622 220.939C98.1413 220.346 97.6924 219.654 97.4154 218.864C97.1426 218.061 97.0697 217.225 97.1969 216.355L95.4842 215.801L94.1672 219.874L91.7885 219.104L95.0749 208.943L97.4536 209.712L96.1797 213.651L97.9304 214.217C98.3411 213.467 98.886 212.866 99.565 212.413C100.248 211.947 101.005 211.666 101.834 211.57C102.668 211.461 103.523 211.549 104.398 211.832ZM101.684 220.224C102.242 220.404 102.785 220.439 103.311 220.329C103.841 220.207 104.311 219.945 104.72 219.545C105.134 219.132 105.444 218.609 105.649 217.975C105.96 217.01 105.93 216.153 105.556 215.401C105.199 214.641 104.596 214.124 103.746 213.849C102.896 213.574 102.104 213.64 101.37 214.047C100.639 214.442 100.118 215.121 99.8066 216.085C99.4948 217.049 99.5173 217.911 99.874 218.671C100.244 219.436 100.847 219.953 101.684 220.224ZM120.658 226.213L119.273 230.495L117.047 229.775L117.779 227.51L109.939 224.974L109.207 227.239L106.999 226.525L108.384 222.243L108.86 222.397C109.515 222.581 110.086 222.31 110.573 221.585C111.076 220.851 111.604 219.761 112.156 218.314L113.416 214.874L121.789 217.582L119.155 225.727L120.658 226.213ZM114.27 219.186C113.842 220.337 113.439 221.258 113.062 221.949C112.684 222.639 112.254 223.103 111.771 223.339L116.776 224.957L118.758 218.83L114.857 217.568L114.27 219.186ZM130.004 223.939C131.298 224.357 132.193 224.969 132.69 225.774C133.199 226.583 133.281 227.521 132.936 228.586C132.575 229.703 131.916 230.442 130.958 230.805C129.999 231.168 128.831 231.119 127.452 230.659L122.701 229.102L125.988 218.94L128.366 219.709L127.289 223.039L130.004 223.939ZM127.809 228.841C128.503 229.079 129.083 229.106 129.549 228.92C130.016 228.735 130.343 228.35 130.532 227.767C130.717 227.196 130.674 226.72 130.405 226.338C130.136 225.957 129.642 225.643 128.923 225.397L126.76 224.676L125.646 228.12L127.809 228.841ZM144.468 236.142L146.647 229.405L141.388 233.968L140.36 233.636L138.832 226.857L136.647 233.612L134.478 232.911L137.764 222.749L140.257 223.555L141.817 231.08L147.66 225.949L149.886 226.669L146.619 236.837L144.468 236.142ZM153.667 227.892L156.045 228.661L153.879 235.359L161.659 230.477L163.828 231.178L160.542 241.34L158.163 240.571L160.33 233.872L152.569 238.761L150.38 238.053L153.667 227.892ZM164.993 242.926C164.561 242.787 164.241 242.522 164.031 242.132C163.825 241.729 163.795 241.299 163.943 240.842C164.095 240.373 164.364 240.04 164.75 239.842C165.149 239.649 165.57 239.624 166.014 239.768C166.458 239.911 166.779 240.176 166.976 240.562C167.187 240.952 167.216 241.382 167.064 241.852C166.916 242.308 166.641 242.64 166.238 242.846C165.839 243.039 165.424 243.066 164.993 242.926ZM184.875 241.537C185.592 242.049 186.081 242.663 186.34 243.377C186.616 244.083 186.631 244.817 186.385 245.578C186.126 246.377 185.641 246.991 184.928 247.419C184.219 247.834 183.376 248.059 182.398 248.093C181.432 248.131 180.436 247.984 179.408 247.652C178.52 247.364 177.665 246.955 176.842 246.422C176.036 245.881 175.333 245.24 174.731 244.5L176.115 242.95C176.572 243.532 177.12 244.046 177.761 244.491C178.406 244.924 179.077 245.253 179.775 245.479C180.777 245.803 181.671 245.875 182.458 245.695C183.258 245.519 183.768 245.089 183.99 244.404C184.179 243.82 184.081 243.298 183.698 242.838C183.314 242.378 182.697 242.01 181.847 241.735L178.745 240.732L179.373 238.791L182.285 239.733C183.021 239.97 183.647 240.005 184.164 239.836C184.681 239.667 185.024 239.322 185.192 238.802C185.393 238.18 185.264 237.606 184.804 237.079C184.356 236.556 183.695 236.153 182.819 235.87C182.223 235.677 181.579 235.567 180.887 235.539C180.2 235.499 179.523 235.553 178.859 235.703L178.725 233.452C179.529 233.306 180.34 233.267 181.159 233.336C181.994 233.396 182.792 233.549 183.553 233.795C184.543 234.115 185.401 234.56 186.127 235.132C186.866 235.707 187.39 236.36 187.7 237.091C188.015 237.809 188.049 238.549 187.803 239.31C187.589 239.97 187.225 240.489 186.71 240.869C186.194 241.249 185.583 241.472 184.875 241.537ZM195.399 241.262C196.896 241.746 197.92 242.477 198.473 243.455C199.043 244.423 199.094 245.631 198.626 247.077L196.699 253.034L194.454 252.307L194.854 251.07C194.419 251.42 193.889 251.627 193.266 251.692C192.659 251.748 191.975 251.653 191.214 251.407C190.453 251.16 189.828 250.818 189.339 250.38C188.854 249.929 188.527 249.424 188.358 248.864C188.205 248.296 188.223 247.721 188.412 247.137C188.707 246.224 189.279 245.603 190.128 245.275C190.994 244.938 192.156 245.006 193.615 245.478L196.241 246.327L196.29 246.175C196.52 245.464 196.481 244.849 196.172 244.329C195.877 243.813 195.31 243.42 194.473 243.149C193.902 242.964 193.309 242.87 192.693 242.868C192.09 242.869 191.547 242.966 191.064 243.16L190.692 241.127C191.356 240.894 192.097 240.79 192.915 240.816C193.734 240.843 194.561 240.991 195.399 241.262ZM192.269 249.835C192.865 250.028 193.435 250.065 193.977 249.946C194.537 249.819 194.994 249.532 195.349 249.086L195.73 247.907L193.275 247.113C191.905 246.669 191.074 246.898 190.783 247.799C190.644 248.23 190.704 248.628 190.965 248.993C191.225 249.357 191.66 249.638 192.269 249.835ZM203.5 244.008L205.879 244.778L204.543 248.907L209.662 250.563L210.998 246.433L213.377 247.202L210.09 257.364L207.712 256.595L209.01 252.58L203.891 250.924L202.593 254.939L200.214 254.17L203.5 244.008ZM218.335 260.178C217.307 259.845 216.453 259.324 215.772 258.613C215.091 257.903 214.643 257.078 214.428 256.14C214.23 255.193 214.293 254.218 214.617 253.216C214.941 252.214 215.459 251.393 216.17 250.754C216.893 250.12 217.739 249.713 218.708 249.536C219.676 249.359 220.674 249.436 221.701 249.769C222.742 250.105 223.602 250.629 224.283 251.339C224.964 252.05 225.406 252.873 225.608 253.807C225.823 254.745 225.769 255.715 225.445 256.718C225.121 257.72 224.595 258.545 223.867 259.192C223.156 259.831 222.316 260.239 221.348 260.416C220.379 260.594 219.375 260.514 218.335 260.178ZM218.993 258.142C219.869 258.425 220.686 258.367 221.446 257.968C222.206 257.569 222.739 256.894 223.047 255.942C223.355 254.991 223.317 254.131 222.935 253.363C222.553 252.595 221.924 252.069 221.049 251.786C220.174 251.503 219.356 251.561 218.597 251.96C217.85 252.363 217.322 253.04 217.015 253.991C216.707 254.943 216.738 255.801 217.107 256.565C217.489 257.333 218.118 257.859 218.993 258.142ZM235.798 259.835C236.93 260.621 237.296 261.636 236.894 262.88C236.598 263.793 236.028 264.386 235.183 264.66C234.338 264.933 233.243 264.852 231.898 264.417L226.722 262.743L230.009 252.581L234.975 254.188C236.219 254.59 237.115 255.132 237.665 255.814C238.215 256.497 238.355 257.257 238.084 258.094C237.916 258.614 237.631 259.019 237.229 259.31C236.839 259.604 236.362 259.779 235.798 259.835ZM230.901 257.557L233.394 258.364C234.624 258.762 235.377 258.536 235.652 257.686C235.918 256.861 235.437 256.25 234.206 255.852L231.713 255.045L230.901 257.557ZM232.268 262.624C233.575 263.047 234.365 262.833 234.64 261.983C234.784 261.539 234.738 261.16 234.504 260.846C234.273 260.519 233.834 260.251 233.187 260.041L230.39 259.137L229.547 261.744L232.268 262.624ZM243.561 268.336C242.533 268.004 241.679 267.482 240.998 266.772C240.317 266.061 239.869 265.236 239.654 264.298C239.456 263.351 239.519 262.376 239.843 261.374C240.167 260.372 240.685 259.551 241.396 258.913C242.12 258.278 242.965 257.872 243.934 257.694C244.902 257.517 245.9 257.595 246.927 257.927C247.968 258.263 248.828 258.787 249.509 259.498C250.19 260.208 250.632 261.031 250.834 261.965C251.049 262.904 250.995 263.874 250.671 264.876C250.347 265.878 249.821 266.703 249.093 267.351C248.382 267.989 247.542 268.397 246.574 268.575C245.606 268.752 244.601 268.673 243.561 268.336ZM244.22 266.3C245.095 266.583 245.912 266.525 246.672 266.126C247.432 265.727 247.965 265.052 248.273 264.101C248.581 263.149 248.543 262.289 248.161 261.521C247.779 260.753 247.15 260.227 246.275 259.944C245.4 259.661 244.582 259.719 243.823 260.118C243.076 260.521 242.548 261.198 242.241 262.15C241.933 263.101 241.964 263.959 242.333 264.723C242.715 265.491 243.344 266.017 244.22 266.3ZM253.483 268.056C253.927 268.199 254.248 268.464 254.445 268.85C254.643 269.237 254.665 269.664 254.514 270.134C254.448 270.337 254.347 270.542 254.209 270.75C254.089 270.949 253.868 271.242 253.547 271.629L251.708 273.998L250.167 273.499L251.87 270.834C251.628 270.63 251.463 270.38 251.376 270.086C251.306 269.783 251.324 269.467 251.431 269.137C251.583 268.667 251.852 268.334 252.238 268.136C252.624 267.939 253.039 267.912 253.483 268.056ZM267.295 276.012C266.268 275.68 265.413 275.158 264.732 274.447C264.051 273.737 263.603 272.912 263.388 271.974C263.19 271.027 263.253 270.052 263.577 269.05C263.901 268.048 264.419 267.227 265.13 266.588C265.854 265.954 266.7 265.548 267.668 265.37C268.636 265.193 269.634 265.271 270.662 265.603C271.702 265.939 272.563 266.463 273.244 267.174C273.925 267.884 274.366 268.707 274.569 269.641C274.784 270.579 274.729 271.55 274.405 272.552C274.081 273.554 273.555 274.379 272.827 275.026C272.116 275.665 271.276 276.073 270.308 276.251C269.34 276.428 268.335 276.348 267.295 276.012ZM267.954 273.976C268.829 274.259 269.647 274.201 270.406 273.802C271.166 273.403 271.699 272.728 272.007 271.776C272.315 270.825 272.278 269.965 271.896 269.197C271.513 268.429 270.885 267.903 270.009 267.62C269.134 267.337 268.316 267.395 267.557 267.794C266.81 268.197 266.283 268.874 265.975 269.826C265.667 270.777 265.698 271.635 266.067 272.399C266.45 273.167 267.078 273.693 267.954 273.976ZM280.264 280.206C279.211 279.866 278.337 279.338 277.644 278.623C276.95 277.908 276.495 277.082 276.28 276.143C276.07 275.192 276.126 274.216 276.45 273.213C276.774 272.211 277.298 271.393 278.022 270.758C278.746 270.123 279.592 269.717 280.56 269.54C281.541 269.367 282.564 269.452 283.63 269.797C284.632 270.121 285.442 270.607 286.059 271.255C286.689 271.907 287.071 272.676 287.206 273.56L285.034 274.035C284.894 273.471 284.639 273.003 284.269 272.631C283.915 272.25 283.479 271.976 282.959 271.808C282.071 271.521 281.24 271.575 280.468 271.969C279.7 272.352 279.16 273.025 278.848 273.989C278.536 274.953 278.571 275.819 278.953 276.587C279.352 277.347 280.002 277.872 280.903 278.164C281.423 278.332 281.936 278.372 282.441 278.283C282.963 278.185 283.446 277.949 283.889 277.574L285.372 279.231C284.732 279.865 283.964 280.268 283.068 280.44C282.188 280.604 281.253 280.526 280.264 280.206ZM290.597 272.176L292.976 272.946L291.64 277.075L296.759 278.73L298.095 274.601L300.473 275.37L297.187 285.532L294.808 284.763L296.107 280.748L290.988 279.092L289.689 283.107L287.311 282.338L290.597 272.176ZM305.432 288.346C304.404 288.013 303.55 287.492 302.869 286.781C302.188 286.07 301.74 285.246 301.525 284.308C301.326 283.361 301.389 282.386 301.713 281.384C302.038 280.382 302.555 279.561 303.266 278.922C303.99 278.287 304.836 277.881 305.804 277.704C306.773 277.527 307.77 277.604 308.798 277.937C309.838 278.273 310.699 278.797 311.38 279.507C312.061 280.218 312.503 281.04 312.705 281.975C312.92 282.913 312.865 283.883 312.541 284.886C312.217 285.888 311.691 286.713 310.963 287.36C310.252 287.999 309.413 288.407 308.444 288.584C307.476 288.762 306.472 288.682 305.432 288.346ZM306.09 286.31C306.965 286.593 307.783 286.535 308.543 286.136C309.302 285.737 309.836 285.062 310.144 284.11C310.451 283.159 310.414 282.299 310.032 281.531C309.65 280.762 309.021 280.237 308.146 279.954C307.27 279.671 306.453 279.728 305.693 280.127C304.946 280.53 304.419 281.208 304.111 282.159C303.803 283.111 303.834 283.968 304.204 284.733C304.586 285.501 305.215 286.026 306.09 286.31ZM322.894 288.003C324.027 288.789 324.392 289.804 323.99 291.048C323.695 291.961 323.125 292.554 322.28 292.828C321.435 293.101 320.34 293.02 318.995 292.585L313.819 290.911L317.105 280.749L322.072 282.356C323.315 282.758 324.212 283.3 324.762 283.982C325.312 284.665 325.452 285.424 325.181 286.262C325.013 286.782 324.727 287.187 324.325 287.477C323.936 287.772 323.459 287.947 322.894 288.003ZM317.997 285.725L320.49 286.531C321.721 286.929 322.474 286.703 322.748 285.853C323.015 285.029 322.533 284.418 321.303 284.02L318.81 283.213L317.997 285.725ZM319.365 290.792C320.671 291.214 321.462 291.001 321.737 290.151C321.881 289.707 321.835 289.328 321.6 289.013C321.37 288.687 320.931 288.419 320.284 288.209L317.487 287.305L316.643 289.912L319.365 290.792ZM333.282 285.855C334.779 286.339 335.804 287.07 336.356 288.047C336.926 289.016 336.977 290.224 336.509 291.67L334.583 297.626L332.337 296.9L332.737 295.663C332.302 296.013 331.773 296.22 331.149 296.285C330.542 296.341 329.858 296.246 329.097 295.999C328.336 295.753 327.711 295.411 327.222 294.973C326.737 294.522 326.41 294.016 326.241 293.457C326.088 292.889 326.106 292.314 326.295 291.73C326.59 290.817 327.163 290.196 328.011 289.868C328.877 289.531 330.039 289.599 331.498 290.07L334.124 290.92L334.173 290.768C334.403 290.057 334.364 289.442 334.056 288.922C333.76 288.406 333.194 288.012 332.356 287.742C331.786 287.557 331.192 287.463 330.577 287.46C329.974 287.461 329.431 287.559 328.947 287.753L328.575 285.72C329.239 285.486 329.98 285.383 330.799 285.409C331.617 285.435 332.445 285.584 333.282 285.855ZM330.152 294.428C330.748 294.621 331.318 294.658 331.861 294.539C332.42 294.412 332.877 294.125 333.232 293.679L333.613 292.499L331.159 291.705C329.788 291.262 328.958 291.491 328.666 292.392C328.527 292.823 328.587 293.221 328.848 293.586C329.108 293.95 329.543 294.231 330.152 294.428ZM348.781 293.222L345.222 292.071L342.588 300.215L340.209 299.446L342.843 291.301L339.266 290.144L339.918 288.127L349.433 291.204L348.781 293.222ZM359.136 300.018C359.083 300.183 358.995 300.413 358.871 300.71L350.897 298.131C350.795 298.925 350.964 299.638 351.404 300.271C351.86 300.895 352.526 301.348 353.402 301.632C354.518 301.993 355.557 301.922 356.518 301.42L357.319 303.298C356.686 303.696 355.975 303.921 355.187 303.975C354.399 304.028 353.568 303.913 352.692 303.63C351.576 303.269 350.664 302.729 349.958 302.01C349.252 301.291 348.791 300.463 348.576 299.524C348.378 298.577 348.441 297.603 348.765 296.601C349.085 295.611 349.594 294.795 350.292 294.152C351.008 293.5 351.837 293.082 352.78 292.896C353.722 292.711 354.695 292.78 355.697 293.104C356.687 293.424 357.497 293.931 358.127 294.626C358.774 295.311 359.184 296.124 359.357 297.062C359.546 297.992 359.473 298.978 359.136 300.018ZM355.082 295.007C354.32 294.761 353.6 294.78 352.919 295.064C352.255 295.34 351.745 295.834 351.389 296.545L357.155 298.41C357.292 297.642 357.174 296.945 356.801 296.32C356.429 295.695 355.856 295.257 355.082 295.007ZM373.051 298.843L369.765 309.004L367.386 308.235L370.02 300.09L366.214 298.86L365.466 300.846C364.968 302.17 364.476 303.258 363.99 304.11C363.522 304.953 362.979 305.57 362.363 305.959C361.763 306.34 361.083 306.407 360.321 306.161C359.966 306.046 359.551 305.834 359.076 305.527L359.836 303.565C360.002 303.661 360.148 303.729 360.275 303.77C360.757 303.926 361.18 303.853 361.544 303.55C361.912 303.235 362.214 302.821 362.45 302.309C362.703 301.788 363.016 301.034 363.391 300.049L364.83 296.184L373.051 298.843ZM380.842 305.062C382.136 305.48 383.031 306.092 383.528 306.897C384.037 307.707 384.119 308.644 383.774 309.71C383.413 310.826 382.754 311.566 381.795 311.928C380.837 312.291 379.669 312.243 378.29 311.783L373.539 310.225L376.825 300.063L379.204 300.833L378.127 304.163L380.842 305.062ZM378.647 309.964C379.341 310.203 379.921 310.229 380.387 310.044C380.853 309.858 381.181 309.474 381.37 308.89C381.554 308.319 381.512 307.843 381.243 307.462C380.974 307.08 380.48 306.766 379.761 306.52L377.598 305.799L376.484 309.244L378.647 309.964ZM388.602 303.872L390.981 304.641L389.645 308.771L394.764 310.426L396.1 306.297L398.478 307.066L395.192 317.228L392.813 316.459L394.112 312.443L388.993 310.788L387.694 314.803L385.316 314.034L388.602 303.872ZM403.437 320.041C402.409 319.709 401.555 319.188 400.874 318.477C400.193 317.766 399.745 316.942 399.53 316.003C399.332 315.056 399.395 314.082 399.719 313.08C400.043 312.077 400.56 311.257 401.272 310.618C401.995 309.983 402.841 309.577 403.81 309.4C404.778 309.222 405.776 309.3 406.803 309.632C407.844 309.969 408.704 310.492 409.385 311.203C410.066 311.914 410.508 312.736 410.71 313.67C410.925 314.609 410.871 315.579 410.547 316.581C410.222 317.584 409.696 318.408 408.969 319.056C408.257 319.695 407.418 320.103 406.45 320.28C405.481 320.457 404.477 320.378 403.437 320.041ZM404.095 318.005C404.971 318.288 405.788 318.231 406.548 317.832C407.307 317.433 407.841 316.757 408.149 315.806C408.457 314.854 408.419 313.995 408.037 313.226C407.655 312.458 407.026 311.933 406.151 311.649C405.276 311.366 404.458 311.424 403.698 311.823C402.951 312.226 402.424 312.904 402.116 313.855C401.809 314.806 401.84 315.664 402.209 316.428C402.591 317.197 403.22 317.722 404.095 318.005ZM413.359 319.761C413.803 319.905 414.124 320.17 414.321 320.556C414.518 320.942 414.541 321.37 414.389 321.839C414.324 322.042 414.222 322.247 414.085 322.455C413.965 322.655 413.744 322.947 413.423 323.334L411.584 325.703L410.043 325.205L411.746 322.539C411.503 322.335 411.339 322.086 411.252 321.791C411.182 321.488 411.2 321.172 411.307 320.842C411.458 320.373 411.727 320.039 412.114 319.842C412.5 319.644 412.915 319.617 413.359 319.761ZM74.705 227.579L77.0837 228.348L74.9174 235.046L82.6974 230.163L84.8668 230.865L81.5804 241.027L79.2017 240.258L81.368 233.559L73.607 238.448L71.4186 237.74L74.705 227.579ZM88.6375 232.085L91.0162 232.854L89.6807 236.983L94.7996 238.639L96.1351 234.509L98.5138 235.279L95.2274 245.44L92.8487 244.671L94.1473 240.656L89.0283 239L87.7297 243.016L85.351 242.246L88.6375 232.085ZM109.67 241.115L106.111 239.964L103.477 248.108L101.098 247.339L103.733 239.195L100.155 238.038L100.807 236.02L110.322 239.098L109.67 241.115ZM120.026 247.911C119.972 248.076 119.884 248.307 119.76 248.603L111.786 246.024C111.684 246.818 111.853 247.531 112.293 248.164C112.749 248.788 113.415 249.242 114.291 249.525C115.407 249.886 116.446 249.815 117.407 249.313L118.208 251.191C117.575 251.589 116.864 251.814 116.076 251.868C115.288 251.921 114.457 251.807 113.581 251.523C112.465 251.162 111.553 250.622 110.847 249.903C110.141 249.185 109.68 248.356 109.465 247.418C109.267 246.471 109.33 245.496 109.654 244.494C109.974 243.504 110.483 242.688 111.181 242.045C111.897 241.394 112.726 240.975 113.669 240.789C114.611 240.604 115.584 240.673 116.586 240.997C117.576 241.317 118.386 241.824 119.016 242.519C119.663 243.205 120.073 244.017 120.246 244.955C120.435 245.886 120.362 246.871 120.026 247.911ZM115.971 242.9C115.21 242.654 114.489 242.673 113.808 242.958C113.144 243.233 112.634 243.727 112.278 244.439L118.044 246.303C118.181 245.535 118.063 244.838 117.69 244.213C117.318 243.588 116.745 243.151 115.971 242.9ZM130.529 245.507C131.519 245.827 132.331 246.328 132.965 247.009C133.612 247.695 134.031 248.503 134.22 249.433C134.41 250.363 134.339 251.342 134.006 252.37C133.674 253.397 133.157 254.239 132.454 254.894C131.756 255.537 130.943 255.947 130.017 256.124C129.104 256.305 128.153 256.236 127.163 255.916C125.793 255.473 124.856 254.665 124.352 253.493L122.758 258.422L120.379 257.653L124.86 243.799L127.124 244.532L126.693 245.864C127.243 245.509 127.842 245.303 128.491 245.247C129.152 245.194 129.832 245.281 130.529 245.507ZM127.555 253.794C128.43 254.077 129.242 254.017 129.989 253.614C130.748 253.215 131.282 252.539 131.59 251.588C131.897 250.637 131.86 249.777 131.478 249.008C131.108 248.244 130.486 247.721 129.611 247.438C129.04 247.253 128.483 247.22 127.94 247.339C127.401 247.445 126.921 247.696 126.498 248.092C126.076 248.488 125.762 249.003 125.557 249.637C125.352 250.271 125.305 250.873 125.415 251.441C125.526 252.009 125.766 252.5 126.137 252.914C126.511 253.316 126.984 253.609 127.555 253.794ZM146.441 256.454C146.388 256.619 146.299 256.85 146.175 257.146L138.202 254.567C138.099 255.361 138.268 256.074 138.708 256.707C139.165 257.331 139.831 257.785 140.706 258.068C141.823 258.429 142.861 258.358 143.822 257.856L144.623 259.734C143.99 260.132 143.28 260.357 142.492 260.411C141.704 260.464 140.872 260.349 139.997 260.066C138.88 259.705 137.969 259.165 137.263 258.446C136.556 257.728 136.095 256.899 135.88 255.961C135.682 255.014 135.745 254.039 136.069 253.037C136.389 252.047 136.898 251.231 137.597 250.588C138.312 249.936 139.141 249.518 140.084 249.332C141.027 249.147 141.999 249.216 143.002 249.54C143.991 249.86 144.801 250.367 145.431 251.062C146.078 251.748 146.488 252.56 146.661 253.498C146.851 254.429 146.777 255.414 146.441 256.454ZM142.386 251.443C141.625 251.197 140.904 251.216 140.224 251.501C139.56 251.776 139.05 252.27 138.694 252.982L144.46 254.846C144.596 254.078 144.478 253.381 144.106 252.756C143.733 252.131 143.16 251.694 142.386 251.443ZM152.57 264.133C151.517 263.792 150.644 263.264 149.95 262.55C149.256 261.835 148.802 261.008 148.587 260.07C148.376 259.119 148.432 258.142 148.757 257.14C149.081 256.138 149.605 255.319 150.328 254.685C151.052 254.05 151.898 253.644 152.866 253.466C153.847 253.293 154.871 253.379 155.936 253.724C156.939 254.048 157.748 254.534 158.365 255.182C158.995 255.834 159.377 256.602 159.512 257.486L157.34 257.961C157.2 257.397 156.945 256.93 156.575 256.558C156.222 256.177 155.785 255.903 155.265 255.734C154.377 255.447 153.547 255.501 152.774 255.896C152.006 256.278 151.466 256.951 151.154 257.915C150.843 258.88 150.878 259.746 151.26 260.514C151.659 261.274 152.309 261.799 153.209 262.09C153.73 262.259 154.242 262.298 154.747 262.209C155.269 262.112 155.752 261.876 156.196 261.501L157.678 263.157C157.038 263.791 156.27 264.194 155.374 264.367C154.494 264.531 153.559 264.453 152.57 264.133ZM162.903 256.103L165.282 256.872L163.946 261.002L169.065 262.657L170.401 258.528L172.78 259.297L169.493 269.459L167.115 268.689L168.413 264.674L163.294 263.019L161.996 267.034L159.617 266.265L162.903 256.103ZM177.738 272.272C176.71 271.94 175.856 271.418 175.175 270.708C174.494 269.997 174.046 269.172 173.831 268.234C173.633 267.287 173.696 266.313 174.02 265.31C174.344 264.308 174.862 263.488 175.573 262.849C176.296 262.214 177.142 261.808 178.111 261.631C179.079 261.453 180.077 261.531 181.104 261.863C182.145 262.2 183.005 262.723 183.686 263.434C184.367 264.145 184.809 264.967 185.011 265.901C185.226 266.84 185.172 267.81 184.848 268.812C184.524 269.814 183.998 270.639 183.27 271.287C182.559 271.926 181.719 272.334 180.751 272.511C179.782 272.688 178.778 272.609 177.738 272.272ZM178.396 270.236C179.272 270.519 180.089 270.461 180.849 270.062C181.609 269.663 182.142 268.988 182.45 268.037C182.758 267.085 182.72 266.225 182.338 265.457C181.956 264.689 181.327 264.163 180.452 263.88C179.577 263.597 178.759 263.655 178 264.054C177.253 264.457 176.725 265.134 176.418 266.086C176.11 267.037 176.141 267.895 176.51 268.659C176.892 269.427 177.521 269.953 178.396 270.236ZM186.619 275.145C186.188 275.005 185.867 274.74 185.657 274.35C185.451 273.947 185.422 273.517 185.57 273.061C185.722 272.591 185.991 272.258 186.377 272.06C186.776 271.867 187.197 271.842 187.641 271.986C188.085 272.129 188.406 272.394 188.603 272.78C188.813 273.171 188.842 273.6 188.691 274.07C188.543 274.527 188.268 274.858 187.865 275.064C187.466 275.257 187.051 275.284 186.619 275.145Z" fill="white"/>
<defs>
<clipPath id="clip0">
<rect width="428.548" height="355.897" fill="white" transform="matrix(-0.955478 -0.295061 -0.295061 0.955478 514.48 126.448)"/>
</clipPath>
</defs>
</svg>
