<svg width="515" height="467" viewBox="0 0 515 467" fill="none" xmlns="http://www.w3.org/2000/svg">
<g clip-path="url(#clip0)">
<path d="M60.2486 173.765C81.081 80.9866 85.3479 32.9968 115.186 20.5597C128.574 14.9943 140.672 17.0367 162.851 21.9805C272.7 46.5302 354.077 80.8984 372.534 88.7919C475.833 132.99 483.431 140.128 489.042 152.388C502.499 181.833 486.169 223.615 453.537 307.148C439.111 344.072 428.61 362.673 408.498 374.11C386.955 386.376 363.432 387.657 342.961 382.047C302.669 371.029 224.986 343.402 161.016 319.202C161.607 339.362 165.264 375.037 182.474 396.383C182.474 396.383 126.309 353.269 102.561 296.474C85.36 289.565 71.8104 284.303 64.781 280.438C45.1773 269.65 45.8823 237.747 60.2486 173.765Z" fill="#01737B"/>
</g>
<path d="M129.447 80.1503C128.103 79.7154 126.979 79.0297 126.077 78.0933C125.191 77.1483 124.606 76.0552 124.321 74.8138C124.048 73.5766 124.123 72.3047 124.546 70.998C124.969 69.6913 125.659 68.6183 126.617 67.779C127.575 66.9398 128.688 66.4028 129.955 66.1679C131.238 65.9245 132.553 66.0203 133.898 66.4552C134.989 66.808 135.923 67.3204 136.701 67.9923C137.478 68.6642 138.061 69.4622 138.449 70.3864L136.364 71.3728C135.736 70.0207 134.718 69.1169 133.31 68.6615C132.397 68.3661 131.513 68.3044 130.658 68.4765C129.808 68.6359 129.065 69.0052 128.429 69.5844C127.794 70.1635 127.33 70.9034 127.039 71.8042C126.747 72.7049 126.69 73.5761 126.866 74.4179C127.042 75.2596 127.426 76.0004 128.018 76.6402C128.614 77.2673 129.369 77.7286 130.282 78.024C131.69 78.4794 133.047 78.3366 134.352 77.5954L135.458 79.6348C134.602 80.1568 133.656 80.4605 132.62 80.5457C131.596 80.6349 130.538 80.5032 129.447 80.1503ZM147.805 76.8807L144.247 75.7299L141.613 83.8745L139.234 83.1052L141.868 74.9606L138.291 73.8036L138.943 71.7864L148.458 74.8636L147.805 76.8807ZM151.508 87.2217C150.48 86.8894 149.626 86.3679 148.945 85.6572C148.264 84.9465 147.816 84.1219 147.601 83.1836C147.402 82.2366 147.465 81.262 147.789 80.2598C148.114 79.2576 148.631 78.437 149.342 77.7982C150.066 77.1634 150.912 76.7574 151.88 76.5801C152.849 76.4027 153.846 76.4802 154.874 76.8126C155.914 77.149 156.775 77.6726 157.456 78.3833C158.137 79.094 158.579 79.9165 158.781 80.8507C158.996 81.7891 158.941 82.7594 158.617 83.7616C158.293 84.7638 157.767 85.5887 157.039 86.2361C156.328 86.875 155.489 87.283 154.52 87.4604C153.552 87.6377 152.548 87.5582 151.508 87.2217ZM152.166 85.1856C153.041 85.4687 153.859 85.4107 154.619 85.0118C155.378 84.6129 155.912 83.9376 156.22 82.9862C156.527 82.0347 156.49 81.1749 156.108 80.4066C155.726 79.6384 155.097 79.1128 154.222 78.8297C153.346 78.5466 152.529 78.6045 151.769 79.0035C151.022 79.4065 150.495 80.0838 150.187 81.0352C149.88 81.9867 149.91 82.8445 150.28 83.6086C150.662 84.3768 151.291 84.9025 152.166 85.1856ZM164.476 91.4158C163.423 91.0753 162.55 90.5476 161.856 89.8328C161.162 89.118 160.708 88.2914 160.493 87.353C160.282 86.402 160.339 85.4253 160.663 84.4231C160.987 83.4209 161.511 82.6024 162.235 81.9677C162.958 81.3329 163.804 80.9269 164.773 80.7495C165.753 80.5763 166.777 80.662 167.842 81.0066C168.845 81.3308 169.654 81.8169 170.272 82.4649C170.901 83.117 171.284 83.8852 171.418 84.7695L169.246 85.2443C169.107 84.6806 168.851 84.2127 168.481 83.8408C168.128 83.4602 167.691 83.1858 167.171 83.0176C166.283 82.7304 165.453 82.7842 164.68 83.1791C163.912 83.5612 163.372 84.2344 163.06 85.1986C162.749 86.1627 162.784 87.0289 163.166 87.7971C163.565 88.5567 164.215 89.0822 165.115 89.3735C165.636 89.5417 166.148 89.5814 166.653 89.4925C167.175 89.3951 167.658 89.1589 168.102 88.7838L169.584 90.4403C168.945 91.0743 168.177 91.4775 167.28 91.65C166.4 91.8139 165.465 91.7358 164.476 91.4158ZM184.27 86.4457L175.962 95.8871C175.161 96.8473 174.371 97.4468 173.593 97.6856C172.811 97.9372 171.97 97.9173 171.069 97.626C170.562 97.4619 170.087 97.2174 169.646 96.8924C169.205 96.5675 168.872 96.2079 168.65 95.8135L170.167 94.3705C170.326 94.66 170.537 94.9174 170.8 95.1428C171.076 95.3722 171.373 95.5382 171.69 95.6408C172.109 95.7762 172.486 95.7791 172.823 95.6496C173.171 95.5242 173.542 95.2447 173.934 94.8111L174.235 94.4669L173.1 82.8331L175.574 83.6331L176.34 92.1837L181.987 85.7072L184.27 86.4457ZM186.493 87.1646L188.872 87.9339L187.536 92.0633L192.655 93.7188L193.991 89.5894L196.37 90.3587L193.083 100.521L190.704 99.7512L192.003 95.736L186.884 94.0805L185.585 98.0957L183.207 97.3264L186.493 87.1646ZM202.384 99.0301L200.538 98.4331L199.221 102.505L196.842 101.736L200.128 91.5743L202.507 92.3436L201.178 96.454L203.081 97.0695L207.417 93.9315L209.967 94.7561L204.693 98.4528L206.928 104.998L204.13 104.093L202.384 99.0301ZM212.463 95.5634L214.841 96.3327L212.675 103.031L220.455 98.1482L222.624 98.8498L219.338 109.012L216.959 108.242L219.126 101.544L211.365 106.433L209.176 105.725L212.463 95.5634ZM238.014 109.208C239.147 109.995 239.512 111.01 239.11 112.253C238.815 113.167 238.245 113.76 237.399 114.033C236.554 114.306 235.459 114.225 234.115 113.791L228.939 112.117L232.225 101.955L237.192 103.561C238.435 103.963 239.332 104.505 239.882 105.188C240.432 105.87 240.571 106.63 240.301 107.467C240.132 107.987 239.847 108.393 239.445 108.683C239.056 108.977 238.579 109.152 238.014 109.208ZM233.117 106.931L235.61 107.737C236.841 108.135 237.593 107.909 237.868 107.059C238.135 106.234 237.653 105.623 236.422 105.225L233.93 104.419L233.117 106.931ZM234.484 111.997C235.791 112.42 236.582 112.206 236.857 111.356C237 110.912 236.955 110.533 236.72 110.219C236.49 109.892 236.051 109.624 235.404 109.415L232.606 108.51L231.763 111.117L234.484 111.997ZM248.402 107.06C249.899 107.544 250.924 108.275 251.476 109.253C252.046 110.222 252.097 111.429 251.629 112.876L249.703 118.832L247.457 118.106L247.857 116.869C247.422 117.218 246.892 117.425 246.269 117.49C245.662 117.546 244.978 117.451 244.217 117.205C243.456 116.959 242.831 116.616 242.342 116.178C241.857 115.727 241.53 115.222 241.361 114.663C241.208 114.095 241.226 113.519 241.415 112.935C241.71 112.022 242.282 111.401 243.131 111.073C243.997 110.737 245.159 110.804 246.618 111.276L249.244 112.125L249.293 111.973C249.523 111.263 249.484 110.647 249.176 110.127C248.88 109.611 248.314 109.218 247.476 108.947C246.905 108.762 246.312 108.669 245.696 108.666C245.094 108.667 244.55 108.765 244.067 108.959L243.695 106.925C244.359 106.692 245.1 106.588 245.918 106.615C246.737 106.641 247.564 106.79 248.402 107.06ZM245.272 115.633C245.868 115.826 246.438 115.863 246.981 115.744C247.54 115.617 247.997 115.33 248.352 114.885L248.733 113.705L246.278 112.911C244.908 112.468 244.078 112.697 243.786 113.597C243.647 114.029 243.707 114.426 243.968 114.791C244.228 115.156 244.663 115.436 245.272 115.633ZM264.182 119.016L262.469 118.462L261.152 122.535L258.793 121.772L260.11 117.699L258.397 117.145L254.606 120.418L251.79 119.507L256.819 115.332L255.324 109.425L257.855 110.244L258.999 115.154L260.75 115.72L262.079 111.61L264.439 112.373L263.109 116.483L264.841 117.043L268.663 113.739L271.194 114.558L266.524 118.47L268.174 124.806L265.339 123.889L264.182 119.016ZM283.01 118.379L279.723 128.541L277.345 127.771L279.979 119.627L276.173 118.396L275.425 120.382C274.927 121.707 274.435 122.795 273.949 123.646C273.48 124.49 272.938 125.106 272.321 125.495C271.722 125.876 271.041 125.943 270.28 125.697C269.925 125.582 269.51 125.371 269.035 125.063L269.795 123.102C269.961 123.197 270.107 123.266 270.234 123.307C270.716 123.463 271.139 123.389 271.503 123.087C271.871 122.771 272.173 122.357 272.409 121.845C272.661 121.324 272.975 120.571 273.35 119.585L274.789 115.72L283.01 118.379ZM286.784 119.6L289.163 120.369L286.997 127.067L294.777 122.184L296.946 122.886L293.66 133.048L291.281 132.279L293.447 125.58L285.686 130.469L283.498 129.761L286.784 119.6ZM306.506 131.359C307.638 132.146 308.004 133.161 307.602 134.404C307.306 135.317 306.736 135.911 305.891 136.184C305.046 136.457 303.951 136.376 302.606 135.941L297.43 134.267L300.717 124.106L305.683 125.712C306.927 126.114 307.823 126.656 308.373 127.339C308.923 128.021 309.063 128.781 308.792 129.618C308.624 130.138 308.339 130.543 307.937 130.834C307.547 131.128 307.07 131.303 306.506 131.359ZM301.609 129.082L304.102 129.888C305.332 130.286 306.085 130.06 306.36 129.21C306.627 128.385 306.145 127.774 304.914 127.376L302.421 126.57L301.609 129.082ZM302.976 134.148C304.283 134.571 305.074 134.357 305.348 133.507C305.492 133.063 305.446 132.684 305.212 132.37C304.981 132.043 304.542 131.775 303.895 131.566L301.098 130.661L300.255 133.268L302.976 134.148ZM313.07 128.101L315.448 128.87L312.162 139.032L309.783 138.262L313.07 128.101ZM314.81 126.814C314.379 126.674 314.06 126.424 313.855 126.063C313.653 125.69 313.618 125.3 313.749 124.894C313.88 124.488 314.135 124.199 314.513 124.027C314.895 123.842 315.302 123.82 315.733 123.959C316.164 124.099 316.483 124.349 316.689 124.71C316.898 125.058 316.94 125.428 316.812 125.822C316.677 126.24 316.416 126.548 316.03 126.746C315.661 126.935 315.254 126.957 314.81 126.814ZM319.913 126.825L322.73 127.735L319.374 136.487L317.49 135.878L319.913 126.825ZM316.97 140.734C316.526 140.59 316.203 140.332 316.002 139.958C315.804 139.572 315.773 139.17 315.909 138.751C316.044 138.332 316.303 138.031 316.685 137.846C317.067 137.661 317.48 137.641 317.924 137.784C318.355 137.924 318.666 138.178 318.854 138.548C319.056 138.921 319.089 139.317 318.954 139.736C318.818 140.154 318.557 140.462 318.171 140.66C317.802 140.849 317.402 140.873 316.97 140.734ZM337.16 139.444C337.878 139.956 338.366 140.57 338.625 141.284C338.902 141.99 338.917 142.724 338.67 143.485C338.412 144.284 337.926 144.898 337.213 145.326C336.504 145.741 335.661 145.966 334.683 146C333.718 146.038 332.721 145.891 331.694 145.559C330.806 145.271 329.95 144.862 329.127 144.329C328.321 143.788 327.618 143.147 327.017 142.407L328.401 140.857C328.857 141.439 329.406 141.953 330.046 142.398C330.691 142.831 331.362 143.16 332.06 143.386C333.062 143.71 333.957 143.782 334.744 143.602C335.543 143.426 336.054 142.996 336.275 142.311C336.464 141.727 336.367 141.205 335.983 140.745C335.599 140.285 334.983 139.917 334.133 139.642L331.031 138.639L331.659 136.698L334.57 137.64C335.306 137.878 335.932 137.912 336.45 137.743C336.967 137.574 337.309 137.229 337.478 136.709C337.679 136.087 337.549 135.513 337.089 134.986C336.642 134.463 335.98 134.06 335.105 133.777C334.509 133.584 333.864 133.474 333.173 133.446C332.485 133.406 331.809 133.46 331.144 133.61L331.01 131.359C331.814 131.213 332.625 131.174 333.444 131.243C334.279 131.303 335.078 131.456 335.839 131.702C336.828 132.022 337.686 132.467 338.412 133.039C339.151 133.614 339.676 134.267 339.986 134.998C340.3 135.716 340.334 136.456 340.088 137.217C339.875 137.877 339.51 138.396 338.995 138.776C338.48 139.156 337.868 139.379 337.16 139.444ZM351.945 147.4L350.1 146.803L348.783 150.875L346.404 150.106L349.69 139.944L352.069 140.713L350.74 144.824L352.643 145.439L356.979 142.301L359.529 143.126L354.255 146.823L356.49 153.368L353.692 152.463L351.945 147.4ZM371.235 146.912L367.948 157.074L365.57 156.304L368.204 148.16L364.398 146.929L363.65 148.915C363.152 150.239 362.66 151.327 362.174 152.179C361.705 153.023 361.163 153.639 360.546 154.028C359.947 154.409 359.267 154.476 358.505 154.23C358.15 154.115 357.735 153.904 357.26 153.596L358.02 151.635C358.186 151.73 358.332 151.798 358.459 151.839C358.941 151.995 359.364 151.922 359.728 151.619C360.096 151.304 360.398 150.89 360.634 150.378C360.886 149.857 361.2 149.104 361.575 148.118L363.014 144.253L371.235 146.912ZM375.009 148.132L377.388 148.902L374.102 159.064L371.723 158.294L375.009 148.132ZM376.75 146.846C376.318 146.706 376 146.456 375.794 146.095C375.593 145.722 375.558 145.332 375.689 144.926C375.82 144.52 376.075 144.231 376.453 144.059C376.835 143.874 377.242 143.852 377.673 143.991C378.104 144.131 378.423 144.381 378.628 144.742C378.838 145.09 378.879 145.46 378.752 145.854C378.617 146.272 378.356 146.58 377.97 146.778C377.6 146.967 377.194 146.989 376.75 146.846ZM382.557 161.966C381.492 161.622 380.606 161.09 379.899 160.371C379.197 159.639 378.732 158.802 378.504 157.86C378.281 156.905 378.331 155.926 378.655 154.924C378.979 153.922 379.512 153.099 380.252 152.456C380.993 151.812 381.86 151.406 382.853 151.237C383.851 151.055 384.883 151.137 385.948 151.481C386.875 151.781 387.663 152.204 388.313 152.75C388.963 153.297 389.455 153.94 389.791 154.679L387.99 155.568C387.449 154.51 386.595 153.792 385.428 153.415C384.566 153.136 383.747 153.131 382.974 153.399C382.217 153.659 381.625 154.147 381.197 154.863L385.898 156.383L385.344 158.096L380.662 156.582C380.611 157.392 380.817 158.118 381.283 158.759C381.752 159.387 382.412 159.838 383.262 160.113C384.429 160.491 385.544 160.403 386.605 159.849L387.545 161.624C386.848 162.044 386.071 162.283 385.211 162.341C384.368 162.391 383.484 162.266 382.557 161.966ZM392.858 153.905L395.236 154.674L393.901 158.804L399.02 160.459L400.355 156.33L402.734 157.099L399.448 167.261L397.069 166.491L398.367 162.476L393.248 160.821L391.95 164.836L389.571 164.067L392.858 153.905ZM413.89 162.935L410.331 161.784L407.697 169.929L405.319 169.159L407.953 161.015L404.375 159.858L405.027 157.841L414.542 160.918L413.89 162.935ZM420.662 162.771C422.159 163.255 423.184 163.986 423.737 164.963C424.306 165.932 424.357 167.14 423.89 168.586L421.963 174.542L419.718 173.816L420.118 172.579C419.682 172.929 419.153 173.136 418.53 173.201C417.923 173.257 417.239 173.162 416.478 172.916C415.717 172.669 415.092 172.327 414.603 171.889C414.118 171.438 413.791 170.933 413.621 170.373C413.469 169.805 413.487 169.23 413.676 168.646C413.971 167.733 414.543 167.112 415.392 166.784C416.257 166.447 417.42 166.515 418.879 166.987L421.505 167.836L421.554 167.684C421.784 166.973 421.744 166.358 421.436 165.838C421.141 165.322 420.574 164.929 419.737 164.658C419.166 164.473 418.573 164.379 417.957 164.376C417.354 164.378 416.811 164.475 416.328 164.669L415.956 162.636C416.62 162.402 417.361 162.299 418.179 162.325C418.997 162.352 419.825 162.5 420.662 162.771ZM417.533 171.344C418.129 171.537 418.698 171.574 419.241 171.455C419.801 171.328 420.258 171.041 420.612 170.595L420.994 169.415L418.539 168.622C417.169 168.178 416.338 168.407 416.047 169.308C415.907 169.739 415.968 170.137 416.228 170.502C416.489 170.866 416.924 171.147 417.533 171.344ZM435.468 178.91L437.647 172.174L432.387 176.737L431.36 176.404L429.832 169.625L427.647 176.381L425.478 175.679L428.764 165.517L431.257 166.323L432.817 173.849L438.659 168.718L440.886 169.438L437.618 179.606L435.468 178.91ZM444.666 170.66L447.045 171.43L444.879 178.128L452.659 173.245L454.828 173.947L451.542 184.108L449.163 183.339L451.329 176.641L443.568 181.53L441.38 180.822L444.666 170.66ZM457.033 182.542C457.477 182.686 457.798 182.951 457.995 183.337C458.193 183.723 458.215 184.151 458.064 184.62C457.998 184.823 457.897 185.029 457.759 185.236C457.639 185.436 457.418 185.729 457.097 186.115L455.258 188.484L453.717 187.986L455.42 185.321C455.178 185.116 455.013 184.867 454.926 184.572C454.856 184.269 454.874 183.953 454.981 183.623C455.133 183.154 455.402 182.82 455.788 182.623C456.174 182.426 456.589 182.399 457.033 182.542ZM121.271 98.0216L119.426 97.4246L118.109 101.497L115.73 100.728L119.016 90.5658L121.395 91.3351L120.066 95.4455L121.969 96.061L126.305 92.923L128.855 93.7476L123.581 97.4443L125.815 103.989L123.018 103.085L121.271 98.0216ZM138.869 102.662C138.816 102.827 138.727 103.057 138.603 103.354L130.63 100.775C130.527 101.569 130.696 102.282 131.136 102.915C131.593 103.539 132.259 103.992 133.134 104.275C134.251 104.636 135.289 104.566 136.251 104.064L137.052 105.942C136.419 106.34 135.708 106.565 134.92 106.619C134.132 106.672 133.3 106.557 132.425 106.274C131.308 105.913 130.397 105.373 129.691 104.654C128.984 103.935 128.524 103.107 128.309 102.168C128.11 101.221 128.173 100.247 128.497 99.2445C128.817 98.2549 129.327 97.4387 130.025 96.7957C130.74 96.1442 131.569 95.7257 132.512 95.5401C133.455 95.3546 134.428 95.4239 135.43 95.748C136.419 96.068 137.229 96.5752 137.859 97.2695C138.506 97.9552 138.916 98.7674 139.089 99.7062C139.279 100.636 139.206 101.622 138.869 102.662ZM134.814 97.651C134.053 97.4048 133.332 97.4239 132.652 97.7083C131.988 97.9841 131.478 98.4778 131.122 99.1893L136.888 101.054C137.024 100.285 136.906 99.5887 136.534 98.9638C136.161 98.3388 135.588 97.9012 134.814 97.651ZM149.373 100.257C150.363 100.577 151.175 101.078 151.809 101.76C152.456 102.446 152.874 103.254 153.064 104.184C153.254 105.114 153.182 106.093 152.85 107.12C152.518 108.148 152 108.99 151.298 109.645C150.599 110.288 149.787 110.698 148.861 110.875C147.948 111.056 146.996 110.987 146.007 110.667C144.636 110.223 143.7 109.416 143.196 108.244L141.602 113.173L139.223 112.403L143.703 98.5499L145.968 99.2823L145.537 100.614C146.086 100.259 146.685 100.054 147.334 99.9974C147.996 99.9451 148.675 100.032 149.373 100.257ZM146.399 108.544C147.274 108.827 148.085 108.767 148.832 108.364C149.592 107.965 150.125 107.29 150.433 106.339C150.741 105.387 150.704 104.527 150.322 103.759C149.952 102.995 149.33 102.471 148.454 102.188C147.883 102.004 147.327 101.971 146.784 102.09C146.245 102.196 145.764 102.446 145.342 102.842C144.92 103.238 144.606 103.753 144.401 104.388C144.196 105.022 144.148 105.623 144.259 106.192C144.369 106.76 144.61 107.251 144.98 107.665C145.355 108.067 145.828 108.36 146.399 108.544ZM157.431 102.99L159.81 103.759L156.524 113.921L154.145 113.151L157.431 102.99ZM159.172 101.703C158.741 101.563 158.422 101.313 158.216 100.952C158.015 100.579 157.98 100.189 158.111 99.7832C158.242 99.3773 158.497 99.0883 158.875 98.9162C159.257 98.7315 159.664 98.7089 160.095 98.8484C160.526 98.9879 160.845 99.238 161.05 99.5988C161.26 99.9469 161.301 100.318 161.174 100.711C161.039 101.129 160.778 101.438 160.392 101.635C160.023 101.824 159.616 101.846 159.172 101.703ZM169.385 112.237C170.518 113.023 170.883 114.038 170.481 115.282C170.186 116.195 169.615 116.788 168.77 117.062C167.925 117.335 166.83 117.254 165.486 116.819L160.31 115.145L163.596 104.983L168.563 106.59C169.806 106.992 170.703 107.534 171.253 108.216C171.803 108.899 171.942 109.659 171.672 110.496C171.503 111.016 171.218 111.421 170.816 111.712C170.426 112.006 169.949 112.181 169.385 112.237ZM164.488 109.959L166.981 110.766C168.212 111.164 168.964 110.938 169.239 110.088C169.506 109.263 169.024 108.652 167.793 108.254L165.3 107.447L164.488 109.959ZM165.855 115.026C167.162 115.448 167.953 115.235 168.228 114.385C168.371 113.941 168.326 113.562 168.091 113.248C167.86 112.921 167.422 112.653 166.775 112.443L163.977 111.539L163.134 114.146L165.855 115.026ZM175.949 108.978L178.328 109.748L176.992 113.877L182.111 115.533L183.446 111.403L185.825 112.172L182.539 122.334L180.16 121.565L181.459 117.55L176.34 115.894L175.041 119.909L172.662 119.14L175.949 108.978ZM189.584 113.388L191.963 114.157L189.796 120.856L197.576 115.973L199.746 116.675L196.459 126.836L194.081 126.067L196.247 119.369L188.486 124.258L186.298 123.55L189.584 113.388ZM205.772 125.35L203.926 124.753L202.609 128.825L200.23 128.056L203.516 117.894L205.895 118.663L204.566 122.774L206.469 123.389L210.805 120.251L213.355 121.076L208.081 124.772L210.316 131.318L207.518 130.413L205.772 125.35ZM219.489 122.933C220.986 123.418 222.01 124.148 222.563 125.126C223.133 126.095 223.184 127.302 222.716 128.749L220.789 134.705L218.544 133.979L218.944 132.742C218.509 133.091 217.979 133.299 217.356 133.363C216.749 133.419 216.065 133.324 215.304 133.078C214.543 132.832 213.918 132.49 213.429 132.051C212.944 131.6 212.617 131.095 212.448 130.536C212.295 129.968 212.313 129.392 212.502 128.809C212.797 127.895 213.369 127.274 214.218 126.946C215.084 126.61 216.246 126.677 217.705 127.149L220.331 127.998L220.38 127.846C220.61 127.136 220.571 126.52 220.262 126C219.967 125.484 219.4 125.091 218.563 124.82C217.992 124.636 217.399 124.542 216.783 124.539C216.18 124.54 215.637 124.638 215.154 124.832L214.782 122.799C215.446 122.565 216.187 122.461 217.005 122.488C217.824 122.514 218.651 122.663 219.489 122.933ZM216.359 131.506C216.955 131.699 217.525 131.736 218.067 131.617C218.627 131.49 219.084 131.204 219.439 130.758L219.82 129.578L217.365 128.784C215.995 128.341 215.164 128.57 214.873 129.47C214.734 129.902 214.794 130.3 215.055 130.664C215.315 131.029 215.75 131.309 216.359 131.506ZM234.294 139.073L236.473 132.336L231.214 136.899L230.186 136.567L228.658 129.788L226.473 136.543L224.304 135.841L227.59 125.68L230.083 126.486L231.643 134.011L237.486 128.88L239.712 129.6L236.445 139.768L234.294 139.073ZM243.493 130.823L245.871 131.592L243.705 138.29L251.485 133.407L253.654 134.109L250.368 144.271L247.989 143.502L250.156 136.803L242.395 141.692L240.206 140.984L243.493 130.823ZM263.255 137.214L265.634 137.983L262.347 148.145L259.969 147.376L263.255 137.214ZM264.996 135.927C264.564 135.788 264.246 135.538 264.04 135.177C263.839 134.803 263.803 134.414 263.935 134.008C264.066 133.602 264.321 133.313 264.699 133.141C265.081 132.956 265.487 132.933 265.919 133.073C266.35 133.212 266.668 133.462 266.874 133.823C267.084 134.171 267.125 134.542 266.998 134.935C266.863 135.354 266.602 135.662 266.216 135.859C265.846 136.048 265.44 136.071 264.996 135.927ZM284.993 144.244L281.706 154.406L279.347 153.643L281.981 145.498L276.976 143.88L274.342 152.024L271.963 151.255L275.25 141.093L284.993 144.244ZM288.773 145.467L291.152 146.236L287.866 156.398L285.487 155.629L288.773 145.467ZM290.514 144.18C290.082 144.04 289.764 143.79 289.558 143.43C289.357 143.056 289.322 142.666 289.453 142.26C289.584 141.854 289.839 141.565 290.217 141.393C290.599 141.209 291.006 141.186 291.437 141.326C291.868 141.465 292.187 141.715 292.392 142.076C292.602 142.424 292.643 142.795 292.516 143.188C292.381 143.607 292.12 143.915 291.734 144.112C291.364 144.301 290.958 144.324 290.514 144.18ZM303.151 159.113L301.766 163.395L299.539 162.675L300.272 160.41L292.432 157.875L291.699 160.139L289.492 159.425L290.877 155.144L291.352 155.297C292.007 155.481 292.579 155.211 293.065 154.485C293.569 153.751 294.097 152.661 294.649 151.214L295.908 147.774L304.281 150.482L301.647 158.627L303.151 159.113ZM296.763 152.087C296.335 153.237 295.932 154.158 295.554 154.849C295.177 155.539 294.747 156.003 294.264 156.239L299.269 157.858L301.25 151.73L297.349 150.469L296.763 152.087ZM317.69 154.819L314.404 164.981L312.025 164.211L314.659 156.067L310.853 154.836L310.106 156.822C309.608 158.146 309.115 159.235 308.63 160.086C308.161 160.93 307.618 161.546 307.002 161.935C306.402 162.316 305.722 162.383 304.961 162.137C304.606 162.022 304.19 161.811 303.715 161.503L304.476 159.542C304.641 159.637 304.787 159.706 304.914 159.747C305.396 159.902 305.819 159.829 306.183 159.526C306.552 159.211 306.854 158.797 307.089 158.285C307.342 157.764 307.656 157.011 308.03 156.025L309.47 152.16L317.69 154.819ZM329.318 164.255C329.264 164.42 329.176 164.65 329.052 164.947L321.079 162.368C320.976 163.161 321.145 163.875 321.585 164.507C322.042 165.132 322.708 165.585 323.583 165.868C324.699 166.229 325.738 166.159 326.699 165.657L327.5 167.535C326.867 167.932 326.157 168.158 325.369 168.211C324.581 168.265 323.749 168.15 322.874 167.867C321.757 167.506 320.846 166.966 320.139 166.247C319.433 165.528 318.972 164.699 318.757 163.761C318.559 162.814 318.622 161.84 318.946 160.837C319.266 159.848 319.775 159.032 320.474 158.389C321.189 157.737 322.018 157.319 322.961 157.133C323.904 156.947 324.876 157.017 325.878 157.341C326.868 157.661 327.678 158.168 328.308 158.862C328.955 159.548 329.365 160.36 329.538 161.299C329.728 162.229 329.654 163.214 329.318 164.255ZM325.263 159.244C324.502 158.998 323.781 159.017 323.1 159.301C322.437 159.577 321.927 160.071 321.57 160.782L327.336 162.647C327.473 161.878 327.355 161.182 326.982 160.557C326.61 159.932 326.037 159.494 325.263 159.244ZM341.302 164.683L335.878 162.929L333.244 171.074L330.866 170.305L334.152 160.143L341.954 162.666L341.302 164.683ZM352.779 166.167L349.493 176.329L347.114 175.559L349.748 167.415L345.942 166.184L345.195 168.17C344.696 169.495 344.204 170.583 343.719 171.434C343.25 172.278 342.707 172.894 342.091 173.283C341.491 173.664 340.811 173.731 340.05 173.485C339.694 173.37 339.279 173.159 338.804 172.851L339.565 170.89C339.73 170.985 339.876 171.054 340.003 171.095C340.485 171.25 340.908 171.177 341.272 170.874C341.64 170.559 341.942 170.145 342.178 169.633C342.431 169.112 342.744 168.359 343.119 167.373L344.558 163.508L352.779 166.167ZM356.553 167.388L358.932 168.157L356.766 174.855L364.546 169.972L366.715 170.674L363.429 180.836L361.05 180.067L363.216 173.368L355.455 178.257L353.267 177.549L356.553 167.388ZM377.19 185.286L379.369 178.55L374.109 183.113L373.082 182.781L371.554 176.001L369.369 182.757L367.2 182.055L370.486 171.894L372.979 172.7L374.539 180.225L380.381 175.094L382.608 175.814L379.34 185.982L377.19 185.286ZM386.388 177.036L388.767 177.806L386.601 184.504L394.381 179.621L396.55 180.323L393.264 190.485L390.885 189.715L393.051 183.017L385.29 187.906L383.102 187.198L386.388 177.036ZM398.755 188.918C399.199 189.062 399.52 189.327 399.717 189.713C399.915 190.099 399.937 190.527 399.786 190.996C399.72 191.199 399.618 191.405 399.481 191.613C399.361 191.812 399.14 192.105 398.819 192.491L396.98 194.861L395.439 194.362L397.142 191.697C396.9 191.492 396.735 191.243 396.648 190.949C396.578 190.646 396.596 190.329 396.703 189.999C396.855 189.53 397.124 189.197 397.51 188.999C397.896 188.802 398.311 188.775 398.755 188.918ZM415.862 191.95C416.439 192.333 416.833 192.782 417.045 193.299C417.273 193.807 417.296 194.34 417.116 194.899C416.915 195.52 416.527 196.004 415.952 196.351C415.382 196.685 414.686 196.866 413.864 196.895C413.042 196.923 412.161 196.786 411.223 196.482C410.436 196.228 409.697 195.891 409.006 195.471C408.319 195.039 407.727 194.553 407.229 194.013L408.486 192.465C408.89 192.904 409.379 193.3 409.951 193.654C410.524 194.007 411.121 194.284 411.742 194.485C412.542 194.743 413.202 194.824 413.724 194.727C414.263 194.621 414.602 194.352 414.742 193.921C414.869 193.527 414.79 193.165 414.504 192.835C414.231 192.508 413.778 192.243 413.144 192.037L411.164 191.397L411.681 189.799L413.47 190.377C414.066 190.57 414.562 190.618 414.958 190.522C415.366 190.43 415.63 190.2 415.749 189.832C415.868 189.464 415.759 189.107 415.423 188.76C415.087 188.413 414.563 188.124 413.853 187.895C412.838 187.566 411.686 187.467 410.397 187.597L410.354 185.649C411.887 185.458 413.332 185.582 414.69 186.021C415.552 186.3 416.287 186.671 416.894 187.134C417.506 187.584 417.932 188.086 418.173 188.64C418.431 189.186 418.472 189.732 418.295 190.277C418.135 190.772 417.839 191.167 417.408 191.462C416.98 191.744 416.465 191.906 415.862 191.95ZM121.374 116.552L118.088 126.714L115.728 125.951L118.362 117.806L113.357 116.188L110.723 124.332L108.345 123.563L111.631 113.401L121.374 116.552ZM128.978 118.886C130.475 119.37 131.5 120.1 132.053 121.078C132.622 122.047 132.673 123.254 132.206 124.701L130.279 130.657L128.034 129.931L128.434 128.694C127.998 129.044 127.469 129.251 126.846 129.315C126.239 129.371 125.555 129.276 124.794 129.03C124.033 128.784 123.408 128.442 122.919 128.003C122.434 127.552 122.107 127.047 121.937 126.488C121.785 125.92 121.803 125.344 121.992 124.761C122.287 123.847 122.859 123.226 123.708 122.898C124.573 122.562 125.736 122.629 127.195 123.101L129.821 123.95L129.87 123.798C130.1 123.088 130.061 122.473 129.752 121.952C129.457 121.436 128.89 121.043 128.053 120.772C127.482 120.588 126.889 120.494 126.273 120.491C125.67 120.492 125.127 120.59 124.644 120.784L124.272 118.751C124.936 118.517 125.677 118.413 126.495 118.44C127.313 118.466 128.141 118.615 128.978 118.886ZM125.849 127.458C126.445 127.651 127.014 127.688 127.557 127.57C128.117 127.442 128.574 127.156 128.928 126.71L129.31 125.53L126.855 124.736C125.485 124.293 124.654 124.522 124.363 125.422C124.223 125.854 124.284 126.252 124.544 126.616C124.805 126.981 125.24 127.261 125.849 127.458ZM142.75 123.339C143.739 123.659 144.551 124.16 145.186 124.842C145.833 125.527 146.251 126.335 146.441 127.266C146.63 128.196 146.559 129.175 146.227 130.202C145.894 131.23 145.377 132.071 144.674 132.727C143.976 133.37 143.164 133.78 142.238 133.957C141.324 134.138 140.373 134.068 139.383 133.748C138.013 133.305 137.076 132.498 136.572 131.326L134.978 136.255L132.6 135.485L137.08 121.632L139.345 122.364L138.914 123.696C139.463 123.341 140.062 123.136 140.711 123.079C141.372 123.027 142.052 123.114 142.75 123.339ZM139.775 131.626C140.651 131.909 141.462 131.849 142.209 131.446C142.969 131.047 143.502 130.372 143.81 129.421C144.118 128.469 144.08 127.609 143.698 126.841C143.329 126.077 142.706 125.553 141.831 125.27C141.26 125.086 140.703 125.053 140.16 125.171C139.622 125.277 139.141 125.528 138.719 125.924C138.296 126.32 137.983 126.835 137.778 127.47C137.572 128.104 137.525 128.705 137.636 129.274C137.746 129.842 137.987 130.333 138.357 130.747C138.732 131.148 139.205 131.442 139.775 131.626ZM157.834 130.572L154.275 129.421L151.641 137.566L149.262 136.796L151.896 128.652L148.319 127.495L148.971 125.477L158.486 128.555L157.834 130.572ZM160.782 129.297L163.161 130.067L161.826 134.196L166.944 135.852L168.28 131.722L170.659 132.491L167.372 142.653L164.994 141.884L166.292 137.869L161.173 136.213L159.875 140.228L157.496 139.459L160.782 129.297ZM182.271 141.922C182.217 142.087 182.129 142.318 182.005 142.614L174.031 140.035C173.929 140.829 174.098 141.542 174.538 142.175C174.994 142.799 175.66 143.253 176.536 143.536C177.652 143.897 178.691 143.826 179.652 143.324L180.453 145.202C179.82 145.6 179.109 145.825 178.321 145.879C177.533 145.932 176.702 145.818 175.826 145.534C174.71 145.173 173.798 144.633 173.092 143.914C172.386 143.196 171.925 142.367 171.71 141.429C171.512 140.482 171.575 139.507 171.899 138.505C172.219 137.515 172.728 136.699 173.426 136.056C174.142 135.405 174.971 134.986 175.914 134.8C176.856 134.615 177.829 134.684 178.831 135.008C179.821 135.328 180.631 135.836 181.261 136.53C181.908 137.216 182.318 138.028 182.491 138.967C182.68 139.897 182.607 140.882 182.271 141.922ZM178.216 136.911C177.455 136.665 176.734 136.684 176.053 136.969C175.389 137.244 174.879 137.738 174.523 138.45L180.289 140.314C180.426 139.546 180.308 138.849 179.935 138.224C179.563 137.599 178.99 137.162 178.216 136.911ZM192.774 139.518C193.764 139.838 194.576 140.339 195.21 141.02C195.857 141.706 196.276 142.514 196.465 143.444C196.655 144.374 196.584 145.353 196.251 146.381C195.919 147.408 195.402 148.25 194.699 148.905C194.001 149.548 193.188 149.958 192.262 150.135C191.349 150.316 190.398 150.247 189.408 149.927C188.038 149.484 187.101 148.676 186.597 147.504L185.003 152.433L182.624 151.664L187.105 137.81L189.369 138.543L188.938 139.875C189.488 139.52 190.087 139.314 190.736 139.258C191.397 139.205 192.077 139.292 192.774 139.518ZM189.8 147.805C190.675 148.088 191.487 148.028 192.234 147.625C192.993 147.226 193.527 146.551 193.835 145.599C194.142 144.648 194.105 143.788 193.723 143.02C193.353 142.255 192.731 141.732 191.856 141.449C191.285 141.264 190.728 141.231 190.185 141.35C189.646 141.456 189.166 141.707 188.743 142.103C188.321 142.499 188.007 143.014 187.802 143.648C187.597 144.282 187.55 144.884 187.66 145.452C187.771 146.02 188.011 146.511 188.382 146.926C188.756 147.327 189.229 147.62 189.8 147.805ZM204.527 143.318C206.024 143.803 207.048 144.533 207.601 145.511C208.171 146.48 208.221 147.687 207.754 149.134L205.827 155.09L203.582 154.364L203.982 153.127C203.547 153.476 203.017 153.684 202.394 153.748C201.787 153.804 201.103 153.709 200.342 153.463C199.581 153.217 198.956 152.875 198.467 152.436C197.982 151.985 197.655 151.48 197.486 150.921C197.333 150.353 197.351 149.777 197.54 149.194C197.835 148.28 198.407 147.659 199.256 147.331C200.122 146.995 201.284 147.062 202.743 147.534L205.369 148.383L205.418 148.231C205.648 147.521 205.609 146.905 205.3 146.385C205.005 145.869 204.438 145.476 203.601 145.205C203.03 145.021 202.437 144.927 201.821 144.924C201.218 144.925 200.675 145.023 200.192 145.217L199.82 143.184C200.484 142.95 201.225 142.846 202.043 142.873C202.861 142.899 203.689 143.048 204.527 143.318ZM201.397 151.891C201.993 152.084 202.562 152.121 203.105 152.003C203.665 151.875 204.122 151.589 204.476 151.143L204.858 149.963L202.403 149.169C201.033 148.726 200.202 148.955 199.911 149.855C199.772 150.287 199.832 150.685 200.093 151.049C200.353 151.414 200.788 151.694 201.397 151.891ZM219.332 159.458L221.511 152.721L216.252 157.284L215.224 156.952L213.696 150.173L211.511 156.928L209.342 156.227L212.628 146.065L215.121 146.871L216.681 154.396L222.524 149.265L224.75 149.985L221.483 160.153L219.332 159.458ZM228.531 151.208L230.909 151.977L228.743 158.675L236.523 153.793L238.692 154.494L235.406 164.656L233.027 163.887L235.194 157.188L227.432 162.077L225.244 161.369L228.531 151.208ZM248.293 157.599L250.672 158.368L248.505 165.067L256.285 160.184L258.455 160.885L255.168 171.047L252.79 170.278L254.956 163.58L247.195 168.469L245.007 167.761L248.293 157.599ZM253.609 157.994C252.582 157.662 251.871 157.173 251.477 156.527C251.101 155.873 251.053 155.087 251.336 154.169L252.916 154.68C252.781 155.141 252.803 155.547 252.983 155.9C253.176 156.257 253.52 156.515 254.015 156.675C254.497 156.831 254.921 156.821 255.286 156.645C255.664 156.473 255.933 156.16 256.094 155.708L257.711 156.231C257.403 157.14 256.898 157.748 256.197 158.053C255.499 158.346 254.637 158.327 253.609 157.994ZM276.268 175.643L274.884 179.925L272.657 179.205L273.389 176.94L265.549 174.405L264.817 176.669L262.609 175.955L263.994 171.674L264.47 171.827C265.125 172.011 265.696 171.741 266.183 171.015C266.687 170.281 267.214 169.191 267.767 167.744L269.026 164.304L277.399 167.012L274.765 175.157L276.268 175.643ZM269.881 168.617C269.452 169.767 269.049 170.688 268.672 171.379C268.294 172.069 267.864 172.533 267.381 172.769L272.386 174.388L274.368 168.26L270.467 166.998L269.881 168.617ZM287.267 170.078C288.257 170.398 289.069 170.898 289.703 171.58C290.35 172.266 290.769 173.074 290.958 174.004C291.148 174.934 291.077 175.913 290.744 176.941C290.412 177.968 289.894 178.81 289.192 179.465C288.494 180.108 287.681 180.518 286.755 180.695C285.842 180.876 284.89 180.807 283.901 180.487C282.531 180.044 281.594 179.236 281.09 178.064L279.496 182.993L277.117 182.224L281.598 168.37L283.862 169.102L283.431 170.435C283.981 170.08 284.58 169.874 285.228 169.818C285.89 169.765 286.57 169.852 287.267 170.078ZM284.293 178.364C285.168 178.648 285.98 178.588 286.726 178.185C287.486 177.786 288.02 177.11 288.327 176.159C288.635 175.207 288.598 174.348 288.216 173.579C287.846 172.815 287.224 172.292 286.349 172.009C285.778 171.824 285.221 171.791 284.678 171.91C284.139 172.016 283.659 172.267 283.236 172.663C282.814 173.059 282.5 173.574 282.295 174.208C282.09 174.842 282.043 175.444 282.153 176.012C282.264 176.58 282.504 177.071 282.875 177.485C283.249 177.887 283.722 178.18 284.293 178.364ZM304.638 175.822L296.329 185.263C295.528 186.223 294.739 186.823 293.961 187.062C293.179 187.313 292.338 187.293 291.437 187.002C290.93 186.838 290.455 186.593 290.014 186.268C289.572 185.943 289.24 185.584 289.017 185.189L290.535 183.746C290.694 184.036 290.905 184.293 291.168 184.519C291.444 184.748 291.741 184.914 292.058 185.017C292.477 185.152 292.854 185.155 293.19 185.025C293.539 184.9 293.91 184.621 294.302 184.187L294.603 183.843L293.468 172.209L295.941 173.009L296.707 181.56L302.354 175.083L304.638 175.822ZM311.114 183.297C311.691 183.68 312.085 184.13 312.296 184.646C312.524 185.155 312.548 185.688 312.368 186.246C312.167 186.868 311.779 187.352 311.204 187.698C310.634 188.032 309.938 188.214 309.116 188.242C308.294 188.271 307.413 188.133 306.475 187.829C305.688 187.575 304.949 187.238 304.258 186.818C303.571 186.386 302.979 185.9 302.48 185.361L303.738 183.812C304.142 184.251 304.631 184.648 305.203 185.001C305.776 185.354 306.373 185.631 306.994 185.832C307.793 186.091 308.454 186.171 308.976 186.074C309.515 185.968 309.854 185.699 309.993 185.268C310.121 184.875 310.041 184.513 309.756 184.182C309.483 183.856 309.03 183.59 308.395 183.385L306.416 182.745L306.933 181.146L308.722 181.725C309.318 181.918 309.814 181.966 310.21 181.87C310.618 181.777 310.881 181.547 311 181.179C311.119 180.811 311.011 180.454 310.675 180.107C310.338 179.76 309.815 179.472 309.105 179.242C308.09 178.914 306.938 178.814 305.649 178.944L305.606 176.996C307.139 176.806 308.584 176.93 309.942 177.369C310.804 177.648 311.539 178.018 312.146 178.481C312.758 178.931 313.184 179.433 313.425 179.988C313.683 180.533 313.723 181.079 313.547 181.625C313.387 182.119 313.091 182.514 312.659 182.809C312.232 183.091 311.717 183.254 311.114 183.297ZM326.309 182.83L323.023 192.992L320.892 192.303L321.883 189.239L319.199 188.371L316.134 190.764L313.584 189.94L317.078 187.328C316.424 186.836 315.984 186.267 315.759 185.619C315.551 184.963 315.572 184.248 315.822 183.475C316.2 182.307 316.903 181.54 317.933 181.172C318.963 180.805 320.201 180.855 321.647 181.323L326.309 182.83ZM321.077 183.345C319.542 182.849 318.588 183.178 318.214 184.332C317.845 185.474 318.403 186.285 319.887 186.765L322.418 187.583L323.532 184.139L321.077 183.345ZM336.784 197.443L338.963 190.706L333.703 195.269L332.676 194.937L331.148 188.158L328.963 194.913L326.794 194.212L330.08 184.05L332.573 184.856L334.133 192.381L339.975 187.25L342.202 187.97L338.934 198.138L336.784 197.443ZM345.982 189.193L348.361 189.962L346.195 196.66L353.975 191.778L356.144 192.479L352.858 202.641L350.479 201.872L352.645 195.173L344.884 200.062L342.696 199.354L345.982 189.193ZM357.308 204.227C356.877 204.088 356.556 203.823 356.346 203.433C356.14 203.03 356.111 202.6 356.259 202.143C356.411 201.674 356.68 201.341 357.066 201.143C357.465 200.95 357.886 200.925 358.33 201.069C358.774 201.212 359.095 201.477 359.292 201.863C359.502 202.253 359.531 202.683 359.38 203.153C359.232 203.609 358.957 203.941 358.554 204.147C358.155 204.34 357.74 204.367 357.308 204.227ZM98.1677 156.006L108.539 159.36L107.88 161.396L99.945 158.83L98.8864 162.103L102.826 163.377C104.424 163.894 105.527 164.622 106.134 165.561C106.758 166.491 106.867 167.584 106.461 168.84C106.034 170.16 105.247 171.033 104.1 171.461C102.956 171.876 101.541 171.811 99.854 171.265L93.8596 169.326L98.1677 156.006ZM100.336 169.319C101.288 169.627 102.07 169.677 102.684 169.469C103.298 169.261 103.717 168.808 103.943 168.11C104.386 166.74 103.637 165.741 101.696 165.113L98.271 164.006L96.9109 168.211L100.336 169.319ZM120.774 166.806L112.466 176.248C111.665 177.208 110.875 177.807 110.097 178.046C109.315 178.298 108.474 178.278 107.573 177.986C107.066 177.822 106.591 177.578 106.15 177.253C105.709 176.928 105.376 176.568 105.154 176.174L106.671 174.731C106.83 175.02 107.041 175.278 107.304 175.503C107.581 175.733 107.877 175.899 108.194 176.001C108.613 176.137 108.99 176.14 109.327 176.01C109.675 175.885 110.046 175.605 110.439 175.172L110.739 174.827L109.604 163.194L112.078 163.994L112.844 172.544L118.491 166.068L120.774 166.806ZM130.578 178.973L129.193 183.255L126.967 182.535L127.699 180.27L119.859 177.735L119.127 179.999L116.919 179.285L118.304 175.004L118.78 175.158C119.435 175.342 120.006 175.071 120.493 174.345C120.997 173.611 121.524 172.521 122.076 171.074L123.336 167.635L131.709 170.343L129.075 178.487L130.578 178.973ZM124.19 171.947C123.762 173.098 123.359 174.018 122.982 174.709C122.604 175.4 122.174 175.863 121.691 176.099L126.696 177.718L128.678 171.59L124.777 170.329L124.19 171.947ZM143.761 179.916C143.707 180.081 143.619 180.311 143.495 180.607L135.522 178.029C135.419 178.822 135.588 179.536 136.028 180.168C136.485 180.792 137.151 181.246 138.026 181.529C139.142 181.89 140.181 181.82 141.142 181.318L141.943 183.195C141.31 183.593 140.6 183.819 139.812 183.872C139.024 183.926 138.192 183.811 137.317 183.528C136.2 183.167 135.289 182.627 134.582 181.908C133.876 181.189 133.415 180.36 133.2 179.422C133.002 178.475 133.065 177.5 133.389 176.498C133.709 175.509 134.218 174.692 134.917 174.049C135.632 173.398 136.461 172.979 137.404 172.794C138.347 172.608 139.319 172.678 140.321 173.002C141.311 173.322 142.121 173.829 142.751 174.523C143.398 175.209 143.808 176.021 143.981 176.96C144.171 177.89 144.097 178.875 143.761 179.916ZM139.706 174.905C138.945 174.659 138.224 174.678 137.543 174.962C136.88 175.238 136.37 175.732 136.013 176.443L141.779 178.308C141.916 177.539 141.798 176.842 141.425 176.218C141.053 175.593 140.48 175.155 139.706 174.905ZM155.299 189.196L157.478 182.46L152.218 187.023L151.191 186.691L149.663 179.912L147.478 186.667L145.309 185.965L148.595 175.804L151.088 176.61L152.648 184.135L158.49 179.004L160.717 179.724L157.449 189.892L155.299 189.196ZM165.697 192.706C164.669 192.374 163.815 191.852 163.134 191.142C162.453 190.431 162.005 189.607 161.79 188.668C161.592 187.721 161.655 186.747 161.979 185.744C162.303 184.742 162.82 183.922 163.532 183.283C164.255 182.648 165.101 182.242 166.07 182.065C167.038 181.887 168.036 181.965 169.063 182.297C170.104 182.634 170.964 183.157 171.645 183.868C172.326 184.579 172.768 185.401 172.97 186.335C173.185 187.274 173.131 188.244 172.807 189.246C172.482 190.248 171.956 191.073 171.229 191.721C170.517 192.36 169.678 192.768 168.71 192.945C167.741 193.122 166.737 193.043 165.697 192.706ZM166.355 190.67C167.231 190.953 168.048 190.895 168.808 190.496C169.567 190.097 170.101 189.422 170.409 188.471C170.717 187.519 170.679 186.659 170.297 185.891C169.915 185.123 169.286 184.597 168.411 184.314C167.536 184.031 166.718 184.089 165.958 184.488C165.212 184.891 164.684 185.568 164.376 186.52C164.069 187.471 164.1 188.329 164.469 189.093C164.851 189.861 165.48 190.387 166.355 190.67ZM188.989 194.249C190.122 195.035 190.488 196.05 190.086 197.294C189.79 198.207 189.22 198.8 188.375 199.074C187.53 199.347 186.435 199.266 185.09 198.831L179.914 197.157L183.201 186.995L188.167 188.602C189.411 189.004 190.307 189.546 190.857 190.228C191.407 190.911 191.547 191.671 191.276 192.508C191.108 193.028 190.823 193.433 190.421 193.724C190.031 194.018 189.554 194.193 188.989 194.249ZM184.093 191.971L186.586 192.778C187.816 193.176 188.569 192.95 188.844 192.1C189.11 191.275 188.628 190.664 187.398 190.266L184.905 189.459L184.093 191.971ZM185.46 197.038C186.767 197.461 187.557 197.247 187.832 196.397C187.976 195.953 187.93 195.574 187.696 195.26C187.465 194.933 187.026 194.665 186.379 194.456L183.582 193.551L182.739 196.158L185.46 197.038ZM204.174 193.778L200.887 203.94L198.509 203.171L199.783 199.232C198.654 199.385 197.557 199.29 196.491 198.945C195.184 198.522 194.279 197.9 193.774 197.078C193.273 196.244 193.224 195.205 193.626 193.961L194.678 190.707L197.057 191.477L196.054 194.578C195.844 195.225 195.879 195.769 196.157 196.209C196.435 196.65 196.923 196.983 197.62 197.208C198.508 197.495 199.42 197.58 200.355 197.462L201.795 193.009L204.174 193.778ZM207.943 194.997L210.322 195.767L208.156 202.465L215.936 197.582L218.105 198.284L214.819 208.446L212.44 207.676L214.606 200.978L206.845 205.867L204.657 205.159L207.943 194.997ZM229.273 204.124L225.715 202.973L223.08 211.118L220.702 210.348L223.336 202.204L219.758 201.047L220.411 199.029L229.925 202.107L229.273 204.124ZM232.222 202.849L234.6 203.619L232.434 210.317L240.214 205.434L242.384 206.136L239.097 216.298L236.718 215.528L238.885 208.83L231.124 213.719L228.935 213.011L232.222 202.849ZM247.449 219.146C246.396 218.805 245.523 218.277 244.829 217.563C244.135 216.848 243.681 216.021 243.466 215.083C243.255 214.132 243.311 213.155 243.636 212.153C243.96 211.151 244.484 210.332 245.207 209.698C245.931 209.063 246.777 208.657 247.745 208.479C248.726 208.306 249.75 208.392 250.815 208.737C251.818 209.061 252.627 209.547 253.244 210.195C253.874 210.847 254.256 211.615 254.391 212.499L252.219 212.974C252.079 212.41 251.824 211.943 251.454 211.571C251.101 211.19 250.664 210.916 250.144 210.748C249.256 210.46 248.426 210.514 247.653 210.909C246.885 211.291 246.345 211.964 246.033 212.928C245.722 213.893 245.757 214.759 246.139 215.527C246.538 216.287 247.188 216.812 248.088 217.103C248.609 217.272 249.121 217.311 249.626 217.222C250.148 217.125 250.631 216.889 251.075 216.514L252.557 218.17C251.917 218.804 251.149 219.207 250.253 219.38C249.373 219.544 248.438 219.466 247.449 219.146ZM266.086 213.801L262.799 223.963L260.668 223.274L261.659 220.21L258.976 219.342L255.911 221.735L253.361 220.911L256.854 218.299C256.2 217.807 255.761 217.238 255.536 216.59C255.328 215.934 255.349 215.219 255.599 214.446C255.976 213.278 256.68 212.511 257.71 212.143C258.739 211.776 259.977 211.826 261.424 212.293L266.086 213.801ZM260.854 214.316C259.318 213.82 258.364 214.149 257.991 215.303C257.622 216.445 258.179 217.256 259.663 217.736L262.194 218.554L263.308 215.11L260.854 214.316ZM276.981 228.697C275.928 228.356 275.055 227.828 274.361 227.114C273.667 226.399 273.213 225.572 272.998 224.634C272.787 223.683 272.844 222.706 273.168 221.704C273.492 220.702 274.016 219.883 274.74 219.249C275.464 218.614 276.309 218.208 277.278 218.03C278.259 217.857 279.282 217.943 280.348 218.288C281.35 218.612 282.159 219.098 282.777 219.746C283.407 220.398 283.789 221.166 283.923 222.05L281.752 222.525C281.612 221.961 281.357 221.494 280.986 221.122C280.633 220.741 280.196 220.467 279.676 220.299C278.788 220.011 277.958 220.065 277.186 220.46C276.417 220.842 275.877 221.515 275.566 222.479C275.254 223.444 275.289 224.31 275.671 225.078C276.07 225.838 276.72 226.363 277.621 226.654C278.141 226.823 278.653 226.862 279.159 226.773C279.681 226.676 280.163 226.44 280.607 226.065L282.089 227.721C281.45 228.355 280.682 228.758 279.785 228.931C278.905 229.095 277.971 229.017 276.981 228.697ZM297.058 223.818L293.771 233.98L291.412 233.217L294.046 225.072L289.041 223.453L286.407 231.598L284.028 230.829L287.315 220.667L297.058 223.818ZM300.838 225.041L303.217 225.81L299.93 235.972L297.552 235.202L300.838 225.041ZM302.579 223.754C302.147 223.614 301.829 223.364 301.623 223.003C301.422 222.63 301.387 222.24 301.518 221.834C301.649 221.428 301.904 221.139 302.282 220.967C302.664 220.782 303.07 220.76 303.502 220.899C303.933 221.039 304.252 221.289 304.457 221.65C304.667 221.998 304.708 222.368 304.581 222.762C304.446 223.18 304.185 223.488 303.799 223.686C303.429 223.875 303.023 223.897 302.579 223.754ZM316.213 230.013L312.927 240.175L310.548 239.405L313.182 231.261L309.376 230.03L308.629 232.016C308.13 233.34 307.638 234.429 307.152 235.28C306.684 236.124 306.141 236.74 305.525 237.129C304.925 237.51 304.245 237.577 303.483 237.331C303.128 237.216 302.713 237.005 302.238 236.697L302.999 234.736C303.164 234.831 303.31 234.899 303.437 234.941C303.919 235.096 304.342 235.023 304.706 234.72C305.074 234.405 305.376 233.991 305.612 233.479C305.865 232.958 306.178 232.205 306.553 231.219L307.992 227.354L316.213 230.013ZM322.243 238.689L320.397 238.092L319.08 242.165L316.701 241.395L319.987 231.234L322.366 232.003L321.037 236.113L322.94 236.729L327.276 233.591L329.826 234.415L324.552 238.112L326.787 244.657L323.989 243.752L322.243 238.689ZM341.336 238.138L333.028 247.58C332.227 248.54 331.438 249.139 330.66 249.378C329.878 249.63 329.036 249.61 328.136 249.318C327.628 249.154 327.154 248.91 326.712 248.585C326.271 248.26 325.939 247.9 325.716 247.506L327.234 246.063C327.392 246.352 327.603 246.61 327.867 246.835C328.143 247.065 328.439 247.231 328.757 247.333C329.175 247.469 329.553 247.472 329.889 247.342C330.238 247.217 330.608 246.937 331.001 246.503L331.301 246.159L330.166 234.525L332.64 235.326L333.406 243.876L339.053 237.4L341.336 238.138ZM349.348 246.11C350.481 246.897 350.847 247.912 350.445 249.155C350.149 250.069 349.579 250.662 348.734 250.935C347.889 251.209 346.794 251.128 345.449 250.693L340.273 249.019L343.56 238.857L348.526 240.463C349.77 240.865 350.666 241.408 351.216 242.09C351.766 242.772 351.906 243.532 351.635 244.369C351.467 244.89 351.182 245.295 350.779 245.585C350.39 245.88 349.913 246.055 349.348 246.11ZM344.452 243.833L346.945 244.639C348.175 245.037 348.928 244.811 349.203 243.961C349.469 243.137 348.987 242.525 347.757 242.127L345.264 241.321L344.452 243.833ZM345.819 248.9C347.126 249.322 347.916 249.108 348.191 248.258C348.335 247.814 348.289 247.435 348.055 247.121C347.824 246.794 347.385 246.526 346.738 246.317L343.941 245.412L343.098 248.019L345.819 248.9ZM359.736 243.963C361.233 244.447 362.258 245.178 362.811 246.155C363.38 247.124 363.431 248.332 362.963 249.778L361.037 255.734L358.792 255.008L359.192 253.771C358.756 254.121 358.227 254.328 357.603 254.392C356.997 254.448 356.313 254.353 355.552 254.107C354.79 253.861 354.165 253.519 353.676 253.08C353.192 252.629 352.865 252.124 352.695 251.565C352.543 250.997 352.561 250.421 352.749 249.838C353.045 248.924 353.617 248.303 354.466 247.975C355.331 247.639 356.493 247.706 357.952 248.178L360.579 249.028L360.628 248.875C360.857 248.165 360.818 247.55 360.51 247.029C360.214 246.514 359.648 246.12 358.811 245.849C358.24 245.665 357.647 245.571 357.031 245.568C356.428 245.569 355.885 245.667 355.402 245.861L355.029 243.828C355.693 243.594 356.435 243.49 357.253 243.517C358.071 243.543 358.899 243.692 359.736 243.963ZM356.606 252.535C357.203 252.728 357.772 252.765 358.315 252.647C358.875 252.519 359.332 252.233 359.686 251.787L360.068 250.607L357.613 249.813C356.243 249.37 355.412 249.599 355.121 250.499C354.981 250.931 355.042 251.329 355.302 251.693C355.563 252.058 355.997 252.338 356.606 252.535ZM375.235 251.329L371.676 250.178L369.042 258.323L366.664 257.554L369.298 249.409L365.72 248.252L366.373 246.235L375.887 249.312L375.235 251.329ZM378.184 250.055L380.562 250.824L378.396 257.522L386.176 252.64L388.345 253.341L385.059 263.503L382.68 262.734L384.847 256.035L377.086 260.924L374.897 260.217L378.184 250.055ZM393.411 266.351C392.358 266.011 391.485 265.483 390.791 264.768C390.097 264.053 389.643 263.227 389.428 262.288C389.217 261.337 389.273 260.361 389.598 259.358C389.922 258.356 390.446 257.538 391.169 256.903C391.893 256.268 392.739 255.862 393.707 255.685C394.688 255.512 395.712 255.597 396.777 255.942C397.779 256.266 398.589 256.752 399.206 257.4C399.836 258.052 400.218 258.821 400.353 259.705L398.181 260.18C398.041 259.616 397.786 259.148 397.416 258.776C397.063 258.396 396.626 258.121 396.106 257.953C395.218 257.666 394.388 257.72 393.615 258.114C392.847 258.497 392.307 259.17 391.995 260.134C391.683 261.098 391.719 261.964 392.101 262.732C392.5 263.492 393.15 264.018 394.05 264.309C394.57 264.477 395.083 264.517 395.588 264.428C396.11 264.33 396.593 264.094 397.037 263.719L398.519 265.376C397.879 266.01 397.111 266.413 396.215 266.585C395.335 266.749 394.4 266.671 393.411 266.351ZM412.048 261.007L408.761 271.169L406.63 270.479L407.621 267.415L404.938 266.548L401.873 268.941L399.323 268.116L402.816 265.504C402.162 265.012 401.723 264.443 401.498 263.796C401.289 263.14 401.31 262.425 401.561 261.651C401.938 260.484 402.642 259.716 403.672 259.349C404.701 258.981 405.939 259.031 407.386 259.499L412.048 261.007ZM406.815 261.522C405.28 261.025 404.326 261.354 403.953 262.509C403.584 263.65 404.141 264.461 405.625 264.941L408.156 265.76L409.27 262.316L406.815 261.522ZM426.143 270.946C426.72 271.329 427.114 271.779 427.325 272.296C427.553 272.804 427.577 273.337 427.397 273.895C427.196 274.517 426.808 275.001 426.233 275.348C425.663 275.682 424.967 275.863 424.145 275.891C423.323 275.92 422.442 275.782 421.504 275.479C420.717 275.224 419.978 274.887 419.287 274.468C418.6 274.035 418.008 273.549 417.509 273.01L418.767 271.462C419.171 271.901 419.66 272.297 420.232 272.65C420.805 273.003 421.402 273.281 422.023 273.482C422.822 273.74 423.483 273.821 424.005 273.723C424.544 273.617 424.883 273.349 425.022 272.917C425.15 272.524 425.071 272.162 424.785 271.831C424.512 271.505 424.059 271.239 423.424 271.034L421.445 270.394L421.962 268.796L423.751 269.374C424.347 269.567 424.843 269.615 425.239 269.519C425.647 269.427 425.91 269.197 426.029 268.829C426.148 268.461 426.04 268.103 425.704 267.756C425.367 267.409 424.844 267.121 424.134 266.891C423.119 266.563 421.967 266.464 420.678 266.593L420.635 264.646C422.168 264.455 423.613 264.579 424.971 265.018C425.833 265.297 426.568 265.668 427.175 266.13C427.787 266.58 428.213 267.082 428.454 267.637C428.712 268.183 428.752 268.728 428.576 269.274C428.416 269.769 428.12 270.163 427.688 270.458C427.261 270.74 426.746 270.903 426.143 270.946ZM98.6857 184.886L95.3993 195.048L93.0206 194.279L95.6547 186.134L91.8488 184.903L91.1012 186.89C90.6029 188.214 90.1109 189.302 89.6252 190.154C89.1563 190.997 88.6136 191.613 87.9973 192.003C87.3977 192.383 86.7174 192.451 85.9562 192.204C85.601 192.09 85.1859 191.878 84.7108 191.57L85.4712 189.609C85.6365 189.705 85.7826 189.773 85.9095 189.814C86.3916 189.97 86.8147 189.897 87.1788 189.594C87.547 189.279 87.849 188.865 88.0848 188.353C88.3373 187.832 88.651 187.078 89.0259 186.092L90.465 182.228L98.6857 184.886ZM111.783 188.996C112.798 189.324 113.634 189.84 114.289 190.542C114.949 191.232 115.378 192.051 115.576 192.997C115.779 193.932 115.718 194.9 115.394 195.902C115.069 196.904 114.55 197.731 113.835 198.383C113.123 199.022 112.297 199.434 111.354 199.619C110.411 199.805 109.432 199.734 108.417 199.405C107.529 199.118 106.772 198.684 106.147 198.104C105.526 197.511 105.078 196.819 104.801 196.029C104.528 195.226 104.455 194.389 104.582 193.52L102.869 192.966L101.552 197.038L99.1737 196.269L102.46 186.107L104.839 186.876L103.565 190.816L105.316 191.382C105.726 190.632 106.271 190.03 106.95 189.577C107.633 189.111 108.39 188.831 109.22 188.735C110.053 188.626 110.908 188.713 111.783 188.996ZM109.069 197.388C109.628 197.569 110.17 197.604 110.696 197.494C111.226 197.371 111.696 197.11 112.106 196.71C112.519 196.297 112.829 195.773 113.034 195.139C113.346 194.175 113.315 193.317 112.941 192.566C112.584 191.806 111.981 191.288 111.131 191.013C110.281 190.738 109.489 190.805 108.755 191.212C108.025 191.606 107.504 192.286 107.192 193.25C106.88 194.214 106.902 195.076 107.259 195.836C107.629 196.6 108.232 197.117 109.069 197.388ZM128.043 203.377L126.659 207.659L124.432 206.939L125.165 204.675L117.324 202.139L116.592 204.403L114.385 203.69L115.769 199.408L116.245 199.562C116.9 199.746 117.471 199.475 117.958 198.75C118.462 198.016 118.99 196.925 119.542 195.478L120.801 192.039L129.174 194.747L126.54 202.891L128.043 203.377ZM121.656 196.351C121.227 197.502 120.824 198.422 120.447 199.113C120.069 199.804 119.639 200.267 119.157 200.503L124.161 202.122L126.143 195.994L122.242 194.733L121.656 196.351ZM137.389 201.103C138.684 201.522 139.579 202.133 140.075 202.939C140.584 203.748 140.666 204.685 140.322 205.751C139.961 206.867 139.301 207.607 138.343 207.97C137.385 208.332 136.216 208.284 134.838 207.824L130.086 206.266L133.373 196.105L135.751 196.874L134.674 200.204L137.389 201.103ZM135.194 206.006C135.888 206.244 136.468 206.27 136.934 206.085C137.401 205.899 137.728 205.515 137.917 204.931C138.102 204.36 138.06 203.884 137.79 203.503C137.521 203.122 137.027 202.808 136.308 202.561L134.145 201.841L133.031 205.285L135.194 206.006ZM151.854 213.306L154.032 206.57L148.773 211.133L147.745 210.8L146.217 204.021L144.032 210.777L141.863 210.075L145.15 199.913L147.642 200.719L149.202 208.245L155.045 203.114L157.271 203.834L154.004 214.002L151.854 213.306ZM161.052 205.056L163.431 205.826L161.264 212.524L169.044 207.641L171.214 208.343L167.927 218.504L165.549 217.735L167.715 211.037L159.954 215.926L157.765 215.218L161.052 205.056ZM172.378 220.091C171.947 219.951 171.626 219.687 171.416 219.296C171.21 218.893 171.181 218.464 171.328 218.007C171.48 217.537 171.749 217.204 172.135 217.007C172.534 216.813 172.956 216.788 173.4 216.932C173.844 217.076 174.164 217.341 174.362 217.727C174.572 218.117 174.601 218.547 174.449 219.016C174.301 219.473 174.026 219.804 173.623 220.01C173.224 220.204 172.809 220.23 172.378 220.091ZM199.156 213.89L194.847 227.211L192.374 226.411L194.22 220.702L187.331 218.474L185.485 224.183L183.011 223.383L187.319 210.062L189.793 210.862L188.014 216.362L194.903 218.589L196.682 213.09L199.156 213.89ZM205.999 219.466C207.496 219.951 208.521 220.681 209.073 221.659C209.643 222.628 209.694 223.835 209.226 225.282L207.3 231.238L205.054 230.512L205.454 229.275C205.019 229.624 204.489 229.831 203.866 229.896C203.259 229.952 202.575 229.857 201.814 229.611C201.053 229.365 200.428 229.022 199.939 228.584C199.454 228.133 199.127 227.628 198.958 227.069C198.805 226.501 198.823 225.925 199.012 225.341C199.307 224.428 199.879 223.807 200.728 223.479C201.594 223.143 202.756 223.21 204.215 223.682L206.841 224.531L206.89 224.379C207.12 223.669 207.081 223.053 206.773 222.533C206.477 222.017 205.911 221.624 205.073 221.353C204.502 221.169 203.909 221.075 203.294 221.072C202.691 221.073 202.148 221.171 201.664 221.365L201.292 219.331C201.956 219.098 202.697 218.994 203.515 219.021C204.334 219.047 205.162 219.196 205.999 219.466ZM202.869 228.039C203.465 228.232 204.035 228.269 204.578 228.15C205.137 228.023 205.594 227.737 205.949 227.291L206.33 226.111L203.875 225.317C202.505 224.874 201.675 225.103 201.383 226.003C201.244 226.435 201.304 226.833 201.565 227.197C201.825 227.562 202.26 227.842 202.869 228.039ZM214.1 222.213L216.479 222.982L215.144 227.111L220.263 228.767L221.598 224.637L223.977 225.407L220.69 235.569L218.312 234.799L219.61 230.784L214.491 229.128L213.193 233.144L210.814 232.374L214.1 222.213ZM228.935 238.382C227.908 238.05 227.053 237.528 226.372 236.818C225.691 236.107 225.243 235.282 225.028 234.344C224.83 233.397 224.893 232.422 225.217 231.42C225.541 230.418 226.059 229.597 226.77 228.959C227.494 228.324 228.34 227.918 229.308 227.74C230.276 227.563 231.274 227.641 232.302 227.973C233.342 228.309 234.202 228.833 234.883 229.544C235.564 230.254 236.006 231.077 236.208 232.011C236.424 232.949 236.369 233.92 236.045 234.922C235.721 235.924 235.195 236.749 234.467 237.396C233.756 238.035 232.916 238.443 231.948 238.621C230.98 238.798 229.975 238.719 228.935 238.382ZM229.594 236.346C230.469 236.629 231.286 236.571 232.046 236.172C232.806 235.773 233.339 235.098 233.647 234.147C233.955 233.195 233.918 232.335 233.535 231.567C233.153 230.799 232.525 230.273 231.649 229.99C230.774 229.707 229.956 229.765 229.197 230.164C228.45 230.567 227.922 231.244 227.615 232.196C227.307 233.147 227.338 234.005 227.707 234.769C228.09 235.537 228.718 236.063 229.594 236.346ZM246.398 238.039C247.531 238.826 247.896 239.841 247.494 241.084C247.198 241.997 246.628 242.591 245.783 242.864C244.938 243.137 243.843 243.056 242.498 242.621L237.322 240.947L240.609 230.786L245.575 232.392C246.819 232.794 247.715 233.336 248.265 234.019C248.815 234.701 248.955 235.461 248.684 236.298C248.516 236.818 248.231 237.224 247.829 237.514C247.439 237.808 246.962 237.983 246.398 238.039ZM241.501 235.762L243.994 236.568C245.224 236.966 245.977 236.74 246.252 235.89C246.519 235.065 246.037 234.454 244.806 234.056L242.313 233.25L241.501 235.762ZM242.868 240.828C244.175 241.251 244.966 241.037 245.241 240.187C245.384 239.743 245.339 239.364 245.104 239.05C244.873 238.723 244.434 238.455 243.787 238.246L240.99 237.341L240.147 239.948L242.868 240.828ZM254.161 246.54C253.134 246.208 252.279 245.687 251.598 244.976C250.917 244.265 250.469 243.441 250.254 242.502C250.056 241.555 250.119 240.581 250.443 239.578C250.767 238.576 251.285 237.756 251.996 237.117C252.72 236.482 253.566 236.076 254.534 235.899C255.502 235.721 256.5 235.799 257.528 236.131C258.568 236.468 259.429 236.991 260.11 237.702C260.791 238.413 261.232 239.235 261.435 240.169C261.65 241.108 261.595 242.078 261.271 243.08C260.947 244.083 260.421 244.907 259.693 245.555C258.982 246.194 258.142 246.602 257.174 246.779C256.206 246.956 255.201 246.877 254.161 246.54ZM254.82 244.504C255.695 244.787 256.513 244.729 257.272 244.331C258.032 243.932 258.565 243.256 258.873 242.305C259.181 241.353 259.144 240.494 258.761 239.725C258.379 238.957 257.751 238.431 256.875 238.148C256 237.865 255.182 237.923 254.423 238.322C253.676 238.725 253.149 239.402 252.841 240.354C252.533 241.305 252.564 242.163 252.933 242.927C253.316 243.696 253.944 244.221 254.82 244.504ZM264.083 246.26C264.527 246.404 264.848 246.668 265.045 247.055C265.243 247.441 265.266 247.869 265.114 248.338C265.048 248.541 264.947 248.746 264.809 248.954C264.689 249.153 264.468 249.446 264.147 249.833L262.309 252.202L260.767 251.704L262.47 249.038C262.228 248.834 262.063 248.585 261.976 248.29C261.906 247.987 261.924 247.671 262.031 247.341C262.183 246.872 262.452 246.538 262.838 246.341C263.224 246.143 263.639 246.116 264.083 246.26ZM276.696 242.457L281.929 244.149L282.6 242.075L284.826 242.795L283.503 246.886L278.422 245.243L275.788 253.388L273.409 252.618L276.696 242.457ZM292.154 247.33C293.143 247.65 293.955 248.151 294.59 248.832C295.237 249.518 295.655 250.326 295.845 251.256C296.034 252.186 295.963 253.165 295.631 254.193C295.298 255.22 294.781 256.062 294.078 256.717C293.38 257.36 292.568 257.77 291.642 257.947C290.728 258.128 289.777 258.059 288.787 257.739C287.417 257.296 286.48 256.488 285.976 255.316L284.382 260.245L282.004 259.476L286.484 245.622L288.749 246.355L288.318 247.687C288.867 247.332 289.466 247.126 290.115 247.07C290.776 247.017 291.456 247.104 292.154 247.33ZM289.179 255.617C290.055 255.9 290.866 255.84 291.613 255.437C292.373 255.038 292.906 254.362 293.214 253.411C293.522 252.46 293.484 251.6 293.102 250.831C292.733 250.067 292.11 249.544 291.235 249.261C290.664 249.076 290.107 249.043 289.564 249.162C289.026 249.268 288.545 249.519 288.123 249.915C287.7 250.311 287.387 250.826 287.182 251.46C286.976 252.094 286.929 252.696 287.04 253.264C287.15 253.832 287.391 254.323 287.761 254.737C288.136 255.139 288.609 255.432 289.179 255.617ZM309.524 253.074L301.216 262.515C300.415 263.475 299.625 264.075 298.848 264.314C298.066 264.565 297.224 264.545 296.323 264.254C295.816 264.09 295.341 263.845 294.9 263.52C294.459 263.195 294.127 262.836 293.904 262.441L295.421 260.998C295.58 261.288 295.791 261.545 296.054 261.771C296.331 262 296.627 262.166 296.944 262.269C297.363 262.404 297.74 262.407 298.077 262.278C298.425 262.152 298.796 261.873 299.189 261.439L299.489 261.095L298.354 249.461L300.828 250.261L301.594 258.812L307.241 252.335L309.524 253.074ZM311.747 253.793L314.126 254.562L312.791 258.691L317.91 260.347L319.245 256.217L321.624 256.987L318.337 267.148L315.959 266.379L317.257 262.364L312.138 260.708L310.84 264.724L308.461 263.954L311.747 253.793ZM332.78 262.823L329.221 261.672L326.587 269.816L324.208 269.047L326.842 260.903L323.265 259.746L323.917 257.728L333.432 260.806L332.78 262.823ZM336.482 273.164C335.454 272.831 334.6 272.31 333.919 271.599C333.238 270.888 332.79 270.064 332.575 269.126C332.377 268.179 332.44 267.204 332.764 266.202C333.088 265.2 333.605 264.379 334.317 263.74C335.04 263.105 335.886 262.699 336.855 262.522C337.823 262.345 338.821 262.422 339.848 262.755C340.889 263.091 341.749 263.615 342.43 264.325C343.111 265.036 343.553 265.858 343.755 266.793C343.97 267.731 343.916 268.701 343.592 269.704C343.267 270.706 342.741 271.531 342.014 272.178C341.302 272.817 340.463 273.225 339.495 273.402C338.526 273.58 337.522 273.5 336.482 273.164ZM337.14 271.128C338.016 271.411 338.833 271.353 339.593 270.954C340.352 270.555 340.886 269.88 341.194 268.928C341.502 267.977 341.464 267.117 341.082 266.349C340.7 265.58 340.071 265.055 339.196 264.772C338.321 264.489 337.503 264.546 336.743 264.945C335.997 265.348 335.469 266.026 335.161 266.977C334.854 267.929 334.885 268.786 335.254 269.551C335.636 270.319 336.265 270.844 337.14 271.128ZM353.944 272.821C355.077 273.607 355.443 274.622 355.041 275.866C354.745 276.779 354.175 277.372 353.33 277.646C352.485 277.919 351.39 277.838 350.045 277.403L344.869 275.729L348.156 265.567L353.122 267.174C354.365 267.576 355.262 268.118 355.812 268.8C356.362 269.483 356.502 270.242 356.231 271.08C356.063 271.6 355.778 272.005 355.375 272.295C354.986 272.59 354.509 272.765 353.944 272.821ZM349.048 270.543L351.54 271.349C352.771 271.747 353.524 271.521 353.799 270.671C354.065 269.847 353.583 269.236 352.353 268.838L349.86 268.031L349.048 270.543ZM350.415 275.61C351.722 276.032 352.512 275.819 352.787 274.969C352.931 274.525 352.885 274.146 352.651 273.832C352.42 273.505 351.981 273.237 351.334 273.027L348.537 272.123L347.694 274.73L350.415 275.61ZM360.508 269.562L362.887 270.332L361.552 274.461L366.671 276.117L368.006 271.987L370.385 272.756L367.098 282.918L364.72 282.149L366.018 278.134L360.899 276.478L359.601 280.493L357.222 279.724L360.508 269.562ZM375.343 285.732C374.315 285.399 373.461 284.878 372.78 284.167C372.099 283.456 371.651 282.632 371.436 281.694C371.238 280.747 371.301 279.772 371.625 278.77C371.949 277.768 372.467 276.947 373.178 276.308C373.902 275.673 374.748 275.267 375.716 275.09C376.684 274.913 377.682 274.99 378.709 275.323C379.75 275.659 380.61 276.183 381.291 276.893C381.972 277.604 382.414 278.427 382.616 279.361C382.831 280.299 382.777 281.269 382.453 282.272C382.129 283.274 381.603 284.099 380.875 284.746C380.164 285.385 379.324 285.793 378.356 285.97C377.388 286.148 376.383 286.068 375.343 285.732ZM376.002 283.696C376.877 283.979 377.694 283.921 378.454 283.522C379.214 283.123 379.747 282.448 380.055 281.496C380.363 280.545 380.326 279.685 379.943 278.917C379.561 278.148 378.932 277.623 378.057 277.34C377.182 277.057 376.364 277.115 375.605 277.514C374.858 277.917 374.33 278.594 374.023 279.545C373.715 280.497 373.746 281.355 374.115 282.119C374.497 282.887 375.126 283.413 376.002 283.696ZM385.265 285.451C385.709 285.595 386.03 285.86 386.227 286.246C386.425 286.632 386.448 287.06 386.296 287.529C386.23 287.732 386.129 287.938 385.991 288.146C385.871 288.345 385.65 288.638 385.329 289.024L383.49 291.394L381.949 290.895L383.652 288.23C383.41 288.025 383.245 287.776 383.158 287.482C383.088 287.179 383.106 286.862 383.213 286.532C383.365 286.063 383.634 285.73 384.02 285.532C384.406 285.335 384.821 285.308 385.265 285.451ZM90.6075 216.494L89.1981 220.852L86.9717 220.132L87.7287 217.791L78.8038 214.905L82.0902 204.743L84.4689 205.512L81.8348 213.657L86.6874 215.227L89.3214 207.082L91.7001 207.851L89.0661 215.996L90.6075 216.494ZM95.9298 209.219L98.3084 209.988L95.022 220.15L92.6433 219.381L95.9298 209.219ZM97.6702 207.932C97.2389 207.793 96.9204 207.543 96.7148 207.182C96.5132 206.808 96.4781 206.419 96.6094 206.013C96.7407 205.607 96.9953 205.318 97.3733 205.146C97.7553 204.961 98.162 204.938 98.5933 205.078C99.0247 205.217 99.3432 205.467 99.5488 205.828C99.7585 206.176 99.7998 206.547 99.6726 206.94C99.5372 207.359 99.2764 207.667 98.8903 207.864C98.5209 208.053 98.1142 208.076 97.6702 207.932ZM104.349 218.668L102.504 218.071L101.187 222.144L98.8079 221.374L102.094 211.213L104.473 211.982L103.144 216.092L105.047 216.708L109.383 213.57L111.933 214.395L106.659 218.091L108.894 224.636L106.096 223.732L104.349 218.668ZM118.067 216.252C119.564 216.736 120.588 217.467 121.141 218.445C121.711 219.414 121.761 220.621 121.294 222.067L119.367 228.024L117.122 227.297L117.522 226.06C117.087 226.41 116.557 226.617 115.934 226.682C115.327 226.738 114.643 226.643 113.882 226.397C113.121 226.151 112.496 225.808 112.007 225.37C111.522 224.919 111.195 224.414 111.026 223.854C110.873 223.287 110.891 222.711 111.08 222.127C111.375 221.214 111.947 220.593 112.796 220.265C113.662 219.928 114.824 219.996 116.283 220.468L118.909 221.317L118.958 221.165C119.188 220.454 119.149 219.839 118.84 219.319C118.545 218.803 117.978 218.41 117.141 218.139C116.57 217.954 115.977 217.861 115.361 217.858C114.758 217.859 114.215 217.956 113.732 218.15L113.36 216.117C114.024 215.884 114.765 215.78 115.583 215.806C116.401 215.833 117.229 215.981 118.067 216.252ZM114.937 224.825C115.533 225.018 116.102 225.055 116.645 224.936C117.205 224.809 117.662 224.522 118.016 224.076L118.398 222.897L115.943 222.103C114.573 221.66 113.742 221.888 113.451 222.789C113.312 223.22 113.372 223.618 113.633 223.983C113.893 224.347 114.328 224.628 114.937 224.825ZM131.957 226.252C133.09 227.039 133.455 228.054 133.053 229.297C132.758 230.21 132.188 230.804 131.343 231.077C130.497 231.35 129.403 231.269 128.058 230.834L122.882 229.16L126.168 218.998L131.135 220.605C132.378 221.007 133.275 221.549 133.825 222.231C134.375 222.914 134.515 223.674 134.244 224.511C134.076 225.031 133.79 225.436 133.388 225.727C132.999 226.021 132.522 226.196 131.957 226.252ZM127.06 223.974L129.553 224.781C130.784 225.179 131.536 224.953 131.811 224.103C132.078 223.278 131.596 222.667 130.366 222.269L127.873 221.462L127.06 223.974ZM128.428 229.041C129.734 229.464 130.525 229.25 130.8 228.4C130.944 227.956 130.898 227.577 130.663 227.263C130.433 226.936 129.994 226.668 129.347 226.459L126.549 225.554L125.706 228.161L128.428 229.041ZM139.721 234.753C138.693 234.421 137.839 233.899 137.158 233.189C136.477 232.478 136.029 231.653 135.814 230.715C135.615 229.768 135.678 228.793 136.002 227.791C136.327 226.789 136.844 225.968 137.555 225.33C138.279 224.695 139.125 224.289 140.093 224.112C141.061 223.934 142.059 224.012 143.087 224.344C144.127 224.68 144.988 225.204 145.669 225.915C146.35 226.625 146.792 227.448 146.994 228.382C147.209 229.321 147.154 230.291 146.83 231.293C146.506 232.295 145.98 233.12 145.252 233.768C144.541 234.406 143.702 234.815 142.733 234.992C141.765 235.169 140.761 235.09 139.721 234.753ZM140.379 232.717C141.254 233 142.072 232.942 142.832 232.543C143.591 232.144 144.125 231.469 144.433 230.518C144.74 229.566 144.703 228.706 144.321 227.938C143.939 227.17 143.31 226.644 142.435 226.361C141.559 226.078 140.742 226.136 139.982 226.535C139.235 226.938 138.708 227.615 138.4 228.567C138.092 229.518 138.123 230.376 138.493 231.14C138.875 231.908 139.504 232.434 140.379 232.717ZM148.602 237.626C148.171 237.486 147.85 237.221 147.64 236.831C147.434 236.428 147.405 235.998 147.552 235.541C147.704 235.072 147.973 234.739 148.359 234.541C148.758 234.348 149.18 234.323 149.624 234.467C150.068 234.61 150.388 234.875 150.586 235.261C150.796 235.652 150.825 236.081 150.673 236.551C150.526 237.007 150.25 237.339 149.847 237.545C149.448 237.738 149.033 237.765 148.602 237.626Z" fill="white"/>
<defs>
<clipPath id="clip0">
<rect width="428.548" height="355.897" fill="white" transform="matrix(-0.955478 -0.295061 -0.295061 0.955478 514.48 126.448)"/>
</clipPath>
</defs>
</svg>
