<svg width="123" height="859" viewBox="0 0 123 859" fill="none" xmlns="http://www.w3.org/2000/svg">
<path d="M23.7334 1.15073C14.7556 1.53576 5.95563 2.98703 -2.5777 5.71188C-11.1999 8.46634 -7.49621 21.3797 1.18528 18.6253C8.53342 16.2855 15.9705 14.8638 23.7334 14.538C32.8594 14.153 32.889 0.765694 23.7334 1.15073Z" fill="#FDCE02"/>
<path d="M25.6889 53.2192C16.9482 51.2348 8.08893 50.5536 -0.859219 51.4717C-4.71107 51.8567 -7.91106 54.2558 -7.97032 58.1653C-7.99995 61.4825 -4.68144 65.244 -0.859219 64.859C6.84448 64.0593 14.3704 64.3851 21.8963 66.1326C30.7852 68.1466 34.5778 55.2332 25.6889 53.2192Z" fill="#FDCE02"/>
<path d="M25.7482 104.754C18.2816 102.888 10.6075 102.296 2.93343 103.243C-0.859163 103.717 -4.17767 105.968 -4.17767 109.937C-4.17767 113.195 -0.918422 117.105 2.93343 116.631C9.42231 115.831 15.6445 116.098 21.9853 117.667C30.8149 119.859 34.6075 106.946 25.7482 104.754Z" fill="#FDCE02"/>
<path d="M23.8519 159.488C15.6149 158.54 7.37782 157.622 -0.859217 156.675C-4.71107 156.23 -7.9407 160.051 -7.97032 163.368C-7.99995 167.337 -4.65181 169.618 -0.859217 170.062C7.37782 171.01 15.6149 171.928 23.8519 172.876C27.7038 173.32 30.9334 169.499 30.963 166.182C30.9926 162.213 27.6445 159.933 23.8519 159.488Z" fill="#FDCE02"/>
<path d="M27.526 211.941H2.90377C-6.25178 211.941 -6.25178 225.329 2.90377 225.329H27.526C36.6815 225.329 36.7112 211.941 27.526 211.941Z" fill="#FDCE02"/>
<path d="M19.9704 247.631H4.82968C-4.32588 247.631 -4.32588 261.018 4.82968 261.018H19.9704C29.0964 260.989 29.126 247.631 19.9704 247.631Z" fill="#FDCE02"/>
<path d="M34.7853 300.469C26.963 295.79 17.2445 294.605 8.44452 297.359C-0.177707 300.055 3.52601 312.998 12.2075 310.273C17.6593 308.555 22.7556 309.118 27.6149 312.02C35.3482 316.641 42.489 305.09 34.7853 300.469Z" fill="#FDCE02"/>
<path d="M33.2149 342.171C26.7556 342.556 20.5334 342.082 14.2519 340.631C5.36302 338.558 1.60007 351.471 10.489 353.544C17.926 355.292 25.5704 356.003 33.2149 355.558C42.3112 355.055 42.3704 341.668 33.2149 342.171Z" fill="#FDCE02"/>
<path d="M35.0223 393.795C26.8741 395.75 18.6668 396.016 10.4297 394.417C1.5112 392.699 -2.31103 405.583 6.66674 407.331C17.4519 409.404 28.1482 409.256 38.8149 406.709C47.6445 404.576 43.9112 391.663 35.0223 393.795Z" fill="#FDCE02"/>
<path d="M72.0001 841.913C73.0667 845.764 76.9482 847.096 80.7408 846.593C87.6149 845.645 94.6667 846.859 100.859 849.762C109.007 853.583 116.237 842.061 108.03 838.211C98.1037 833.561 87.9112 832.169 76.9778 833.709C73.1556 834.213 71.1112 838.715 72.0001 841.913Z" fill="#FDCE02"/>
<path d="M80.8 802.522C89.126 800.893 97.6296 801.751 105.363 805.128C113.6 808.741 120.83 797.19 112.533 793.577C101.126 788.601 89.363 787.209 77.0371 789.608C68.0593 791.356 71.8519 804.269 80.8 802.522Z" fill="#FDCE02"/>
<path d="M77.0075 761.886C88.5334 764.048 100.119 763.396 111.052 759.28C119.437 756.14 115.793 743.197 107.289 746.366C98.6964 749.595 89.8964 750.69 80.8001 748.973C71.8519 747.284 68.0297 760.198 77.0075 761.886Z" fill="#FDCE02"/>
<path d="M74.5778 706.174H104.415C113.57 706.174 113.57 692.787 104.415 692.787H74.5778C65.4223 692.817 65.4223 706.174 74.5778 706.174Z" fill="#FDCE02"/>
<path d="M83.1112 662.044H108.682C117.837 662.044 117.837 648.657 108.682 648.657H83.1112C73.9556 648.657 73.9556 662.044 83.1112 662.044Z" fill="#FDCE02"/>
<path d="M89.5112 605.118L106.548 609.146C115.408 611.249 119.2 598.336 110.311 596.233C104.622 594.9 98.9335 593.538 93.2742 592.205C84.4149 590.132 80.6223 603.015 89.5112 605.118Z" fill="#FDCE02"/>
<path d="M85.5408 552.961C91.1408 560.07 99.1704 564.335 108.682 564.424C117.837 564.512 117.837 551.125 108.682 551.036C104.593 551.007 100.356 549.407 97.8074 546.209C95.526 543.306 91.6741 541.855 88.0889 543.81C85.0667 545.498 83.2593 550.059 85.5408 552.961Z" fill="#FDCE02"/>
<path d="M79.2001 507.824C90.5779 512.859 102.459 514.192 114.756 511.585C123.674 509.69 119.911 496.806 110.993 498.672C102.667 500.419 94.163 499.679 86.4001 496.243C78.1334 492.63 70.9334 504.181 79.2001 507.824Z" fill="#FDCE02"/>
<path d="M85.363 460.405C93.8963 461.768 102.4 463.13 110.933 464.493C119.882 465.914 123.733 453.03 114.696 451.579C106.163 450.217 97.6593 448.854 89.126 447.492C80.1778 446.07 76.3556 458.954 85.363 460.405Z" fill="#FDCE02"/>
<path d="M85.8075 401.851H116.119C125.274 401.851 125.274 388.463 116.119 388.463H85.8075C76.6815 388.463 76.6519 401.851 85.8075 401.851Z" fill="#FDCE02"/>
<path d="M85.8075 353.692C93.6 353.929 101.333 352.656 108.533 349.842C112.059 348.45 114.607 345.399 113.482 341.608C112.563 338.469 108.296 335.537 104.741 336.929C98.5778 339.357 92.4741 340.512 85.8075 340.305C76.6815 340.068 76.6815 353.455 85.8075 353.692Z" fill="#FDCE02"/>
<path d="M83.9111 294.605C92.6519 296.5 101.511 297.211 110.43 296.53C119.467 295.819 119.556 282.432 110.43 283.143C102.726 283.765 95.2 283.35 87.6741 281.721C78.7852 279.766 74.9926 292.68 83.9111 294.605Z" fill="#FDCE02"/>
<path d="M93.3038 244.817C100.148 247.009 107.082 247.275 114.193 246.298C117.985 245.765 120.089 241.233 119.141 238.064C118.015 234.243 114.222 232.851 110.4 233.385C105.867 234.007 101.363 233.296 97.0668 231.904C93.4223 230.749 89.3038 233.236 88.326 236.583C87.289 240.256 89.6593 243.632 93.3038 244.817Z" fill="#FDCE02"/>
<path d="M76.3557 192.838C85.7483 194.644 95.2001 195.385 104.77 194.852C113.867 194.348 113.926 180.961 104.77 181.464C96.4445 181.938 88.2964 181.494 80.1483 179.924C71.2001 178.236 67.3779 191.12 76.3557 192.838Z" fill="#FDCE02"/>
<path d="M78.4889 143.909C86.4297 147.078 94.7852 147.908 103.082 145.212C111.674 142.428 107.97 129.485 99.3186 132.299C94.9037 133.721 90.1037 134.106 85.6889 132.358C82.163 130.937 78.0741 131.351 75.9704 134.757C74.1926 137.571 74.9334 142.488 78.4889 143.909Z" fill="#FDCE02"/>
<path d="M83.8519 93.1736C88.8889 94.4472 93.9259 95.6911 98.9333 96.9647C107.763 99.186 111.556 86.2726 102.696 84.0513C97.6593 82.7777 92.6222 81.5338 87.6148 80.2602C78.7852 78.0389 75.0222 90.9523 83.8519 93.1736Z" fill="#FDCE02"/>
<path d="M85.8075 52.1234H102.845C112 52.1234 112 38.7361 102.845 38.7361H85.8075C76.6815 38.7361 76.6519 52.1234 85.8075 52.1234Z" fill="#FDCE02"/>
<path d="M83.9408 15.4264C91.6149 16.3742 99.2593 15.7818 106.785 13.9455C115.644 11.7538 111.911 -1.95931 103.022 0.262034C96.7112 1.83178 90.4297 2.06872 83.9704 1.23942C80.1482 0.765537 76.8593 4.8528 76.8593 8.34771C76.8297 12.5534 80.1186 14.9525 83.9408 15.4264Z" fill="#FDCE02"/>
<path d="M29.4519 446.87H6.72598C-2.42958 446.87 -2.42958 460.258 6.72598 460.258H29.4519C38.5778 460.258 38.6075 446.87 29.4519 446.87Z" fill="#FDCE02"/>
<path d="M27.5556 493.252H12.4149C3.25933 493.252 3.25933 506.639 12.4149 506.639H27.5556C36.7112 506.639 36.7112 493.252 27.5556 493.252Z" fill="#FDCE02"/>
<path d="M35.1408 546.801H16.1778C7.02227 546.801 7.02227 560.188 16.1778 560.188H35.1408C44.2667 560.188 44.2963 546.801 35.1408 546.801Z" fill="#FDCE02"/>
<path d="M35.2297 609.087C27.763 607.192 20.089 606.629 12.4149 607.577C8.62229 608.051 5.30377 610.301 5.30377 614.27C5.30377 617.499 8.56304 621.438 12.4149 620.964C18.9038 620.135 25.126 620.401 31.4667 622.001C40.2964 624.222 44.0889 611.338 35.2297 609.087Z" fill="#FDCE02"/>
<path d="M29.5705 657.394C23.4371 655.114 16.9779 654.877 10.5482 655.972C6.75564 656.624 4.62232 660.948 5.60009 664.206C6.69639 667.938 10.5483 669.537 14.3408 668.886C18.3112 668.205 22.1038 668.945 25.8075 670.308C29.363 671.64 33.6001 668.856 34.5482 665.628C35.6149 661.837 33.1556 658.727 29.5705 657.394Z" fill="#FDCE02"/>
<path d="M31.3482 710.054H18.0741C8.91857 710.054 8.91857 723.442 18.0741 723.442H31.3482C40.4741 723.442 40.5038 710.054 31.3482 710.054Z" fill="#FDCE02"/>
<path d="M25.6593 753.771H10.5186C1.36303 753.771 1.36303 767.158 10.5186 767.158H25.6593C34.8149 767.158 34.8149 753.771 25.6593 753.771Z" fill="#FDCE02"/>
<path d="M29.4519 801.988C23.763 801.396 18.0741 800.804 12.4149 800.211C8.59266 799.797 5.30377 803.588 5.30377 806.905C5.30377 810.844 8.56304 813.184 12.4149 813.598C18.1038 814.191 23.7927 814.783 29.4519 815.375C33.2741 815.79 36.563 811.999 36.563 808.682C36.563 804.713 33.2741 802.373 29.4519 801.988Z" fill="#FDCE02"/>
<path d="M30.6075 844.312C29.4816 840.462 25.689 839.129 21.8667 839.633C17.4519 840.225 13.0371 840.817 8.59268 841.41C4.80009 841.913 2.69639 846.474 3.64454 849.643C4.77046 853.494 8.56305 854.827 12.3853 854.323C16.8001 853.731 21.2149 853.138 25.6594 852.546C29.4519 852.042 31.5556 847.481 30.6075 844.312Z" fill="#FDCE02"/>
</svg>
