<svg width="389" height="663" viewBox="0 0 389 663" fill="none" xmlns="http://www.w3.org/2000/svg">
<path d="M54.4338 343.578C86.8973 353.008 116.607 370.367 143.521 390.771C179.322 417.894 212.454 453.988 218.337 498.511C221.926 525.676 214.874 553.299 203.482 578.252C191.089 605.416 172.98 630.787 147.777 646.81C122.616 662.875 89.7348 668.466 62.2785 656.741C41.7071 647.936 25.6005 630.411 4.65363 622.566C-49.0489 602.37 -104.379 651.901 -161.753 652.401C-222.09 652.944 -271.954 594.192 -274.791 533.938C-282.344 372.829 -74.5023 306.065 54.4338 343.578Z" fill="#F7BD2B"/>
<path d="M206.862 128.808C117.9 123.133 28.3545 179.632 -4.77669 262.419C-14.4156 286.495 -19.6315 313.159 -14.1235 338.487C-8.61557 363.816 9.07664 387.433 33.8207 395.153C58.5647 402.872 89.2757 390.938 98.3722 366.653C106.592 344.621 96.7866 318.416 106.843 297.177C118.109 273.393 148.57 266.633 174.858 265.423C201.187 264.254 230.313 264.755 250.049 247.313C263.068 235.797 269.453 217.228 266.24 200.161C263.068 183.095 250.425 168.073 234.152 161.981" fill="#F27125"/>
<path d="M161.088 -32.9269C129.292 13.4738 117.108 70.974 115.772 127.181C114.813 167.698 119.361 208.924 135.134 246.228C150.906 283.533 178.863 316.706 215.833 333.271C255.432 351.006 311.471 342.368 328.496 302.477C345.187 263.462 317.146 218.939 323.113 176.919C327.787 143.83 352.447 117.75 368.971 88.7498C403.688 27.7863 394.925 -63.3043 329.08 -101.36C270.078 -135.492 193.676 -80.5376 161.088 -32.9269Z" fill="#01737B"/>
<path d="M-116.104 209.383C-91.2765 214.349 -67.075 221.818 -43.7079 231.624C-47.1295 230.205 -50.5094 228.745 -53.931 227.326C-32.9006 236.297 -12.7883 247.105 6.28091 259.664C15.2522 265.59 29.1055 266.758 39.2451 263.962C49.1761 261.25 59.9 253.572 64.8237 244.309C76.1317 222.861 69.4554 198.951 49.4682 185.766C6.44781 157.391 -42.8316 136.986 -93.3629 126.847C-104.713 124.552 -116.062 125.178 -126.327 131.145C-135.215 136.319 -143.644 146.5 -145.98 156.723C-148.484 167.656 -147.942 179.965 -141.683 189.688C-135.883 198.701 -126.953 207.172 -116.104 209.383Z" fill="#F4F0F1"/>
</svg>
