<svg width="211" height="221" viewBox="0 0 211 221" fill="none" xmlns="http://www.w3.org/2000/svg">
<g clip-path="url(#clip0)">
<path d="M292.22 49.86C287.47 48.91 286.4 41.62 283.42 38.37C279.7 34.3 274.24 33.58 269.12 35.18C257.04 38.96 247.19 61.81 233.01 50.63C228.39 46.99 225.48 42.53 219.61 40.65C214.83 39.12 209.49 39.23 204.73 40.77C200.18 42.24 196.06 45.04 193.27 48.95C189.15 54.71 186.19 66.04 176.56 60.96C170.99 58.02 171.67 50.31 168.11 45.67C164.57 41.05 158.5 39.29 152.87 39.57C146.96 39.87 141.19 42.11 136.47 45.65C134.33 47.25 132.45 49.1 130.8 51.2C128.42 54.24 126.86 57.98 123.42 60.03C117.22 63.73 108.75 62.86 102.55 59.69C99.62 58.19 96.95 56.14 94.87 53.58C92.65 50.86 91.63 47.15 88.67 45.08C85.06 42.56 79.73 43.72 75.71 44.61C70.26 45.81 65.47 48.36 63.23 53.71C61.48 57.88 60.49 62.42 54.98 62.65C50.08 62.86 47.69 58.54 45.33 55C42.37 50.56 39.12 47.01 33.97 45.14C23.71 41.42 11.37 45.39 6.00002 54.99C4.29002 58.04 8.98002 60.78 10.68 57.73C16.76 46.86 32.79 46.45 39.78 56.45C42.59 60.48 44.92 65.11 49.71 67.11C53.88 68.85 58.84 68.14 62.48 65.49C67.46 61.86 66.73 54.43 72.09 51.52C74.53 50.19 77.47 49.7 80.19 49.31C82.06 49.05 84.35 48.51 86.01 49.84C87.55 51.08 88.5 54.05 89.68 55.69C95.86 64.26 106.86 68.94 117.32 67.57C122.27 66.92 127.08 64.99 130.41 61.17C132.56 58.7 133.94 55.69 136.14 53.25C139.13 49.93 143.02 47.44 147.28 46.08C154.52 43.77 162.81 44.8 165.67 52.77C167.52 57.93 168.64 62.85 173.83 65.65C177.6 67.68 182.36 67.98 186.34 66.42C192.6 63.96 193.84 57.95 197.19 52.83C200.48 47.81 206.24 45.06 212.19 44.98C220.11 44.88 223.63 49.76 229.18 54.46C233.97 58.51 240.46 60.08 246.52 58.2C252.77 56.25 257.01 51.1 261.47 46.64C266.95 41.16 276.2 35.85 281.18 44.72C283.62 49.07 285.34 54.01 290.78 55.1C294.19 55.78 295.64 50.55 292.22 49.86Z" fill="#F27125"/>
<path d="M292.4 89.63C287.71 94.23 280.42 95.65 274.43 92.68C268.73 89.85 266.5 83.28 261.48 79.63C251.21 72.16 241.12 81.38 233.74 88.3C228.79 92.94 222.26 97.65 215.64 93.3C211.24 90.41 208.41 85.57 204.74 81.88C196.87 73.98 186.9 73.96 178.08 80.68C168.93 87.65 154.32 109.4 144.29 91.37C139.24 82.28 129.92 76.57 119.25 78.62C113.92 79.64 109.67 82.87 105.65 86.34C100.05 91.18 92.76 98.38 84.94 93.51C77.42 88.83 72.31 77.67 61.7 81.91C56.67 83.92 53.71 88.71 49.96 92.31C41.32 100.59 33.94 93.81 26.86 87.48C22.51 83.59 16.97 79.79 10.82 81.22C5.89001 82.37 2.26001 86.39 2.33001 91.5C2.37001 94.99 7.80001 95 7.76001 91.5C7.67001 84.86 15.75 86.13 19.41 88.43C22.22 90.2 24.44 92.75 26.87 94.96C31.37 99.05 36.38 102.37 42.74 101.79C47.37 101.37 51.06 98.85 54.27 95.65C57.85 92.09 61.78 85.28 67.75 86.58C72.54 87.62 76 93.21 79.56 96.19C83.24 99.27 87.39 101.06 92.28 100.43C105.08 98.8 111.01 82.97 124.34 83.64C131.39 84 136.3 88.14 139.61 94.09C142.02 98.43 144.71 102.1 149.78 103.34C162.06 106.33 170.28 95.42 177.93 87.98C182.79 83.26 189.82 78.58 196.63 82.27C201.24 84.77 204.25 89.72 207.75 93.46C214.53 100.71 223.15 102.79 231.77 96.93C237.99 92.7 242.56 85.26 249.94 82.85C258.43 80.07 261.73 88.52 266.54 93.46C274.62 101.75 288.1 101.46 296.24 93.47C298.73 91.02 294.89 87.18 292.4 89.63Z" fill="#F27125"/>
<path d="M303.25 135.32C298.37 137.89 294.5 131.09 291.97 128.13C289.91 125.71 287.51 123.58 284.89 121.79C279.85 118.36 273.66 116.13 267.51 116.86C261.01 117.64 256.52 121.83 252.67 126.8C248.63 132.01 242.11 141.37 234.58 135.99C226.76 130.4 225.59 118.62 216 114.72C201.77 108.93 192.89 125.89 182.86 132.17C178.85 134.68 173.93 135.77 170 132.49C167.65 130.53 166.21 127.58 164.69 124.99C161.9 120.24 158.89 115.71 153.58 113.58C140.44 108.32 130.23 118.36 121.34 126.35C115.67 131.45 109.16 134.1 103.14 127.97C99.4 124.16 96.89 119.3 92.97 115.65C83.22 106.58 71.95 112.25 63.61 120.2C58.11 125.44 49.36 136.02 40.68 131.68C34.4 128.54 33.67 119.46 27.88 115.39C22.56 111.65 15.1 112.23 9.97001 116.02C4.17001 120.31 2.02001 127.6 2.58001 134.56C2.86001 138.02 8.29001 138.05 8.01001 134.56C7.36001 126.46 12.71 115.23 22.72 118.85C29.05 121.14 30.21 129.65 34.73 134.08C44.23 143.38 57.19 134.38 64.51 126.98C69.57 121.86 77.09 113.72 85.14 116.89C90.08 118.84 93.05 124.11 96.16 128.11C102.93 136.8 112.1 140.3 121.66 133.11C126.82 129.23 130.76 123.68 136.43 120.5C143.18 116.71 151.79 116.33 156.89 122.88C160.37 127.35 162.21 133.01 166.65 136.73C170.8 140.21 176.21 140.81 181.24 139.01C187.42 136.79 191.94 131.87 196.44 127.34C201.76 121.99 209.94 115.47 217.05 121.76C223.72 127.67 225.57 138.6 234.48 142.11C251.17 148.69 254.91 122.97 268.97 122.14C277.95 121.61 285.05 128.17 290.26 134.64C294.25 139.59 299.71 143.3 305.98 140C309.08 138.38 306.34 133.7 303.25 135.32Z" fill="#F27125"/>
<path d="M303.72 157.68C294.47 168.11 280.32 180.78 267.38 167.88C261 161.51 256.71 152.22 247.97 148.6C237.76 144.38 228.53 151.26 222.66 159.18C219.09 164.01 215.48 174.57 207.93 172.8C200.79 171.13 197.59 162.45 192.55 157.91C184.45 150.62 172.37 151.19 164.47 158.41C159.35 163.09 155.79 168.97 149.25 171.96C141.41 175.54 131.84 174.04 127.19 166.34C124.45 161.8 123.28 156.72 118.34 153.92C113.43 151.14 107.23 151.63 102.14 153.61C91.73 157.66 76.17 178.8 64.64 166.31C60.84 162.19 59.01 156.47 54.21 153.24C49.38 149.99 43.67 150.51 38.72 153.22C32.48 156.64 28.62 162.73 23.11 167C19.39 169.88 13.78 173.11 9.42999 169.44C6.33999 166.83 5.93999 161.93 5.62999 158.21C5.33999 154.76 -0.0900075 154.72 0.199992 158.21C1.09999 168.99 7.01999 180.2 19.67 175.29C30.51 171.09 43.72 146.19 54.91 161.77C57.79 165.78 59.99 170.49 64.37 173.16C69.58 176.34 75.97 175.75 81.41 173.51C92.55 168.92 110.93 145.58 120.41 164.74C123.13 170.23 125.79 174.67 131.58 177.31C137.34 179.93 143.89 179.83 149.75 177.6C155.91 175.26 160.32 170.98 164.62 166.16C170.38 159.71 178.31 155 186.73 160.25C195.6 165.79 202.38 185.14 216.06 176.61C225.85 170.51 229.87 147.73 245.45 153.4C256.6 157.46 260.11 172.18 271.05 177.16C285.62 183.79 298.64 171.55 307.55 161.51C309.87 158.91 306.04 155.06 303.72 157.68Z" fill="#F27125"/>
<path d="M292.37 14.66C291.72 9.95999 287.92 6.66999 283.36 5.74999C277.34 4.53999 271.88 8.13999 267.62 11.98C261.85 17.18 256.54 24.13 247.75 21.74C239.64 19.53 237.29 10.39 231.57 5.18999C223.97 -1.71001 215.26 0.459992 209.62 8.21999C206.76 12.15 204.78 16.86 201.31 20.33C196.21 25.45 182.95 25.82 178.29 19.7C174.86 15.19 174 9.76999 169.5 5.89999C165.59 2.53999 160.59 0.559992 155.47 0.0999922C143.75 -0.960008 136.49 6.42999 130.19 15.3C126.03 21.15 121.52 27.16 113.72 27.59C105.24 28.06 100.61 22.47 96.24 16.15C93.52 12.21 90.55 8.11999 85.9 6.35999C80.49 4.30999 74.94 6.05999 70.37 9.24999C63.67 13.92 59.15 22.39 51.21 25.17C42.48 28.23 37.9 17.78 30.51 15.25C15.95 10.27 3.96001 22.57 0.130006 35.45C-0.869994 38.8 4.37001 40.24 5.36001 36.89C7.45001 29.85 11.72 22.88 19.06 20.47C27.96 17.55 32.42 23.11 38.73 27.9C49.39 36 59.67 27.06 67.2 19.29C72.13 14.2 79.57 7.46999 86.66 12.99C90.74 16.16 92.88 21.43 96.21 25.31C102.9 33.11 114.6 35.48 123.58 30.13C133.65 24.14 136.52 9.39999 148.32 6.06999C153.57 4.58999 159.56 5.59999 164.1 8.58999C169.34 12.04 170.32 17.56 173.61 22.44C179.05 30.51 194.21 31.8 202.03 26.76C205.36 24.61 207.72 21.24 209.82 17.96C212.18 14.26 214.49 8.81999 218.7 6.88999C226.57 3.26999 231.77 14.38 235.52 19.24C239.16 23.96 244.04 27.2 250.09 27.6C256.63 28.03 261.86 24.92 266.51 20.63C269.28 18.07 271.74 15.06 274.97 13.04C279.15 10.42 286.24 9.65999 287.13 16.11C287.62 19.55 292.84 18.08 292.37 14.66Z" fill="#F27125"/>
<path d="M297.56 198.28C294.94 209.83 281.52 217.87 270.14 213.39C258.52 208.81 252.03 194.75 237.97 195.79C232.97 196.16 229.36 198.95 226.48 202.89C222.79 207.93 216.27 216.18 208.82 212.26C203.85 209.65 203.17 202.2 199.53 198.16C196.44 194.72 192.19 192.36 187.71 191.28C177.3 188.77 169.07 193.19 162.51 201.03C158.02 206.4 153.53 211.66 145.84 211.11C137.46 210.52 134.01 203.4 128.82 198.07C121.59 190.66 109.95 188.69 100.88 194.06C96.2 196.83 93.45 201.46 89.83 205.35C83.75 211.88 76.07 211.36 69.89 205.34C62.08 197.74 55.33 188.68 43.36 194.68C37.24 197.75 32.58 203.61 25.9 205.6C18.38 207.84 10.47 204.9 5.57001 198.99C3.34001 196.3 -0.479989 200.16 1.73001 202.83C9.10001 211.72 21.95 214.32 32.13 208.8C37.07 206.12 40.99 201.76 46.09 199.37C53.89 195.71 58.81 201.33 63.66 206.64C71.13 214.82 81.96 219.57 91.51 211.29C96.27 207.17 99.01 200.82 104.9 198.04C112.58 194.42 120.65 197.06 126.07 203.12C129.87 207.37 132.98 212.2 138.3 214.68C143.49 217.1 149.74 217.18 154.98 214.9C160.93 212.31 164.24 206.96 168.46 202.35C173.03 197.37 178.89 195.01 185.6 196.35C192.12 197.66 196.18 201.73 198.89 207.57C201.34 212.86 204.2 217.5 210.47 218.29C214.93 218.85 219.47 217.28 223.12 214.76C228.98 210.71 231.45 201.01 239.5 201.17C248.38 201.34 254.41 209.25 260.91 214.17C265.77 217.84 271.2 220.21 277.38 220.02C289.18 219.66 300.13 211.35 302.77 199.74C303.57 196.32 298.34 194.87 297.56 198.28Z" fill="#F27125"/>
</g>
<defs>
<clipPath id="clip0">
<rect width="308.27" height="220.01" fill="white"/>
</clipPath>
</defs>
</svg>
