<svg width="377" height="391" viewBox="0 0 377 391" fill="none" xmlns="http://www.w3.org/2000/svg">
<path d="M13.1213 382.387C7.78382 355.919 15.6496 328.421 13.3086 301.391C12.1537 287.814 8.40809 274.299 9.5942 260.784C10.1873 254.229 11.904 247.956 13.215 241.588C23.6403 190.494 6.25436 136.778 4.19427 83.8103C3.35151 61.5247 5.25553 39.1767 9.8127 17.7651C10.6555 13.8635 13.1525 8.99443 16.149 10.7423C18.0218 11.8035 18.49 14.7999 18.6773 17.3281C19.7698 31.6546 20.8623 46.0122 20.4253 60.3387C20.0195 73.0421 18.4276 85.7767 19.9259 98.3864C21.268 109.592 25.0449 120.204 27.1674 131.253C30.6321 149.169 29.7269 167.771 28.2287 185.968C27.7917 191.368 27.2923 196.892 28.2599 202.23C28.9154 205.819 30.1951 209.159 31.1627 212.623C34.9708 226.513 33.1604 241.651 35.2829 256.04C36.0945 261.471 37.4366 266.808 37.9985 272.27C38.4979 277.233 38.3106 282.227 38.1233 287.19C37.5615 302.421 36.9684 317.684 35.5638 332.822C34.0344 349.365 31.7246 367.249 38.4667 381.888C39.0597 383.199 39.8713 384.572 41.0262 384.884C43.4296 385.54 44.7718 381.7 45.1776 378.735C46.3949 369.434 47.6434 360.07 47.7059 350.613C47.8307 334.913 44.7094 319.338 43.8978 303.638C43.5233 296.272 43.6169 288.906 43.6169 281.54C43.6169 192.804 26.6992 104.036 31.6621 15.6426C31.8806 11.8972 33.0043 7.05927 36.0632 7.12169C37.1557 7.1529 38.1545 7.83957 39.0285 8.65109C47.425 16.3917 47.3313 31.5297 47.0504 44.3267C45.8955 94.797 54.9474 144.955 59.1612 195.332C60.5658 211.937 61.4086 228.635 61.0652 245.303C60.8155 257.226 59.9103 269.086 59.6294 281.041C59.3173 295.024 59.8479 309.069 60.4098 323.053C61.0652 339.689 61.7207 356.356 62.345 373.023C62.5011 376.863 63.0005 381.42 65.7473 383.292C68.3068 385.04 71.6466 383.261 73.2385 380.296C74.8304 377.331 75.1113 373.585 75.205 370.027C76.0789 340.563 69.1808 310.911 71.6466 281.603C72.4894 271.552 74.4246 261.658 74.3622 251.545C74.2998 243.336 72.9576 235.221 72.0212 227.044C68.1507 192.616 72.3333 157.596 68.2443 123.2C66.2155 106.065 62.1577 89.3037 59.8479 72.1993C57.5381 55.095 57.0387 37.1479 61.9704 21.136C62.7508 18.5454 63.7808 15.9236 65.6224 14.3629C67.464 12.8023 70.3357 12.8023 71.7403 15.0496C72.4582 16.2045 72.6455 17.7027 72.8015 19.1072C75.6107 42.3916 77.4835 62.3362 80.2928 85.6206" stroke="#FEDE93" stroke-width="7" stroke-miterlimit="10" stroke-linecap="round" stroke-linejoin="round"/>
<path d="M80.1991 85.652C84.8811 121.546 89.5631 157.471 94.2452 193.366C95.8058 205.32 97.3665 217.274 97.9284 229.322C98.3966 239.029 98.2093 248.767 98.022 258.474C97.6162 279.917 97.2104 301.329 96.8047 322.772C96.4613 340.906 96.2428 359.821 102.486 376.426C102.954 377.643 103.516 378.954 104.483 379.547C107.448 381.326 109.384 375.614 109.384 371.557C109.196 335.194 109.04 298.832 108.853 262.47C108.759 240.715 108.635 218.96 108.541 197.205C108.479 184.626 108.416 172.016 107.324 159.469C105.857 142.802 102.579 126.415 100.925 109.748C99.5515 95.6711 99.333 81.5007 97.4602 67.4864C95.4625 52.3797 91.5296 37.3665 92.4348 22.1974C92.7469 16.9849 95.4001 10.3367 99.5202 11.8349C103.547 30.7808 107.605 49.6954 111.631 68.6413C114.035 79.8465 116.407 91.0829 117.624 102.538C119.247 117.582 118.779 132.783 119.341 147.92C120.964 193.272 131.358 237.874 132.544 283.226C133.387 316.217 129.36 349.115 130.89 382.075C133.73 383.23 136.82 380.858 138.163 377.612C139.536 374.397 139.598 370.558 139.63 366.906C139.942 333.009 140.254 299.113 140.597 265.216C141.128 207.942 141.596 149.762 129.454 94.1105C128.393 89.2414 127.238 84.3723 126.77 79.3783C126.301 74.1971 126.614 68.9846 126.894 63.8346C127.8 48.4157 128.705 32.9968 129.61 17.5467C129.704 16.2046 129.797 14.8313 130.39 13.7388C131.826 11.0546 135.447 11.7725 137.164 14.3007C138.88 16.7976 139.224 20.2622 139.474 23.5083C142.033 56.406 144.593 89.3038 147.152 122.202C150.273 162.309 153.395 202.417 156.391 242.556C159.419 283.288 162.291 324.145 160.917 364.877C160.73 370.027 160.574 375.552 162.915 379.89C165.256 384.229 171.155 385.821 173.403 381.544C174.339 379.765 174.37 377.487 174.401 375.333C174.651 346.025 174.932 316.685 175.182 287.377C175.275 276.858 175.369 266.309 174.401 255.821C173.496 245.989 171.686 236.282 170.905 226.451C169.938 214.247 170.562 201.98 170.656 189.714C170.843 167.054 169.189 144.393 167.503 121.765" stroke="#FEDE93" stroke-width="7" stroke-miterlimit="10" stroke-linecap="round" stroke-linejoin="round"/>
<path d="M167.534 121.826C163.976 95.0144 172.279 69.7325 168.44 42.9835C167.191 34.2753 164.694 25.7544 164.382 16.9525C164.257 13.4879 164.85 9.33668 167.441 8.05698C169.189 7.21425 171.249 8.08819 172.81 9.46153C177.96 13.9249 179.364 22.3834 180.332 29.9992C189.915 106.313 194.378 183.439 193.66 260.346C193.567 270.084 193.41 279.822 193.754 289.561C194.191 301.172 195.377 312.751 196.563 324.3C198.405 342.341 200.246 360.381 202.119 378.422C202.275 380.076 202.525 381.855 203.461 383.041C204.46 384.259 206.021 384.477 207.425 384.352C215.385 383.603 221.034 373.959 222.252 364.22C223.469 354.482 221.409 344.557 220.036 334.787C216.04 306.29 217.788 277.201 215.01 248.516C213.73 235.189 211.452 221.986 209.954 208.69C208.549 196.298 207.769 183.845 207.113 171.391C204.273 119.173 202.868 66.8922 202.868 14.6428C202.868 12.0209 203.087 8.93092 204.897 7.65122C206.489 6.52758 208.58 7.37031 210.172 8.58759C217.039 13.8313 219.848 24.381 221.627 34.1192C225.81 56.7169 227.589 79.7828 229.056 102.818C231.897 147.108 233.738 191.429 234.519 235.782C234.706 245.614 234.831 255.446 234.144 265.184C233.769 270.49 233.145 275.796 233.145 281.133C233.145 286.564 233.769 291.995 234.425 297.395C237.172 320.648 239.919 343.87 242.665 367.123C243.414 373.334 244.226 379.827 247.222 384.914C247.847 385.944 248.627 387.005 249.626 387.224C251.187 387.567 252.498 385.944 253.434 384.415C259.833 373.584 261.144 359.227 260.395 345.649C259.614 332.103 256.992 318.713 256.368 305.136C255.369 284.099 259.177 263.28 259.271 242.243C259.333 230.725 258.272 219.177 257.211 207.691C253.091 162.714 248.939 117.737 244.819 72.7601C242.915 52.0663 241.073 30.4674 246.786 11.0846C249.782 9.08699 253.777 11.5215 255.588 15.1734C257.398 18.8252 257.617 23.2886 257.804 27.5647C258.865 52.0039 260.613 76.4431 263.017 100.757C264.234 112.93 265.607 125.103 267.699 137.12C269.259 146.109 271.226 154.973 272.63 163.994C274.472 175.792 275.346 187.746 276.189 199.7C278.53 232.286 280.902 264.872 283.243 297.457C283.93 306.852 284.616 316.278 284.398 325.673C284.054 341.716 281.152 357.635 282.431 373.647C282.712 377.205 283.336 381.075 285.553 383.478C289.454 387.755 296.072 384.415 298.319 378.734C300.566 373.054 299.817 366.28 299.131 359.913C296.665 337.846 295.291 315.654 294.979 293.431" stroke="#FEDE93" stroke-width="7" stroke-miterlimit="10" stroke-linecap="round" stroke-linejoin="round"/>
<path d="M294.948 293.463C293.387 261.938 295.541 232.786 295.198 201.605C294.542 142.926 280.153 84.9335 280.465 26.2544C280.496 19.4501 281.526 11.1788 286.676 8.83791C290.859 6.90274 295.728 10.4297 298.038 15.2676C300.348 20.1055 300.722 25.8798 301.035 31.4356C305.467 110.871 309.899 190.306 314.331 269.741C315.112 283.912 315.923 298.113 315.892 312.315C315.892 322.116 315.486 331.948 316.423 341.717C317.64 354.327 321.105 366.687 326.505 377.642C327.035 378.704 327.597 379.765 328.346 380.545C331.374 383.635 335.994 381.044 338.397 377.393C343.36 369.902 343.703 359.258 343.048 349.52C341.425 325.237 335.026 301.672 332.654 277.451C331.436 264.997 331.312 252.45 331.062 239.934C330.094 186.405 327.504 132.876 323.259 79.5025C322.822 74.0716 322.385 68.5782 323.071 63.2409C323.602 59.1521 324.757 55.2194 325.1 51.1306C326.317 37.085 318.015 23.0395 320.481 9.27488C323.071 7.49578 325.662 5.74789 328.253 4C330.5 16.8283 332.747 29.6253 334.964 42.4535C337.898 59.2458 340.832 76.1316 341.425 93.2359C341.799 104.254 341.206 115.241 341.362 126.259C341.581 142.52 343.485 158.719 345.17 174.887C352.006 239.466 356.532 313.813 357.968 378.766C362.9 382.387 369.08 368.684 371.483 362.411C373.887 356.137 373.325 348.74 372.701 341.748C371.171 324.831 369.642 307.914 368.144 290.997C367.051 278.918 365.959 266.839 365.646 254.728C365.272 239.965 366.021 225.17 364.897 210.407C364.055 199.389 362.182 188.527 360.871 177.572C356.064 137.276 358.811 96.0138 351.85 56.1245C348.947 39.582 344.39 22.6025 347.355 6.24729" stroke="#FEDE93" stroke-width="7" stroke-miterlimit="10" stroke-linecap="round" stroke-linejoin="round"/>
</svg>
