<svg width="427" height="184" viewBox="0 0 427 184" fill="none" xmlns="http://www.w3.org/2000/svg">
<g clip-path="url(#clip0)">
<path d="M425.79 172.35C411.66 130.48 422.5 85.9995 418.7 42.9495C417.05 24.2395 409.31 1.97953 387.03 1.11953C377.81 0.76953 369.59 6.03953 365.27 14.0295C360.99 21.9495 360.64 31.2795 360.32 40.0595C359.46 63.6095 358.94 87.1695 358.78 110.73C358.7 121.55 359.21 132.47 358.63 143.28C358.36 148.37 357.81 156.75 353.12 159.9C346.57 164.3 340.93 154.32 339.69 149.28C337.17 139.08 338.56 127.48 338.58 117.05C338.63 94.1395 338.96 71.2195 338.72 48.3095C338.54 31.1795 334.25 8.69953 314.44 4.25953C292.19 -0.73047 284.02 24.0995 280.91 40.9495C276.91 62.5595 277.1 84.5595 275.93 106.42C275.36 117.15 274.45 127.87 272.26 138.4C271.39 142.61 270.55 147.06 268.76 151C267.71 153.31 265.21 158.6 262.22 159.09C253.08 160.59 255.39 117.09 255.42 112.08C255.59 88.8995 256.73 65.6395 254.56 42.5095C253.09 26.9095 248.87 1.96953 227.97 2.78953C218.16 3.16953 210.13 10.4395 206.61 19.2395C202.67 29.0995 203.6 40.3595 203.49 50.7695C203.25 74.1995 203 97.6195 202.76 121.05C202.66 130.7 203.59 141.23 200.71 150.57C198.87 156.53 193.24 163.93 187.74 156.72C184.99 153.12 184.35 148 183.8 143.65C183.04 137.6 182.56 131.5 182.03 125.42C181.02 113.78 180.24 102.12 179.68 90.4595C179.12 78.7895 178.79 67.1095 178.68 55.4295C178.59 45.5595 179.12 35.6095 177.41 25.8295C175.89 17.1695 171.42 8.40953 163.66 3.79953C154.63 -1.57047 144.88 3.42953 140.51 12.1095C135.8 21.4695 133.58 32.6895 131.26 42.8395C128.74 53.8395 126.92 64.9895 125.62 76.1995C124.34 87.3095 123.71 98.4895 123.74 109.68C123.77 118.78 124.32 127.88 123.71 136.97C123.21 144.39 121.88 152.58 117.37 158.73C116.34 160.14 115.02 161.62 113.65 162.71C112.72 163.45 112.01 163.62 111.85 163.79C110.54 162.18 110.3 158.44 110.17 156.81C108.29 134.18 111.32 110.84 111.93 88.1895C112.24 76.6595 112.25 65.1095 111.48 53.5895C110.77 43.0195 110.13 31.5195 106.26 21.5495C102.64 12.2295 96.07 4.29953 86.29 1.14953C77.46 -1.70047 67.69 0.929529 61.49 7.82953C48.51 22.2795 51.69 47.0695 53.32 64.6995C55.41 87.2995 59.68 109.79 59.19 132.56C59.02 140.74 58.72 152.02 50.99 156.99C43.89 161.57 38.98 154.84 37.94 148.13C36.31 137.61 38.67 126 39.03 115.41C39.42 103.81 39.39 92.1895 38.94 80.5895C38.49 68.9895 37.62 57.4095 36.33 45.8695C35.26 36.2795 34.77 26.0195 30.38 17.2395C26.34 9.14953 18.17 3.51953 8.88997 5.22953C-1.07003 7.05953 -7.44003 15.8495 -11.22 24.5895C-19.71 44.2195 -17.43 67.5695 -17.66 88.4495L-18.04 123.65C-18.14 133.18 -17.19 143.41 -18.92 152.82C-19.74 157.29 -21.94 164.89 -27.74 160.99C-35.42 155.82 -33.52 142.17 -33.62 134.28C-33.93 110.99 -34.71 87.7095 -35.97 64.4495C-36.59 53.6595 -36.76 42.6795 -38.38 31.9995C-39.58 24.1395 -42.24 15.8795 -48.22 10.3095C-55.24 3.75953 -65.45 2.83953 -73.83 7.29953C-82.95 12.1495 -87.75 21.8995 -89.46 31.7195C-93.48 54.7195 -94.02 78.8895 -94 102.2C-93.98 124.89 -92.55 147.56 -89.84 170.09C-89.26 174.88 -86.15 179.02 -80.91 179.02C-76.53 179.02 -71.39 174.91 -71.98 170.09C-74.74 147.2 -76.17 124.17 -76.14 101.11C-76.13 89.3995 -75.75 77.6895 -75 66.0095C-74.32 55.3595 -74.13 44.0295 -71.68 33.6095C-70.65 29.1995 -65.06 17.3895 -59.51 24.3195C-55.09 29.8395 -55.41 39.3295 -54.99 45.9195C-53.53 68.4395 -52.52 90.9795 -51.94 113.54C-51.65 124.87 -52.06 136.35 -51.24 147.66C-50.5 157.78 -47.73 167.77 -39.55 174.38C-32.39 180.17 -22.53 181.95 -14.27 177.29C-7.35003 173.39 -3.47003 165.82 -1.87003 158.29C0.159966 148.77 -0.380028 138.83 -0.270027 129.16C-0.14003 117.43 -0.0200272 105.69 0.10997 93.9595C0.229973 82.8895 0.259972 71.8095 0.479973 60.7395C0.669975 51.2795 1.06997 41.4595 4.64997 32.5595C5.81997 29.6495 7.95997 24.4095 11.19 23.0995C12.96 22.3795 13.89 23.9295 14.91 26.2595C18.6 34.6895 18.47 45.5295 19.31 54.5295C21.44 77.2795 21.93 100.19 20.81 123.02C19.91 141.19 16.48 166.93 38 175.02C47.2 178.48 57.24 175.37 64.43 169.1C71.9 162.59 75.08 152.88 76.28 143.35C79.04 121.5 75.07 99.0895 72.52 77.4095C71.2 66.1495 70.07 54.8295 70.02 43.4795C69.99 36.3895 69.49 26.7895 73.96 20.6795C78.49 14.4995 85.64 19.9295 88.33 25.0595C93 33.9995 93.12 45.9095 93.71 55.7495C95.06 78.4995 93.46 101.27 92.6 124C92.18 135.08 91.47 146.44 92.32 157.51C92.93 165.48 95.39 174.55 102.51 179.17C120.16 190.61 135.93 166.53 139.42 152.04C143.81 133.81 141.02 114.61 141.86 96.0795C142.86 74.1595 146.53 52.4595 152.68 31.3895C153.46 28.7095 154.27 26.0295 155.15 23.3795C155.17 23.3095 155.75 22.0695 156.25 20.9595C157.1 22.2695 158.14 23.3695 158.76 24.9595C161.76 32.6795 160.74 41.9095 160.76 49.9895C160.84 73.3495 161.81 96.7095 163.69 120C165.14 137.98 163.6 165.51 182.52 175.2C191.51 179.81 201.83 177.83 208.98 170.83C216.12 163.85 218.87 154.06 219.92 144.42C221.04 134.17 220.59 123.68 220.7 113.39C220.82 101.68 220.94 89.9595 221.07 78.2495C221.19 66.8995 221.31 55.5595 221.42 44.2095C221.48 38.2195 219.74 23.5895 227.4 20.9295C238.07 17.2195 237.81 60.5695 237.91 65.2995C238.37 88.1595 236.99 111.02 237.79 133.87C238.34 149.6 239.35 176.31 260.94 176.98C281.26 177.62 287.97 152.86 290.61 137.19C294.2 115.85 294.01 94.2195 295.23 72.6795C295.82 62.2895 296.76 51.9295 298.92 41.7395C300.02 36.5395 301.7 23.6495 308.11 21.7295C315.25 19.5895 318.88 30.7995 319.87 35.6295C321.65 44.3795 320.86 53.7795 320.84 62.6495C320.79 85.5095 320.73 108.36 320.68 131.22C320.64 149.57 323.52 174.22 345.77 178.25C365.34 181.79 374.55 163.28 376.22 146.91C377.25 136.79 376.57 126.43 376.62 116.27C376.67 104.86 376.81 93.4395 377.03 82.0295C377.25 70.2495 377.57 58.4695 377.97 46.6995C378.22 39.2895 377.16 29.1895 381.04 22.4295C384.59 16.2495 392.07 19.5695 395.51 24.2095C400.93 31.5095 400.97 42.4595 401.39 51.1095C402.43 72.3495 400.65 93.5895 400.46 114.83C400.27 135.84 401.81 157.09 408.57 177.12C412.22 187.94 429.48 183.29 425.79 172.35Z" fill="#FEDE93"/>
</g>
<defs>
<clipPath id="clip0">
<rect width="520.3" height="183.26" fill="white" transform="translate(-94)"/>
</clipPath>
</defs>
</svg>
