<svg width="288" height="447" viewBox="0 0 288 447" fill="none" xmlns="http://www.w3.org/2000/svg">
<g clip-path="url(#clip0)">
<path d="M63.1431 10.4045C63.1431 6.8166 61.1428 2.0143 57.6482 1.26912C52.7317 0.192742 48.8274 0.882727 45.8872 3.72547C41.5491 2.84228 36.7772 5.46423 36.8495 11.9501C38.4643 152.072 40.079 292.194 41.6937 432.317C41.7419 436.926 44.7545 442.114 49.2854 441.894C53.045 441.7 56.8288 441.535 60.5884 441.342C64.6373 441.148 69.0959 437.947 68.9513 432.648C65.1675 291.946 63.2154 151.189 63.1431 10.4045Z" fill="#01737B"/>
<path d="M93.1481 426.355C88.2798 419.897 88.0147 407.505 86.8338 399.335C85.6288 390.945 84.6166 382.527 83.8212 374.082C82.0378 355.563 81.2184 336.961 80.9774 318.331C80.4954 283.114 82.1583 247.898 83.9659 212.736C87.4122 145.035 91.1237 77.0572 82.2547 9.65947C81.7486 5.76796 76.5429 7.12033 77.049 10.9842C86.8579 85.4474 80.9774 160.545 77.5069 235.312C75.844 271.329 74.7354 307.457 76.3983 343.529C77.1454 359.813 78.4469 376.097 80.4954 392.242C82.0137 404.11 82.0378 420.918 89.2197 430.44C91.437 433.421 95.3895 429.336 93.1481 426.355Z" fill="#01737B"/>
<path d="M116.14 6.67875C116.188 2.78723 110.886 2.15245 110.838 6.07156C108.934 149.975 107.006 293.851 105.102 437.754C105.054 441.645 110.356 442.28 110.404 438.361C112.332 294.458 114.236 150.582 116.14 6.67875Z" fill="#01737B"/>
<path d="M17.6415 14.904C17.6415 7.06577 6.98912 6.43098 6.98912 14.3244C6.98912 153.26 4.67548 292.168 -6.65896e-07 430.993C-0.265105 438.831 10.3873 439.438 10.6524 431.572C15.3038 292.747 17.6415 153.839 17.6415 14.904Z" fill="#01737B"/>
<path d="M139.903 10.5701C140.048 4.69141 132.07 4.22222 131.926 10.1285C128.19 150.996 124.479 291.891 120.743 432.758C120.598 438.637 128.576 439.106 128.72 433.2C132.456 292.332 136.191 151.465 139.903 10.5701Z" fill="#01737B"/>
<path d="M169.281 9.30015C169.281 -2.42959 153.303 -3.39557 153.303 8.41697C153.399 144.62 153.496 280.796 153.592 416.999C151.76 418.848 150.82 421.663 151.857 425.306C152.507 427.542 153.134 429.805 153.785 432.04C156.388 441.176 169.571 441.562 169.571 430.467C169.498 290.069 169.402 149.671 169.281 9.30015Z" fill="#01737B"/>
<path d="M203.239 219.139C202.492 150.113 203.432 79.6514 195.768 11.0944C194.249 -2.51206 176.029 2.20744 177.572 15.7863C185.26 84.3709 184.031 155.108 184.682 224.162C185.332 293.464 184.151 362.821 178.536 431.875C177.427 445.564 196.057 446.586 197.166 432.896C202.95 361.8 204.01 290.456 203.239 219.139Z" fill="#01737B"/>
<path d="M232.376 225.542C231.774 153.701 227.653 81.7214 225.098 9.96298C224.881 4.11191 216.904 3.61512 217.121 9.52139C219.675 81.3074 223.796 153.259 224.399 225.1C225.002 295.451 214.108 366.188 206.998 435.932C206.396 441.783 214.397 442.197 214.976 436.374C222.085 366.63 232.979 295.893 232.376 225.542Z" fill="#01737B"/>
<path d="M250.668 19.8992C250.307 14.1033 242.306 13.5789 242.691 19.4576C251.464 160.297 250.813 301.661 240.787 442.391C240.378 448.27 248.355 448.711 248.765 442.832C258.79 302.103 259.417 160.711 250.668 19.8992Z" fill="#01737B"/>
<path d="M285.735 9.2733C285.518 -2.45645 269.563 -3.42243 269.756 8.39012C272.262 150.996 272.672 293.63 271.009 436.236C270.865 447.993 286.843 448.932 286.988 437.119C288.651 294.513 288.241 151.879 285.735 9.2733Z" fill="#01737B"/>
</g>
<defs>
<clipPath id="clip0">
<rect width="288" height="447" fill="white"/>
</clipPath>
</defs>
</svg>
