<svg width="279" height="466" viewBox="0 0 279 466" fill="none" xmlns="http://www.w3.org/2000/svg">
<g clip-path="url(#clip0)">
<path d="M27.8247 8.98317C23.5259 13.9639 20.2921 19.522 17.4881 25.4618C16.1399 28.3191 14.8893 31.2352 13.5704 34.1121C12.5738 36.2942 11.5285 39.5528 9.87734 41.8523C8.52909 41.5881 7.08314 42.1459 6.70211 43.8779L6.30154 45.7176C5.75443 48.2031 8.30438 50.2971 10.6003 49.025C15.8956 46.0894 17.8496 38.7993 20.1846 33.5934C23.438 26.3522 26.7402 19.1796 31.9672 13.1224C34.4096 10.2846 30.2965 6.12583 27.8247 8.98317Z" fill="#F27125"/>
<path d="M38.6986 0.929377C25.4995 15.49 15.6416 33.7887 8.01128 51.833C6.55556 55.2677 11.5968 58.2522 13.0623 54.7882C20.4777 37.2625 30.0034 19.2183 42.8313 5.06858C45.3617 2.27974 41.2388 -1.86925 38.6986 0.929377Z" fill="#F27125"/>
<path d="M79.1853 43.124C81.2956 43.2806 83.3864 40.2667 81.5887 37.9867C79.7617 35.6676 71.0763 24.0523 68.3016 32.1057C67.3637 34.826 70.0113 38.7891 71.2326 40.981C72.7665 43.7209 74.5251 46.2455 75.3457 49.1029C71.5745 46.3238 67.862 40.2178 65.947 37.654C62.7523 33.368 59.8604 28.8863 57.1541 24.2774C55.7375 21.8702 52.7381 22.8096 51.9467 24.796C50.5887 23.3575 49.1232 21.9876 47.4916 20.7448C44.502 18.4551 41.5906 23.5435 44.5411 25.8039C56.2064 34.7477 59.6845 50.5511 69.7378 61.0215C72.3464 63.7418 76.479 59.6026 73.8705 56.8823C71.9458 54.8763 70.2654 52.7137 68.7119 50.4631C71.3889 53.5455 74.4664 56.1875 78.687 56.393C80.3772 56.4713 81.4519 54.9741 81.6083 53.4672C81.9502 50.1206 81.1784 47.1752 79.7422 44.1613C79.5761 43.8188 79.3807 43.4763 79.1853 43.124Z" fill="#F27125"/>
<path d="M128.25 10.9598C124.469 13.3866 121.04 16.2928 118.119 19.6492C119.936 16.8897 122.144 14.3651 124.782 12.134C127.664 9.69745 123.512 5.57781 120.649 7.9948C113.488 14.0422 108.778 22.3304 107.254 31.5874C106.922 33.5934 108.437 34.9634 109.99 35.2178C109.843 37.5859 110.693 39.6408 113.644 40.453C117.278 41.4609 118.832 35.8049 115.197 34.8068C115.49 34.8851 121.079 25.1682 121.88 24.1896C124.537 20.9507 127.693 18.2695 131.21 16.0188C134.366 13.9932 131.435 8.92442 128.25 10.9598Z" fill="#F27125"/>
<path d="M23.9363 80.3578C23.9265 79.7414 23.9461 79.1249 24.0144 78.5182C24.0144 78.4986 24.0242 78.4693 24.0242 78.4497C24.0535 78.1855 24.0828 77.9311 24.1317 77.6669C24.5029 74.3985 19.0318 73.6647 18.387 76.884C16.3255 87.1881 14.6353 97.5508 13.2675 107.962C12.779 111.691 18.6312 111.652 19.1197 107.962C19.618 104.146 20.1749 100.34 20.7806 96.5429C20.4582 102.532 20.8197 108.55 21.8944 114.587C22.5587 118.296 28.196 116.72 27.5316 113.031C25.7535 103.089 26.1541 93.2256 28.6161 83.4402C29.3684 80.485 25.8023 78.8998 23.9363 80.3578Z" fill="#F27125"/>
<path d="M96.1948 91.4932C94.8758 87.9998 89.219 89.5166 90.5575 93.0491C90.8115 93.7341 91.0069 94.3603 91.1242 94.9768C84.9007 90.4853 80.5336 83.5573 73.3527 80.2498C70.8906 79.1147 67.6666 81.5611 69.3568 84.252C69.6889 84.7805 70.0407 85.3089 70.3924 85.8177C68.5849 86.2091 67.1292 88.0684 68.497 89.9765C74.5348 98.4702 81.0905 106.954 91.4759 110.056C94.0356 110.819 95.9017 107.942 94.7781 105.751C94.2213 104.674 93.6057 103.656 92.9512 102.678C94.4753 103.05 96.1264 102.433 96.5856 100.701C97.4453 97.4623 97.3867 94.6343 96.1948 91.4932Z" fill="#F27125"/>
<path d="M141.732 71.365C140.726 71.8542 139.739 72.3631 138.753 72.8915C138.831 72.3044 138.85 71.7172 138.821 71.1497C139.163 69.9265 138.635 68.5663 137.668 67.8227C136.652 66.5897 134.952 65.9634 132.383 66.5603C127.576 67.6759 123.228 71.8347 122.554 76.7176C117.874 80.7785 113.575 85.2504 109.716 90.1823C107.42 93.1179 111.524 97.2865 113.849 94.3215C114.904 92.9711 116.008 91.6599 117.132 90.378C116.536 92.6971 118.929 95.5055 121.313 93.7833C124.381 91.5522 127.263 89.0961 129.901 86.4051C132.011 86.5519 134.219 85.8865 136.017 84.2915C137.16 83.2738 137.15 81.9919 136.554 80.9938C139.153 79.3205 141.859 77.7842 144.693 76.424C148.073 74.7899 145.113 69.7406 141.732 71.365Z" fill="#F27125"/>
<path d="M179.239 47.1755C182.336 46.334 183.235 42.6058 183.284 39.7778C183.343 36.2844 181.916 33.114 179.581 30.5893C178.243 29.1411 176.484 29.5912 175.468 30.7361C175.067 29.327 174.677 27.9277 174.266 26.5284C173.494 23.8961 169.225 23.583 168.629 26.5284C168.58 26.7926 168.531 27.047 168.492 27.3014C166.997 27.2427 165.454 28.2604 165.395 30.149C165.327 32.5464 165.786 34.2686 166.9 36.3725C167.017 36.5976 167.164 36.7933 167.31 36.9694C169.518 44.3574 171.726 51.7453 173.934 59.1333C175.009 62.7343 180.656 61.198 179.571 57.5774C178.516 54.0449 177.461 50.5026 176.396 46.9701C177.227 47.3419 178.174 47.4593 179.239 47.1755Z" fill="#F27125"/>
<path d="M218.28 30.7456C215.828 26.3911 214.137 21.9876 212.994 17.1439C212.252 13.993 208.051 14.6975 207.377 17.2711C205.706 13.582 203.732 10.0299 201.085 6.78114C198.711 3.8553 194.598 8.02389 196.952 10.9204C204.69 20.4416 206.361 33.28 211.978 43.9656C213.151 46.1967 216.726 45.6585 217.322 43.2709C218.094 40.1689 218.084 37.2137 217.655 34.3172C218.593 33.4953 219.071 32.1547 218.28 30.7456Z" fill="#F27125"/>
<path d="M219.188 84.36C218.729 82.6769 217.156 82.0898 215.593 82.3149C214.987 82.4029 214.372 82.491 213.766 82.5791C213.776 82.5693 213.776 82.5693 213.786 82.5595C215.574 80.896 214.47 78.5866 212.721 77.8527C214.323 77.0699 214.333 74.9954 213.327 73.645C213.805 73.4982 214.284 73.3515 214.772 73.2047C218.378 72.1576 216.844 66.5115 213.219 67.5585C209.721 68.5664 206.292 69.77 202.951 71.2084C200.645 72.1968 197.831 73.1851 195.877 74.9563C193.855 75.3085 191.823 75.6608 189.801 76.0033C186.098 76.6394 187.671 82.2855 191.354 81.6495C192.194 81.5027 193.034 81.3559 193.865 81.2189C194.089 82.0115 194.461 82.7748 195.008 83.4598C197.069 86.0529 200.313 86.4443 203.41 86.503C203.703 86.5128 203.957 86.4736 204.201 86.4149C204.182 88.2057 205.931 89.5561 207.894 89.2723C210.982 88.8319 214.069 88.3916 217.156 87.9512C218.71 87.7458 219.569 85.7495 219.188 84.36ZM200.655 80.4458C200.577 80.3186 200.518 80.2012 200.469 80.0936C203.498 79.575 206.517 79.0465 209.546 78.5279C208.236 79.7609 207.074 81.1406 206.058 82.6182C205.716 81.5712 204.827 80.7101 203.4 80.6807C202.482 80.6905 201.564 80.622 200.655 80.4458Z" fill="#F27125"/>
<path d="M164.115 125.028C163.988 125.058 163.861 125.087 163.734 125.116C164.897 123.815 166.04 122.494 167.124 121.104C168.903 118.824 167.31 115.595 164.281 116.212C160.608 116.955 157.052 117.983 153.583 119.421C150.35 120.762 146.735 123.668 143.188 123.609C139.427 123.551 139.427 129.402 143.188 129.471C146.989 129.529 149.802 127.612 153.124 126.007C154.052 125.557 155 125.146 155.957 124.764C154.736 125.948 153.495 127.103 152.186 128.208C149.812 130.214 152.401 133.708 155.029 133.101L165.669 130.674C169.342 129.843 167.789 124.187 164.115 125.028Z" fill="#F27125"/>
<path d="M52.4646 166.097C49.9439 159.453 47.4331 152.809 44.9124 146.164C43.9256 143.552 40.9556 143.62 39.7441 145.343C38.3372 143.826 35.2988 144.501 34.8103 146.634C34.0971 149.795 34.0776 152.936 34.2729 156.067C32.827 151.732 31.469 147.368 30.2575 142.955C29.261 139.325 23.6139 140.871 24.6203 144.511C27.3949 154.6 30.7753 164.453 34.7712 174.121C35.7189 176.421 39.9004 177.351 40.4085 174.121C41.0044 170.334 40.7211 166.538 40.3694 162.751C41.3562 166.244 42.1377 169.806 42.7044 173.456C43.1636 176.421 47.6382 176.059 48.3417 173.456C48.4491 173.065 48.5175 172.673 48.5859 172.282C48.9083 173.133 49.2307 173.975 49.5531 174.826C50.5008 177.331 53.3341 177.566 54.8973 175.521C56.607 173.29 57.2421 171.127 57.2421 168.319C57.2323 165.598 54.1548 164.855 52.4646 166.097Z" fill="#F27125"/>
<path d="M104.675 139.403C104.45 140.088 104.274 140.763 104.079 141.448C103.942 139.471 103.806 137.495 103.669 135.518C103.415 131.78 97.5625 131.751 97.8166 135.518C98.7642 149.198 99.7119 162.888 100.65 176.568C100.904 180.306 106.756 180.335 106.502 176.568C106.375 174.757 106.248 172.947 106.131 171.127C107.499 170.706 108.681 169.415 108.358 167.614C106.746 158.553 107.469 149.697 110.322 140.959C111.485 137.367 105.838 135.821 104.675 139.403Z" fill="#F27125"/>
<path d="M195.321 160.794C187.72 161.009 180.197 162.037 172.879 163.954C173.094 162.007 171.677 159.942 169.411 160.862C159.543 164.874 149.9 169.336 140.472 174.288C137.141 176.039 140.091 181.098 143.423 179.347C146.5 177.732 149.597 176.186 152.724 174.669C152.724 174.679 152.714 174.689 152.714 174.699C152.577 174.797 152.44 174.904 152.313 175.032C150.496 176.861 148.689 178.701 146.871 180.531C144.146 183.29 148.122 186.931 151.004 184.67C151.981 183.907 152.987 183.212 154.013 182.547C155.674 183.183 157.911 182.175 158.107 180.228C162.943 177.85 168.199 176.45 173.69 176.098C177.432 175.863 177.451 170.002 173.69 170.237C172.889 170.286 172.097 170.354 171.306 170.442C172.772 170.002 174.237 169.591 175.722 169.219C182.16 167.614 188.697 166.822 195.33 166.636C199.082 166.538 199.092 160.686 195.321 160.794Z" fill="#F27125"/>
<path d="M234.762 132.935C227.043 126.604 220.029 119.558 213.737 111.798C211.363 108.872 207.25 113.041 209.604 115.937C211.675 118.482 213.825 120.938 216.043 123.335C215.896 123.179 215.759 123.032 215.613 122.875C215.251 122.494 214.851 122.259 214.45 122.122C211.441 119.656 208.539 117.043 205.628 114.558C202.775 112.131 198.623 116.251 201.495 118.697C204.983 121.662 208.432 124.744 212.027 127.602C216.941 132.954 222.969 141.722 230.961 141.154C233.042 141.008 233.97 139.119 233.736 137.524C235.534 136.8 236.667 134.5 234.762 132.935Z" fill="#F27125"/>
<path d="M21.3083 201.374C20.8882 200.385 20.0479 199.984 19.1491 199.964C18.2307 198.095 15.7589 197.704 14.3618 199.24C14.1274 196.207 9.24239 195.297 8.63666 198.614C7.30795 205.885 5.97923 213.155 4.65052 220.416C4.08387 223.508 7.95276 225.103 9.61365 223.352C10.7665 223.42 11.8998 222.862 12.3199 221.483C12.8377 222.363 13.9027 222.764 14.948 222.716C15.8078 224.624 18.8072 225.524 20.1652 223.156C24.1122 216.277 24.3663 208.625 21.3083 201.374Z" fill="#F27125"/>
<path d="M60.7104 197.489C59.45 195.062 56.4604 195.952 55.5714 197.9C54.8972 197.087 54.0961 196.393 53.0703 195.982C48.9278 194.348 44.0722 199.915 47.9704 203.164C49.3284 204.299 50.96 203.967 52.0151 203.057C52.4938 203.879 52.9726 204.7 53.4513 205.522C54.5651 207.431 55.6691 209.349 56.7828 211.257C57.965 213.292 60.5931 212.999 61.8339 211.257C64.8724 206.981 62.8891 201.677 60.7104 197.489Z" fill="#F27125"/>
<path d="M71.1153 129.363C69.347 124.529 67.7447 119.646 66.2987 114.714C65.439 111.789 61.0914 112.072 60.6029 114.9C60.4563 114.822 60.3 114.753 60.1339 114.695C59.9874 113.961 60.0264 113.168 60.3 112.356C61.5017 108.775 55.8547 107.238 54.6628 110.8C53.4317 114.46 54.6139 118.687 57.3788 121.3C58.4926 124.412 59.7627 127.445 61.1793 130.43C62.0391 132.24 64.2471 132.191 65.566 131.115C67.0022 134.354 72.3854 132.847 71.1153 129.363Z" fill="#F27125"/>
<path d="M116.252 207.538C115.393 207.861 114.562 208.233 113.751 208.615C114.846 206.726 115.93 204.818 116.995 202.9C118.49 200.199 115.569 197.684 112.999 198.898C108.612 200.953 106.297 205.933 103.718 209.808C100.669 214.378 97.6211 218.958 94.5631 223.528C93.2931 224.398 92.8241 225.299 92.8241 227.011C92.8339 229.976 96.5464 230.798 98.1683 228.616C99.3797 229.144 100.933 228.978 101.891 227.559C102.555 226.571 103.2 225.573 103.854 224.575C106.18 221.306 108.925 218.42 112.188 216.179C111.885 217.157 111.582 218.146 111.289 219.124C110.185 222.735 115.823 224.281 116.927 220.68C117.904 217.5 118.871 214.329 119.848 211.149C120.463 209.143 118.353 206.736 116.252 207.538Z" fill="#F27125"/>
<path d="M229.711 186.04C229.447 184.2 229.154 182.361 228.822 180.521C228.275 177.507 223.995 177.977 223.184 180.521C222.198 183.623 221.699 186.774 221.416 189.954C221.211 186.862 221.094 183.75 221.094 180.619C221.094 176.851 215.241 176.842 215.241 180.619C215.251 191.843 216.531 202.91 219.042 213.84C219.706 216.737 223.898 216.521 224.679 213.84C225.236 211.932 225.617 210.004 225.881 208.057C227.298 209.955 231.059 209.368 231.196 206.315L231.968 188.799C232.046 187.165 230.961 186.245 229.711 186.04Z" fill="#F27125"/>
<path d="M266.983 13.0342C265.742 13.5431 264.541 14.091 263.358 14.6684C263.788 14.003 264.228 13.3376 264.658 12.6722C266.475 9.86378 262.372 6.76181 260.066 9.12009C254.653 14.6586 248.899 19.8253 242.763 24.5516C240.419 26.3521 241.786 29.9336 243.946 30.1684C243.027 31.3133 242.138 32.5071 241.298 33.7401C239.383 36.5387 243.574 39.5722 245.89 37.2922C248.938 34.2783 251.703 31.0295 254.302 27.6536C258.483 23.896 263.261 20.843 268.546 18.6804C271.966 17.2811 270.461 11.6056 266.983 13.0342Z" fill="#F27125"/>
<path d="M271.399 87.7553C271.155 85.5927 270.744 83.6161 270.109 81.6688C270.93 80.8566 271.243 79.6432 270.373 78.3907C268.38 75.5334 266.748 72.5586 265.43 69.4371C265.43 69.3979 265.43 69.3686 265.43 69.3392C265.175 66.3058 264.345 63.5952 262.626 61.0706C260.779 58.3698 256.49 59.9942 257.281 63.331C258.034 66.521 259.079 69.6132 260.388 72.5782C259.607 71.2767 258.845 69.9459 258.141 68.5759C257.926 68.1552 257.633 67.8519 257.301 67.6268C255.884 64.8184 254.468 62.01 253.051 59.2015C251.576 56.2757 246.554 58.3209 247.707 61.462C248.283 63.0276 248.899 64.5639 249.553 66.0709C247.824 66.5602 246.534 68.3215 247.902 70.122C250.55 73.6252 253.422 76.825 256.627 79.79C257.926 82.4908 259.343 85.1426 260.906 87.7358C261.981 89.5265 263.905 89.458 265.146 88.4795C265.566 88.9296 265.986 89.3797 266.416 89.8201C268.048 91.4934 271.692 90.3778 271.399 87.7553Z" fill="#F27125"/>
<path d="M263.964 123.247C260.359 121.907 257.516 119.274 255.679 115.918C253.872 112.61 248.821 115.566 250.628 118.873C250.687 118.981 250.755 119.069 250.814 119.176C248.674 119.764 247.502 123.081 249.993 124.568C252.318 125.958 254.644 127.347 256.969 128.737C258.376 129.578 259.734 129.089 260.545 128.12C261.15 128.404 261.766 128.668 262.401 128.903C265.938 130.214 267.462 124.549 263.964 123.247Z" fill="#F27125"/>
<path d="M275.776 148.621C275.248 146.419 272.435 145.861 270.891 147.329C261.092 156.625 254.429 168.397 251.537 181.598C251.029 183.926 253.11 185.404 254.907 185.238C256.236 186.128 258.278 186.109 259.196 184.445C261.561 180.159 263.915 175.883 266.28 171.597C267.735 169.747 269.328 167.986 271.086 166.323C272.356 165.129 272.141 163.602 271.291 162.565C273.841 158.24 277.007 153.739 275.776 148.621Z" fill="#F27125"/>
<path d="M274.701 204.094C271.975 205.268 269.807 207.059 267.999 209.192C263.114 212.901 258.239 216.619 253.354 220.328C252.035 221.336 251.126 223.625 252.758 224.927C254.771 226.532 256.715 226.61 258.679 224.878C259.372 224.262 259.636 223.547 259.616 222.862C260.252 222.383 260.887 221.903 261.512 221.414C261.463 223.273 262.938 224.907 265.107 224.399C265.889 224.213 266.661 224.036 267.442 223.851C269.934 223.273 270.012 220.484 268.654 219.017C269.65 216.952 270.783 214.975 272.21 213.273C274.027 211.893 275.835 210.513 277.652 209.133C280.661 206.863 278.179 202.597 274.701 204.094Z" fill="#F27125"/>
<path d="M253.862 460.471C258.161 455.491 261.395 449.932 264.199 443.993C265.547 441.135 266.797 438.219 268.116 435.342C269.113 433.16 270.158 429.902 271.809 427.602C273.158 427.866 274.604 427.309 274.985 425.577L275.385 423.737C275.932 421.252 273.382 419.157 271.086 420.43C265.791 423.365 263.837 430.655 261.502 435.861C258.249 443.102 254.947 450.275 249.72 456.332C247.277 459.17 251.4 463.329 253.862 460.471Z" fill="#F27125"/>
<path d="M240.301 465.07C253.5 450.51 263.358 432.211 270.989 414.167C272.444 410.732 267.403 407.748 265.938 411.212C258.522 428.737 248.997 446.782 236.169 460.931C233.638 463.71 237.761 467.869 240.301 465.07Z" fill="#F27125"/>
<path d="M199.815 418.189C197.704 418.032 195.614 421.046 197.411 423.326C199.238 425.645 207.924 437.26 210.698 429.207C211.636 426.487 208.989 422.524 207.767 420.332C206.234 417.592 204.475 415.067 203.654 412.21C207.425 414.989 211.138 421.095 213.053 423.659C216.248 427.945 219.14 432.427 221.846 437.035C223.263 439.443 226.262 438.503 227.053 436.517C228.411 437.955 229.877 439.325 231.508 440.568C234.498 442.858 237.409 437.769 234.459 435.509C222.794 426.565 219.315 410.762 209.262 400.291C206.654 397.571 202.521 401.71 205.13 404.431C207.054 406.437 208.735 408.599 210.288 410.85C207.611 407.767 204.534 405.125 200.313 404.92C198.623 404.841 197.548 406.339 197.392 407.846C197.05 411.192 197.822 414.138 199.258 417.152C199.424 417.494 199.619 417.836 199.815 418.189Z" fill="#F27125"/>
<path d="M150.75 450.353C154.531 447.926 157.96 445.02 160.882 441.664C159.064 444.423 156.856 446.938 154.218 449.179C151.336 451.615 155.498 455.735 158.351 453.318C165.512 447.271 170.222 438.982 171.746 429.725C172.078 427.719 170.564 426.349 169.01 426.095C169.157 423.727 168.307 421.672 165.356 420.86C161.722 419.852 160.168 425.508 163.803 426.506C163.51 426.428 157.921 436.145 157.12 437.123C154.463 440.362 151.307 443.043 147.79 445.294C144.644 447.32 147.565 452.388 150.75 450.353Z" fill="#F27125"/>
<path d="M255.064 380.955C255.073 381.572 255.054 382.188 254.985 382.795C254.985 382.814 254.976 382.844 254.976 382.863C254.946 383.128 254.917 383.382 254.868 383.646C254.497 386.914 259.968 387.648 260.613 384.429C262.674 374.125 264.365 363.762 265.732 353.351C266.221 349.622 260.369 349.661 259.88 353.351C259.382 357.167 258.825 360.973 258.219 364.77C258.542 358.781 258.18 352.763 257.106 346.726C256.441 343.017 250.804 344.593 251.468 348.282C253.246 358.224 252.846 368.087 250.384 377.873C249.632 380.828 253.198 382.413 255.064 380.955Z" fill="#F27125"/>
<path d="M182.805 369.819C184.124 373.313 189.781 371.796 188.442 368.264C188.188 367.579 187.993 366.952 187.876 366.336C194.099 370.827 198.466 377.755 205.647 381.063C208.109 382.198 211.333 379.752 209.643 377.061C209.311 376.532 208.959 376.004 208.608 375.495C210.415 375.104 211.871 373.244 210.503 371.336C204.465 362.842 197.91 354.358 187.524 351.266C184.964 350.503 183.098 353.38 184.222 355.572C184.779 356.648 185.394 357.666 186.049 358.644C184.525 358.273 182.874 358.889 182.414 360.621C181.555 363.85 181.613 366.678 182.805 369.819Z" fill="#F27125"/>
<path d="M137.268 389.948C138.274 389.459 139.261 388.95 140.247 388.421C140.169 389.009 140.15 389.596 140.179 390.163C139.837 391.386 140.365 392.747 141.332 393.49C142.348 394.723 144.048 395.349 146.617 394.753C151.424 393.637 155.772 389.478 156.446 384.595C161.126 380.534 165.425 376.062 169.284 371.131C171.58 368.195 167.476 364.026 165.151 366.991C164.096 368.342 162.992 369.653 161.868 370.935C162.464 368.616 160.071 365.807 157.687 367.53C154.619 369.761 151.737 372.217 149.099 374.908C146.989 374.761 144.781 375.426 142.983 377.021C141.84 378.039 141.85 379.321 142.446 380.319C139.847 381.992 137.141 383.529 134.307 384.889C130.927 386.523 133.887 391.572 137.268 389.948Z" fill="#F27125"/>
<path d="M99.7608 414.137C96.6637 414.979 95.7649 418.707 95.716 421.535C95.6574 425.029 97.0838 428.199 99.4188 430.724C100.757 432.172 102.516 431.722 103.532 430.577C103.933 431.986 104.323 433.385 104.734 434.785C105.506 437.417 109.775 437.73 110.371 434.785C110.42 434.52 110.469 434.266 110.508 434.012C112.003 434.07 113.546 433.053 113.605 431.164C113.673 428.767 113.214 427.044 112.1 424.941C111.983 424.715 111.836 424.52 111.69 424.344C109.482 416.956 107.274 409.568 105.066 402.18C103.991 398.579 98.3441 400.115 99.4286 403.736C100.484 407.268 101.539 410.81 102.604 414.343C101.773 413.971 100.826 413.854 99.7608 414.137Z" fill="#F27125"/>
<path d="M60.7299 430.567C63.1822 434.922 64.8724 439.325 66.0154 444.169C66.758 447.32 70.959 446.615 71.6332 444.042C73.3038 447.731 75.2773 451.283 77.925 454.531C80.2991 457.457 84.4122 453.289 82.0577 450.392C74.3199 440.871 72.6492 428.033 67.0315 417.347C65.8591 415.116 62.2833 415.654 61.6874 418.052C60.9155 421.154 60.9253 424.109 61.3552 427.005C60.4075 427.817 59.9385 429.158 60.7299 430.567Z" fill="#F27125"/>
<path d="M59.8115 376.953C60.2707 378.636 61.8339 379.223 63.4069 378.998C64.0126 378.91 64.6281 378.822 65.2338 378.734C65.2241 378.744 65.2241 378.744 65.2143 378.753C63.4264 380.417 64.5304 382.726 66.2792 383.46C64.6769 384.243 64.6672 386.318 65.6735 387.668C65.1948 387.815 64.716 387.961 64.2275 388.108C60.6224 389.155 62.1563 394.801 65.781 393.754C69.2786 392.747 72.7078 391.533 76.0492 390.104C78.3549 389.116 81.1686 388.128 83.1226 386.357C85.145 386.004 87.1771 385.652 89.1995 385.31C92.9023 384.674 91.3293 379.027 87.6461 379.663C86.8059 379.81 85.9656 379.957 85.1352 380.094C84.9105 379.301 84.5392 378.538 83.9921 377.853C81.9307 375.26 78.687 374.869 75.59 374.81C75.2969 374.8 75.0429 374.839 74.7986 374.898C74.8181 373.107 73.0693 371.757 71.1056 372.041C68.0183 372.481 64.931 372.921 61.8437 373.362C60.2902 373.567 59.4305 375.563 59.8115 376.953ZM78.3451 380.867C78.4233 380.994 78.4819 381.112 78.5307 381.219C75.502 381.738 72.4831 382.266 69.4544 382.785C70.7636 381.552 71.9262 380.172 72.9423 378.695C73.2843 379.742 74.1733 380.603 75.5997 380.632C76.5279 380.622 77.4365 380.701 78.3451 380.867Z" fill="#F27125"/>
<path d="M114.885 336.285C115.012 336.255 115.139 336.226 115.266 336.197C114.103 337.498 112.96 338.819 111.876 340.209C110.097 342.489 111.69 345.718 114.719 345.101C118.392 344.358 121.948 343.33 125.417 341.892C128.65 340.551 132.265 337.645 135.812 337.704C139.573 337.762 139.573 331.911 135.812 331.842C132.011 331.783 129.198 333.701 125.876 335.306C124.948 335.756 124 336.167 123.043 336.549C124.264 335.365 125.505 334.21 126.814 333.105C129.188 331.099 126.599 327.605 123.971 328.212L113.331 330.639C109.658 331.47 111.211 337.126 114.885 336.285Z" fill="#F27125"/>
<path d="M226.535 295.216C229.056 301.86 231.567 308.504 234.088 315.149C235.074 317.761 238.044 317.693 239.256 315.971C240.663 317.487 243.701 316.812 244.19 314.679C244.903 311.518 244.922 308.377 244.727 305.246C246.173 309.581 247.531 313.945 248.742 318.358C249.739 321.989 255.386 320.442 254.38 316.802C251.605 306.714 248.225 296.86 244.229 287.192C243.281 284.892 239.1 283.963 238.592 287.192C237.996 290.979 238.279 294.775 238.631 298.562C237.644 295.069 236.862 291.507 236.296 287.857C235.836 284.892 231.362 285.254 230.658 287.857C230.551 288.249 230.482 288.64 230.414 289.031C230.092 288.18 229.769 287.338 229.447 286.487C228.499 283.982 225.666 283.747 224.103 285.792C222.393 288.023 221.758 290.186 221.758 292.994C221.768 295.715 224.845 296.458 226.535 295.216Z" fill="#F27125"/>
<path d="M174.325 304.942C174.55 304.257 174.726 303.582 174.921 302.897C175.058 304.874 175.195 306.85 175.331 308.827C175.585 312.565 181.437 312.594 181.183 308.827C180.236 295.147 179.288 281.457 178.35 267.777C178.096 264.039 172.244 264.01 172.498 267.777C172.625 269.588 172.752 271.398 172.869 273.218C171.501 273.639 170.319 274.93 170.642 276.731C172.254 285.792 171.531 294.648 168.678 303.386C167.515 306.978 173.162 308.514 174.325 304.942Z" fill="#F27125"/>
<path d="M89.3949 305.226C96.9959 305.011 104.519 303.983 111.836 302.066C111.622 304.013 113.038 306.078 115.305 305.158C125.172 301.146 134.815 296.684 144.243 291.732C147.575 289.981 144.624 284.922 141.293 286.673C138.215 288.288 135.118 289.834 131.992 291.351C131.992 291.341 132.002 291.331 132.002 291.321C132.138 291.223 132.275 291.116 132.402 290.988C134.219 289.159 136.027 287.319 137.844 285.489C140.57 282.73 136.593 279.089 133.711 281.35C132.734 282.113 131.728 282.808 130.702 283.473C129.041 282.837 126.804 283.845 126.609 285.792C121.772 288.17 116.516 289.57 111.026 289.922C107.284 290.157 107.264 296.018 111.026 295.783C111.827 295.734 112.618 295.666 113.409 295.578C111.944 296.018 110.478 296.429 108.993 296.801C102.555 298.406 96.0189 299.198 89.3852 299.384C85.6433 299.482 85.6237 305.334 89.3949 305.226Z" fill="#F27125"/>
<path d="M44.2382 328.378C51.9565 334.71 58.9713 341.755 65.2631 349.515C67.6372 352.441 71.7504 348.272 69.3958 345.376C67.3246 342.831 65.1752 340.375 62.9574 337.978C63.104 338.134 63.2407 338.281 63.3873 338.438C63.7488 338.819 64.1493 339.054 64.5499 339.191C67.5591 341.657 70.4607 344.27 73.3722 346.755C76.225 349.182 80.3772 345.063 77.5049 342.616C74.017 339.651 70.5682 336.569 66.9729 333.711C62.0586 328.359 56.0305 319.591 48.0387 320.159C45.9577 320.305 45.0296 322.194 45.2641 323.789C43.4664 324.513 42.3331 326.813 44.2382 328.378Z" fill="#F27125"/>
<path d="M257.692 259.939C258.112 260.927 258.952 261.329 259.851 261.348C260.769 263.217 263.241 263.609 264.638 262.072C264.873 265.106 269.758 266.016 270.363 262.698C271.692 255.428 273.021 248.157 274.35 240.897C274.916 237.804 271.047 236.209 269.386 237.961C268.234 237.893 267.1 238.45 266.68 239.83C266.162 238.949 265.097 238.548 264.052 238.597C263.192 236.689 260.193 235.789 258.835 238.157C254.898 245.036 254.634 252.688 257.692 259.939Z" fill="#F27125"/>
<path d="M218.29 263.824C219.55 266.251 222.54 265.361 223.429 263.413C224.103 264.225 224.904 264.92 225.93 265.331C230.072 266.965 234.928 261.397 231.03 258.149C229.672 257.014 228.04 257.346 226.985 258.256C226.506 257.434 226.027 256.612 225.549 255.79C224.435 253.882 223.331 251.964 222.217 250.056C221.035 248.021 218.407 248.314 217.166 250.056C214.128 254.332 216.121 259.636 218.29 263.824Z" fill="#F27125"/>
<path d="M196.639 318.338C198.408 323.172 200.01 328.055 201.456 332.987C202.316 335.913 206.663 335.629 207.152 332.801C207.298 332.879 207.455 332.948 207.621 333.007C207.767 333.74 207.728 334.533 207.455 335.345C206.253 338.927 211.9 340.463 213.092 336.901C214.323 333.241 213.141 329.014 210.376 326.401C209.262 323.29 207.992 320.256 206.575 317.272C205.716 315.461 203.508 315.51 202.189 316.587C200.753 313.348 195.369 314.864 196.639 318.338Z" fill="#F27125"/>
<path d="M164.995 231.258C165.854 230.935 166.685 230.564 167.496 230.182C166.402 232.071 165.317 233.979 164.252 235.897C162.757 238.597 165.679 241.112 168.248 239.899C172.635 237.844 174.95 232.863 177.529 228.988C180.578 224.418 183.626 219.839 186.684 215.269C187.954 214.398 188.423 213.498 188.423 211.785C188.413 208.82 184.701 207.999 183.079 210.181C181.867 209.652 180.314 209.819 179.356 211.237C178.692 212.226 178.047 213.224 177.393 214.222C175.067 217.49 172.322 220.377 169.059 222.618C169.362 221.639 169.665 220.651 169.958 219.672C171.062 216.062 165.425 214.516 164.321 218.117C163.344 221.297 162.376 224.467 161.399 227.648C160.794 229.654 162.894 232.061 164.995 231.258Z" fill="#F27125"/>
<path d="M107.069 257.737C110.928 256.602 114.318 256.583 118.167 257.659C120.268 258.246 122.251 256.201 121.821 254.215C126.198 253.295 130.477 253.696 134.815 255.702C138.205 257.268 141.185 252.228 137.766 250.643C130.888 247.463 123.824 246.954 116.673 249.586C115.901 249.87 115.256 250.437 114.875 251.122C111.758 250.848 108.671 251.162 105.515 252.091C101.91 253.148 103.444 258.804 107.069 257.737Z" fill="#F27125"/>
<path d="M59.4012 275.801C59.665 277.641 59.9581 279.481 60.2902 281.32C60.8374 284.334 65.1166 283.865 65.9275 281.32C66.9143 278.218 67.4125 275.068 67.6959 271.887C67.901 274.979 68.0183 278.091 68.0183 281.223C68.0183 284.99 73.8705 285 73.8705 281.223C73.8607 269.999 72.5808 258.931 70.07 248.001C69.4056 245.105 65.2143 245.32 64.4327 248.001C63.8758 249.909 63.4948 251.837 63.231 253.784C61.8144 251.886 58.0529 252.473 57.9162 255.526L57.1443 273.042C57.0662 274.666 58.1409 275.596 59.4012 275.801Z" fill="#F27125"/>
<path d="M270.246 328.682C270.236 329.015 270.246 329.347 270.236 329.69C270.217 330.561 270.49 331.216 270.93 331.686L270.754 333.995C270.471 337.753 276.313 337.733 276.606 333.995L278.99 302.623C279.264 299.081 274.271 298.944 273.285 301.948C271.848 301.743 270.236 302.428 269.982 304.013C268.829 311.039 267.677 318.055 266.534 325.081C266.133 327.488 268.448 328.995 270.246 328.682Z" fill="#F27125"/>
<path d="M12.0268 448.279C13.2676 447.77 14.4693 447.222 15.6514 446.645C15.2216 447.31 14.7819 447.975 14.352 448.641C12.5348 451.449 16.6382 454.551 18.9439 452.193C24.3565 446.654 30.1109 441.488 36.2465 436.761C38.5912 434.961 37.2235 431.379 35.0643 431.145C35.9827 430 36.8717 428.806 37.712 427.573C39.6269 424.774 35.4356 421.741 33.1201 424.021C30.0719 427.035 27.307 430.283 24.7082 433.659C20.5266 437.417 15.7491 440.47 10.4734 442.633C7.03436 444.032 8.53893 449.707 12.0268 448.279Z" fill="#F27125"/>
<path d="M7.60097 373.557C7.84522 375.72 8.25556 377.697 8.8906 379.644C8.06993 380.456 7.75729 381.67 8.62682 382.922C10.6199 385.779 12.2515 388.754 13.5704 391.876C13.5704 391.915 13.5704 391.944 13.5704 391.974C13.8244 395.007 14.6549 397.718 16.3744 400.242C18.2209 402.943 22.5099 401.319 21.7185 397.982C20.9662 394.792 19.9209 391.7 18.6117 388.735C19.3933 390.036 20.1553 391.367 20.8588 392.737C21.0737 393.158 21.3668 393.461 21.699 393.686C23.1156 396.494 24.5323 399.303 25.9489 402.111C27.4242 405.037 32.4459 402.992 31.2931 399.851C30.7166 398.285 30.1011 396.749 29.4465 395.242C31.1758 394.753 32.4655 392.991 31.0977 391.191C28.45 387.688 25.5777 384.488 22.3731 381.523C21.0737 378.822 19.6571 376.17 18.0939 373.577C17.0192 371.786 15.0945 371.855 13.8537 372.833C13.4336 372.383 13.0135 371.933 12.5836 371.493C10.9521 369.819 7.30787 370.945 7.60097 373.557Z" fill="#F27125"/>
<path d="M15.0457 338.066C18.6508 339.406 21.4938 342.038 23.3306 345.395C25.138 348.702 30.1891 345.747 28.3816 342.44C28.323 342.332 28.2546 342.244 28.196 342.136C30.3356 341.549 31.508 338.232 29.0167 336.745C26.6914 335.355 24.3662 333.965 22.041 332.576C20.6341 331.734 19.2761 332.224 18.4652 333.192C17.8594 332.909 17.2439 332.644 16.6089 332.41C13.0624 331.098 11.5383 336.764 15.0457 338.066Z" fill="#F27125"/>
<path d="M3.22409 312.692C3.75167 314.894 6.56541 315.452 8.10906 313.984C17.9083 304.688 24.5714 292.916 27.4633 279.715C27.9713 277.387 25.8903 275.909 24.0927 276.075C22.764 275.185 20.722 275.204 19.8037 276.868C17.4393 281.154 15.0848 285.43 12.7205 289.716C11.2647 291.566 9.67225 293.327 7.91366 294.99C6.64357 296.184 6.85851 297.711 7.70849 298.748C5.16831 303.073 1.99308 307.574 3.22409 312.692Z" fill="#F27125"/>
<path d="M4.29878 257.219C7.02459 256.045 9.19352 254.254 11.001 252.121C15.8859 248.412 20.7611 244.694 25.6461 240.985C26.965 239.977 27.8736 237.687 26.2421 236.386C24.2294 234.781 22.2852 234.703 20.3215 236.435C19.6278 237.051 19.364 237.766 19.3836 238.45C18.7485 238.93 18.1135 239.409 17.4882 239.899C17.537 238.039 16.0618 236.405 13.8929 236.914C13.1113 237.1 12.3394 237.276 11.5578 237.462C9.06651 238.039 8.98835 240.828 10.3464 242.296C9.34984 244.361 8.21652 246.338 6.79011 248.04C4.97291 249.42 3.16547 250.8 1.34826 252.179C-1.66088 254.45 0.820684 258.716 4.29878 257.219Z" fill="#F27125"/>
</g>
<defs>
<clipPath id="clip0">
<rect width="466" height="279" fill="white" transform="translate(0 466) rotate(-90)"/>
</clipPath>
</defs>
</svg>
